<svg width="952" height="433" viewBox="0 0 952 433" fill="none" xmlns="http://www.w3.org/2000/svg">
<path d="M889.509 148.181L891.925 146.21L892.813 148.698L889.509 148.181ZM883.731 148.013L880.466 149.321L875.39 148.537L873.462 149.997L868.561 149.241L866.627 150.708L863.469 150.219L861.637 151.514L856.713 150.752L856.5 149.428L859.843 148.007L862.832 148.47L866.721 147.375L868.785 145.861L870.337 146.102L872.29 144.642L875.474 145.134L877.468 143.674L880.648 144.166L882.025 143.042L885.59 143.363L886.358 145.959L883.731 148.013ZM871.599 161.178L868.879 160.721L868.962 160.159L869.567 159.725L871.159 159.972L871.689 160.613L871.599 161.178ZM881.975 74.0476L882.77 74.1555L884.092 74.9458L882.597 75.8441L881.81 75.7012L881.282 75.0474L881.975 74.0476ZM892.083 74.0381L892.571 74.6729L892.29 75.1775L891.672 75.5076L890.216 75.295L892.083 74.0381ZM853.212 152.025L849.982 151.526L849.467 150.844L850.176 149.838L853.408 150.336L853.924 151.015L853.212 152.025ZM846.569 152.675L844.969 152.456L843.099 153.897L836.623 152.853L836.014 151.701L836.619 151.187L839.872 151.688L841.725 150.25L846.557 151.041L847.168 152.193L846.569 152.675ZM846.431 180.171L854.533 181.463L855.188 182.606L854.579 183.132L851.33 182.631L849.454 184.072L846.196 183.596L845.586 184.066L846.15 185.23L851.852 186.16L853.135 184.688L858.589 185.481L861.311 184.351L861.799 184.983L861.52 185.487L860.905 185.821L858.589 185.481L857.308 186.96L851.852 186.16L851.184 187.474L847.669 187.36L845.952 188.477L840.083 186.982L841.879 185.354V183.716L840.527 181.698L844.562 181.603L846.431 180.171ZM866.187 196.958L866.861 195.641L870.886 195.958L872.426 195.888L873.675 194.863L877.437 195.003L878.887 193.825L883.731 194.571L885.701 193.124L888.883 193.613L890.798 192.172L892.957 193.121L892.3 194.013L888.194 194.057L889.504 195.939L887.23 196.485L885.584 194.527L883.738 195.927L882.123 195.777L880.112 197.19L877.187 196.736L874.902 197.917L874.286 198.193L866.187 196.958L865.503 198.285L864.973 198.263L860.018 197.691L858.294 199.097L857.072 198.91L855.39 200.129L853.464 199.815L852.928 199.154L853.698 198.18L854.522 198.285L856.223 196.05L855.76 195.45L858.457 195.866L860.477 194.447L862.09 196.326L866.187 196.958ZM880.347 285.568L882.763 283.597L883.652 286.085L880.347 285.568ZM873.435 213.231L872.647 213.088L872.121 212.434L872.813 211.434L873.608 211.542L874.929 212.329L873.435 213.231ZM874.57 285.4L871.305 286.707L866.229 285.923L864.301 287.383L859.4 286.628L857.466 288.094L854.307 287.605L852.476 288.9L847.552 288.139L847.339 286.815L850.681 285.393L853.669 285.857L857.56 284.758L859.621 283.248L861.176 283.489L863.129 282.029L866.312 282.521L868.305 281.061L871.487 281.553L872.864 280.429L876.429 280.75L877.195 283.346L874.57 285.4ZM862.438 298.565L859.715 298.105L859.799 297.546L860.406 297.111L861.998 297.359L862.528 298L862.438 298.565ZM844.051 289.411L840.821 288.913L840.306 288.231L841.015 287.225L844.247 287.723L844.76 288.402L844.051 289.411ZM837.408 290.062L835.808 289.843L833.938 291.284L827.46 290.24L826.853 289.088L827.456 288.574L830.711 289.075L832.563 287.637L837.395 288.428L838.007 289.58L837.408 290.062ZM837.268 317.558L845.372 318.846L846.027 319.992L845.417 320.519L842.169 320.018L840.291 321.459L837.034 320.983L836.425 321.452L836.989 322.617L842.69 323.547L843.974 322.074L849.427 322.868L852.15 321.735L852.638 322.37L852.359 322.874L851.743 323.207L849.427 322.868L848.146 324.347L842.69 323.547L842.023 324.858L838.507 324.747L836.79 325.864L830.921 324.366L832.718 322.741V321.103L831.366 319.085L835.401 318.989L837.268 317.558ZM815.599 52.6299L812.246 52.0554L814.061 50.6367L815.234 50.313L815.664 51.8142L815.599 52.6299ZM779.724 393.437L779.127 393.932L778.539 394.294L778.892 390.974L780.957 391.898L779.724 393.437ZM684.265 405.527L680.92 405.009L679.307 403.095L669.332 401.556L669.097 401.226C669.585 400.27 670.052 399.296 670.503 398.306L671.206 398.404L673.136 397.049L675.94 398.817L677.463 399.356L682.385 400.191L684.657 402.143L688.416 403.711L684.265 405.527ZM563.22 414.325L559.901 413.814L558.599 412.262C560.318 412.88 562.06 413.284 563.819 413.525L563.881 413.769L563.22 414.325ZM546.602 411.709L545.008 409.938L524.557 406.783L524.676 405.019L518.916 404.13L517.289 402.188L512.392 401.432L510.36 402.921L502.208 401.689L501.589 402.172L501.328 403.854L502.06 404.876L500.433 404.625L498.47 406.082L480.345 403.286L478.557 404.622L478.073 404.003L480.648 403.187L480.838 401.994L475.351 401.124L475.033 402.521L475.123 402.584L474.714 402.533L474.693 402.473L475.027 402.521L473.901 402.356L473.817 402.429L470.821 402.073L470.665 401.842L465.899 401.096L464.844 399.223L460.723 398.588L458.545 394.513L460.454 393.383L462.953 395.471L465 396.871L464.844 399.223L466.294 398.839L467.806 396.221L471.664 396.062L470.27 394.081L466.953 391.764L465.676 390.774L463.066 388.692L458.105 387.924L456.271 389.311L454.009 389.603L456.849 393.7L456.598 397.043L456.029 397.579L450.481 396.687L449.313 395.195L445.962 394.678L444.13 395.986L439.227 395.227L437.612 393.272C438.91 392.72 440.208 392.164 441.506 391.612C442.275 391.282 442.906 390.704 443.423 389.987L445.336 388.425L444.869 387.873C449.044 385.908 453.218 383.944 457.393 381.982L458.687 382.55L459.991 381.487L466.475 382.262L467.483 381.573L468.309 382.522L469.836 382.76L470.769 383.855L469.192 385.242L470.18 386.267L474.028 386.899L474.286 386.394L474.846 387.042L474.028 386.899L473.915 389.279L474.771 390.317L477.143 388.375L476.335 387.302L475.857 387.219L477.969 387.543L479.721 389.463L483.026 389.977V389.981L484.618 390.228H484.62L487.293 390.644L487.856 390.898L489.588 392.697L494.339 391.812L497.685 392.329L499.304 394.157L507.439 395.414L509.137 397.436L511.743 397.176L511.664 397.074L512.137 397.138L513.13 397.017L512.315 397.896L512.11 397.639L511.933 401.035L512.673 401.404L513.498 401.543L523.898 403.149L524.729 404.127L524.681 404.99L526.049 404.685L526.179 403.502L545.745 406.52L546.569 406.66L547.247 407.075L548.496 408.662L552.767 409.323C554.284 410.325 555.828 411.103 557.386 411.754L548.421 410.37L546.602 411.709ZM511.278 420L509.229 419.676L508.714 419.016L509.642 418.149L512.911 418.651L511.278 420ZM412.313 409.17L409.745 411.265L408.105 409.351L405.503 409.618L405.582 409.719L405.111 409.659L404.118 409.773L404.932 408.897L405.124 409.138L405.163 407.456L404.629 407.355C406.029 406.758 407.429 406.158 408.827 405.561L409.613 406.152L411.253 406.444L412.426 407.494L412.313 409.17ZM138.156 382.325L136.984 382.649L136.554 381.148L136.619 380.335L139.972 380.906L138.156 382.325ZM101.434 379.224L99.1685 378.85L97.2261 380.17L96.3916 379.11C98.4487 378.672 100.508 378.234 102.565 377.796L102.924 378.923L101.434 379.224ZM81.8809 286.863L79.9281 288.32L76.7421 287.831L74.7497 289.288L71.57 288.796L70.191 289.919L66.6275 289.599L65.8618 287.002L68.4865 284.949L71.7516 283.641L76.8277 284.425L78.7555 282.965L83.6564 283.721L85.5905 282.254L88.7492 282.743L90.581 281.448L95.5049 282.21L95.7177 283.533L92.3754 284.955L89.3855 284.495L85.4966 285.59L83.4332 287.101L81.8809 286.863ZM70.2431 358.914L69.4483 358.806L68.1254 358.019L69.6214 357.121L70.4079 357.261L70.9359 357.914L70.2431 358.914ZM60.1348 358.924L59.6465 358.289L59.9282 357.784L60.5457 357.454L62.002 357.667L60.1348 358.924ZM62.7092 284.781L60.2933 286.752L59.4044 284.263L62.7092 284.781ZM80.6187 271.783L83.3392 272.244L83.2558 272.805L82.6508 273.237L81.0589 272.99L80.5289 272.348L80.6187 271.783ZM99.0058 280.937L102.235 281.435L102.751 282.118L102.041 283.124L98.8097 282.626L98.2943 281.946L99.0058 280.937ZM105.649 280.286L107.249 280.505L109.118 279.064L115.594 280.112L116.204 281.261L115.599 281.775L112.346 281.273L110.493 282.711L105.661 281.921L105.05 280.769L105.649 280.286ZM105.786 252.791L97.6851 251.502L97.0299 250.356L97.6392 249.829L100.888 250.331L102.763 248.89L106.022 249.366L106.629 248.896L106.068 247.731L100.364 246.801L99.0829 248.274L93.6271 247.481L90.9065 248.614L90.4162 247.979L90.6979 247.474L91.3133 247.141L93.6271 247.481L94.9102 246.002L100.364 246.801L101.034 245.491L104.549 245.602L106.264 244.484L112.135 245.983L110.339 247.608V249.249L111.691 251.264L107.656 251.362L105.786 252.791ZM86.0307 236.004L85.3568 237.321L81.3322 237.004L79.7925 237.073L78.5427 238.099L74.7809 237.959L73.3309 239.136L68.4865 238.391L66.5169 239.838L63.3352 239.349L61.4199 240.79L59.2606 239.841L59.9178 238.949L64.0236 238.905L62.7134 237.023L64.9876 236.48L66.6338 238.435L68.4802 237.038L70.095 237.188L72.1042 235.775L75.0313 236.226L77.3159 235.045L77.9314 234.769L86.0307 236.004L86.715 234.68L87.2449 234.699L92.2 235.271L93.9234 233.865L95.1461 234.052L96.8276 232.833L98.7533 233.147L99.2895 233.807L98.5196 234.782L97.6956 234.68L95.9952 236.915L96.4583 237.511L93.7607 237.096L91.7411 238.514L90.1283 236.635L86.0307 236.004ZM71.8706 147.394L69.4545 149.365L68.5657 146.877L71.8706 147.394ZM78.7827 219.734L79.5713 219.874L80.0971 220.528L79.4043 221.527L78.6095 221.423L77.2888 220.632L78.7827 219.734ZM77.6477 147.562L80.9128 146.254L85.9889 147.038L87.9167 145.578L92.8176 146.334L94.7517 144.867L97.9104 145.356L99.7422 144.061L104.666 144.823L104.879 146.147L101.537 147.569L98.5489 147.108L94.6578 148.203L92.5964 149.714L91.0421 149.476L89.0893 150.936L85.9055 150.444L83.911 151.901L80.7312 151.409L79.3543 152.536L75.7887 152.212L75.023 149.616L77.6477 147.562ZM89.7799 134.397L92.5026 134.857L92.4192 135.419L91.812 135.854L90.2201 135.603L89.6901 134.962L89.7799 134.397ZM108.167 143.55L111.397 144.049L111.912 144.731L111.203 145.737L107.971 145.239L107.458 144.56L108.167 143.55ZM114.81 142.9L116.41 143.119L118.28 141.678L124.756 142.725L125.365 143.874L124.762 144.388L121.507 143.887L119.654 145.325L114.823 144.537L114.211 143.382L114.81 142.9ZM114.95 115.404L106.846 114.115L106.191 112.969L106.8 112.443L110.049 112.944L111.925 111.503L115.183 111.979L115.793 111.51L115.229 110.345L109.527 109.415L108.244 110.887L102.79 110.094L100.068 111.227L99.5796 110.592L99.8591 110.088L100.475 109.754L102.79 110.094L104.071 108.615L109.527 109.415L110.195 108.104L113.71 108.215L115.427 107.101L121.297 108.596L119.5 110.221L119.521 111.862L120.873 113.877L116.838 113.976L114.95 115.404ZM157.979 80.2748L157.374 80.7097L155.78 80.4653L155.25 79.8242L155.34 79.2592L158.062 79.7131L157.979 80.2748ZM143.374 75.8631L143.089 76.3677L142.473 76.6978L140.17 76.3614L141.447 75.8313C142.056 75.7996 142.667 75.7615 143.276 75.7361L143.374 75.8631ZM137.572 79.3163L134.382 78.8212L132.404 80.2367L130.794 80.0717L128.922 81.4937L122.367 80.4812L120.447 81.9348L118.887 81.6936L117.962 82.9505L116.003 84.6581L113.7 84.3026L114.689 81.8935L114.795 80.278L116.936 79.5829L119.229 78.3927L122.137 78.8402L124.217 77.3993L128.974 78.1357L130.963 76.6915L132.496 76.9295L133.345 76.2821C134.86 76.1837 136.375 76.0948 137.889 76.0123L140.161 76.3614L137.572 79.3163ZM92.2773 81.0302C93.8567 80.7636 95.4339 80.5256 97.0133 80.2812L95.3671 81.5063L92.2773 81.0302ZM172.494 39.5247L173.09 39.0328L173.679 38.6678L173.326 41.9877L171.261 41.0641L172.494 39.5247ZM190.215 28.2605L191.05 27.5781C196.013 27.7463 200.975 27.9177 205.938 28.0859L206.606 29.2031C206.545 29.2444 206.487 29.2857 206.426 29.3269L204.392 29.6062L202.458 31.0472L200.927 30.8123L199.095 32.1422L194.265 31.3963L192.252 29.511L190.215 28.2605ZM187.599 28.6953L186.038 28.4541L185.064 27.3718C186.224 27.4131 187.382 27.4511 188.542 27.4924L188.521 27.5971L187.599 28.6953ZM253.288 21.6936L255.201 20.3383L258.064 22.2681L261.861 23.3092L262.351 24.8104L264.651 25.2104L265.398 26.2704L264.15 26.7941L262.773 26.2387L262.351 24.8104L261.536 24.7089L258.953 26.7783L260.346 28.7747L259.896 29.0063C259.239 28.6255 258.471 28.4382 257.576 28.5334C253.989 28.908 250.403 29.2857 246.816 29.6634C247.494 29.2032 248.173 28.7461 248.853 28.2891C249.81 27.6416 250.47 26.7211 250.881 25.6547V25.9244L253.605 26.3022L253.603 25.7309L250.964 25.3563C251.371 24.1439 251.475 22.7728 251.34 21.3921L253.288 21.6936ZM271.298 27.9526L272.91 29.8665L282.885 31.4059L284.867 34.2053L284.079 34.9828L281.012 34.5576L279.082 35.9128L276.278 34.1481L274.755 33.6086L269.833 32.7707L267.561 30.8218L263.801 29.2507L267.953 27.4353L271.298 27.9526ZM286.27 30.2442L289.528 30.7203L292.777 31.2662L293.332 32.4406L292.725 32.9039L286.213 31.8788L285.658 30.7108L286.27 30.2442ZM402.91 37.96L409.428 38.9439L409.953 39.6073L409.211 40.5563L405.14 39.9754L402.701 39.5724L402.173 38.9122L402.91 37.96ZM443.075 35.5256L440.469 35.7859L440.548 35.8875L440.074 35.8239L439.081 35.9446L439.897 35.0654L440.101 35.3224L440.279 31.9264L439.538 31.5582L438.714 31.4185L428.313 29.8125L427.483 28.835L427.531 27.9716L426.162 28.2764L426.033 29.4634L406.467 26.4418L405.643 26.3022L404.965 25.8864L403.715 24.2994L389.075 22.0396L388.335 19.1926L388.998 18.6371L392.317 19.1481L393.93 21.0715L403.79 22.5919L405.616 21.2524L407.21 23.0235L427.66 26.1784L427.542 27.9431L433.302 28.8318L434.929 30.7742L439.826 31.5296L441.858 30.0411L450.01 31.2726L450.629 30.7901L450.888 29.1079L450.158 28.0859L451.785 28.3367L453.748 26.8798L471.873 29.6761L473.659 28.343L474.145 28.9587L471.57 29.7745L471.38 30.9678L476.867 31.8375L477.185 30.441L477.095 30.3775L477.504 30.4283L477.525 30.4886L477.191 30.441L478.317 30.606L478.401 30.533L481.397 30.8885L481.553 31.1202L486.319 31.8661L487.374 33.7387L491.495 34.3735L493.673 38.4488L491.764 39.5787L489.265 37.4903L487.218 36.0938L487.374 33.7387L485.924 34.1227L484.412 36.7412L480.554 36.9031L481.948 38.8836L484.478 40.6483C477.543 40.88 470.608 41.1149 463.673 41.3498L462.63 40.2643L457.879 41.1498L454.531 40.6324L452.914 38.8043L444.779 37.5474L443.075 35.5256ZM440.94 12.9621L442.989 13.2859L443.504 13.9461L442.576 14.8126L439.306 14.3111L440.94 12.9621ZM495.611 35.9192L496.183 35.3828L501.73 36.2746L502.899 37.7664L506.25 38.2838L508.081 36.9792L512.984 37.7347L514.551 39.6327L496.051 40.2579L495.363 39.2614L495.611 35.9192ZM539.905 23.7916L542.473 21.6968L544.113 23.6107L545.747 23.4424C545.19 23.5218 544.635 23.598 544.077 23.6741C542.571 23.8836 541.43 24.858 540.616 26.2069L539.792 25.4674L539.905 23.7916ZM509.817 392.428L541.349 397.271C542.21 398.572 543.084 399.791 543.971 400.918L544.052 401.105L544.119 401.115C544.672 401.813 545.229 402.46 545.79 403.092L544.153 402.838L538.369 401.927L532.047 400.702L530.798 399.118L524.284 398.112L522.555 396.084L520.965 395.84L519.141 397.189L517.468 395.287L509.93 394.129L508.707 393.142L509.817 392.428ZM293.641 385.861L294.285 386.619L295.875 386.864L297.703 385.562L299.41 387.429L304.811 388.27C297.711 388.133 290.613 387.997 283.516 387.86C286.891 387.194 290.265 386.527 293.641 385.861ZM702.766 57.7907L702.111 58.2034L699.236 59.1904L696.47 58.2732L696.355 58.1303C697.774 57.9811 699.195 57.832 700.613 57.6828C701.331 57.7177 702.049 57.7527 702.766 57.7907ZM525.135 60.1331L524.328 59.0445L525.642 57.34L523.846 55.1944C527.107 55.0833 530.366 54.9755 533.625 54.8644C532.759 55.5119 531.897 56.1689 531.038 56.8322L529.907 57.4511L527.748 58.0414L528.895 58.5271C528.123 59.1396 527.345 59.7332 526.577 60.3616L525.135 60.1331ZM712.282 29.1714C709.71 30.3013 707.137 31.4281 704.565 32.5548C703.407 30.7108 701.684 29.6252 699.581 30.2823C683.516 35.2907 667.453 40.3024 651.388 45.3108L645.229 44.3555L644.509 44.0159L643.393 42.6035L634.67 40.7594L633.514 39.2963L632.765 39.0138L621.891 37.3316C622.218 36.4524 622.546 35.5732 622.875 34.6909C652.677 32.8532 682.479 31.0123 712.282 29.1714ZM523.324 55.2135L522.642 56.2101L521.37 57.8764L516.404 57.121L511.906 56.5529L509.517 57.705L509.171 57.8351L506.788 57.467L505.451 58.5588L504.737 58.7651L503.36 58.5525L503.483 56.8068L503.867 55.8705C510.354 55.6515 516.838 55.4325 523.324 55.2135ZM447.815 41.4101L447.249 40.204L447.846 39.6961L451.078 40.1945L451.643 41.4005L451.207 41.7687L450.343 41.8004L447.815 41.4101ZM504.969 392.758L504.372 393.266L501.14 392.767L500.575 391.564L501.174 391.053L504.403 391.552L504.969 392.758ZM794.239 352.687L794.844 352.252L796.436 352.5L796.968 353.141L796.878 353.703L794.156 353.249L794.239 352.687ZM809.129 356.597L809.745 356.264L812.048 356.6L809.332 357.733L808.843 357.099L809.129 356.597ZM814.646 353.649L817.836 354.141L819.814 352.725L821.424 352.89L823.296 351.468L829.851 352.481L831.771 351.027L833.329 351.268L834.255 350.011L836.214 348.307L838.518 348.662L837.529 351.068L837.422 352.684L835.282 353.379L832.987 354.572L830.081 354.122L828 355.562L823.244 354.829L821.255 356.27L819.722 356.035L817.815 357.489L812.054 356.6L814.646 353.649ZM818.351 373.025L820.719 373.39L822.73 371.756L823.629 370.47L825.257 372.375L828.516 372.905L829.052 373.562L828.295 374.536L826.734 374.4L824.76 375.812L819.945 375.069L818.616 376.155L817.087 376.247L814.942 375.806L814.796 374.492L818.351 373.025ZM721.523 409.592L722.309 409.741L722.856 410.935L722.255 411.411L721.464 411.313L720.119 409.976L721.523 409.592ZM951.017 141.373L946.078 140.611L944.15 142.046L939.331 141.303L937.315 142.757L932.494 142.014L929.16 144.737L927.47 142.944L922.552 142.186L918.887 145.01L917.324 144.769L916.418 146.042L914.414 147.737L911.334 149.022L908.501 148.248L908.004 146.74L902.321 145.905L901.549 146.851L902.619 148.21L901.902 149.187L897.808 148.984L897.289 149.847L896.773 149.984L896.517 148.867L897.829 148.638L897.881 147.778L895.866 146.537L894.764 145.496L896.125 144.956L898.887 143.849L902.344 142.465L913.957 144.258L916.481 141.824L913.756 138.367L915.897 136.358L919.421 135.117L922.529 135.235L923.253 135.085L923.923 133.74L923.116 133.594L921.478 131.651L919.876 131.312L918.19 129.414L916.61 129.353L914.716 130.604L910.42 129.899L909.235 128.89L910.967 127.351L911.196 125.646L913.729 123.58L916.978 124.059L917.608 123.612L917.076 122.428L898.937 119.543L898.409 118.876L899.206 117.946L907.428 119.057L908.021 118.591L907.182 117.464L902.323 116.467L901.818 115.855L905.152 114.407L905.269 112.63L907.508 112.138L912.471 118.219L920.668 119.482L922.644 118.022L925.811 118.441L927.862 117.226L930.503 118.997L931.601 118.508L931.735 116.915L930.591 115.471L931.063 114.284L937.562 115.286L939.496 113.823L941.104 114.071L942.162 110.322L941.384 108.993L936.483 108.237L935.586 109.516L935.073 110.979L933.821 111.986L932.419 112.785L928.029 113.512L924.564 114.785L922.909 114.69L916.31 113.646L915.505 112.528L916.898 112.043L917.76 112.182L919.642 110.754L926.713 111.846L929.5 108.907L931.597 108.935L934.079 107.117L934.315 103.559L934.96 103.06H936.89L942.844 98.2012L942.842 94.0783L935.738 92.4691L935.15 91.7422L936.832 90.2156L935.619 89.2158L925.719 87.6352L924.226 87.0797L923.829 86.4481L924.424 85.9371L928.346 85.9276L928.112 84.7533L924.288 83.525L923.508 80.4463L921.685 80.1638L919.652 81.6682L919.07 79.1957L920.908 77.4881L919.477 75.5044L921.638 74.9268L924.232 73.2033L923.869 71.9274L922.175 71.6671L920.109 68.8582L923.42 65.8112L923.491 64.9828L920.141 64.4655L917.539 67.6553L913.781 68.3441L912.596 66.8396L910.762 68.0774L909.166 67.9251L907.504 65.9445L905.156 66.3699L904.756 69.4549L903.746 70.5214L901.557 69.3819L903.208 67.8235L903.314 66.2048L901.856 64.164L903.241 63.5641L906.381 63.6815L907.768 62.5548L910.112 62.9166L910.933 63.0277L911.714 62.0597L911.196 61.3677L909.531 61.1106L910.491 57.1115L909.59 56.0133L905.044 55.2643L902.976 56.61L897.355 56.6703L898.668 58.5556L896.391 59.0984L894.745 57.1401L892.899 58.5398L891.284 58.3906L889.275 59.803L886.348 59.3491L884.063 60.533L881.067 61.8692L875.534 61.0377L869.179 60.3045L865.922 62.9643L862.626 62.4278L862.09 61.7676L862.859 60.7933L863.684 60.898L865.384 58.6635L863.333 56.0133L861.115 55.6642L859.855 56.6735L852.674 56.1086L851.313 57.2162L849.705 55.3278L849.294 54.0391L850.784 53.7376L853.049 54.1122L854.99 52.7918L856.185 54.3057L858.968 52.303L858.418 51.6333L851.681 50.5669L849.903 51.9062L845.006 51.1509L843.166 52.5442L833.229 51.0112L830.437 47.5358L828.958 46.9613L828.238 47.1486L823.225 51.2207L821.574 50.9636L820.865 49.5099L821.068 45.2601L820.166 43.8223L816.891 45.2378L815.009 46.4725L811.752 46.1233L810.2 47.3897L805.42 46.6534L803.34 48.1007L800.206 47.6183L798.247 49.0783L795.009 48.58L793.068 50.0495L789.901 49.5607L787.859 51.0112L783.158 50.2844L781.516 51.3699L777.746 51.1794C777.014 48.1102 775.266 45.4854 772.86 45.3648C760.36 44.7554 747.863 44.1429 735.364 43.5303C734.577 40.6547 732.81 38.4202 730.534 38.6583L727.623 38.963L756.732 26.2006C762.363 23.7313 670.036 15.898 627.472 18.526C626.875 14.1651 624.025 10.3373 620.971 12.2099C620.274 12.6384 619.577 13.0637 618.882 13.489C618.519 13.435 618.133 13.4287 617.718 13.4858C597.897 16.2281 578.079 18.9704 558.258 21.7126L557.818 20.6367L557.247 21.0874L557.547 21.8111C557.021 21.8841 556.496 21.9571 555.97 22.0301L547.712 20.7541L546.028 18.7736L542.784 18.2721L540.787 19.7321L535.949 18.9863L534.618 20.0591L532.375 19.8305L530.234 17.5168L530.479 15.5584L531.958 13.7842L531.397 13.0573L526.506 12.2797L525.951 11.6545L525.984 11.0768L527.224 10.0358L525.006 8.54086L523.26 6.64917L514.051 5.23996L510.829 7.1824L513.921 8.63287L515.498 9.9342L513.256 10.258L511.357 11.6767L509.068 12.029L508.121 17.6056L504.336 17.5612L502.206 18.999L497.389 17.8722L496.291 16.4852L490.74 15.7203L489.417 16.7994L487.752 14.9331L484.576 14.4444L482.847 12.4131L479.6 11.9116L479.943 10.296L482.225 9.76602L482.463 6.20804L478.551 1.70105L476.846 2.89761L468.699 1.64072L466.769 3.0817L464.501 3.38959L465.745 5.39865L465.724 7.56964L463.323 9.17245L461.101 8.71542L459.87 7.17291L457.587 6.82059L455.76 9.31213L456.308 10.0326L461.474 10.8293L462.824 12.7463L459.728 12.2702L457.977 10.35L445.438 8.40439L445.203 8.29645L452.859 9.47397L453.882 8.52182L453.281 6.2207L451.493 7.55057L449.895 5.63354L446.663 5.13205L444.815 6.56665L443.202 6.34451L443.166 6.37308L443.133 6.34131L439.622 5.79858L438.797 5.6748L437.464 7.28082L435.032 8.53452L433.306 6.58255L428.397 5.82397L426.563 7.20782L421.656 6.45239L420.031 4.5322L416.169 5.6843L411.508 4.65912L410.982 3.9863L410.513 1.64389L408.508 2.61832L405.455 2.14856L403.348 3.63715L395.272 2.43103L394.504 3.38004L395.036 4.04657L420.794 8.03937L419.307 8.14093L417.913 9.28354L404.869 7.31573L404.028 8.08383L404.683 8.99789L403.709 8.84875L397.969 8.12189L397.375 8.62338L397.675 9.24863L400.907 11.6164L407.452 12.8415L413.237 13.7493L419.851 14.7713L422.699 15.2093L422.739 15.2569L427.516 15.9932L427.761 17.3231L424.854 18.0848L422.728 18.6498L420.938 18.3705L419.298 16.4471L417.475 17.7834L415.171 16.5487L414.276 20.5129L411.122 20.278L378.045 15.1966L375.654 15.1014L374.969 16.4312L383.815 17.8373L384.677 18.945L384.097 19.3989L375.435 17.904L374.969 16.4312L367.579 15.2886L365.916 13.3145L358.527 12.1718L359.023 13.6795L362.192 14.4951L363.221 15.5711L362.439 16.2091L359.347 15.7679L358.443 16.6471L358.988 17.3675L362.211 17.8627L363.932 19.8908L380.398 22.43L382.011 24.328L390.227 25.5975L392.059 24.3248L396.859 25.0643L398.948 26.9148L401.702 29.1396L408.061 30.1236L413.847 31.0345L420.168 32.2596L421.418 33.8434L427.932 34.8496L429.661 36.8777L431.251 37.1221L433.075 35.7732L434.748 37.6744L442.286 38.8328L443.508 39.8199L442.398 40.5341L398.593 33.8053L397.85 33.4753L395.259 31.5613L392.317 32.1104L391.468 34.3354L386.423 33.5577L384.8 31.7296L381.639 31.244L379.935 29.2158L376.688 28.7144L375.024 26.7402L373.427 26.591L371.548 27.8637L368.082 25.6737L365.316 23.525L362.272 23.0647L361.016 24.785L361.825 26.4196L366.563 27.1941L367.233 28.3462L366.617 28.8699L363.338 28.3652L361.404 31.4693L358.13 30.9647L356.332 28.9207L348.205 27.667L345.558 25.5468L343.403 23.6932L338.253 22.4173L337.102 20.9604L325.639 19.1894L323.945 17.2025L323.451 15.9044L324.922 15.5489L327.336 15.9456L329.881 13.8667L328.871 12.7907L308.21 9.59778L306.824 10.1818L306.712 11.864L309.989 14.1778L313.789 17.2502L317.058 17.7548L318.765 19.7861L320.375 20.0654L320.907 20.7351L320.098 21.6619L317.029 21.2271L315.132 19.1132L303.728 17.3549L302.272 15.514L296.908 14.6729L290.488 13.4763L289.241 11.8957L279.032 10.0104L277.726 8.35358L274.527 7.86163L272.79 5.82397L271.216 5.58273L269.499 3.55463L264.676 2.81189L262.973 0.859955L262.057 0.720276L260.019 1.755L257.161 2.34534L257.037 4.20209L258.506 6.2493L257.835 6.77298L251.048 5.7478L249.474 3.92914L245.458 3.31021L244.636 3.20551L244.004 3.65298L243.956 4.22113L245.189 7.27127L246.902 8.69958L248.755 10.3183L251.888 11.1562L256.841 11.9751L258.114 12.9812L252.639 12.9653L246.03 11.9719L240.758 10.8896C239.819 9.44858 238.584 8.48373 237.188 8.5123L235.033 8.55356L233.608 8.32822L227.303 7.09988L226.059 5.52563L224.196 6.89996L220.069 6.7222L221.503 8.82016C220.906 8.83286 220.309 8.84555 219.712 8.85507L218.394 7.20148L219.343 6.16992L219.963 6.27466L219.608 4.77023L214.257 3.46255L213.046 1.93274L211.709 4.27509L208.617 6.80475L209.224 7.97906L214.1 8.7789L214.123 8.96619C192.218 9.39783 170.316 9.82947 148.411 10.2611C141.657 10.3944 141.958 25.9023 148.64 26.1308C160.23 26.5243 171.82 26.9211 183.41 27.3178L182.492 27.9272L177.445 27.4353L176.195 28.4541L173.539 29.2698L176.343 32.8278L177.328 35.7351L179.583 35.2812L178.192 33.2531L178.311 31.4725L180.96 29.5999L186.264 30.6377L187.972 33.3039L186.7 34.3417L188.158 35.7065L189.556 37.3919L189.921 38.9789L191.102 40.4769L188.254 42.467L185.548 42.048L182.335 37.9505L178.29 40.8229L175.475 37.2585L170.466 36.4842L168.684 37.7473L166.596 37.5347L165.196 39.0042L164.676 40.1595L166.105 40.8737L167.464 41.8766L165.799 43.4192L166.091 45.1013L160.489 46.0726L156.345 47.9103L148.113 46.6407L146.172 48.1071L139.629 47.0977L137.654 48.5641L132.805 47.8151L131.476 48.8625L127.91 50.1257L126.389 50.186L124.178 50.0305L122.682 51.2556L119.521 50.7668L117.495 52.2237L114.334 51.7381L112.367 53.2012L105.841 52.1951L103.848 53.6551L100.673 53.1663L96.7253 55.9213L92.1896 56.8576L89.0246 56.3688L87.0154 57.8288L83.8316 57.3369L81.8662 58.8032L80.3245 58.5652L78.3216 60.0252L73.5792 59.292L71.5993 60.6282L62.3483 59.2126L58.2945 58.854L57.6687 59.3396L58.9267 60.3584L83.6335 63.853L84.9624 62.7674L88.1358 63.2594L90.0907 61.8375L91.6973 63.6561L93.65 62.2374L96.7295 62.7103L98.8702 61.2757L102.025 61.7645L105.609 60.3743L108.768 57.7971L113.677 58.5556L115.542 57.1845L117.199 59.0793L118.532 59.2856C110.875 60.9773 103.216 62.6722 95.5592 64.364L94.9938 64.2782L94.5639 64.5861C93.6229 64.7924 92.682 65.0019 91.7411 65.2082C91.5157 65.259 91.3175 65.3637 91.1068 65.4463L88.2485 65.0051L86.3124 66.2874L83.2329 65.954L81.6285 66.9348L77.6831 67.1062L76.3728 68.1758L71.5117 67.4236L69.5442 68.8932L67.9691 68.6519L66.9154 70.6896L65.1128 73.1303L65.0543 73.9873L67.6352 76.9136L68.9037 75.8821L76.0954 76.4376L77.4598 75.3267L80.6729 75.8218L82.6237 74.3523L85.8659 74.8538L86.884 74.0857C86.9049 78.0277 88.5844 81.6523 91.9705 81.0778C92.0081 81.0715 92.0478 81.0652 92.0874 81.0588L89.6129 83.0774L89.4606 84.731L90.4329 85.569L95.3066 83.179L98.5134 83.7122L99.2103 84.858L98.6031 85.3563L96.9924 85.1341L95.0792 86.5751L93.4164 86.4005L89.8466 89.3174L85.3068 85.1246L80.4059 84.3692L78.7096 82.3665L77.6643 86.0895L78.4425 87.3241L80.4664 85.9022L82.559 86.9782L82.4338 88.8698L80.7083 90.4124L80.5998 92.0374L82.0332 94.091L81.3322 94.6559L80.5873 95.7541L81.9476 96.5984L95.1899 98.617L95.8742 97.2935L99.3855 97.4299L101.224 96.1921L104.305 96.6682L106.314 95.2082L107.846 95.443L109.809 93.9799L111.349 94.2148L113.345 92.7579L116.371 93.2245L118.559 91.9232L122.119 90.8028L124.91 89.6189L128.409 88.3144L130.047 88.5652L131.933 87.1877L133.544 88.9936L136.112 86.9052L135.649 84.1375L135.559 84.2105L135.58 83.7249L135.39 82.6839L136.304 83.6011L136.078 83.7852L137.689 83.9851L138.417 81.83L139.821 81.4619L139.894 80.662L142.527 78.5704L145.104 78.9672L148.48 76.7391L148.002 75.66L147.831 75.7996V75.5806L147.958 75.5742L147.994 75.66L148.102 75.5711C148.417 75.5616 148.732 75.5489 149.049 75.5393L151.889 76.0757L152.271 75.4378C152.517 75.4346 152.763 75.4283 153.009 75.4251L153.182 76.19L151.872 76.4217L151.893 76.0757L151.787 77.2755L145.669 82.3633L139.817 81.4619L140.971 83.3536L144.08 84.1471L144.557 85.6261L151.964 86.7687L153.792 85.4261L155.494 87.3305L157.178 87.3749L158.425 86.3593L159.477 87.4575L165.922 89.8823L163.37 91.9676L161.745 91.7169L159.805 93.1832L156.514 92.6754L153.005 94.0021L148.542 94.8273L144.693 97.5696L143.026 97.4172L141.365 95.443L136.458 94.6845L134.628 96.0683L131.372 95.5637L129.494 93.4689L127.307 93.8878L127.19 95.643L124.311 96.5571L122.294 97.6458L121.482 97.4998L120.57 96.3762L121.904 94.7766L119.792 93.8275L117.906 95.2526L115.334 97.3601L112.832 99.5152L109.538 99.1661L107.593 100.429L102.918 99.7088L100.898 101.128L99.2853 99.2486L95.1877 98.617L94.5138 99.9342L90.4892 99.6168L88.9495 99.6866L87.6998 100.712L83.9381 100.572L82.488 101.75L77.6435 101.004L75.674 102.451L72.4922 101.962L70.577 103.403L68.4196 102.454L69.2084 101.381L69.9928 100.09L71.7661 97.6426L69.1686 96.0461L66.3812 92.5103L62.7468 95.3098L59.5171 94.8115L57.8668 92.9261L55.3069 95.0178L55.1984 96.6523L53.4646 98.2107L54.7185 99.9469L55.2986 102.702L58.7639 103.238L62.0562 107.241L71.1049 108.637L71.7265 107.339L75.4779 107.761L75.9744 108.367L75.0335 109.199L71.1049 108.637L71.0297 109.475L70.4268 109.97L65.724 112.519L66.2707 114.728L79.7111 116.804L81.5554 115.404L88.1108 116.413L90.0344 114.953L93.212 115.445L95.2399 113.992L98.2985 114.464L100.416 113.052L104.147 114.607L101.656 116.645L99.9634 116.537L98.0564 117.927L94.8664 117.435L93.9026 118.587L92.7967 120.59L91.257 120.352L89.2875 121.809L84.5077 121.073L82.4316 122.514L77.7666 121.793L75.8263 123.053L72.5694 122.71L71.1257 123.894L69.5463 123.847L67.9064 123.64L66.736 124.491L67.2701 126.798L68.9183 127.198L70.8232 125.779L75.7011 126.535L77.6477 125.078L82.4796 125.824L84.4722 124.37L89.2228 125.103L90.9044 123.958L96.0306 124.342L97.9522 123.113L104.589 123.894L106.028 122.717L111.499 123.069L112.866 121.955L115.19 122.291L116.619 123.018L116.099 124.173L114.608 125.637L112.615 125.421L110.631 126.843L107.568 126.37L105.738 127.598L100.566 127.22L99.882 128.534L103.959 129.214L104.474 130.398L103.854 130.845L99.7673 130.236L99.0829 131.566L96.692 131.489L95.1523 131.594L93.8253 132.68L88.9224 131.924L86.4625 133.908L84.9604 136.561L72.1501 134.584L68.0504 137.345L64.6704 135.12L59.8217 134.727L58.5741 135.749L56.8529 135.644L53.1809 138.475L49.8782 137.967L50.0763 134.847L54.2323 134.476L51.1341 132.172L51.4178 127.928L43.9591 126.776L41.4826 128.83L44.464 131.086L42.7824 132.622L42.4674 137.745L43.0808 138.551L44.8583 137.361L44.7269 140.624L36.4231 139.342L33.9759 141.421L36.3752 142.966L36.0706 144.344L31.0341 143.772L29.5986 144.94L24.0114 144.68L22.6928 145.759L19.4902 141.944L15.6283 144.728L14.072 144.788L13.4544 145.296L13.1164 150.362L9.98686 152.923L10.3604 154.202L15.2966 154.964L17.2244 153.529L22.0439 154.272L24.0594 152.818L28.8809 153.564L32.215 150.841L33.9049 152.631L38.8225 153.389L42.4883 150.565L44.0509 150.806L44.9564 149.536L46.9614 147.841L50.0409 146.553L52.8741 147.327L53.3686 148.838L59.054 149.673L59.826 148.724L58.7556 147.369L59.4733 146.388L63.5667 146.591L64.0863 145.728L64.6016 145.591L64.8582 146.712L63.5459 146.94L63.4938 147.797L65.5092 149.038L66.6108 150.079L65.2505 150.619L62.4882 151.73L59.031 153.11L47.4183 151.317L44.8939 153.751L47.6186 157.211L45.478 159.217L41.9541 160.458L38.8454 160.34L38.1215 160.493L37.4518 161.839L38.2591 161.981L39.897 163.927L41.4993 164.267L43.1851 166.165L44.7645 166.222L46.661 164.974L50.9547 165.679L52.1397 166.685L50.408 168.224L50.1807 169.929L47.6457 171.995L44.3972 171.519L43.7672 171.963L44.2992 173.147L62.4381 176.032L62.9659 176.699L62.1689 177.629L53.9466 176.518L53.3561 176.984L54.1927 178.111L59.0518 179.108L59.5567 179.724L56.2249 181.171L56.1059 182.948L53.8673 183.437L48.9039 177.359L40.7065 176.093L38.7307 177.553L35.5636 177.134L33.5127 178.349L30.8714 176.578L29.774 177.067L29.6404 178.663L30.7838 180.108L30.3122 181.295L23.8132 180.292L21.8792 181.755L20.2706 181.504L19.2128 185.253L19.9909 186.582L24.8918 187.341L25.7889 186.059L26.3023 184.599L27.5561 183.589L28.9561 182.793L33.3458 182.063L36.8112 180.79L38.4657 180.888L45.0649 181.929L45.8702 183.047L44.4766 183.532L43.6149 183.393L41.733 184.821L34.6622 183.729L31.877 186.668L29.778 186.64L27.2974 188.458L27.0596 192.016L26.4148 192.515H24.485L21.0842 195.292L21.0008 195.089L20.4291 195.539L20.5167 195.752L18.5305 197.377V201.5L25.6346 203.109L26.2229 203.836L24.5414 205.359L25.7535 206.359L35.6533 207.94L37.1472 208.495L37.5436 209.127L36.9489 209.641L33.0287 209.647L33.2602 210.825L37.0845 212.05L37.8649 215.129L39.6883 215.411L41.7204 213.907L42.3026 216.382L40.4666 218.087L41.8957 220.074L39.7342 220.648L37.1409 222.372L37.5039 223.648L39.198 223.911L41.2657 226.72L37.9525 229.764L37.8815 230.592L41.2323 231.11L43.8339 227.92L47.5935 227.234L48.7787 228.739L50.6105 227.498L52.2065 227.653L53.8693 229.63L56.2164 229.208L56.6171 226.12L57.6269 225.054L59.8155 226.193L58.1652 227.751L58.0588 229.373L59.5171 231.411L58.693 231.77L57.218 229.897L53.5835 232.696L50.3538 232.198L48.7014 230.313L46.1436 232.404L46.0351 234.039L44.3012 235.597L45.5552 237.334L46.1352 240.089L49.6007 240.625L52.893 244.627L61.9415 246.024L62.5611 244.726L66.3145 245.145L66.811 245.754L65.8701 246.586L61.9415 246.024L61.8663 246.862L61.2634 247.357L56.5608 249.906L57.1073 252.115L70.5477 254.187L72.3921 252.787L78.9474 253.8L80.8711 252.34L84.0486 252.832L86.0765 251.378L89.1331 251.851L91.2528 250.439L94.9833 251.994L92.4921 254.028L90.798 253.924L88.8932 255.314L85.7032 254.819L84.7392 255.974L83.6335 257.977L82.0916 257.739L80.122 259.196L75.3423 258.459L73.2684 259.9L68.6032 259.18L66.6629 260.44L63.4062 260.097L61.9624 261.281L60.3829 261.233L58.7432 261.027L57.5706 261.878L58.1067 264.185L59.755 264.585L61.6578 263.166L66.5357 263.922L68.4822 262.465L73.3142 263.211L75.3067 261.757L80.0574 262.49L81.739 261.344L86.8673 261.728L88.7888 260.5L90.6081 260.713L91.7974 261.246L91.8391 260.859L95.4235 261.281L96.8652 260.103L102.336 260.456L103.702 259.338L106.026 259.678L107.456 260.405L106.936 261.56L105.444 263.023L103.452 262.808L101.468 264.229L98.4049 263.757L96.5752 264.985L91.4031 264.604L90.7166 265.921L94.7955 266.6L95.3108 267.784L94.6912 268.232L90.604 267.622L89.9197 268.949L87.5266 268.873L85.9869 268.981L84.662 270.066L79.7591 269.311L77.2993 271.295L75.797 273.948L62.9868 271.971L58.8871 274.732L55.5072 272.507L50.6585 272.114L49.4108 273.136L47.6895 273.031L44.0175 275.862L40.7148 275.354L40.913 272.234L45.0669 271.863L41.9709 269.559L42.2546 265.315L34.7958 264.163L32.3172 266.216L35.2986 268.47L33.617 270.006L33.302 275.132L33.9174 275.938L35.695 274.748L35.5636 278.011L27.2599 276.728L24.8126 278.807L27.2119 280.353L26.9052 281.731L21.8708 281.159L20.4354 282.327L14.8481 282.067L13.5295 283.146L10.3269 279.331L6.4651 282.115L4.90861 282.175L4.291 282.683L3.95303 287.748L0.823486 290.31L1.19494 291.589L6.13338 292.351L8.06107 290.916L12.8806 291.659L14.896 290.205L19.7177 290.951L23.0516 288.228L24.7416 290.018L29.6592 290.776L33.3249 287.951L34.8876 288.193L35.7931 286.92L37.7981 285.228L40.8775 283.94L43.7109 284.714L44.2053 286.225L49.8886 287.06L50.6605 286.111L49.5923 284.755L50.31 283.775L54.4035 283.978L54.9229 283.114L55.4383 282.978L55.6949 284.098L54.3826 284.324L54.3284 285.184L56.3458 286.425L57.4475 287.466L56.085 288.005L53.3248 289.113L49.8677 290.497L38.255 288.704L35.7285 291.138L38.4552 294.598L36.3147 296.604L32.7908 297.845L29.6822 297.727L28.9582 297.876L28.2884 299.222L29.0959 299.368L30.7336 301.311L32.336 301.65L34.0217 303.548L35.5991 303.608L37.4956 302.358L41.7914 303.066L42.9765 304.072L41.2448 305.611L41.0153 307.316L38.4823 309.382L35.234 308.906L34.6039 309.35L35.1359 310.534L53.2747 313.419L53.8026 314.086L53.0057 315.016L44.7832 313.905L44.1907 314.371L45.0294 315.498L49.8886 316.495L50.3935 317.11L47.0615 318.558L46.9427 320.335L44.704 320.824L39.7405 314.743L31.5431 313.479L29.5674 314.939L26.4003 314.52L24.3473 315.736L21.708 313.965L20.6106 314.454L20.4771 316.05L21.6204 317.494L21.1489 318.681L14.6499 317.678L12.7158 319.142L11.1072 318.891L10.0494 322.639L10.8277 323.969L15.7286 324.728L16.6257 323.445L17.1368 321.985L18.3908 320.976L19.7928 320.18L24.1825 319.45L27.6458 318.177L29.3024 318.275L35.9015 319.316L36.707 320.433L35.3132 320.919L34.4516 320.779L32.5696 322.208L25.499 321.116L22.7116 324.055L20.6148 324.026L18.132 325.845L17.8963 329.403L17.2516 329.901H15.3217L9.36722 334.761V338.887L16.4734 340.496L17.0617 341.22L15.38 342.746L16.5923 343.746L26.4921 345.327L27.9838 345.882L28.3802 346.514L27.7857 347.028L23.8675 347.034L24.0969 348.212L27.9233 349.437L28.7037 352.516L30.5271 352.798L32.5592 351.294L33.1413 353.769L31.3032 355.474L32.7345 357.457L30.573 358.035L27.9796 359.758L28.3426 361.034L30.0348 361.298L32.1023 364.104L28.7913 367.151L28.7203 367.979L32.071 368.496L34.6727 365.306L38.4303 364.621L39.6153 366.125L41.4493 364.884L43.0453 365.037L44.7081 367.017L47.0552 366.595L47.4559 363.507L48.4657 362.44L50.6543 363.58L49.0039 365.138L48.8955 366.757L50.3559 368.798L48.9706 369.398L45.8306 369.28L44.4432 370.407L42.1001 370.045L41.2781 369.934L40.4978 370.902L41.0153 371.597L42.6781 371.851L41.7204 375.85L42.6217 376.952L47.1679 377.697L49.2356 376.352L54.8562 376.291L53.5439 374.409L55.8202 373.867L57.4662 375.822L59.3126 374.425L60.9276 374.574L62.9366 373.159L65.8639 373.613L68.1485 372.432L71.1445 371.093L76.6774 371.924L83.0326 372.657L84.6432 371.343C84.3782 375.93 86.5376 381.208 89.8862 380.494C91.5824 380.135 93.2787 379.773 94.9749 379.411L93.2432 380.659L93.7941 381.328L100.531 382.395L102.306 381.055L107.205 381.811L109.045 380.418L118.983 381.954L121.774 385.426L123.254 386.004L123.973 385.813L128.985 381.744L130.637 381.998L131.346 383.452L131.144 387.702L132.045 389.139L135.321 387.727L137.203 386.489L140.46 386.838L142.012 385.572L146.792 386.308L148.872 384.861L152.006 385.347L153.965 383.883L157.203 384.382L159.143 382.912L162.31 383.401L162.974 382.931C164.455 382.982 165.936 383.033 167.42 383.084C163.821 383.979 160.222 384.871 156.623 385.766C150.591 387.267 302.52 408.075 372.278 406.276L373.185 407.348L379.749 408.361L381.583 407.082L384.936 407.599L385.66 407.688C386.453 411.303 388.725 414.141 391.858 412.801C392.632 412.471 393.409 412.141 394.183 411.811L394.393 412.325L394.965 411.874L394.825 411.538C395.297 411.335 395.768 411.135 396.24 410.932L404.5 412.208L406.183 414.191L409.428 414.69L411.424 413.23L416.263 413.975L417.594 412.903L419.837 413.134L421.977 415.445L421.733 417.403L420.254 419.178L420.815 419.904L425.706 420.682L426.26 421.307L426.227 421.885L424.988 422.926L427.206 424.421L428.952 426.313L438.161 427.722L441.382 425.779L438.29 424.329L436.713 423.028L438.956 422.704L440.855 421.285L443.143 420.933L444.091 415.359L447.875 415.404L450.005 413.963L454.823 415.09L455.92 416.48L461.472 417.241L462.795 416.162L464.46 418.029L467.635 418.517L469.365 420.549L472.611 421.05L472.269 422.666L469.987 423.196L469.749 426.754L473.661 431.264L475.365 430.064L483.512 431.321L485.442 429.883L487.71 429.572L486.467 427.563L486.488 425.392L488.889 423.789L491.111 424.246L492.342 425.792L494.624 426.144L496.452 423.65L495.903 422.929L490.737 422.132L489.388 420.215L492.484 420.692L494.234 422.612L506.773 424.561L507.009 424.665L499.352 423.488L498.33 424.44L498.931 426.741L500.719 425.411L502.317 427.331L505.547 427.83L507.397 426.395L509.01 426.617L509.045 426.589L509.079 426.624L512.59 427.163L513.414 427.287L514.747 425.681L517.178 424.427L518.905 426.382L523.815 427.138L525.649 425.754L530.556 426.509L532.181 428.43L536.043 427.277L540.704 428.306L541.23 428.975L541.699 431.318L543.704 430.343L546.756 430.813L548.864 429.325L556.94 430.534L557.708 429.585L557.176 428.915L531.417 424.926L532.903 424.821L534.299 423.681L547.343 425.646L548.183 424.878L547.528 423.964L548.503 424.113L554.242 424.84L554.837 424.338L554.536 423.713L551.305 421.345L544.76 420.12L538.974 419.212L532.36 418.19L529.513 417.752L529.473 417.705L524.695 416.969L524.451 415.639L527.357 414.877L529.481 414.315L531.273 414.591L532.913 416.518L534.737 415.178L537.04 416.413L537.933 412.452L541.09 412.684L574.167 417.765L576.556 417.86L577.242 416.534L568.396 415.124L567.535 414.017L567.835 413.782C568.25 413.779 568.669 413.753 569.087 413.731L576.777 415.058L577.242 416.534L584.632 417.673L586.293 419.647L593.685 420.79L593.188 419.282L590.019 418.467L588.989 417.391L589.773 416.753L592.865 417.194L593.768 416.315L593.224 415.597L589.998 415.099L588.279 413.071L579.391 411.7C581.659 410.941 583.935 409.989 586.214 408.907L586.896 409.437L589.94 409.9L591.196 408.177L590.474 406.72C592.187 405.784 593.898 404.787 595.607 403.73L595.88 404.041L604.006 405.295L604.832 405.955C606.149 408.545 607.918 411.068 610.117 413.617C613.387 417.407 617.036 420.247 620.875 422.272L620.614 422.647L621.152 423.285L624.113 423.761C634.544 427.849 646.044 425.884 655.606 418.346L661.723 419.485L662.971 421.066L673.178 422.951L674.486 424.608L677.684 425.1L679.422 427.138L680.995 427.382L682.712 429.407L687.536 430.15L689.238 432.102L690.154 432.245L692.193 431.21L695.051 430.616L695.174 428.76L693.705 426.712L694.375 426.189L701.164 427.214L702.737 429.033L706.753 429.652L707.576 429.756L708.208 429.312L708.256 428.741L707.023 425.69L705.31 424.262L703.457 422.643L700.321 421.806L695.37 420.987L694.098 419.981L699.572 419.996L706.182 420.99L711.8 422.142L713.075 423.758L718.604 424.634L724.909 425.862L726.153 427.436L728.016 426.062L732.142 426.243L730.611 423.999L731.815 423.247L733.818 425.76L732.869 426.792L732.249 426.687L732.604 428.192L737.955 429.499L739.165 431.029L740.5 428.687L743.594 426.16L742.987 424.983L738.112 424.183L737.586 419.806L732.364 413.188L731.631 412.896L729.818 410.681L728.441 408.977L727.039 408.247L728.151 406.618L727.736 403.746L724.043 406.33L723.497 405.634L720.745 404.682L717.913 405.72L715.166 407.967L715.746 408.694L716.165 409.97L715.527 410.373L712.362 409.91L711.383 411.198L709.414 412.893L698.925 411.268L697.012 412.623L694.15 410.694L690.353 409.653L689.862 408.151L687.563 407.751L686.816 406.691L688.064 406.168L689.441 406.723L689.862 408.151L690.678 408.256L693.261 406.183L691.867 404.187L693.117 403.546L695.589 403.844L696.756 403.165L695.543 402.165L693.939 400.905L696.142 400.534L699.852 397.671L701.523 398.052L702.072 398.741L705.466 399.426L708.848 400.029L711.25 401.137L716.478 396.871L721.569 397.658L723.751 400.423L724.262 402.841L726.313 401.759L732.641 402.752L733.267 403.27L734.387 404.692L736.017 404.942L737.917 403.53L739.459 403.768L741.335 402.438L743.572 405.273L743.463 406.974L746.783 407.352L746.762 405.692L745.552 403.667L747.821 403.356L749.756 401.915L751.287 402.153L753.119 400.82L757.949 401.565L759.962 403.451L761.998 404.701L758.881 407.253L759.244 408.539L762.522 409.046L763.434 407.888L763.682 405.368L764.615 404.266L766.175 404.508L767.8 406.31L769.72 405.035L774.767 405.53L776.017 404.508L778.673 403.692L775.866 400.134L774.884 397.227L772.628 397.681L774.02 399.709L773.901 401.492L771.251 403.365L765.948 402.324L764.239 399.658L765.512 398.62L764.053 397.255L762.656 395.57L762.29 393.986L761.11 392.485L763.957 390.495L766.661 390.914L769.876 395.011L773.922 392.139L776.736 395.706L781.744 396.478L783.528 395.214L785.616 395.427L787.016 393.958L787.535 392.802L786.106 392.088L784.748 391.085L786.413 389.543L786.121 387.864L791.723 386.889L795.866 385.051L804.099 386.321L806.039 384.855L812.582 385.864L814.558 384.398L819.407 385.147L820.736 384.099L824.301 382.839L825.822 382.776L828.034 382.931L829.53 381.706L832.691 382.195L834.716 380.738L837.877 381.227L839.845 379.761L846.371 380.767L848.363 379.307L851.539 379.795L855.486 377.04L860.022 376.104L863.187 376.593L865.196 375.133L868.38 375.625L870.345 374.159L871.887 374.397L873.89 372.937L878.632 373.67L880.612 372.334L889.863 373.749L893.917 374.108L894.543 373.625L893.285 372.606L868.578 369.109L867.249 370.194L864.076 369.706L862.121 371.124L860.514 369.306L858.561 370.728L855.482 370.251L853.341 371.686L850.187 371.197L846.602 372.587L843.444 375.165L838.534 374.406L836.669 375.78L835.013 373.882L832.434 373.489L831.211 372.502L832.33 371.781L833.84 371.683L838.516 370.981L840.471 369.639L845.244 370.375L847.218 368.909L848.793 369.153L850.734 367.684L857.218 368.684L859.256 367.23L863.963 367.957L865.899 366.674L868.979 367.008L870.583 366.027L874.526 365.856L875.839 364.786L880.7 365.538L882.667 364.069L884.243 364.313L885.294 362.275L887.099 359.831L887.157 358.974L884.576 356.048L883.308 357.08L876.116 356.524L874.752 357.638L871.539 357.14L869.588 358.609L866.346 358.108L864.401 359.574L859.588 358.832L857.527 360.285L855.167 359.92L852.448 360.809L851.359 359.428L849.344 358.86L846.481 361.914L842.709 361.333L840.821 362.755L839.213 362.612L837.189 364.021L834.063 363.539L830.738 366.255L829.106 364.465L827.262 365.827L825.705 365.586L823.838 366.935L822.693 365.5L820.481 365.027L819.204 365.983L816.97 366.325L814.781 368.35L816.129 369.245L817.533 370.004L816.913 371.134L814.919 372.626L812.914 371.686L812.538 367.35L811.869 366.897L805.38 366.065L802.121 368.725L798.875 368.223L798.914 364.91L800.5 365.154L805.923 360.914L812.616 361.644L814.543 360.438L819.638 360.853L820.965 359.768L824.145 360.26L826.146 358.8L832.655 359.803L836.473 356.854L844.641 358.114L847.859 355.489L852.732 355.966L853.792 355.236L852.693 353.23L854.9 352.906L856.847 351.455L860.064 351.954L862.599 349.884L862.751 348.231L861.779 347.393L856.905 349.786L853.696 349.253L853.001 348.104L853.609 347.609L855.219 347.828L857.132 346.387L858.795 346.561L862.365 343.644L866.905 347.837L871.806 348.593L873.502 350.595L874.547 346.872L873.769 345.641L871.745 347.063L869.653 345.984L869.778 344.092L871.503 342.549L871.612 340.924L870.178 338.871L870.879 338.306L871.624 337.208L870.264 336.363L857.022 334.345L856.337 335.671L852.826 335.532L850.988 336.773L847.906 336.297L845.897 337.754L844.366 337.519L842.403 338.985L840.863 338.747L838.866 340.204L835.841 339.737L833.652 341.039L830.093 342.159L827.302 343.343L823.803 344.651L822.165 344.397L820.279 345.774L818.668 343.968L816.1 346.057L816.563 348.824L816.653 348.751L816.632 349.237L816.822 350.278L815.908 349.361L816.133 349.177L814.523 348.98L813.794 351.132L812.388 351.5L812.315 352.3L809.684 354.394L807.108 353.995L803.732 356.223L804.208 357.305L804.381 357.162L804.36 357.648L804.554 358.689L803.636 357.772L803.893 357.562L800.312 356.886L799.793 357.753L799.269 357.886L799.019 356.772L800.329 356.54L800.308 356.886L800.415 355.689L806.532 350.598L812.382 351.5L811.23 349.608L808.122 348.815L807.644 347.336L800.237 346.193L798.41 347.536L796.707 345.631L795.023 345.59L793.776 346.602L792.724 345.504L786.279 343.079L788.831 340.994L790.456 341.245L792.397 339.782L795.687 340.29L799.196 338.96L803.659 338.134L807.506 335.392L809.175 335.545L810.836 337.519L815.743 338.277L817.573 336.897L820.83 337.398L822.707 339.496L824.894 339.074L825.011 337.319L827.89 336.408L829.907 335.316L830.719 335.462L831.629 336.586L830.297 338.185L832.409 339.134L834.295 337.712L836.868 335.602L839.369 333.447L842.663 333.796L844.608 332.532L849.283 333.253L851.303 331.834L852.916 333.713L857.013 334.345L857.687 333.028L861.712 333.345L863.252 333.275L864.501 332.25L868.263 332.39L869.713 331.212L874.558 331.958L876.527 330.511L879.709 330.999L881.624 329.558L883.782 330.507L882.993 331.58L882.206 332.875L880.435 335.322L883.033 336.916L885.82 340.451L889.454 337.652L892.684 338.15L894.334 340.036L896.894 337.947L897.003 336.309L898.735 334.751L897.483 333.015L896.903 330.26L893.437 329.724L890.143 325.721L881.096 324.325L880.474 325.623L876.723 325.204L876.225 324.594L877.168 323.766L881.096 324.325L881.171 323.49L881.774 322.992L886.477 320.443L885.93 318.234L872.49 316.161L870.646 317.561L864.091 316.549L862.167 318.009L858.989 317.517L856.961 318.97L853.903 318.497L851.785 319.91L848.055 318.354L850.546 316.32L852.238 316.425L854.145 315.038L857.335 315.53L858.299 314.374L859.404 312.372L860.944 312.61L862.914 311.153L867.693 311.889L869.769 310.448L874.434 311.169L876.375 309.909L879.632 310.251L881.076 309.068L882.655 309.115L884.295 309.325L885.465 308.471L884.931 306.167L883.283 305.764L881.378 307.182L876.5 306.43L874.556 307.887L869.722 307.141L867.729 308.595L862.978 307.861L861.297 309.004L856.17 308.62L854.249 309.852L847.612 309.068L846.173 310.245L840.702 309.893L839.336 311.01L837.011 310.67L835.582 309.944L836.102 308.788L837.594 307.325L839.586 307.541L841.57 306.119L844.633 306.592L846.463 305.364L851.635 305.744L852.319 304.427L848.242 303.748L847.727 302.567L848.347 302.12L852.434 302.726L853.118 301.399L855.509 301.476L857.049 301.368L858.376 300.282L863.279 301.041L865.739 299.054L867.241 296.404L880.051 298.378L884.151 295.616L887.529 297.841L892.379 298.235L893.627 297.213L895.348 297.318L899.02 294.487L902.323 294.994L902.125 298.114L897.969 298.486L901.067 300.79L900.783 305.037L908.242 306.186L910.719 304.132L907.737 301.879L909.419 300.342L909.734 295.22L909.12 294.41L907.343 295.601L907.474 292.338L915.778 293.62L918.225 291.541L915.826 289.995L916.131 288.618L921.167 289.189L922.602 288.021L928.19 288.282L929.506 287.202L932.711 291.017L936.571 288.234L938.129 288.174L938.745 287.666L939.083 282.6L942.214 280.039L941.841 278.76L936.904 277.998L934.977 279.433L930.157 278.69L928.142 280.144L923.32 279.401L919.986 282.121L918.296 280.331L913.379 279.572L909.713 282.397L908.15 282.156L907.245 283.429L905.24 285.123L902.16 286.409L899.327 285.634L898.831 284.127L893.147 283.292L892.375 284.238L893.446 285.593L892.728 286.574L888.634 286.371L888.115 287.234L887.597 287.371L887.343 286.253L888.655 286.025L888.707 285.165L886.692 283.924L885.59 282.883L886.951 282.343L889.711 281.235L893.17 279.852L904.783 281.645L907.307 279.21L904.581 275.754L906.723 273.745L910.247 272.504L913.354 272.621L914.08 272.472L914.749 271.126L913.942 270.98L912.304 269.038L910.702 268.698L909.016 266.8L907.437 266.74L905.54 267.991L901.246 267.283L900.061 266.277L901.793 264.737L902.02 263.033L904.555 260.967L907.804 261.446L908.434 260.998L907.902 259.815L889.763 256.929L889.235 256.263L890.032 255.333L898.255 256.444L898.845 255.977L898.008 254.851L893.149 253.854L892.644 253.241L895.976 251.794L896.095 250.017L898.334 249.525L903.297 255.606L911.495 256.869L913.471 255.409L916.638 255.828L918.688 254.612L921.33 256.384L922.427 255.895L922.561 254.301L921.417 252.854L921.889 251.667L928.388 252.67L930.322 251.21L931.931 251.458L932.988 247.709L932.21 246.379L927.309 245.624L926.412 246.903L925.899 248.363L924.645 249.372L923.245 250.169L918.853 250.899L915.39 252.172L913.735 252.077L907.136 251.032L906.331 249.915L907.725 249.429L908.586 249.569L910.468 248.141L917.539 249.233L920.324 246.294L922.423 246.322L924.904 244.504L925.142 240.946L925.784 240.447H927.716L931.117 237.67L931.2 237.873L931.772 237.422L931.684 237.21L933.671 235.588L933.669 231.462L926.565 229.853L925.976 229.129L927.656 227.602L926.444 226.603L916.546 225.022L915.052 224.467L914.656 223.835L915.25 223.321L919.17 223.314L918.939 222.137L915.115 220.912L914.334 217.833L912.511 217.55L910.479 219.055L909.897 216.579L911.733 214.875L910.303 212.891L912.465 212.314L915.058 210.59L914.695 209.314L913.001 209.051L910.933 206.245L914.247 203.198L914.318 202.37L910.967 201.852L908.365 205.042L904.605 205.731L903.42 204.226L901.589 205.464L899.992 205.312L898.328 203.331L895.982 203.757L895.582 206.842L894.572 207.908L892.383 206.769L894.034 205.21L894.14 203.592L892.682 201.551L893.506 201.195L894.981 203.065L898.616 200.265L901.845 200.764L903.496 202.649L906.055 200.56L906.164 198.923L907.898 197.364L906.644 195.628L906.064 192.873L902.598 192.337L899.306 188.334L890.258 186.938L889.636 188.236L885.885 187.817L885.388 187.208L886.329 186.379L890.258 186.938L890.333 186.103L890.936 185.605L895.638 183.056L895.092 180.847L881.651 178.775L879.807 180.174L873.252 179.162L871.328 180.622L868.15 180.133L866.123 181.583L863.066 181.111L860.946 182.523L857.216 180.968L859.707 178.933L861.399 179.041L863.306 177.651L866.496 178.143L867.46 176.988L868.566 174.985L870.107 175.223L872.077 173.766L876.857 174.503L878.931 173.061L883.596 173.782L885.536 172.522L888.793 172.865L890.237 171.684L891.816 171.728L893.456 171.938L894.629 171.084L894.092 168.78L892.444 168.377L890.539 169.796L885.661 169.043L883.717 170.5L878.883 169.754L876.89 171.208L872.14 170.475L870.458 171.617L865.332 171.233L863.41 172.465L861.591 172.249L860.402 171.716L860.36 172.103L856.773 171.681L855.334 172.858L849.864 172.509L848.497 173.623L846.173 173.284L844.743 172.557L845.263 171.402L846.755 169.938L848.747 170.154L850.731 168.735L853.794 169.208L855.624 167.98L860.796 168.358L861.482 167.041L857.404 166.361L856.888 165.181L857.508 164.733L861.595 165.339L862.279 164.013L864.672 164.089L866.212 163.984L867.537 162.895L872.44 163.654L874.9 161.667L876.402 159.017L889.212 160.991L893.312 158.23L896.692 160.455L901.541 160.848L902.788 159.826L904.509 159.931L908.182 157.1L911.484 157.608L911.286 160.728L907.13 161.099L910.228 163.403L909.944 167.65L917.403 168.799L919.88 166.745L916.9 164.492L918.582 162.956L918.897 157.833L918.282 157.024L916.504 158.214L916.635 154.951L924.939 156.233L927.386 154.154L924.987 152.609L925.292 151.231L930.328 151.806L931.764 150.635L937.351 150.895L938.668 149.816L941.872 153.631L945.734 150.847L947.29 150.787L947.908 150.279L948.246 145.213L951.376 142.652L951.017 141.373Z" fill="#DCAB07"/>
</svg>
