<svg width="1152" height="576" viewBox="0 0 1152 576" fill="none" xmlns="http://www.w3.org/2000/svg">
<path d="M0 0V576H1151.91V0H0ZM703.282 147.037C715.965 147.037 726.39 149.628 734.557 154.812C742.724 159.9 746.903 167.484 747.095 177.564V179.293H717.261V178.717C717.261 175.837 716.204 173.436 714.09 171.516C711.976 169.596 708.759 168.637 704.435 168.637C700.207 168.637 696.94 169.26 694.634 170.508C692.424 171.756 691.318 173.293 691.318 175.117C691.318 177.709 692.857 179.629 695.932 180.877C699.006 182.125 703.955 183.42 710.777 184.764C718.752 186.396 725.285 188.125 730.378 189.949C735.566 191.677 740.081 194.556 743.925 198.588C747.768 202.62 749.738 208.092 749.834 215.004C749.834 226.716 745.847 235.404 737.872 241.068C729.994 246.732 719.423 249.564 706.163 249.564C690.694 249.564 678.637 246.973 669.989 241.789C661.438 236.605 657.162 227.437 657.162 214.285H687.284C687.284 219.277 688.581 222.637 691.176 224.365C693.77 225.997 697.805 226.812 703.282 226.812C707.317 226.812 710.632 226.38 713.226 225.516C715.916 224.652 717.261 222.875 717.261 220.187C717.261 217.787 715.773 216.013 712.794 214.861C709.911 213.613 705.156 212.317 698.526 210.973C690.455 209.245 683.777 207.469 678.493 205.645C673.208 203.725 668.596 200.605 664.657 196.285C660.717 191.965 658.747 186.109 658.747 178.717C658.747 167.869 662.926 159.9 671.285 154.812C679.741 149.628 690.407 147.037 703.282 147.037ZM451.831 148.764H517.842C522.838 148.764 527.402 149.82 531.533 151.932C535.761 153.948 539.075 156.828 541.477 160.572C543.976 164.316 545.225 168.492 545.225 173.1C545.225 185.292 539.699 192.973 528.65 196.141V196.717C541.237 199.597 547.532 207.852 547.532 221.484C547.532 226.668 546.234 231.277 543.639 235.309C541.141 239.245 537.681 242.315 533.261 244.523C528.841 246.731 523.99 247.836 518.706 247.836H451.831V148.764ZM582.456 148.764H619.496L655.672 247.836H621.948L617.768 233.869H583.033L578.854 247.836H546.282L582.456 148.764ZM483.683 170.508V187.355H505.591C507.705 187.355 509.434 186.637 510.779 185.197C512.22 183.661 512.941 181.788 512.941 179.58V178.141C512.941 176.029 512.22 174.253 510.779 172.812C509.338 171.277 507.609 170.508 505.591 170.508H483.683ZM600.185 176.412L589.664 211.693H611.137L600.761 176.412H600.185ZM483.683 207.805V224.797H507.896C510.009 224.797 511.74 224.077 513.086 222.637C514.527 221.101 515.246 219.228 515.246 217.02V215.58C515.246 213.372 514.527 211.547 513.086 210.107C511.74 208.571 510.009 207.805 507.896 207.805H483.683ZM503.992 260.459C521.095 260.459 534.308 264.827 543.628 273.562C552.948 282.298 557.607 295.019 557.607 311.723C557.607 322.859 555.493 332.267 551.265 339.947C547.134 347.531 541.08 353.291 533.105 357.227L555.734 380.123H517.828L502.551 362.986C485.833 362.698 472.958 358.236 463.926 349.596C454.99 340.86 450.522 328.235 450.522 311.723C450.522 294.923 455.134 282.203 464.358 273.562C473.678 264.827 486.889 260.459 503.992 260.459ZM568.753 262.188H600.605V320.939C600.605 326.507 602.093 330.972 605.072 334.332C608.05 337.596 612.375 339.227 618.044 339.227C623.713 339.227 628.035 337.548 631.014 334.188C634.089 330.828 635.625 326.411 635.625 320.939V262.188H667.477V321.371C667.477 334.907 663.203 345.228 654.652 352.332C646.1 359.436 633.944 362.986 618.187 362.986C602.429 362.986 590.226 359.436 581.579 352.332C573.027 345.228 568.753 334.907 568.753 321.371V262.188ZM684.244 262.188H716.096V361.26H684.244V262.188ZM503.992 284.219C497.17 284.219 491.983 286.284 488.428 290.412C484.872 294.54 483.095 300.107 483.095 307.115V316.332C483.095 323.34 484.872 328.907 488.428 333.035C491.983 337.163 497.17 339.227 503.992 339.227C510.814 339.227 516.003 337.163 519.558 333.035C523.209 328.907 525.035 323.34 525.035 316.332V307.115C525.035 300.107 523.209 294.54 519.558 290.412C516.003 286.284 510.814 284.219 503.992 284.219ZM482.886 391.229H519.926L556.101 490.301H522.377L518.198 476.334H483.462L479.283 490.301H446.71L482.886 391.229ZM544.764 391.229H641.615V416.572H609.187V490.301H577.337V416.572H544.764V391.229ZM500.614 418.877L490.093 454.156H511.567L501.191 418.877H500.614ZM680.778 475.857C681.09 475.883 681.147 476.059 681.147 476.059L703.108 499.285L714.35 481.658L716.825 477.832C716.905 477.672 717.198 477.256 717.198 477.256L716.825 477.832C716.75 477.982 716.863 477.907 717.599 477.033C719.122 475.226 719.253 477.139 719.253 477.139L721.083 481.336L720.786 481.904L724.625 488.764L726.64 493.062L727.457 495.145C727.457 495.145 727.496 495.952 727.496 496.812C727.496 497.673 730.352 502.264 730.352 502.264L732.166 501.109L732.174 500.145C732.174 500.145 748.123 483.719 749.605 481.824C751.088 479.929 751.576 481.326 751.576 481.326C751.576 481.326 750.413 481.804 751.185 481.973C751.956 482.141 751.886 482.707 751.886 482.707L751.875 495.889C751.875 495.889 751.905 509.839 751.326 512.625C750.748 515.411 751.581 517.793 750.972 519.465C750.561 520.592 750.957 521.376 751.271 521.66C751.439 521.587 751.586 521.583 751.572 521.707C751.557 521.828 751.423 521.797 751.271 521.66C750.934 521.807 750.506 522.262 751.068 522.713C751.911 523.389 749.022 522.114 751.375 524.18C753.728 526.245 750.878 525.602 750.878 525.602C750.878 525.602 748.015 531.216 749.539 526.953C751.064 522.69 737.386 525.388 735.867 525.424C734.349 525.46 731.908 527.147 732.096 525.922C732.285 524.696 726.347 525.48 726.347 525.48C726.347 525.48 711.838 528.199 709.872 526.941C707.906 525.684 693.799 526.305 691.739 526.709C689.68 527.113 688.225 527.038 685.454 526.861C682.684 526.684 682.776 527.521 682.776 527.521L679.725 527.455L679.648 522.693L678.837 506.172C678.837 506.172 678.164 496.964 678.72 490.277C679.276 483.591 678.967 484.484 678.427 481.24C677.887 477.997 679.843 479.671 679.142 478.762C678.442 477.852 679.361 477.623 679.361 477.623C679.361 477.623 680.388 478.399 679.789 477.963C679.191 477.527 679.7 476.038 680.372 475.893C680.54 475.856 680.673 475.849 680.777 475.857H680.778Z" fill="white"/>
</svg>
