<svg width="855" height="1131" viewBox="0 0 855 1131" fill="none" xmlns="http://www.w3.org/2000/svg">
<path d="M748.819 0.839111C747.487 0.835693 746.558 2.39893 746.558 5.12354C746.558 9.07935 748.109 9.3894 750.654 5.94141C752.24 3.7926 752.265 3.20789 750.835 1.85071C750.113 1.16479 749.424 0.840454 748.819 0.839111ZM528.067 3.92664C524.82 3.92664 523.9 4.38318 523.9 5.99768C523.9 7.13733 524.257 8.40918 524.694 8.82361C525.788 9.86255 525.977 9.81934 529.3 7.75256C533.38 5.21533 532.964 3.92664 528.067 3.92664ZM449.607 4.65845C449.055 4.71448 448.367 5.04675 447.607 5.69971C446.378 6.75562 445.659 8.05994 446.009 8.59851C447.053 10.2012 449.768 9.71204 450.549 7.78064C451.373 5.74402 450.822 4.53516 449.607 4.65845ZM403.192 9.86829C402.857 9.9137 402.274 10.4003 401.259 11.2722C399.949 12.3972 398.878 14.2559 398.878 15.4027C398.878 16.5494 399.307 17.4886 399.831 17.4886C401.719 17.4886 403.642 14.7194 403.642 12.0006C403.642 10.4802 403.621 9.80981 403.192 9.86829ZM537.14 10.7573C536.793 10.7367 536.502 10.8015 536.313 10.9808C535.874 11.3982 535.846 12.5632 536.252 13.5684C537.004 15.427 540.502 15.4924 540.93 13.656C541.187 12.554 538.643 10.8462 537.14 10.7572L537.14 10.7573ZM509.631 10.8351C508.875 10.8019 507.652 11.2552 505.691 12.1198C501.777 13.8451 501.608 14.913 505.147 15.5598C510.345 16.5101 510.803 16.3459 510.803 13.5319C510.803 11.7236 510.603 10.8777 509.631 10.8351ZM351.29 15.6095C350.414 15.5006 349.232 16.1672 347.795 17.6309C345.465 20.0046 345.436 20.2812 347.317 22.2548C350.382 25.4695 353.036 24.343 353.036 19.8278C353.036 17.1722 352.417 15.7496 351.29 15.6095ZM603.08 15.7933C600.282 15.7933 599.426 16.3445 599.128 18.3362C598.793 20.5735 599.267 20.879 603.08 20.879C606.892 20.879 607.369 20.5735 607.034 18.3362C606.736 16.3445 605.878 15.7933 603.08 15.7933ZM621.306 25.9482C620.766 25.964 620.244 26.1422 619.773 26.5127C617.177 28.5583 617.546 32.9039 620.483 34.8564C623.865 37.105 626.298 36.0072 626.298 32.2341C626.298 28.8411 623.647 25.8795 621.306 25.9482ZM367.122 27.66C364.377 27.66 360.777 30.9652 360.777 33.4857C360.777 35.1154 361.687 35.5699 364.944 35.5699C368.913 35.5699 369.111 35.3822 369.111 31.615C369.111 28.6722 368.603 27.66 367.122 27.66ZM699 27.66C696.384 27.66 694.854 29.3621 695.953 31.0504C696.928 32.5469 698.142 32.4762 699.883 30.8236C701.966 28.8466 701.635 27.66 699 27.66ZM328.423 31.1813C328.093 31.1903 327.747 31.2115 327.385 31.2441C323.385 31.6053 323.261 31.7651 322.908 36.9839C322.708 39.9364 322.037 42.351 321.418 42.351C320.799 42.351 320.293 43.7185 320.293 45.3888V48.425L323.633 45.3888C325.47 43.7185 327.77 42.351 328.744 42.351C329.717 42.351 331.36 40.5789 332.394 38.4126C334.735 33.5111 333.369 31.0408 328.423 31.1813ZM415.178 33.3152C414.636 33.3085 414.358 33.615 414.358 34.2439C414.358 34.7572 415.696 36.3716 417.333 37.8314C418.971 39.2913 420.311 41.4548 420.311 42.639C420.311 44.4413 419.731 44.6718 416.754 44.0511C413.717 43.418 412.995 43.7334 411.803 46.2166C410.637 48.6449 410.758 49.4901 412.533 51.3519C414.433 53.3439 414.919 53.4083 417.108 51.9529C419.553 50.3276 424.533 50.6963 426.801 52.6698C428.542 54.1851 430.353 53.8531 432.97 51.5391C435.141 49.6191 435.81 44.3082 434.759 37.3364C434.672 36.7539 433.083 37.6571 431.229 39.3429L427.858 42.4089L422.414 37.8596C418.836 34.8699 416.369 33.3312 415.178 33.3152ZM297.487 36.7007C294.466 36.7007 294.648 40.566 297.8 43.3542C300.551 45.7869 303.624 45.3907 303.624 42.6027C303.624 40.1006 300.089 36.7007 297.487 36.7007ZM445.36 36.7007C442.341 36.7007 440.734 39.923 443.058 41.318C445.45 42.7539 447.044 41.9744 447.481 39.1559C447.769 37.301 447.251 36.7007 445.36 36.7007ZM776.921 40.0912C774.119 40.0912 772.93 42.1434 774.737 43.8591C776.514 45.5454 779.896 44.556 779.896 42.351C779.896 40.6934 779.104 40.0912 776.921 40.0912ZM386.373 42.3278C384.768 42.3015 383.399 42.6554 383.399 43.4817C383.399 44.1033 384.138 44.6124 385.04 44.6124C385.942 44.6124 387.366 45.397 388.204 46.3556C390.043 48.4586 392.406 46.7726 391.335 44.1223C390.891 43.0242 388.436 42.3617 386.373 42.3278ZM549.695 42.5546C549.454 42.5455 549.22 42.5535 548.997 42.5778C546.617 42.8406 545.842 43.6379 545.542 46.1255C545.313 48.0231 545.996 50.2148 547.214 51.4927C549.986 54.4001 553.32 54.2213 554.343 51.1102C554.803 49.7117 555.777 48.1754 556.507 47.6967C558.493 46.3947 553.299 42.6876 549.695 42.5546ZM525.574 45.6421C524.561 45.6761 524.232 46.4797 525.17 48.1436C525.914 49.4644 526.489 53.3945 526.445 56.8781C526.397 60.7002 527.067 64.2292 528.137 65.7781C531.015 69.9481 532.235 68.7615 532.235 61.7899C532.235 58.1848 532.875 54.6284 533.657 53.8866C534.758 52.8417 534.305 51.7726 531.648 49.1403C529.313 46.8273 526.877 45.5984 525.574 45.6421ZM451.268 45.7415C449.34 45.7415 448.887 46.496 448.887 49.6981C448.887 52.9003 449.34 53.6531 451.268 53.6531C453.196 53.6531 453.65 52.9003 453.65 49.6981C453.65 46.496 453.196 45.7415 451.268 45.7415ZM481.22 45.7415C478.136 45.7415 473.893 48.5978 473.893 50.6732C473.893 52.328 465.39 60.4341 463.655 60.4341C462.874 60.4341 460.974 61.697 459.432 63.2402C457.89 64.7834 455.557 66.0625 454.247 66.0828C452.937 66.1029 451.061 66.6125 450.078 67.2151C448.746 68.0323 449.401 68.3147 452.66 68.3275C458.89 68.3522 460.794 69.3285 460.794 72.4961C460.794 74.0245 461.373 76.3014 462.08 77.5554C464.242 81.3895 460.362 84.3486 453.713 83.9374C448.511 83.6156 448.269 83.4421 447.697 79.6462C447.242 76.6177 446.475 75.6069 444.424 75.3303C442.25 75.0375 441.745 74.2494 441.745 71.1584C441.745 69.0629 442.279 67.0347 442.934 66.6505C444.748 65.5865 444.354 60.8918 442.317 59.2869C440.837 58.1211 440.08 58.2295 438.15 59.8878C434.661 62.8843 435.02 69.1519 438.898 72.9945C442.017 76.0841 441.918 78.5172 438.675 78.5172C437.415 78.5172 437.141 79.2941 437.682 81.3416C438.284 83.616 437.987 84.1675 436.158 84.1675C434.908 84.1675 433.243 83.5575 432.457 82.8116C431.346 81.7568 430.71 81.7568 429.598 82.8116C428.812 83.5575 427.741 84.1675 427.217 84.1675C425.729 84.1675 426.101 79.1249 427.702 77.6051C428.825 76.5394 428.712 75.8352 427.188 74.3884C425.379 72.672 424.961 72.7546 421.491 75.5258C419.429 77.1726 416.277 78.5172 414.475 78.5172C412.508 78.5172 410.066 79.6639 408.356 81.3912C405.868 83.9047 404.682 84.2241 398.92 83.9341C393.118 83.6421 392.285 83.2987 391.951 81.0601C391.675 79.2196 390.77 78.5172 388.675 78.5172C386.179 78.5172 385.781 79.0438 385.781 82.3514C385.781 88.326 378.77 89.7999 375.794 84.4506L374.066 81.3416L372.81 84.4506C371.376 87.9983 369.631 88.3539 366.571 85.7253C364.003 83.5197 360.444 84.5068 360.997 87.2716C361.234 88.4614 362.684 89.3947 364.623 89.6075C366.399 89.8025 370.306 91.2021 373.307 92.7166C376.308 94.231 380.035 95.4696 381.59 95.4696C383.231 95.4696 385.46 96.7272 386.903 98.4678C389.179 101.214 389.236 101.686 387.585 104.078C386.593 105.515 385.781 107.417 385.781 108.305C385.781 110.444 382.546 111.541 380.02 110.258C377.803 109.132 372.684 100.71 372.684 98.188C372.684 97.3143 372.325 96.5988 371.886 96.5988C370.172 96.5988 366.732 100.444 366.732 102.358C366.732 103.468 366.194 104.693 365.537 105.078C364.741 105.545 364.75 106.5 365.563 107.942C366.593 109.768 366.302 110.221 363.7 110.841L360.618 111.574L363.784 114.712C367.992 118.88 367.327 121.918 362.104 122.393C359.898 122.594 357.519 122.212 356.816 121.546C353.267 118.177 347.68 122.485 347.68 128.59C347.68 133.039 344.812 131.943 344.33 127.31C343.954 123.698 342.547 122.681 341.068 124.953C340.492 125.837 339.905 125.837 338.973 124.953C337.144 123.217 335.773 123.427 335.773 125.446C335.773 126.394 337.113 127.653 338.75 128.244C340.387 128.835 341.727 129.988 341.727 130.805C341.727 131.622 343.893 134.559 346.539 137.331C350.277 141.246 351.274 143.127 351.005 145.761C350.752 148.225 349.965 149.246 348.125 149.496C346.733 149.684 344.363 151.082 342.858 152.603C339.396 156.1 337.29 156.087 333.397 152.547L330.294 149.726L328.752 153.772C327.342 157.475 327.433 158.042 329.815 160.448C333.399 164.07 332.554 167.146 327.856 167.58C324.573 167.884 323.86 167.408 321.912 163.624C320.662 161.195 318.663 159.149 317.318 158.924C316.008 158.704 314.018 157.753 312.896 156.81C310.353 154.67 307.196 155.692 307.196 158.656C307.196 159.881 306.662 161.2 306.007 161.584C302.866 163.427 306.736 170.06 310.953 170.06C312.436 170.06 313.158 170.887 313.158 172.603C313.161 174.002 313.966 176.602 314.944 178.383C317.302 182.674 317.192 183.999 314.269 186.509C312.169 188.314 311.655 188.38 310.714 186.968C310.109 186.06 309.608 184.776 309.596 184.116C309.568 182.263 303.52 177.331 298.66 175.197C294.606 173.417 294.077 173.412 291.317 175.128C288.826 176.677 287.945 176.741 285.883 175.518C283.799 174.284 283.108 174.358 281.377 176C279.446 177.833 279.522 178.127 282.771 181.346C284.662 183.219 287.091 184.751 288.169 184.751C291.514 184.751 291.846 186.172 289.139 188.907C287.633 190.428 285.153 191.532 283.245 191.532C281.434 191.532 279.621 192.041 279.216 192.663C277.95 194.607 276.225 193.906 275.048 190.968C273.717 187.645 269.78 187.204 266.51 190.013C263.713 192.415 263.74 193.794 266.585 193.794C267.825 193.794 269.175 194.62 269.583 195.631C270.411 197.679 268.403 200.575 266.156 200.575C265.355 200.575 263.723 201.6 262.528 202.853C260.423 205.06 260.427 205.181 262.642 206.732C264.681 208.16 265.261 208.03 268.029 205.528C269.736 203.986 272.416 202.582 273.984 202.409C275.552 202.236 277.855 201.667 279.103 201.146C280.796 200.438 281.93 200.852 283.568 202.772C285.282 204.78 285.764 207.276 285.764 214.138C285.764 222.576 285.885 222.961 288.741 223.641C291.168 224.219 291.717 225.043 291.717 228.101C291.717 231.575 291.235 232.046 285.169 234.479C280.821 236.224 278.62 237.763 278.62 239.062C278.62 241.454 276.024 242.555 273.748 241.128C272.393 240.278 272.701 239.586 275.341 237.522C278.486 235.064 278.534 234.866 276.63 232.286C274.75 229.738 274.781 229.506 277.247 227.611C278.675 226.514 280.403 225.44 281.086 225.224C281.77 225.007 281.963 223.927 281.517 222.825C280.759 220.951 280.564 220.943 278.517 222.701C277.312 223.735 275.539 224.295 274.575 223.944C273.145 223.423 273.068 222.687 274.16 219.941C275.199 217.329 275.149 216.179 273.937 214.792C271.785 212.331 270.285 212.556 270.285 215.34C270.285 216.624 269.759 218.609 269.116 219.75C268.333 221.139 268.384 223.017 269.269 225.427C270.415 228.546 270.247 229.434 268.024 232.038C266.612 233.692 264.661 236.697 263.688 238.718C262.584 241.01 261.055 242.39 259.622 242.39C258.36 242.39 256.968 242.944 256.528 243.62C255.952 244.504 255.366 244.504 254.434 243.62C253.722 242.944 251.907 242.39 250.401 242.39C247.197 242.39 246.62 245.813 249.449 248.041C250.478 248.852 251.235 251.317 251.235 253.859C251.235 257.523 251.737 258.449 254.21 259.342C256.462 260.154 257.188 261.233 257.188 263.769C257.188 265.612 257.77 267.462 258.482 267.879C259.194 268.297 259.49 269.682 259.139 270.955C258.788 272.229 259.052 274.247 259.725 275.442C260.645 277.073 260.481 278.104 259.068 279.586C255.088 283.759 257.709 287.884 262.462 284.928C263.995 283.974 265.579 283.506 265.982 283.888C266.384 284.27 266.712 288.07 266.712 292.333C266.712 299.503 266.495 300.163 263.815 301.13C261.694 301.896 260.818 303.174 260.542 305.905C260.334 307.956 259.676 309.635 259.078 309.635C258.481 309.635 256.07 306.01 253.72 301.579C248.578 291.882 246.884 289.856 243.916 289.856C241.767 289.856 241.754 290.001 243.634 292.724C245.525 295.463 245.489 295.717 242.858 298.376C241.342 299.906 239.513 301.158 238.79 301.158C238.068 301.158 236.24 301.98 234.73 302.984L231.983 304.81L235.863 308.61C238.95 311.633 240.084 312.141 241.412 311.095C244.553 308.62 245.402 312.533 242.517 316.187C241.09 317.995 239.394 320.178 238.748 321.038C237.902 322.164 238.318 323.306 240.233 325.124C242.674 327.441 243.046 327.498 244.804 325.829C245.857 324.83 247.084 322.302 247.532 320.213C248.123 317.456 249.067 316.317 250.98 316.055C253.705 315.681 254.764 318.434 252.424 319.806C250.436 320.973 251.09 328.104 253.616 332.804C256.595 338.347 256.595 339.726 253.616 342.147C250.655 344.553 250.596 346.596 253.415 349.018C256.058 351.288 257.188 350.437 257.188 346.177C257.188 342.078 259.304 342.012 260.235 346.082C260.626 347.792 261.416 350.208 261.993 351.451C262.569 352.694 263.199 354.983 263.39 356.537C263.628 358.479 264.575 359.476 266.416 359.724C268.674 360.028 269.095 359.561 269.095 356.754C269.095 354.922 269.917 352.775 270.923 351.983C272.453 350.777 273.328 351.066 276.281 353.751C278.222 355.516 279.811 357.626 279.811 358.442C279.811 359.258 280.748 359.917 281.894 359.904C283.229 359.89 284.957 357.844 286.701 354.213C288.198 351.095 289.938 348.846 290.569 349.216C292.483 350.339 291.863 352.929 289.094 355.378L286.47 357.697L289.099 359.444C291.259 360.88 291.497 361.597 290.442 363.469C289.368 365.373 289.562 365.846 291.628 366.359C292.987 366.696 294.099 367.342 294.099 367.794C294.099 369.197 289.784 372.406 288.956 371.62C288.525 371.211 286.157 370.568 283.694 370.192C279.534 369.555 279.188 369.206 278.845 365.281C278.549 361.892 277.993 361.056 276.039 361.056C274.163 361.056 273.813 361.512 274.518 363.035C275.021 364.123 275.666 366.865 275.95 369.129C276.387 372.62 275.814 373.928 272.184 377.742C269.83 380.216 267.904 382.525 267.904 382.874C267.904 383.224 269.377 383.671 271.178 383.868C273.941 384.169 274.401 384.697 274.123 387.248C273.943 388.911 274.345 390.594 275.016 390.988C275.688 391.382 276.239 392.775 276.239 394.084C276.239 398.154 280.099 405.133 282.351 405.133C283.496 405.133 284.765 405.642 285.169 406.263C286.763 408.711 288.145 407.176 288.145 402.959C288.145 399.878 287.237 397.501 285.169 395.168C281.416 390.934 281.418 388.923 285.181 386.113C287.293 384.536 289.792 383.931 293.686 384.053C300.518 384.267 302.908 386.821 299.56 390.332C297.215 392.792 297.732 396.092 300.464 396.092C301.387 396.092 302.809 395.329 303.624 394.397C305.276 392.507 307.898 392.167 308.904 393.711C309.871 395.196 306.587 402.023 303.722 404.484C302.358 405.655 301.242 407.564 301.242 408.725C301.242 410.731 301.395 410.741 304.291 408.94C307.066 407.214 307.507 407.204 309.216 408.826C311.603 411.092 310.415 414.175 307.154 414.175C305.132 414.175 304.729 414.766 305.034 417.283L305.41 420.39L314.55 419.989C324.692 419.544 327.186 420.215 324.94 422.784C323.804 424.083 324.032 424.935 326.072 426.995C329.314 430.271 329.29 431.445 325.95 432.836C322.328 434.344 321.886 438.429 325.071 440.965C329.429 444.436 330.008 446.453 327.73 450.224C325.704 453.577 325.719 453.729 328.33 456.209L331.009 458.753L332.93 456.151C334.471 454.062 335.469 453.716 337.99 454.399C339.717 454.867 344.01 455.543 347.53 455.902C353.744 456.536 353.988 456.695 355.89 461.326C356.967 463.949 358.507 466.72 359.312 467.484C361.351 469.419 361.139 473.628 358.834 476.967C357.037 479.57 357.037 479.935 358.834 481.819C360.925 484.012 361.396 487.139 359.779 488.087C359.231 488.409 356.72 486.666 354.198 484.215C349.894 480.031 349.481 479.873 347.455 481.612C346.269 482.632 345.298 484.414 345.298 485.574C345.298 486.734 343.988 488.25 342.387 488.943C339.112 490.359 337.898 492.468 338.914 494.981C340.026 497.731 343.767 496.988 344.596 493.852C345.249 491.385 345.994 491.026 350.471 491.026C355.711 491.026 359.45 493.497 361.157 498.09C362.12 500.678 364.66 500.602 367.227 497.909C368.358 496.723 370.853 495.137 372.77 494.383C376.613 492.872 377.203 490.919 374.469 488.766C370.974 486.013 372.541 483.752 380.39 480.22C386.721 477.371 388.199 477.054 388.754 478.425C389.133 479.365 388.04 481.467 386.249 483.241C383.106 486.355 383.093 486.434 385.077 490.403C387.006 494.263 387.327 494.416 393.449 494.416C400.21 494.416 401.259 493.569 401.259 488.109C401.259 485.109 402.392 484.641 404.594 486.731C405.562 487.65 406.022 492.94 406.022 503.146C406.022 517.959 405.976 518.221 403.193 519.226C399.668 520.498 395.306 528.783 395.306 534.206C395.306 537.574 395.803 538.365 398.284 538.956C401.313 539.678 402.283 542.711 400.141 544.765C398.742 546.107 397.639 551.631 398.591 552.534C398.98 552.904 400.479 552.152 401.924 550.864L404.549 548.521L405.259 595.776C406.988 711.111 408.871 772.559 413.217 855.503C418.654 959.261 429.984 1101.91 433.681 1113.18C435.747 1119.47 443.766 1126.79 450.875 1128.86C456.007 1130.36 432.029 1130.55 228.313 1130.62L0 1130.7H854.911L657.555 1130.62C493.538 1130.56 461.171 1130.3 465.948 1129.08C473.549 1127.14 480.986 1122.05 484.281 1116.52C487.528 1111.08 487.671 1105.68 485.242 1080.41C476.202 986.323 468.428 863.537 464.386 750.962C461.983 684.041 459.756 527.19 461.208 527.19C462.76 527.19 470.294 531.399 473 533.777L476.274 536.655L476.286 558.764C476.322 623.883 484.128 718.206 496.007 797.055C501.786 835.408 503.057 841.142 506.938 846.399C514.062 856.047 531.146 859.734 542.526 854.077C548.892 850.913 555.801 843.221 556.795 838.189C557.82 833.002 556.364 810.652 554.74 806.648C551.591 798.884 542.732 733.012 538.209 683.719C536.325 663.181 533.438 617.017 533.432 607.325C533.427 600.173 533.823 598.4 535.807 596.695C539.239 593.748 538.926 590.48 535.213 590.48C532.337 590.48 532.235 590.226 532.235 582.996C532.235 576.698 532.501 575.72 533.908 576.829C536.233 578.66 541.762 577.168 541.762 574.71C541.762 572.234 545.954 568.539 547.64 569.528C548.336 569.936 548.906 571.018 548.906 571.934C548.906 574.733 551.914 574.897 556.472 572.344C561.15 569.725 561.544 569.025 559.458 567.045C557.847 565.516 546.342 566.491 545.126 568.26C544.597 569.03 543.67 568.91 542.399 567.909C540.736 566.599 539.922 566.9 536.432 570.111L532.391 573.829L532.016 561.383C531.564 546.402 531.755 545.273 534.742 545.273C537.695 545.273 538.985 542.222 537.187 539.489C535.256 536.554 535.414 536.232 538.785 536.232C541.383 536.232 541.762 535.738 541.762 532.344C541.762 528.395 543.363 526.211 544.725 528.303C546.129 530.458 551.095 529.61 551.501 527.145C552.093 523.561 554.223 523.98 554.613 527.756C555.077 532.25 552.683 535.117 547.657 536.087C543.575 536.875 543.543 536.928 542.887 544.186C542.324 550.419 542.586 551.93 544.673 554.491C549.646 560.594 554.324 561.262 563.023 557.115C569.051 554.241 571.063 551.482 569.826 547.783C569.143 545.742 562.694 542.734 561.476 543.889C560.359 544.95 560.739 549.617 562.003 550.359C564.315 551.715 563.064 553.773 558.762 555.69C553.6 557.99 551.287 556.846 551.287 551.995C551.287 549.569 550.659 548.736 548.62 548.46C545.698 548.064 544.362 544.613 546.388 542.691C547.298 541.826 548.585 541.942 550.861 543.093C553.353 544.353 554.167 544.397 554.557 543.295C554.832 542.518 556.351 541.883 557.934 541.883C560.209 541.883 560.812 541.291 560.812 539.057C560.812 536.203 562.433 535.28 563.789 537.362C564.194 537.983 567.089 538.492 570.223 538.492C574.516 538.492 576.482 537.902 578.191 536.102C579.438 534.787 581.664 533.274 583.137 532.739C584.611 532.204 585.816 530.992 585.816 530.044C585.816 529.096 586.354 528.321 587.013 528.321C587.761 528.321 587.995 531.604 587.637 537.08C587.322 541.897 587.051 547.745 587.035 550.076C587.015 553.116 586.491 554.314 585.183 554.314C582.281 554.314 581.854 551.335 584.213 547.545C586.038 544.612 586.12 543.89 584.723 543.07C581.423 541.134 579.863 543.07 579.863 549.099C579.863 555.682 577.632 559.628 573.602 560.171C571.853 560.407 570.933 561.309 570.933 562.79C570.933 566.233 580.325 566.66 583.999 563.385L586.662 561.01L587.3 586.764C587.651 600.928 587.741 612.718 587.501 612.962C587.261 613.206 586.247 612.762 585.249 611.975C583.716 610.768 583.435 610.934 583.435 613.05C583.435 614.533 584.331 615.777 585.631 616.099C587.69 616.61 587.877 619.048 588.645 655.267C589.095 676.509 589.791 697.323 590.192 701.519L590.921 709.147H584.201C580.505 709.147 577.482 709.488 577.482 709.905C577.482 711.469 581.496 714.797 583.381 714.797C584.459 714.797 585.899 715.328 586.582 715.976C587.443 716.793 588.289 716.619 589.346 715.41C591.116 713.386 592.96 713.123 592.96 714.895C592.96 717.551 600.515 725.902 605.159 728.379C616.89 734.637 636.378 729.111 642.597 717.761C646.892 709.924 649.429 696.149 646.857 694.64C645.828 694.036 645.256 683.993 644.781 658.249C644.421 638.691 643.847 616.67 643.508 609.313C642.92 596.566 643.004 595.91 645.311 595.338C646.643 595.007 647.732 594.095 647.732 593.311C647.732 592.527 648.562 591.233 649.576 590.434C650.59 589.635 651.259 587.92 651.064 586.623C650.706 584.252 648.917 583.885 645.053 585.39C643.159 586.127 642.969 585.266 642.969 575.908C642.969 566.658 643.192 565.616 645.167 565.616C646.375 565.616 648.255 564.682 649.344 563.54C651.193 561.601 651.185 561.349 649.231 559.756C648.079 558.817 646.199 557.733 645.053 557.347C643.319 556.763 642.969 555.22 642.969 548.134C642.969 543.453 643.449 539.623 644.036 539.623C645.649 539.623 652.496 547.382 652.496 549.21C652.496 551.527 659.957 556.575 663.383 556.575C664.991 556.575 666.94 557.177 667.715 557.913C669.471 559.579 670.89 558.398 669.944 556.059C669.521 555.012 667.781 554.314 665.593 554.314C663.481 554.314 661.663 553.615 661.274 552.652C660.316 550.283 664.639 541.947 666.843 541.913C668.148 541.892 668.688 540.739 668.688 537.981C668.688 534.642 668.251 534.03 665.661 533.743C663.734 533.529 662.066 532.277 661.072 530.299C659.307 526.788 656.316 526.197 655.347 529.168C654.993 530.256 654.132 532.14 653.436 533.355C652.522 534.95 652.546 535.683 653.523 535.992C655.075 536.483 655.393 541.883 653.87 541.883C651.902 541.883 648.697 537.466 647.739 533.435C646.811 529.529 647.041 529.099 652.752 524.028C659.439 518.091 661.249 517.537 661.806 521.257C662.094 523.184 662.972 523.8 665.434 523.8C667.648 523.8 670.146 525.224 673.284 528.274C675.816 530.735 678.335 532.485 678.883 532.163C679.432 531.841 679.881 529.662 679.881 527.321C679.881 522.292 675.727 517.835 671.362 518.179C661.05 518.992 658.935 517.564 662.474 512.176C663.378 510.8 664.46 508.275 664.877 506.566C665.57 503.731 665.339 503.457 662.228 503.457C660.352 503.457 657.928 502.525 656.84 501.384C655.013 499.467 655.008 499.032 656.786 495.649C659.159 491.135 661.457 490.19 664.243 492.583C665.416 493.591 667.557 494.416 669.002 494.416C670.447 494.416 672.875 495.191 674.397 496.138C676.878 497.681 677.32 497.678 678.686 496.116C680.766 493.738 676.968 489.545 673.642 490.547C670.816 491.398 666.784 488.129 666.784 484.988C666.784 482.873 666.509 482.94 663.329 485.832C661.408 487.579 658.896 488.798 657.672 488.577C652.353 487.619 656.254 473.819 662.026 473.179C663.66 472.998 666.225 472.265 667.726 471.55C669.916 470.507 671.121 470.625 673.841 472.149C677.418 474.155 678.622 473.616 680.254 469.271C680.663 468.183 681.83 467.292 682.849 467.292C683.868 467.292 685.249 465.928 685.917 464.261L687.131 461.228L690.222 464.162C692.011 465.859 692.981 467.732 692.526 468.607C689.066 475.256 686.042 479.099 684.567 478.722C678.431 477.154 677.499 477.231 677.512 479.31C677.52 480.645 679.158 482.121 681.977 483.331C693 488.063 695.36 487.094 695.36 477.836C695.36 472.808 695.876 471.251 698.231 469.179C700.507 467.178 700.847 466.224 699.878 464.579C699.007 463.103 699.058 462.265 700.052 461.682C701.062 461.089 700.731 459.704 698.857 456.69C696.391 452.723 696.132 452.6 693.567 454.195C690.246 456.261 689.406 455.56 689.406 450.717V446.949H696.159C700.63 446.949 703.611 446.348 704.981 445.171C706.881 443.539 707.119 443.594 707.873 445.85C708.328 447.21 708.109 448.862 707.384 449.55C706.664 450.233 706.076 451.198 706.076 451.696C706.076 453.416 709.287 452.591 711.459 450.313C713.13 448.56 713.312 447.715 712.238 446.696C711.468 445.965 710.838 443.548 710.838 441.324C710.838 436.476 708.02 432.257 704.78 432.257C701.508 432.257 700.684 429.383 702.996 426.034C704.529 423.813 705.941 423.216 709.675 423.216C714.275 423.216 714.41 423.326 714.41 427.095C714.41 432.144 717.714 433.31 723.764 430.394C726.151 429.244 728.274 428.223 728.484 428.128C728.693 428.032 727.757 425.776 726.401 423.113C725.045 420.45 723.937 418.1 723.937 417.89C723.937 417.681 725.275 417.026 726.912 416.435C731.288 414.856 730.769 411.914 726.113 411.914C722.23 411.914 717.982 414.591 717.982 417.038C717.982 417.797 717.168 419.06 716.173 419.844C714.704 421.001 713.98 420.942 712.305 419.532C711.171 418.578 709.172 417.612 707.862 417.384C704.412 416.783 704.566 411.472 708.047 411.002C709.61 410.79 710.899 409.575 711.344 407.894C711.913 405.74 712.853 405.133 715.62 405.133C718.492 405.133 719.477 404.435 720.801 401.461C721.74 399.351 721.994 397.331 721.399 396.714C720.829 396.124 720.365 394.762 720.365 393.688C720.365 391.796 714.427 388.18 711.321 388.18C709.079 388.18 707.98 385.921 709.514 384.465C711.126 382.935 711.272 379.14 709.718 379.14C709.102 379.14 708.267 379.649 707.862 380.27C707.458 380.892 705.283 381.399 703.029 381.399C699.453 381.399 698.932 381.041 698.932 378.575C698.932 377.021 699.601 375.685 700.42 375.607C701.239 375.528 702.981 375.351 704.29 375.213C705.6 375.074 707.609 374.884 708.755 374.791C711.603 374.557 711.545 370.099 708.694 370.099C707.516 370.099 705.956 370.665 705.227 371.357C702.401 374.04 700.189 369.671 702.047 365.076C702.622 363.654 703.146 363.546 704.458 364.579C705.379 365.305 706.283 365.701 706.465 365.457C710.018 360.704 710.838 358.095 710.838 351.557C710.838 344.263 712.224 341.577 714.752 343.977C715.481 344.668 718.381 345.235 721.196 345.235C725.36 345.235 726.317 344.85 726.317 343.172C726.317 342.037 724.977 339.914 723.34 338.454C721.703 336.994 720.365 334.926 720.365 333.858C720.365 332.754 719.136 331.626 717.518 331.241C715.794 330.83 714.378 329.446 713.923 327.728C713.303 325.38 712.461 324.892 709.029 324.892C704.109 324.892 703.863 323.937 707.861 320.372C710.649 317.886 710.71 317.591 708.865 315.656C707.782 314.52 705.945 313.59 704.78 313.59C701.067 313.59 700.726 309.209 704.173 305.794C706.589 303.4 707.266 301.59 707.266 297.518C707.266 294.651 706.735 292.136 706.085 291.929C704.793 291.517 708.362 283.077 709.828 283.077C711.393 283.077 714.41 288.034 714.41 290.606C714.41 294.61 716.131 294.567 720.326 290.459C723.433 287.417 724.08 286.031 723.469 283.723C722.824 281.284 722.02 280.815 718.477 280.815C716.155 280.815 713.222 280.292 711.961 279.652C708.933 278.114 704.812 270.036 706.324 268.601C707.048 267.914 706.924 266.704 705.986 265.277C704.112 262.429 705.311 259.344 708.291 259.344C710.685 259.344 712.029 261.408 712.029 265.086C712.029 267.7 711.932 267.69 716.609 265.476C720.843 263.471 721.501 260.256 718.509 256.201C716.365 253.297 717.05 251.712 721.074 250.26C723.565 249.361 723.937 248.5 723.937 243.615C723.937 237.304 722.129 235.158 720.417 239.433C719.41 241.946 718.612 242.257 713.266 242.217C705.952 242.164 701.135 239.213 703.179 236.039C704.528 233.944 705.402 233.416 712.092 230.67C714.419 229.715 717.265 227.944 718.418 226.735C720.425 224.63 720.413 224.469 718.144 222.96C716.841 222.094 715.113 220.008 714.305 218.325C712.539 214.646 711.655 214.561 707.119 217.626C704.133 219.645 703.08 219.805 699.843 218.734C697.761 218.045 694.821 216.379 693.311 215.032C691.192 213.143 690.243 212.89 689.153 213.925C688.375 214.662 686.84 215.267 685.741 215.267C684.643 215.267 683.077 216.03 682.261 216.962C681.446 217.895 679.238 218.658 677.353 218.658C674.946 218.658 673.928 219.218 673.928 220.545C673.928 223.374 670.356 226.568 667.194 226.568C664.082 226.568 663.919 226.266 665.505 223.445C666.112 222.366 666.9 220.593 667.255 219.505C667.609 218.418 669.045 217.527 670.445 217.527C671.845 217.527 674.042 216.255 675.33 214.701C676.851 212.866 678.864 211.877 681.072 211.877C686.927 211.877 689.406 207.479 689.406 197.098C689.406 192.246 689.942 187.961 690.597 187.577C691.252 187.193 691.788 185.631 691.788 184.106C691.788 182.58 692.457 180.29 693.276 179.018C694.59 176.977 694.308 176.316 690.876 173.383C684.526 167.956 679.881 169.217 679.881 176.368C679.881 182.745 673.725 176.627 673.269 169.795C673.091 167.144 673.643 163.611 674.495 161.945C675.893 159.209 675.768 158.67 673.199 156.379C670.074 153.593 669.576 150.907 671.795 148.802C672.921 147.733 671.69 145.933 666.14 140.541C662.237 136.749 657.436 132.98 655.471 132.167C653.506 131.354 650.39 129.186 648.545 127.348L645.191 124.007L648.409 121.605C650.178 120.284 652.893 119.203 654.442 119.203C657.315 119.203 658.215 117.637 656.068 116.377C655.413 115.993 654.876 114.213 654.876 112.422C654.876 108.521 653.317 107.296 651.294 109.609C650.485 110.535 649.071 111.291 648.153 111.291C647.234 111.291 645.974 112.563 645.352 114.117C644.3 116.743 643.656 116.943 636.247 116.943C630.749 116.943 627.646 116.403 626.253 115.207C624.402 113.617 624.174 113.754 623.523 116.841C623.133 118.694 621.749 120.751 620.448 121.411C618.357 122.474 617.817 122.038 615.767 117.638C612.799 111.271 613.736 105.259 617.781 104.706C621.526 104.194 620.872 99.5753 616.981 99.0521C614.92 98.775 614.422 98.1969 615.033 96.7924C617.181 91.8558 617.026 90.9832 613.801 89.8193C611.314 88.9218 610.863 88.3073 611.857 87.1705C612.793 86.0995 612.754 84.6915 611.715 82.0798C610.57 79.2008 610.596 77.9896 611.839 76.1001C612.957 74.4006 613.034 73.3849 612.109 72.5077C611.401 71.8351 610.82 70.3685 610.82 69.2496C610.82 66.5557 610.051 66.6781 605.841 70.041C603.895 71.595 601.607 72.8669 600.755 72.8669C598.009 72.8669 596.044 76.0316 597.65 77.8682C598.425 78.7546 598.894 81.6783 598.69 84.3661C598.338 89.0093 598.119 89.2723 594.298 89.619C592.086 89.8197 589.78 89.5112 589.174 88.9353C588.496 88.2925 586.486 88.5702 583.967 89.6538C580.134 91.303 579.863 91.7701 579.863 96.7427C579.863 104.059 579.114 105.385 573.542 107.941C567.543 110.692 566.766 110.703 566.766 108.04C566.766 106.873 565.963 105.284 564.98 104.51C562.748 102.752 562.693 98.1013 564.858 94.1617C565.965 92.1486 566.116 90.7831 565.313 90.0214C563.169 87.9858 565.605 86.4288 570.931 86.4288C576.099 86.4288 576.15 86.3898 576.516 82.1908C576.879 78.0343 576.989 77.9454 582.244 77.5984C588.555 77.1815 590.381 75.9279 588.24 73.4795C587.292 72.3945 584.747 71.7362 581.503 71.7362C575.731 71.7362 574.539 70.1373 579.439 68.97C583.322 68.0449 581.523 65.7041 577.366 66.2714C575.315 66.5511 574.386 67.6174 573.797 70.3688C572.744 75.2842 569.32 78.9294 567.27 77.3153C566.177 76.4541 564.341 76.7699 560.679 78.4493C557.887 79.7296 554.037 80.777 552.124 80.777C549.009 80.777 548.725 80.4833 549.394 77.9526C549.999 75.6677 549.701 75.1267 547.837 75.1267C546.569 75.1267 545.327 74.5444 545.078 73.8337C544.744 72.8831 543.891 72.915 541.851 73.9513C539.862 74.9617 538.32 75.0314 536.397 74.1996C534.103 73.2078 533.145 73.5988 529.766 76.908C524.766 81.8043 521.826 81.7855 516.758 76.8219C512.141 72.301 510.803 71.9204 510.803 75.1267C510.803 77.9124 508.625 78.1038 507.578 75.4098C506.37 72.3024 504.498 71.6947 501.629 73.4795C498.866 75.1978 495.325 75.6879 495.325 74.3519C495.325 73.9258 496.496 72.3934 497.928 70.9465C499.882 68.9716 500.192 67.994 499.169 67.0229C498.146 66.052 497.34 66.0967 495.931 67.2068C494.503 68.3317 493.422 68.3855 491.415 67.4319C489.964 66.7424 487.441 66.0305 485.811 65.8492C482.086 65.4352 481.466 62.7062 484.334 59.3447C486.279 57.0638 486.839 56.9346 489.059 58.2504C490.986 59.3927 492.261 59.4468 494.495 58.4806C496.676 57.5376 497.769 57.5533 498.815 58.5435C499.888 59.5579 500.731 59.2223 502.41 57.1132C505.814 52.8372 504.345 51.3933 496.595 51.3933C490.871 51.3933 489.341 50.9424 486.99 48.5674C485.452 47.0134 482.855 45.7415 481.22 45.7415H481.22ZM465.46 46.2281C465.039 46.2384 464.521 47.0968 463.681 48.9796C462.748 51.0712 461.984 53.0155 461.984 53.3005C461.984 53.5856 462.916 53.6493 464.054 53.4413C466.361 53.0195 467.363 50.0065 466.165 47.089C465.931 46.5211 465.713 46.222 465.46 46.2281ZM322.674 51.3933C319.635 51.3933 319.438 55.6129 322.377 57.7307C325.165 59.7393 325.057 59.8358 325.057 55.3484C325.057 52.1462 324.602 51.3933 322.674 51.3933ZM382.244 54.7507C380.97 54.7355 379.019 55.2823 376.096 56.249C369.312 58.4926 365.162 62.6938 369.732 62.6938C370.728 62.6938 372.152 63.9624 372.895 65.5116C373.781 67.3558 374.698 67.9749 375.55 67.3062C376.266 66.7444 378.459 66.1127 380.423 65.9022C383.773 65.5435 384.018 65.1854 384.358 60.151C384.614 56.3596 384.368 54.7761 382.244 54.7507ZM336.68 54.8419C336.124 54.9293 335.773 55.4247 335.773 56.3053C335.773 57.9462 338.971 64.6287 340.859 66.932C342.437 68.8574 343.386 68.7148 345.798 66.1854C347.017 64.9075 347.7 62.7141 347.471 60.8167C347.154 58.1901 346.436 57.5415 343.512 57.239C341.547 57.0358 339.431 56.4006 338.809 55.8268C337.994 55.0747 337.235 54.7544 336.68 54.8419ZM450.118 57.1414C449.743 57.1703 449.426 57.2853 449.201 57.4989C448.818 57.8627 449.477 59.1805 450.666 60.4275C451.855 61.6744 453.821 62.6938 455.035 62.6938C456.948 62.6938 457.043 62.3927 455.747 60.4225C454.478 58.4945 451.743 57.0162 450.118 57.1414ZM398.917 60.4126C395.829 60.3606 392.631 60.9789 392.146 62.1791C391.189 64.5449 392.501 65.5652 394.488 64.0001C395.743 63.0115 396.738 63.3584 398.892 65.5347C401.239 67.9058 402.761 68.3458 408.611 68.3458C412.426 68.3458 415.547 68.1687 415.547 67.9534C415.547 67.7382 414.706 65.9587 413.676 63.9985C411.695 60.2301 409.802 59.5583 407.451 61.7899C406.34 62.8447 405.705 62.8447 404.594 61.7899C403.654 60.8976 401.318 60.453 398.917 60.4126ZM562.746 60.7454C562.415 60.7672 561.841 61.2463 560.84 62.1062C559.545 63.218 558.773 64.5675 559.123 65.1061C560.552 67.2997 563.193 65.9879 563.193 63.0846C563.193 61.4438 563.171 60.7172 562.746 60.7454ZM543.986 61.1659C543.392 61.1034 542.582 61.4237 541.67 62.2073C540.44 63.2632 539.723 64.5675 540.074 65.1061C541.117 66.7087 543.833 66.2195 544.614 64.2882C545.362 62.4368 544.975 61.27 543.986 61.1659ZM549.754 61.7668C549.577 61.7714 549.431 61.8185 549.325 61.9192C548.932 62.2917 548.928 63.382 549.316 64.3411C550.058 66.1748 553.668 66.7982 553.668 65.0927C553.668 63.8462 550.991 61.736 549.754 61.7668H549.754ZM621.573 66.0844C618.276 66.0844 617.965 66.4113 617.965 69.8523C617.965 71.9243 618.322 73.9592 618.758 74.3735C620.072 75.6207 620.993 75.2572 623.862 72.3588C627.359 68.8254 626.359 66.0844 621.573 66.0844ZM701.89 66.2632C701.175 66.235 700.45 66.4518 699.883 66.9899C699.185 67.6522 698.952 69.0276 699.365 70.0477C700.318 72.4055 704.132 71.7783 704.66 69.1769C704.986 67.5712 703.464 66.3254 701.89 66.2632ZM567.761 66.4154C565.582 66.5641 562.001 69.1365 562.001 70.8522C562.001 71.4169 563.74 71.7192 565.863 71.5244C570.092 71.1364 571.947 67.731 568.594 66.5098C568.355 66.4226 568.072 66.3943 567.761 66.4154ZM173.815 67.3094C173.053 67.4099 172.648 68.5161 172.648 70.6056C172.648 74.3202 173.925 74.926 176.22 72.3008C177.403 70.9484 177.403 70.2628 176.22 68.9103C175.216 67.7617 174.407 67.2313 173.815 67.3094ZM743.972 69.4963C743.527 69.5592 743.051 70.1812 742.665 71.4531C742.336 72.541 741.679 74.3204 741.207 75.4082C740.55 76.9236 740.937 77.3865 742.859 77.3865C744.932 77.3865 745.367 76.7007 745.367 73.4315C745.367 70.8414 744.714 69.3916 743.972 69.4963ZM396.416 70.3804C395.63 70.4563 395.044 71.3678 393.968 73.5193C392.154 77.1483 392.164 77.3865 394.12 77.3865C395.267 77.3865 396.884 78.1619 397.713 79.11C399.058 80.6484 399.46 80.6284 401.446 78.9229C403.368 77.2717 403.454 76.7029 402.081 74.7394C401.206 73.4895 399.458 71.8333 398.196 71.0592C397.431 70.5895 396.887 70.3348 396.416 70.3804ZM276.093 72.8654C273.465 72.8654 273.433 73.0087 275.238 76.769C276.829 80.084 277.74 80.3182 279.809 77.951C281.664 75.83 279.498 72.8654 276.093 72.8654ZM356.05 72.9531C355.191 72.9763 354.822 74.2338 354.822 76.822C354.822 80.0242 355.277 80.777 357.205 80.777C359.932 80.777 360.553 76.4971 358.157 74.2229C357.259 73.3702 356.566 72.9391 356.05 72.9531ZM490.375 75.4347C491.645 75.6884 492.81 80.5873 492.013 82.8563C491.375 84.6729 489.43 84.4991 488.644 82.5551C487.685 80.1848 488.569 75.9323 490.121 75.4479C490.206 75.4214 490.291 75.4177 490.375 75.4347ZM642.795 78.6116C642.369 78.595 641.841 78.6852 641.234 78.9062C639.342 79.5952 638.702 84.2568 640.29 85.7766C640.781 86.2468 641.374 85.6951 641.609 84.5515C641.843 83.4081 642.59 81.824 643.267 81.032C644.427 79.6764 644.07 78.6614 642.795 78.6116ZM540.724 80.9806C541.085 81.0389 541.383 81.3361 541.717 81.8464C542.357 82.8264 542.326 84.2977 541.636 85.52H541.635C540.336 87.8251 539.546 87.9819 536.998 86.4471C535.471 85.5277 535.607 84.9972 537.931 82.7917C539.345 81.4489 540.123 80.8835 540.725 80.9806H540.724ZM556.049 83.0715C558.801 83.0715 561.21 84.9022 560.299 86.3014C559.849 86.9926 557.936 87.558 556.049 87.558C554.161 87.558 552.25 86.9926 551.8 86.3014C550.889 84.9022 553.296 83.0715 556.049 83.0715ZM336.165 84.6344C335.796 84.6466 335.773 85.1606 335.773 86.1873C335.773 87.3558 336.13 88.6501 336.566 89.0646C337.634 90.0778 340.264 90.0209 340.937 88.9702C341.236 88.504 340.196 87.2097 338.626 86.0929C337.247 85.1117 336.534 84.6222 336.165 84.6344ZM426.447 86.4274C431.321 86.4274 433.124 88.2051 431.735 91.6405C431.127 93.1447 430.68 93.2108 429.167 92.0197C427.626 90.8055 427.228 90.9651 426.661 93.0228C425.641 96.7242 422.962 95.9998 419.857 91.182C418.282 88.7384 421.484 86.4274 426.447 86.4274ZM402.309 89.8179C405.282 89.8179 405.725 90.1903 405.283 92.3607L404.765 94.9036L405.951 92.3607C407.176 89.7339 408.968 89.0709 410.107 90.821C410.466 91.3722 409.961 92.4518 408.986 93.2198C406.858 94.8956 406.702 98.1127 408.606 101.006C409.71 102.684 409.566 103.982 407.911 107.292C406.627 109.861 405.215 111.239 404.236 110.883C402.455 110.234 401.259 112.43 401.259 116.349C401.259 117.786 400.413 119.269 399.377 119.647C398.341 120.024 397.402 120.284 397.293 120.225C397.183 120.165 395.086 119.274 392.634 118.246C387.872 116.249 387.363 114.338 391.443 113.766C392.818 113.574 394.583 112.683 395.366 111.788C396.148 110.893 397.928 110.12 399.321 110.07C401.351 109.996 401.086 109.658 397.985 108.371C395.533 107.353 394.115 105.962 394.115 104.573C394.115 103.369 393.58 102.069 392.925 101.684C390.76 100.414 391.628 96.4147 394.207 95.7743C395.567 95.4368 397.161 93.9589 397.75 92.4897C398.539 90.5205 399.736 89.8179 402.309 89.8179ZM656.84 89.9751C655.385 89.9451 653.72 90.4607 652.396 91.5975C651.141 92.6761 650.113 94.0181 650.113 94.5791C650.113 95.1401 652.39 95.4424 655.173 95.2512C659.318 94.9666 660.233 94.495 660.233 92.6438C660.233 90.9552 658.711 90.0137 656.84 89.9751ZM598.564 92.3491C598.887 92.3347 599.183 92.3684 599.429 92.4584C601.915 93.3638 603.089 98.5037 601.282 100.57C599.403 102.719 597.224 102.708 595.329 100.541C594.307 99.3716 593.385 99.1853 592.413 99.9512C590.361 101.568 583.256 98.8389 583.744 96.6219C584.017 95.3806 585.407 94.9797 588.757 95.1768C591.69 95.3491 594.169 94.7804 595.512 93.6272C596.387 92.8755 597.597 92.3922 598.564 92.3491ZM632.253 92.7662L628.084 96.5988C625.792 98.7074 623.917 101.351 623.917 102.473C623.917 103.624 624.784 104.51 625.908 104.51C629.391 104.51 632.253 101.019 632.253 96.7677V92.7662ZM450.125 93.6073C450.664 93.6381 451.248 93.8535 451.814 94.2993C452.824 95.095 453.65 96.4462 453.65 97.3024C453.65 99.4504 448.979 99.271 448.097 97.0889C447.287 95.0856 448.509 93.515 450.125 93.6073ZM250.335 96.2511C249.651 96.2983 248.878 96.5963 248.027 97.1616C245.044 99.1448 244.12 102.066 245.42 105.401C246.471 108.097 246.865 108.225 250.936 107.189C253.113 106.635 253.616 105.71 253.616 102.257C253.616 98.236 252.385 96.1094 250.335 96.2511ZM304.693 98.8983C304.292 98.8854 303.756 99.0032 303.08 99.2493C301.74 99.7373 301.242 101.56 301.242 105.982C301.242 109.317 301.6 112.384 302.037 112.798C303.45 114.139 306.062 113.598 306.783 111.815C307.169 110.859 306.531 109.077 305.365 107.855C303.58 105.983 303.471 105.163 304.671 102.665C305.874 100.158 305.897 98.9371 304.693 98.8983H304.693ZM792.463 99.0704C790.565 99.0963 789.018 101.843 790.126 103.545C790.517 104.145 791.724 104.474 792.808 104.275C795.352 103.81 795.384 99.5657 792.847 99.1019C792.718 99.0784 792.59 99.0687 792.463 99.0704ZM327.739 102.251C326.89 102.286 326.246 102.515 326.246 102.974C326.246 103.372 327.184 104.354 328.33 105.158C330.568 106.727 332.99 105.509 331.669 103.479C331.138 102.664 329.154 102.191 327.739 102.251ZM321.348 102.643C320.863 102.591 320.577 103.185 320.058 104.517C319.516 105.906 317.75 108.536 316.132 110.361C313.382 113.463 313.135 114.922 314.206 121.746C314.413 123.061 317.276 122.746 318.87 121.233C319.659 120.484 322.841 119.594 325.941 119.254C331.728 118.621 333.323 116.829 331.691 112.793C331.128 111.399 330.626 111.317 329.262 112.392C326.849 114.293 325.057 112.865 325.057 109.045C325.057 107.261 324.153 104.946 323.049 103.898C322.226 103.116 321.726 102.684 321.348 102.643ZM621.655 105.004C621.343 105.057 621.144 105.526 620.863 106.375C620.483 107.525 619.676 109.35 619.069 110.429C618.462 111.508 617.965 112.653 617.965 112.972C617.965 114.385 622.535 113.366 624.233 111.575C625.946 109.768 625.912 109.367 623.832 106.939C622.645 105.554 622.057 104.935 621.655 105.004ZM597.052 105.279C597.752 105.2 598.317 105.703 599.274 106.611C600.991 108.241 601.23 109.229 600.3 110.861C599.633 112.031 598.792 113.888 598.432 114.99C597.868 116.714 597.418 116.794 595.212 115.556C593.168 114.41 592.539 114.404 592.109 115.53C591.351 117.517 589.782 117.286 588.879 115.053C588.363 113.776 589.563 111.755 592.577 108.826C595.032 106.44 596.153 105.379 597.052 105.279ZM640.825 105.641C639.593 105.641 637.014 108.087 637.014 109.257C637.014 109.754 638.087 110.161 639.397 110.161C640.985 110.161 641.778 109.408 641.778 107.901C641.778 106.658 641.349 105.641 640.825 105.641ZM754.892 114.117C753.91 114.117 752.935 115.262 752.726 116.66C752.433 118.617 752.932 119.203 754.892 119.203C756.852 119.203 757.353 118.617 757.06 116.66C756.851 115.262 755.874 114.117 754.892 114.117ZM571.838 114.167C572.571 114.093 573.378 114.811 575.177 116.447C577.229 118.313 578.702 118.941 579.208 118.165C580.351 116.409 582.203 116.659 583.02 118.68C583.407 119.635 582.771 121.415 581.607 122.635C578.898 125.476 576.736 125.461 575.946 122.594C575.53 121.083 574.321 120.332 572.304 120.332C568.271 120.332 567.251 118.426 569.833 115.718C570.745 114.761 571.269 114.225 571.838 114.167ZM387.1 117.169C387.607 117.248 388.259 117.698 389.252 118.551C390.587 119.697 391.391 121.075 391.04 121.614C390.046 123.14 386.106 122.765 385.424 121.079C385.087 120.245 385.264 118.866 385.818 118.014C386.231 117.381 386.593 117.089 387.1 117.169ZM630.298 122.556C632.536 122.71 633.941 125.078 632.954 128.812C632.042 132.261 628.703 132.52 625.704 129.375C623.624 127.193 623.624 127.035 625.704 124.853C627.311 123.167 628.954 122.463 630.298 122.556ZM375.655 125.31C377.921 125.237 380.015 127.596 379.148 129.739C378.384 131.628 374.986 132.313 373.478 130.881C371.97 129.449 372.691 126.222 374.682 125.497C375.004 125.38 375.331 125.321 375.655 125.31ZM307.341 125.984C304.743 125.984 303.101 127.654 299.975 133.472C297.394 138.278 298.463 140.675 303.19 140.675C304.756 140.675 307.001 141.247 308.178 141.945C309.816 142.916 311.142 142.815 313.819 141.516C317.805 139.581 322.674 140.652 322.674 143.465C322.674 145.965 324.762 145.595 325.651 142.937C326.695 139.815 328.433 140.107 329.345 143.557C330.043 146.195 330.574 146.41 335.619 146.1C340.612 145.793 341.165 145.475 341.501 142.718C341.796 140.292 341.132 139.311 338.227 137.886C336.222 136.902 334.581 135.384 334.581 134.513C334.581 133.266 328.581 129.375 326.659 129.375C326.433 129.375 326.246 130.871 326.246 132.699C326.246 136.431 324.333 138.183 322.332 136.283C321.603 135.591 319.079 135.025 316.721 135.025C311.569 135.025 309.577 133.386 309.577 129.148C309.577 126.806 308.996 125.984 307.341 125.984ZM669.125 126.141C668.871 126.142 668.62 126.155 668.376 126.181C663.981 126.659 663.063 131.495 666.711 134.957C670.035 138.112 670.917 137.919 673.712 133.422C676.036 129.683 676.044 129.497 673.935 127.686C672.833 126.739 670.899 126.135 669.125 126.141ZM272.548 129.375C270.987 129.375 270.285 130.173 270.285 131.949C270.285 133.365 269.5 135.586 268.54 136.886C267.581 138.185 267.134 139.569 267.548 139.962C267.961 140.354 269.685 140.676 271.376 140.675C274.249 140.674 274.465 140.3 274.633 135.023C274.787 130.165 274.495 129.375 272.548 129.375ZM286.87 129.444C286.154 129.458 285.764 130.193 285.764 131.634C285.764 133.141 286.557 133.894 288.145 133.894C290.844 133.894 291.196 132.723 289.097 130.73C288.179 129.859 287.426 129.433 286.87 129.444ZM684.984 132.967C683.747 132.936 681.07 135.046 681.07 136.293C681.07 136.838 681.892 137.285 682.895 137.285C684.814 137.285 686.633 134.277 685.413 133.119C685.307 133.019 685.161 132.971 684.984 132.967ZM639.81 134.076C642.076 134.013 644.633 134.64 645.011 135.737C645.54 137.266 638.897 138.389 636.755 137.132C635.643 136.48 635.598 135.917 636.582 134.983C637.196 134.401 638.451 134.114 639.81 134.076ZM753.661 135.025C752.362 135.025 752.09 138.769 753.305 139.922C754.302 140.869 755.468 140.883 756.439 139.962C757.415 139.035 755.157 135.025 753.661 135.025ZM376.963 137.367C378.016 137.42 378.973 137.932 379.405 139C379.888 140.194 379.04 141.937 377.066 143.811C374.433 146.31 373.859 146.477 373.232 144.925C372.827 143.921 372.671 141.919 372.887 140.475C373.187 138.464 375.208 137.279 376.963 137.367ZM367.03 137.445C369.831 137.416 371.087 140.11 369.098 142.385C367.415 144.311 366.761 144.408 364.529 143.066C362.119 141.616 363.399 137.901 366.451 137.488C366.651 137.461 366.843 137.447 367.03 137.445ZM650.247 140.907C650.759 140.99 651.417 141.447 652.421 142.309C653.77 143.468 654.875 144.846 654.875 145.372C654.875 145.897 653.594 146.327 652.026 146.327C648.872 146.327 647.405 144.136 648.96 141.748C649.372 141.115 649.736 140.824 650.247 140.907ZM276.911 141.231C276.262 141.172 276.237 142.112 276.237 144.567C276.237 148.341 276.475 148.589 280.108 148.626C282.236 148.648 285.316 149.394 286.953 150.282C288.591 151.17 290.768 151.915 291.792 151.938C293.596 151.976 300.052 146.438 300.052 144.852C300.052 144.42 295.884 144.066 290.791 144.066C284.336 144.066 280.729 143.534 278.885 142.307C277.915 141.663 277.3 141.267 276.911 141.231ZM699.457 144.19C699.218 144.2 698.948 144.23 698.645 144.271C695.281 144.726 694.593 147.875 697.073 151.467C699.934 155.612 701.311 154.835 701.311 149.073C701.311 144.959 701.13 144.116 699.457 144.19ZM659.654 144.291C660.396 144.274 661.193 144.953 661.532 145.95C661.919 147.089 662.842 149.217 663.583 150.678C664.706 152.891 664.56 153.592 662.713 154.874C660.833 156.179 660.585 157.498 661.079 163.519C661.399 167.428 661.43 171.26 661.147 172.037C660.4 174.083 658.484 173.771 657.686 171.473C657.309 170.385 655.928 167.222 654.618 164.445C651.88 158.636 652.741 156.134 657.674 155.575C661.257 155.168 661.662 154.04 658.982 151.929C656.869 150.264 657.115 145.035 659.34 144.342C659.442 144.31 659.548 144.293 659.654 144.291ZM828.716 149.717C828.061 149.717 827.524 151.497 827.524 153.672C827.524 155.848 828.061 157.628 828.716 157.628C829.37 157.628 829.905 155.848 829.905 153.672C829.905 151.497 829.37 149.717 828.716 149.717ZM793.695 149.848C793.404 149.848 793.076 149.871 792.709 149.921C791.242 150.12 789.863 151.173 789.645 152.26C789.189 154.527 791.814 154.906 793.947 152.881C795.888 151.04 795.728 149.851 793.695 149.848ZM763.397 156.839C762.807 156.864 761.967 157.208 760.93 157.897C759.582 158.793 758.834 159.863 759.266 160.273C760.675 161.61 763.286 161.06 764.007 159.275C764.665 157.647 764.379 156.799 763.397 156.839ZM274.617 157.197C273.08 157.15 272.243 158.324 273.262 159.889C274.194 161.321 277.069 161.355 277.987 159.945C278.371 159.355 277.632 158.337 276.344 157.682C275.719 157.365 275.129 157.213 274.617 157.197ZM632.998 157.843C634.511 157.87 635.825 159.253 635.825 161.548C635.825 163.121 635.865 164.777 635.914 165.228C636.121 167.125 633.718 166.528 631.294 164.079C629.027 161.789 628.897 161.17 630.298 159.353C631.11 158.298 632.089 157.826 632.998 157.843ZM241.129 164.975C238.681 164.975 237.426 167.804 238.593 170.691C238.955 171.587 240.375 172.32 241.746 172.32C243.844 172.32 244.181 171.734 243.867 168.647C243.584 165.854 242.927 164.975 241.129 164.975ZM4.76156 165.62C4.23281 165.62 3.70414 166.059 2.78014 166.936C1.14334 168.49 1.06645 169.121 2.33194 170.569C3.17441 171.532 4.26701 172.32 4.76156 172.32C5.25602 172.32 6.35041 171.532 7.19288 170.569C8.45828 169.121 8.38148 168.49 6.74467 166.936C5.82058 166.059 5.29023 165.62 4.76156 165.62ZM270.879 167.799C266.892 167.799 266.712 167.975 266.712 171.85C266.712 174.077 267.114 175.713 267.605 175.485C273.701 172.666 275.048 171.653 275.048 169.878C275.048 168.256 274.132 167.799 270.879 167.799ZM703.512 171.58C703.129 171.635 702.667 172.529 701.808 174.452C700.525 177.328 700.435 178.664 701.447 179.821C703.021 181.621 706.799 181.863 707.861 180.232C708.265 179.61 709.637 179.101 710.908 179.101C712.179 179.101 713.219 178.592 713.219 177.97C713.219 177.349 712.013 176.832 710.54 176.823C707.172 176.801 705.549 175.758 704.411 172.885C704.061 172.001 703.811 171.537 703.512 171.58ZM165.575 173.769C164.069 173.867 163.123 175.293 163.123 177.936C163.123 181.086 163.452 181.361 167.22 181.361C172.667 181.361 173.607 179.498 169.922 176C168.256 174.419 166.746 173.692 165.575 173.769ZM659.507 175.875C662.837 175.877 666.782 178.435 666.782 180.76C666.782 181.48 665.279 183.435 663.442 185.106C659.462 188.725 659.382 188.736 656.762 185.988C655.451 184.614 654.846 182.465 655.089 180.055C655.413 176.849 655.984 176.221 658.851 175.909C659.067 175.886 659.285 175.874 659.507 175.875ZM323.954 181.874C326.135 181.928 328.604 182.67 329.347 183.811C330.365 185.374 328.913 189.971 326.755 192.019C324.249 194.398 323.153 194.259 320.956 191.282C318.651 188.159 318.571 184.317 320.775 182.581C321.441 182.056 322.646 181.841 323.954 181.874ZM232.401 182.664C229.989 182.946 223.848 187.716 223.848 189.484C223.848 191.229 234.208 190.477 235.837 188.614C237.7 186.483 236.078 183.276 232.83 182.67C232.706 182.647 232.562 182.645 232.401 182.664ZM253.616 185.882C252.028 185.882 251.233 186.635 251.233 188.142C251.233 190.704 252.469 191.04 254.568 189.047C256.667 187.055 256.314 185.882 253.616 185.882ZM190.92 191.703C188.649 191.711 187.308 194.875 189.334 196.063C191.557 197.367 194.263 196.091 193.827 193.946C193.624 192.944 192.526 191.954 191.385 191.746C191.227 191.717 191.071 191.702 190.92 191.703ZM173.658 194.031C171.945 194.108 170.549 195.089 169.569 196.954C168.825 198.37 167.07 200.687 165.669 202.103C162.141 205.668 162.447 206.831 167.588 209.4C174.329 212.769 177.703 212.162 178.939 207.356C181.389 197.83 181.367 197.474 178.186 195.496C176.515 194.456 174.99 193.97 173.658 194.031ZM698.5 197.184C696.34 197.184 695.083 200.234 696.051 203.128C696.791 205.342 696.819 205.34 699.22 203.061C701.804 200.609 701.384 197.184 698.5 197.184ZM249.313 198.313C247.315 198.313 247.147 200.764 249.021 202.543C250.869 204.297 247.275 211.482 244.068 212.448C241.744 213.148 240.672 218.428 242.502 220.164C244.363 221.931 248.948 220.831 249.958 218.375C250.533 216.976 252.931 214.079 255.286 211.936C260.141 207.522 260.585 206.225 257.243 206.225C255.756 206.225 254.205 204.8 252.941 202.27C251.853 200.094 250.22 198.313 249.313 198.313ZM664.061 205.828C664.625 205.852 665.183 206.018 665.776 206.319C668.533 207.72 668.757 213.609 666.09 214.58C663.248 215.615 662.562 215.449 660.418 213.2C657.793 210.446 657.933 208.956 661.012 206.909C662.167 206.141 663.122 205.788 664.061 205.828ZM198.843 222.808C197.722 222.808 196.601 223.047 195.271 223.523C192.079 224.667 191.699 225.31 191.699 229.579C191.699 233.639 192.19 234.601 194.973 235.993C199.093 238.052 199.721 238.135 200.63 236.739C201.034 236.118 202.406 235.609 203.677 235.609C206.132 235.609 206.788 233.952 204.795 232.783C203.996 232.315 203.996 231.38 204.795 229.965C206.766 226.469 206.175 224.87 202.416 223.523C201.086 223.047 199.965 222.808 198.843 222.808ZM238.528 224.308C237.434 224.308 235.554 225.154 234.351 226.187C232.304 227.946 232.291 228.198 234.152 230.15C236.011 232.1 236.285 232.114 238.33 230.357C241.077 227.997 241.198 224.308 238.528 224.308ZM233.373 233.349C231.493 233.349 231.983 238.534 234.266 242.807C236.201 246.429 236.501 246.579 238.459 244.918C240.463 243.217 240.419 242.982 237.566 240.155C235.915 238.519 234.564 236.318 234.564 235.264C234.564 234.211 234.028 233.349 233.373 233.349ZM730.207 244.782C729.141 244.87 728.004 245.892 727.721 247.77C727.432 249.693 727.934 250.301 729.806 250.301C731.659 250.301 732.27 249.58 732.27 247.393C732.27 245.538 731.273 244.693 730.207 244.782ZM694.057 245.174C694.806 245.23 695.67 245.59 696.522 246.321C697.847 247.46 698.931 248.821 698.931 249.346C698.931 251.071 692.919 250.343 692.186 248.53C691.326 246.404 692.411 245.052 694.057 245.174ZM746.558 247.618V253.48C746.558 259.524 747.307 260.252 751.398 258.173C754.61 256.542 754.281 254.64 750.13 250.866L746.558 247.618ZM767.858 250.894C765.919 250.814 764.419 252.97 764.419 256.112C764.419 257.816 763.825 259.557 763.1 259.983C762.175 260.526 762.246 261.028 763.341 261.67C765.504 262.939 766.799 261.925 766.799 258.963C766.799 257.584 767.595 255.376 768.568 254.058C770.038 252.066 770.064 251.561 768.715 251.069C768.423 250.963 768.135 250.905 767.858 250.894ZM202.499 251.831C201.979 251.768 201.482 251.895 201.071 252.28C200.239 253.057 198.594 253.692 197.415 253.692C194.753 253.692 194.708 254.618 197.242 257.276C199.569 259.716 203.949 259.98 205.86 257.794C207.481 255.941 204.756 252.105 202.499 251.831ZM725.517 263.271C725.316 263.259 725.135 263.293 724.99 263.378C722.843 264.638 724.044 266.896 727.805 268.672C733.199 271.22 735.842 271.125 735.842 268.384C735.842 266.648 735.048 266.123 732.415 266.123C730.531 266.123 728.327 265.367 727.517 264.441C726.91 263.747 726.12 263.305 725.517 263.271ZM242.831 271.775C241.002 271.775 241.553 279.286 243.494 280.816C244.476 281.589 245.28 282.923 245.28 283.779C245.28 284.635 245.817 285.337 246.471 285.337C248.353 285.337 247.857 277.062 245.809 274.286C244.789 272.905 243.449 271.775 242.831 271.775ZM206.371 277.453C205.903 277.426 205.476 277.535 205.171 277.824C204.779 278.197 205.136 279.276 205.965 280.223C207.896 282.432 209.56 282.428 209.56 280.215C209.56 278.848 207.777 277.536 206.371 277.453ZM735.588 280.816C733.158 280.816 733.149 280.877 735.272 283.104C736.627 284.525 737.875 284.99 738.568 284.332C740.179 282.803 738.495 280.816 735.588 280.816ZM770.016 283.4C769.733 283.407 769.463 283.477 769.219 283.62C768.228 284.201 768.423 285.046 769.909 286.605C771.333 288.098 772.367 288.415 773.209 287.615C774.602 286.293 771.998 283.348 770.016 283.4ZM273.672 286.466C274.824 286.466 278.62 290.22 278.62 291.36C278.62 291.777 277.28 292.118 275.643 292.118C273.261 292.118 272.665 291.552 272.665 289.292C272.665 287.738 273.118 286.466 273.672 286.466ZM179.506 292.767C177.94 292.857 176.057 294.019 173.635 296.263C168.67 300.865 167.979 303.784 171.085 307.042C172.271 308.286 173.856 308.849 174.955 308.416C175.979 308.013 177.62 307.452 178.602 307.168C181.513 306.327 184.926 298.278 183.469 295.694C182.32 293.656 181.072 292.676 179.506 292.767ZM223.86 292.815L220.274 296.074C217.868 298.262 217.082 299.71 217.886 300.473C218.545 301.099 219.085 302.36 219.085 303.274C219.085 304.189 219.972 305.866 221.055 307.003C222.139 308.139 223.24 309.07 223.501 309.07C224.731 309.07 232.183 302.713 232.183 301.663C232.183 301.008 230.311 298.75 228.022 296.644L223.86 292.815ZM736.284 298.894C734.688 298.854 733.46 299.579 733.46 301.092C733.46 302.299 733.963 303.58 734.576 303.94C736.234 304.912 739.414 311.369 739.414 313.764C739.414 316.607 737.975 316.384 734.651 313.025C733.113 311.471 730.876 310.199 729.68 310.199C727.245 310.199 726.801 307.931 728.855 305.981C731.557 303.417 729.025 301.159 723.448 301.159C720.519 301.159 717.763 300.606 717.323 299.93C716.757 299.061 716.126 299.096 715.169 300.048C714.148 301.062 714.36 301.712 716.027 302.688C722.912 306.72 723.935 308.058 723.935 313.032C723.935 316.967 723.456 318.103 721.554 318.675C720.244 319.07 719.172 319.867 719.172 320.447C719.172 321.027 721.329 321.501 723.965 321.501C727.997 321.501 728.939 321.048 729.903 318.641C730.959 316.005 731.26 315.904 733.742 317.351C736.295 318.839 743.564 319.01 747.246 317.669C748.402 317.248 748.939 315.237 748.939 311.338C748.939 306.454 748.55 305.483 746.26 304.652C744.787 304.117 742.561 302.602 741.314 301.288C739.843 299.738 737.879 298.934 736.284 298.894ZM134.983 301.307C134.149 301.244 133.348 301.794 131.983 303.091C129.811 305.152 129.636 305.845 130.92 307.314C132.693 309.341 134.094 309.548 135.141 307.94C135.546 307.318 137.454 306.809 139.38 306.809C143.228 306.809 144.087 305.197 140.798 304.148C139.652 303.783 137.784 302.841 136.647 302.054C135.995 301.603 135.483 301.345 134.983 301.307ZM782.434 310.855C781.23 310.985 777.516 317.716 777.516 320.008C777.516 322.086 778.238 321.886 781.042 319.028C783.439 316.587 784.253 312.45 782.64 310.919C782.584 310.866 782.514 310.846 782.434 310.855V310.855ZM697.455 322.208C698.569 322.239 698.931 324 698.931 327.839C698.931 333.74 697.693 334.669 694.342 331.282C691.108 328.015 691.137 326.995 694.554 323.948C695.848 322.795 696.787 322.19 697.455 322.208ZM277.265 328.723C279.427 328.763 279.943 332.118 278.752 338.616C278.404 340.52 274.89 340.356 272.147 338.308C268.635 335.685 268.13 331.886 271.178 330.991C272.324 330.654 274.271 329.86 275.505 329.226C276.178 328.88 276.766 328.714 277.265 328.723ZM186.34 334.547C185.817 334.597 185.259 335.025 184.362 335.795C182.165 337.682 181.486 340.815 182.968 342.222C184.22 343.41 185.28 343.131 188.283 340.823C191.046 338.699 191.053 338.638 188.816 336.292C187.622 335.039 187.011 334.482 186.34 334.547ZM775.372 335.063C774.14 335.063 771.563 337.511 771.563 338.681C771.563 339.178 772.634 339.585 773.944 339.585C775.531 339.585 776.324 338.83 776.324 337.323C776.324 336.08 775.896 335.063 775.372 335.063ZM685.139 336.206C686.784 336.215 688.334 336.592 688.856 337.394C689.286 338.055 688.7 339.581 687.552 340.785C683.77 344.751 678.403 342.606 680.31 337.889C680.753 336.793 683.025 336.194 685.139 336.206ZM740.892 337.186L738.483 340.094C737.158 341.694 736.318 343.892 736.618 344.982C736.919 346.071 736.678 348.212 736.083 349.738L735.002 352.511L733.135 349.155L731.271 345.799L730.013 348.908C729.199 350.921 727.884 352.016 726.279 352.016C723.956 352.016 723.915 352.173 725.653 354.527C726.672 355.909 727.507 358.453 727.507 360.179C727.507 364.075 728.405 364.193 729.888 360.492C730.67 358.54 731.922 357.666 733.936 357.666C735.539 357.666 738.53 356.324 740.585 354.683C743.38 352.45 744.662 352.024 745.678 352.988C747.531 354.747 751.32 354.617 751.32 352.794C751.32 350.206 746.886 342.508 743.834 339.798L740.892 337.186ZM243.239 344.308C242.002 344.277 239.327 346.387 239.327 347.634C239.327 348.179 240.147 348.625 241.15 348.625C243.069 348.625 244.89 345.617 243.67 344.46C243.564 344.359 243.416 344.312 243.239 344.308ZM854.06 344.308C852.823 344.277 850.148 346.387 850.148 347.634C850.148 348.179 850.968 348.625 851.971 348.625C853.89 348.625 855.71 345.617 854.491 344.46C854.385 344.359 854.237 344.312 854.06 344.308ZM233.537 364.614C233.023 364.557 232.295 364.987 231.341 365.892C229.5 367.639 229.523 367.934 231.667 370.197L233.969 372.627L234.351 368.993C234.65 366.153 234.392 364.709 233.537 364.614ZM725.133 366.728C723.341 366.658 721.53 366.911 721.456 367.556C721.403 368.022 721.248 369.893 721.111 371.715C720.974 373.536 720.213 375.232 719.421 375.483C718.629 375.733 717.982 376.439 717.982 377.052C717.982 379.06 723.306 377.497 723.734 375.363C723.964 374.219 725.174 372.312 726.424 371.125C727.674 369.939 728.698 368.459 728.698 367.837C728.698 367.19 726.925 366.798 725.133 366.728ZM247.661 370.099C245.487 370.099 245.28 370.853 245.28 378.751C245.28 387.33 245.299 387.385 247.661 385.356C249.525 383.755 250.043 381.875 250.043 376.704C250.043 370.852 249.771 370.099 247.661 370.099ZM745.486 372.524C745.034 372.55 744.558 372.7 744.07 372.986C742.3 374.024 742.836 379.37 744.931 381.567C747.603 384.369 748.939 383.201 748.939 378.064C748.939 374.618 747.443 372.411 745.486 372.524ZM687.815 372.837C688.339 372.89 688.863 373.425 689.772 374.378C691.573 376.268 691.665 377.057 690.41 379.842C689.604 381.632 688.162 383.985 687.205 385.073C684.143 388.553 682.262 387.322 682.262 381.84C682.262 379.618 683.342 376.942 684.963 375.153C686.464 373.497 687.141 372.769 687.815 372.837ZM839.538 379.087C838.081 379.075 837.049 380.196 837.049 382.341C837.049 384.103 837.408 385.884 837.845 386.298C839.145 387.533 840.897 387.165 843.217 385.172C845.26 383.417 845.275 383.158 843.424 381.217C842.063 379.789 840.671 379.095 839.538 379.087ZM207.215 379.14C204.673 379.14 203.962 380.777 205.988 381.966C206.642 382.35 207.179 384.075 207.179 385.8C207.179 387.524 207.536 389.274 207.972 389.689C208.409 390.103 209.504 390.442 210.407 390.442C211.642 390.442 211.866 389.392 211.307 386.204C210.177 379.747 209.825 379.14 207.215 379.14ZM318.382 379.618C319.685 379.718 320.392 380.97 319.609 382.906C318.81 384.883 314.937 385.491 313.843 383.812C313.493 383.273 314.278 381.912 315.587 380.787C316.604 379.914 317.6 379.558 318.382 379.618ZM733.128 388.285C731.02 388.354 729.477 390.023 730.469 391.546C731.069 392.468 732.016 392.25 733.711 390.798C735.875 388.944 735.909 388.709 734.062 388.358C733.743 388.297 733.43 388.275 733.128 388.285ZM241.377 390.631C240.16 390.773 238.477 391.875 236.272 393.904C231.513 398.281 231.125 400.905 234.862 403.411C236.336 404.399 238.88 405.064 240.517 404.888C243.26 404.593 243.522 404.057 243.852 398.055C244.139 392.818 243.405 390.393 241.377 390.631ZM189.02 391.793C188.793 391.808 188.605 391.872 188.474 391.996C188.122 392.331 188.151 393.39 188.539 394.349C189.32 396.28 192.358 396.695 193.449 395.019C194.114 393.997 190.609 391.688 189.02 391.793ZM258.122 397.526C257.236 397.489 256.927 398.342 257.597 399.999C257.985 400.958 259.51 401.742 260.986 401.742H263.671L261.056 399.262C259.851 398.119 258.812 397.554 258.122 397.526ZM266.118 402.873C262.996 402.873 262.198 404.917 264.476 407.08C266.326 408.836 269.093 407.596 269.093 405.012C269.093 403.483 268.245 402.873 266.118 402.873ZM274.685 411.914C271.752 411.914 269.724 412.921 266.711 415.872C262.423 420.071 262.569 420.909 268.101 423.802C271.869 425.773 272.381 425.759 277.624 423.564C282.498 421.523 283.283 419.832 280.406 417.566C279.424 416.792 278.62 415.203 278.62 414.036C278.62 412.388 277.739 411.914 274.685 411.914ZM750.725 411.914C745.989 411.914 745.4 413.277 749.077 415.721C752.134 417.753 754.892 416.962 754.892 414.054C754.892 412.363 754.02 411.914 750.725 411.914ZM783.339 414.432C782.999 414.431 782.649 414.523 782.305 414.725C781.334 415.295 781.563 416.193 783.094 417.802C785.047 419.857 785.294 419.888 785.664 418.135C786.079 416.17 784.813 414.436 783.339 414.432ZM741.459 415.738C741.061 415.764 740.699 415.894 740.421 416.159C739.72 416.824 739.505 417.921 739.945 418.597C740.909 420.078 743.782 420.216 744.689 418.824C745.568 417.473 743.182 415.626 741.459 415.738ZM222.512 417.547C221.222 417.572 220.276 417.9 220.276 418.604C220.276 419.174 219.987 420.353 219.636 421.223C219.284 422.093 220.127 424.168 221.509 425.835C224.425 429.353 225.814 429.575 228.815 426.997C231.517 424.676 231.582 422.318 229.021 419.632C227.762 418.312 224.661 417.507 222.512 417.547ZM296.084 424.544C295.542 424.54 294.961 424.701 294.356 425.063C290.412 427.425 287.964 431.746 288.794 434.882C289.741 438.463 294.365 439.052 297.874 436.038C301.835 432.635 299.88 424.565 296.084 424.544ZM260.733 426.698C258.339 426.817 256.312 429.594 257.645 432.889C258.548 435.124 261.186 434.931 263.542 432.46C265.187 430.734 265.253 430.08 263.946 428.383C262.987 427.138 261.822 426.643 260.733 426.698ZM311.736 429.997C310.577 429.997 310.429 436.08 311.562 437.155C312.598 438.139 317.285 438.127 318.326 437.139C319.192 436.317 313.361 429.997 311.736 429.997V429.997ZM303.37 435.647C300.94 435.647 300.931 435.708 303.054 437.935C304.409 439.356 305.657 439.821 306.35 439.163C307.961 437.634 306.277 435.647 303.37 435.647ZM357.076 437.909C360.34 437.909 360.975 439.218 358.81 441.49C356.43 443.985 354.974 444.117 354.085 441.918C353.185 439.692 354.515 437.909 357.076 437.909ZM372.665 438.119C372.849 438.111 373.027 438.117 373.201 438.14C376.06 438.531 377.202 442.293 374.884 443.688C372.636 445.04 368.214 444.924 367.279 443.488C366.171 441.786 369.909 438.243 372.665 438.119V438.119ZM754.889 438.159C754.757 438.158 754.633 438.173 754.521 438.208C753.743 438.451 752.935 439.755 752.726 441.105C752.443 442.93 752.96 443.559 754.74 443.559C756.057 443.559 757.465 444.068 757.869 444.69C758.982 446.398 760.847 446.043 760.847 444.123C760.847 442.022 756.866 438.17 754.889 438.159ZM725.52 445.153C722.755 444.963 717.982 450.426 717.982 454.507C717.982 458.504 719.717 459.264 723.942 457.118C725.433 456.36 726.417 456.36 726.91 457.118C727.316 457.741 729.505 458.252 731.773 458.252C735.879 458.252 735.889 458.239 733.981 455.475C732.927 453.949 732.381 452.214 732.767 451.621C733.908 449.87 732.177 446.949 729.999 446.949C728.891 446.949 727.345 446.342 726.563 445.6C726.27 445.322 725.915 445.18 725.52 445.153ZM652.278 456.018C653.756 456.022 654.875 456.642 654.875 457.879C654.875 458.918 655.707 460.641 656.724 461.707C658.412 463.478 658.296 463.851 655.372 466.034C651.379 469.015 651.105 469.007 647.938 465.807C644.778 462.614 644.661 460.324 647.528 457.861C648.964 456.627 650.8 456.015 652.278 456.018ZM373.494 458.432C374.423 458.504 375.418 459.204 377.005 460.71C380.753 464.268 380.227 466.374 374.969 468.863C370.311 471.069 370.382 471.066 369.585 469.095C368.398 466.159 369.689 460.185 371.777 458.944C372.402 458.573 372.936 458.389 373.494 458.432ZM751.962 458.912C751.481 458.931 751.042 459.133 750.572 459.503C747.934 461.581 748.69 463.722 752.213 464.147C757.068 464.733 758.376 463.003 755.037 460.414C753.677 459.359 752.763 458.881 751.962 458.912ZM333.373 459.593C332.992 459.585 332.69 459.777 332.523 460.228C332.237 461.005 331.315 461.642 330.476 461.642C329.636 461.642 327.537 462.696 325.812 463.985C323.297 465.862 322.674 467.284 322.674 471.155C322.674 474.548 321.967 476.591 320.293 478.028C317.546 480.388 317.298 482.074 319.4 484.089C320.947 485.572 322.613 485.388 330.116 482.907C334.118 481.584 334.586 481.02 334.62 477.47C334.641 475.292 335.444 472.522 336.406 471.315C337.367 470.109 338.153 467.771 338.153 466.122C338.153 463.41 335.023 459.624 333.373 459.593ZM781.627 462.771C780.481 462.771 781.16 466.909 782.516 468.196C783.302 468.942 784.267 469.552 784.66 469.552C785.61 469.552 788.232 467.031 788.232 466.117C788.232 465.462 782.92 462.771 781.627 462.771ZM314.715 468.589C314.476 468.54 314.27 469.115 313.883 470.271C313.447 471.577 312.03 473.554 310.737 474.664C309.444 475.775 308.386 477.405 308.386 478.287C308.386 480.708 312.009 479.533 314.564 476.282C316.277 474.102 316.565 472.736 315.751 470.65C315.229 469.31 314.955 468.637 314.715 468.589ZM220.6 468.681C220.294 468.731 220.276 469.325 220.276 470.507C220.276 472.189 221.012 472.943 222.657 472.943C223.966 472.943 225.039 472.768 225.039 472.554C225.039 472.339 223.966 471.243 222.657 470.118C221.501 469.126 220.907 468.631 220.6 468.681ZM646.32 476.333C648.133 476.333 651.572 480.66 650.755 481.914C649.64 483.626 647.079 483.398 645.362 481.434C643.844 479.698 644.477 476.333 646.32 476.333ZM739.414 477.464C737.467 477.464 737.032 478.217 737.032 481.594C737.032 485.653 737.074 485.69 739.414 483.68C740.724 482.555 741.795 480.697 741.795 479.55C741.795 478.218 740.935 477.464 739.414 477.464ZM296.178 479.765C294.481 479.686 292.609 480.424 291.103 482.003C288.984 484.225 289.016 484.37 292.383 487.706C295.367 490.663 296.559 491.082 301.127 490.794C307.162 490.413 308.778 488.271 304.444 486.397C302.828 485.698 300.922 483.911 300.209 482.425C299.4 480.739 297.876 479.843 296.178 479.765ZM701.89 479.902C701.175 479.874 700.45 480.091 699.883 480.629C699.185 481.291 698.952 482.667 699.365 483.687C700.318 486.045 704.132 485.418 704.66 482.816C704.986 481.21 703.464 479.964 701.89 479.902ZM731.611 483.612C731.138 483.669 730.56 484.042 729.923 484.771C727.274 487.8 724.008 494.743 724.718 495.833C725.8 497.495 732.078 490.86 732.724 487.372C733.183 484.891 732.651 483.488 731.611 483.612ZM461.984 484.932L466.105 488.723C468.372 490.808 469.948 492.943 469.608 493.466C469.267 493.989 467.412 494.416 465.486 494.416C462.167 494.416 461.984 494.168 461.984 489.673V484.932ZM701.981 489.027C700.734 488.922 699.665 489.76 698.946 491.554C697.951 494.039 697.395 494.321 695.447 493.332C694.175 492.685 690.955 492.156 688.293 492.156C682.186 492.156 681.871 494.456 687.257 499.73C690.352 502.761 691.981 503.457 695.979 503.457C699.733 503.457 701.579 504.15 703.783 506.385L706.669 509.312L707.398 502.147C707.98 496.421 707.715 494.414 706.082 492.156C704.653 490.181 703.228 489.133 701.981 489.027ZM380.155 498.045C379.848 498.071 379.827 498.616 379.827 499.704C379.827 500.94 380.186 502.289 380.622 502.704C381.756 503.78 384.59 503.637 384.59 502.503C384.59 501.978 383.519 500.627 382.209 499.502C381.057 498.512 380.462 498.019 380.155 498.045ZM354.934 503.49C353.869 503.383 352.253 504.006 351.209 505.2C350.151 506.409 349.305 506.584 348.444 505.766C346.524 503.944 345.298 504.364 345.298 506.847C345.298 508.593 346.091 509.109 348.784 509.109C352.159 509.109 356.014 506.654 356.014 504.507C356.014 503.881 355.573 503.554 354.934 503.49ZM334.334 506.919C334.025 506.981 333.418 507.497 332.349 508.415C330.988 509.584 330.179 511.008 330.551 511.579C331.716 513.369 333.968 511.877 334.405 509.023C334.638 507.504 334.731 506.838 334.334 506.919H334.334ZM367.961 507.604C367.696 507.59 367.5 507.625 367.398 507.721C367.031 508.07 366.73 509.796 366.73 511.557C366.73 514.145 367.255 514.759 369.468 514.759C372.122 514.759 375.065 512.902 375.065 511.226C375.065 510.223 369.819 507.7 367.961 507.604ZM313.21 509.471C311.695 509.621 310.768 512.323 310.768 517.14C310.768 522.921 311.065 523.8 313.022 523.8C316.067 523.8 317.052 520.886 314.747 518.698C313.044 517.081 313.064 516.722 314.963 514.731C316.629 512.984 316.759 512.208 315.608 510.892C314.709 509.863 313.899 509.404 313.21 509.471ZM731.21 509.594C730.789 509.602 730.345 509.626 729.881 509.67C725.298 510.102 725.126 510.164 725.126 511.369C725.126 512.771 734.263 512.879 735.169 511.488C735.926 510.326 734.152 509.538 731.21 509.594ZM364.651 515.724L363.882 518.631C363.459 520.231 362.588 521.54 361.946 521.54C360.019 521.54 360.628 528.551 362.748 530.774C365.193 533.339 367.676 533.403 370.506 530.971C373.925 528.035 373.221 523.608 368.668 519.419L364.651 515.724ZM474.521 524.209C474.7 524.203 474.886 524.251 475.074 524.361C475.733 524.748 476.272 526.305 476.272 527.823C476.272 530.863 474.212 531.56 473.131 528.886C472.33 526.905 473.265 524.25 474.521 524.209ZM692.402 533.999C689.661 533.983 686.92 534.346 686.428 535.102C686.024 535.724 683.849 536.233 681.595 536.233C678.05 536.233 677.498 536.602 677.498 538.979C677.498 540.967 678.238 541.825 680.177 542.087C682.015 542.334 682.968 543.335 683.212 545.273C683.408 546.827 683.794 548.735 684.069 549.512C684.343 550.289 685.23 550.924 686.038 550.924C688.128 550.924 695.359 544.027 695.359 542.034C695.359 541.117 696.215 539.468 697.261 538.37C698.308 537.272 698.811 535.834 698.381 535.173C697.885 534.412 695.144 534.016 692.402 533.999ZM711.433 536.797C709.845 536.797 708.922 537.676 708.659 539.431C708.333 541.622 708.732 542.001 711.04 541.691C714.625 541.209 714.979 536.797 711.433 536.797ZM349.545 540.118C349.142 540.148 348.547 540.572 347.678 541.318C346.369 542.443 345.298 544.302 345.298 545.449C345.298 546.781 346.157 547.533 347.678 547.533C350.009 547.533 350.357 547.019 350.357 543.578C350.357 541.112 350.216 540.068 349.545 540.118ZM706.818 542.191C706.484 542.217 705.9 542.705 704.883 543.578C703.574 544.703 702.503 546.054 702.503 546.58C702.503 547.105 703.574 547.533 704.883 547.533C706.667 547.533 707.266 546.781 707.266 544.533C707.266 542.886 707.247 542.157 706.818 542.191ZM385.692 557.711C383.831 557.738 382.367 559.042 382.972 560.537C383.617 562.133 383.943 562.11 386.02 560.325C387.399 559.141 387.807 558.158 387.023 557.91C386.572 557.767 386.122 557.705 385.692 557.711ZM692.978 568.505V572.712C692.978 577.212 694.13 577.989 696.604 575.16C697.888 573.692 697.717 573.002 695.559 570.954L692.978 568.505ZM554.753 578.316C553.068 578.225 551.346 579.809 551.304 581.721C551.272 583.204 554.509 582.633 556.036 580.887C557.232 579.519 557.126 579.066 555.468 578.461C555.234 578.376 554.993 578.329 554.753 578.316ZM688.809 581.438C682.868 581.438 681.735 583.416 685.445 587.307C687.372 589.329 687.548 589.297 690.803 586.337C692.654 584.654 694.167 582.862 694.167 582.357C694.167 581.852 691.756 581.438 688.809 581.438ZM736.545 596.131C734.307 596.131 733.06 598.03 733.913 600.14C734.672 602.017 735.732 602.171 738.099 600.748C740.123 599.532 738.978 596.131 736.545 596.131ZM581.637 598.93C578.887 598.894 575.712 601.108 576.774 602.739C578.039 604.682 584.576 604.347 585.405 602.297C586.226 600.267 586.039 600.04 582.776 599.091C582.414 598.985 582.03 598.935 581.637 598.93ZM554.468 598.95C552.945 598.945 551.144 599.922 550.04 601.88C548.946 603.82 549.253 604.042 553.029 604.042C556.366 604.042 557.24 603.597 557.24 601.902C557.24 599.94 555.992 598.955 554.468 598.95ZM709.462 602.912C707.692 602.912 708.386 608.875 710.402 610.989V610.99C712.709 613.41 714.41 612.749 714.41 609.432C714.41 607.009 711.3 602.911 709.462 602.911V602.912ZM473.466 607.441C471.998 607.514 470.319 609.079 470.319 610.881C470.319 612.214 470.941 613.076 471.723 612.828C473.66 612.216 475.768 608.837 474.793 607.911C474.421 607.558 473.955 607.417 473.466 607.441ZM550.096 650.378C549.441 650.378 548.904 651.904 548.904 653.769C548.904 655.634 549.441 657.159 550.096 657.159C550.751 657.159 551.285 655.634 551.285 653.769C551.285 651.904 550.751 650.378 550.096 650.378ZM386.776 655.012C386.071 655.074 385.328 655.529 384.041 656.423C382.833 657.261 382.226 658.533 382.692 659.249C383.908 661.116 387.606 660.852 389.428 658.769C390.719 657.292 390.693 656.812 389.277 655.961C388.145 655.281 387.48 654.95 386.776 655.012ZM728.698 712.826C728.161 712.826 727.625 713.106 726.912 713.667C725.93 714.441 725.126 715.52 725.126 716.066C725.126 716.611 726.734 717.057 728.698 717.057C732.612 717.057 733.25 715.846 730.484 713.667C729.772 713.106 729.235 712.826 728.698 712.826Z" fill="#D5371F"/>
</svg>
