<svg width="168" height="119" viewBox="0 0 168 119" fill="none" xmlns="http://www.w3.org/2000/svg">
<path d="M61.4324 54.3089L19.8726 10.6805C19.8726 10.6805 19.679 10.0957 18.4074 10.3691C17.1357 10.6425 16.1706 13.4357 17.3033 14.2546C18.436 15.0736 16.4951 13.6192 16.4951 13.6192C16.4951 13.6192 14.7549 14.0464 16.081 15.7553C17.4071 17.4642 13.7056 14.32 14.7273 20.4129C15.7491 26.5057 16.3314 24.8273 15.2789 37.3872C14.2264 49.9471 15.5023 67.2448 15.5023 67.2448L17.0361 98.2785L17.1806 107.223L22.958 107.348C22.958 107.348 22.7822 105.774 28.0262 106.106C33.2701 106.439 36.0225 106.58 39.92 105.821C43.8176 105.061 70.5174 103.897 74.238 106.259C77.9586 108.621 105.416 103.514 105.416 103.514C105.416 103.514 116.656 102.042 116.299 104.344C115.942 106.646 120.562 103.475 123.436 103.407C126.309 103.34 152.196 98.2712 149.311 106.279C146.427 114.287 151.843 103.739 151.843 103.739C151.843 103.739 157.239 104.949 152.785 101.069C148.331 97.1899 153.797 99.586 152.203 98.3158C150.608 97.0456 153.238 95.7266 153.158 96.4263C153.078 97.1261 150.868 95.3535 152.022 92.2135C153.176 89.0735 151.597 84.5978 152.691 79.3654C153.785 74.133 153.729 47.9291 153.729 47.9291L153.75 23.1689C153.75 23.1689 153.882 22.1044 152.421 21.7884C150.961 21.4724 153.16 20.5722 153.16 20.5722C153.16 20.5722 152.236 17.9481 149.431 21.5081C146.625 25.068 116.442 55.9232 116.442 55.9232L116.427 57.7358L112.995 59.9043C112.995 59.9043 107.591 51.2792 107.591 49.662C107.591 48.0448 107.517 46.5312 107.517 46.5312L105.968 42.62L102.154 34.5437L94.888 21.6601L95.4525 20.5933L91.9883 12.7065C91.9883 12.7065 91.7406 9.11537 88.8589 12.5098C85.9772 15.9043 88.1005 12.9291 88.1005 12.9291L82.7095 21.1973L61.4324 54.3089Z" fill="#DCAB07"/>
</svg>
