<svg width="280" height="262" viewBox="0 0 280 262" fill="none" xmlns="http://www.w3.org/2000/svg">
<path d="M254.8 243.322C254.821 242.864 254.924 242.771 255.064 243.085C255.19 243.368 255.174 243.707 255.029 243.838C254.884 243.968 254.781 243.736 254.8 243.322H254.8ZM210.383 240.605C210.392 239.956 210.489 239.739 210.6 240.121C210.71 240.503 210.703 241.034 210.584 241.3C210.464 241.566 210.374 241.253 210.383 240.605ZM31.1177 240.653C31.1177 240.571 31.461 240.262 31.8806 239.965C32.5721 239.476 32.5875 239.49 32.0452 240.113C31.4757 240.768 31.1177 240.976 31.1177 240.653V240.653ZM42.0512 239.393C42.0721 238.935 42.1754 238.842 42.3146 239.156C42.4405 239.439 42.425 239.778 42.2802 239.909C42.1353 240.039 42.0323 239.807 42.0512 239.393H42.0512ZM138.8 236.676C139.363 236.135 139.922 235.693 140.042 235.693C140.162 235.693 139.799 236.135 139.236 236.676C138.673 237.216 138.114 237.658 137.994 237.658C137.874 237.658 138.237 237.216 138.8 236.676ZM184.701 234.318C184.704 233.238 184.789 232.842 184.889 233.439C184.989 234.037 184.986 234.921 184.883 235.404C184.779 235.887 184.697 235.399 184.701 234.318H184.701ZM253.123 234.907C253.123 234.151 253.213 233.842 253.323 234.22C253.432 234.598 253.432 235.217 253.323 235.595C253.213 235.973 253.123 235.664 253.123 234.907ZM33.3319 232.714C33.3529 232.256 33.4562 232.163 33.5953 232.476C33.7213 232.76 33.7058 233.099 33.5609 233.229C33.4161 233.36 33.313 233.128 33.332 232.714H33.3319ZM46.7306 231.889C47.0453 231.775 47.4213 231.789 47.5662 231.92C47.711 232.05 47.4536 232.143 46.994 232.126C46.4861 232.107 46.3828 232.014 46.7306 231.889V231.889ZM244.773 231.535C244.794 231.077 244.897 230.984 245.037 231.298C245.162 231.581 245.147 231.92 245.002 232.051C244.857 232.181 244.754 231.949 244.773 231.535H244.773ZM6.7383 229.178C6.75922 228.72 6.86251 228.627 7.00169 228.94C7.12763 229.224 7.11214 229.563 6.96726 229.693C6.82241 229.824 6.71936 229.592 6.73829 229.178H6.7383ZM178.122 228.032C178.131 227.383 178.228 227.166 178.339 227.548C178.449 227.93 178.442 228.461 178.323 228.727C178.203 228.993 178.113 228.68 178.122 228.032H178.122ZM244.824 227.639C244.833 226.99 244.93 226.773 245.041 227.155C245.151 227.537 245.144 228.068 245.025 228.334C244.905 228.6 244.815 228.287 244.824 227.639ZM16.3294 215.033C16.3504 214.575 16.4537 214.482 16.5928 214.796C16.7188 215.079 16.7033 215.418 16.5584 215.549C16.4136 215.679 16.3105 215.447 16.3295 215.033H16.3294ZM93.7872 209.87C94.5664 209.783 95.8416 209.783 96.6209 209.87C97.4002 209.957 96.7626 210.029 95.204 210.029C93.6455 210.029 93.0079 209.957 93.7872 209.87ZM211.061 178.838C211.6 178.744 212.483 178.744 213.023 178.838C213.562 178.931 213.121 179.008 212.042 179.008C210.963 179.008 210.521 178.931 211.061 178.838ZM234.821 178.43C236.679 178.356 239.72 178.356 241.578 178.43C243.436 178.504 241.916 178.564 238.199 178.564C234.483 178.564 232.962 178.504 234.821 178.43ZM250.088 178.45C250.512 178.35 251.1 178.357 251.395 178.464C251.691 178.571 251.344 178.653 250.624 178.645C249.905 178.637 249.663 178.549 250.088 178.449V178.45ZM231.769 164.291C232.668 164.207 234.139 164.207 235.039 164.291C235.938 164.376 235.202 164.445 233.404 164.445C231.605 164.445 230.87 164.376 231.769 164.291ZM255.757 115.072C255.757 114.099 255.842 113.701 255.945 114.188C256.049 114.674 256.049 115.469 255.945 115.956C255.842 116.442 255.757 116.044 255.757 115.072ZM255.672 105.02C255.693 104.562 255.796 104.469 255.936 104.782C256.061 105.066 256.046 105.405 255.901 105.535C255.756 105.666 255.653 105.434 255.672 105.02H255.672ZM180.597 80.2013C180.055 79.5781 180.07 79.5643 180.761 80.053C181.181 80.3496 181.524 80.659 181.524 80.7406C181.524 81.0639 181.166 80.8558 180.597 80.2013V80.2013ZM179.379 76.3378C179.4 75.88 179.503 75.7869 179.642 76.1004C179.768 76.384 179.753 76.7229 179.608 76.8534C179.463 76.984 179.36 76.7519 179.379 76.3378H179.379ZM271.837 65.9585C271.837 65.4183 271.936 65.1973 272.057 65.4674C272.178 65.7375 272.178 66.1795 272.057 66.4497C271.936 66.7198 271.837 66.4988 271.837 65.9585V65.9585ZM48.1546 62.979C48.1755 62.5213 48.2788 62.4282 48.418 62.7416C48.5439 63.0253 48.5285 63.3641 48.3836 63.4947C48.2387 63.6253 48.1357 63.3932 48.1546 62.979H48.1546ZM272.329 57.5111C272.332 56.4306 272.417 56.0352 272.517 56.6325C272.617 57.2297 272.615 58.1137 272.511 58.597C272.407 59.0802 272.326 58.5915 272.329 57.5111H272.329ZM257.112 50.0459C257.113 47.4527 257.184 46.443 257.269 47.8021C257.354 49.1612 257.354 51.2829 257.267 52.517C257.181 53.751 257.111 52.6391 257.112 50.0459H257.112ZM246.483 48.1295C246.483 48.0479 246.826 47.7385 247.246 47.4419C247.937 46.9532 247.952 46.9671 247.41 47.5902C246.841 48.2447 246.483 48.4529 246.483 48.1295V48.1295ZM272.305 40.8127C272.305 40.0563 272.395 39.7469 272.505 40.1251C272.614 40.5032 272.614 41.1221 272.505 41.5002C272.395 41.8784 272.305 41.569 272.305 40.8127ZM271.837 31.7759C271.837 31.2356 271.936 31.0146 272.057 31.2847C272.178 31.5548 272.178 31.9969 272.057 32.267C271.936 32.5371 271.837 32.3161 271.837 31.7759Z" fill="#DCAB07"/>
<path d="M75.507 247.208C75.8217 247.095 76.1977 247.109 76.3426 247.239C76.4874 247.37 76.2299 247.463 75.7704 247.446C75.2625 247.427 75.1592 247.334 75.507 247.208V247.208ZM244.843 229.796C244.843 229.04 244.932 228.73 245.042 229.108C245.152 229.487 245.152 230.105 245.042 230.484C244.932 230.862 244.843 230.552 244.843 229.796V229.796ZM178.108 229.796C178.108 229.256 178.207 229.035 178.328 229.305C178.449 229.575 178.449 230.017 178.328 230.287C178.207 230.557 178.108 230.336 178.108 229.796ZM31.5011 229.501C30.9588 228.878 30.9742 228.864 31.6657 229.353C32.3919 229.866 32.6228 230.189 32.264 230.189C32.1735 230.189 31.8302 229.88 31.5011 229.501V229.501ZM8.95558 223.117C8.95558 222.576 9.05453 222.355 9.17547 222.625C9.29641 222.896 9.29641 223.338 9.17547 223.608C9.05454 223.878 8.95558 223.657 8.95558 223.117ZM251.35 220.759C251.35 220.219 251.449 219.998 251.57 220.268C251.69 220.538 251.69 220.98 251.57 221.25C251.449 221.52 251.35 221.299 251.35 220.759ZM24.5813 218.646C24.5813 218.565 24.9246 218.255 25.3443 217.959C26.0357 217.47 26.0511 217.484 25.5089 218.107C24.9393 218.762 24.5813 218.97 24.5813 218.646V218.646ZM234.197 210.668C234.511 210.555 234.887 210.569 235.032 210.699C235.177 210.83 234.92 210.923 234.46 210.906C233.952 210.887 233.849 210.794 234.197 210.668V210.668ZM19.4671 203.592C19.8913 203.492 20.4798 203.499 20.775 203.606C21.0701 203.714 20.7231 203.795 20.0037 203.787C19.2844 203.779 19.0429 203.691 19.4671 203.592V203.592ZM123.435 183.959C123.735 183.85 124.226 183.85 124.525 183.959C124.825 184.068 124.58 184.157 123.98 184.157C123.381 184.157 123.136 184.068 123.435 183.959ZM208.017 178.834C208.559 178.74 209.344 178.743 209.761 178.841C210.177 178.94 209.734 179.017 208.775 179.012C207.816 179.008 207.475 178.927 208.017 178.833V178.834ZM230.036 178.446C230.46 178.347 231.049 178.353 231.344 178.46C231.639 178.568 231.292 178.649 230.573 178.641C229.853 178.634 229.612 178.545 230.036 178.446V178.446ZM245.948 178.434C246.732 178.346 247.909 178.348 248.564 178.439C249.219 178.528 248.578 178.6 247.139 178.597C245.701 178.594 245.165 178.522 245.948 178.434V178.434ZM7.93308 172.95C8.24779 172.836 8.62381 172.85 8.76867 172.98C8.91353 173.111 8.65605 173.204 8.19647 173.187C7.6886 173.168 7.5853 173.075 7.93308 172.949V172.95ZM108.64 134.445C108.955 134.331 109.331 134.345 109.476 134.476C109.62 134.607 109.363 134.699 108.903 134.682C108.395 134.663 108.292 134.57 108.64 134.445V134.445ZM110.384 134.445C110.699 134.331 111.075 134.345 111.219 134.476C111.364 134.607 111.107 134.699 110.647 134.682C110.139 134.663 110.036 134.57 110.384 134.445V134.445ZM256.893 125.775C256.35 125.152 256.366 125.138 257.057 125.626C257.784 126.14 258.014 126.462 257.656 126.462C257.565 126.462 257.222 126.153 256.893 125.775V125.775ZM255.675 117.196C255.696 116.739 255.799 116.646 255.938 116.959C256.064 117.243 256.049 117.582 255.904 117.712C255.759 117.843 255.656 117.611 255.675 117.196H255.675ZM256.547 67.6906C256.568 67.2329 256.671 67.1398 256.81 67.4533C256.936 67.7369 256.921 68.0758 256.776 68.2063C256.631 68.3369 256.528 68.1048 256.547 67.6906H256.547ZM271.805 64.5474C271.826 64.0897 271.93 63.9966 272.069 64.31C272.195 64.5937 272.179 64.9325 272.034 65.0631C271.89 65.1937 271.787 64.9616 271.805 64.5474H271.805ZM257.049 55.7398C257.049 54.9835 257.139 54.6741 257.249 55.0522C257.358 55.4304 257.358 56.0492 257.249 56.4274C257.139 56.8056 257.049 56.4962 257.049 55.7398V55.7398ZM272.308 54.5611C272.308 53.8048 272.398 53.4954 272.507 53.8735C272.617 54.2517 272.617 54.8705 272.507 55.2487C272.398 55.6269 272.308 55.3175 272.308 54.5611V54.5611ZM257.049 44.3456C257.049 43.5893 257.139 43.2799 257.249 43.6581C257.358 44.0362 257.358 44.655 257.249 45.0332C257.139 45.4114 257.049 45.102 257.049 44.3456ZM272.276 42.774C272.276 42.2338 272.375 42.0128 272.496 42.2829C272.617 42.553 272.617 42.995 272.496 43.2652C272.375 43.5353 272.276 43.3143 272.276 42.774ZM155.438 7.80563C155.438 7.26539 155.537 7.04438 155.658 7.3145C155.779 7.58462 155.779 8.02664 155.658 8.29676C155.537 8.56688 155.438 8.34588 155.438 7.80563V7.80563Z" fill="#DCAB07"/>
<path d="M126.918 248.398C127.218 248.289 127.709 248.289 128.008 248.398C128.308 248.507 128.063 248.596 127.463 248.596C126.864 248.596 126.619 248.507 126.918 248.398V248.398ZM144.03 243.009C144.03 242.928 144.373 242.618 144.793 242.322C145.484 241.833 145.5 241.847 144.957 242.47C144.388 243.124 144.03 243.332 144.03 243.009V243.009ZM17.0833 240.139C17.398 240.025 17.7741 240.039 17.9189 240.17C18.0638 240.3 17.8063 240.393 17.3467 240.376C16.8389 240.357 16.7356 240.264 17.0833 240.139V240.139ZM144.099 223.512C144.099 222.972 144.198 222.751 144.319 223.021C144.44 223.291 144.44 223.733 144.319 224.003C144.198 224.274 144.099 224.053 144.099 223.512ZM32.8597 219.435C32.8597 219.353 33.203 219.044 33.6226 218.747C34.3141 218.259 34.3295 218.273 33.7872 218.896C33.2177 219.55 32.8597 219.758 32.8597 219.435V219.435ZM124.739 216.573C125.038 216.464 125.529 216.464 125.828 216.573C126.128 216.682 125.883 216.771 125.284 216.771C124.684 216.771 124.439 216.682 124.739 216.573ZM116.564 211.184C116.564 211.102 116.908 210.793 117.327 210.496C118.019 210.008 118.034 210.022 117.492 210.645C116.922 211.299 116.564 211.507 116.564 211.184V211.184ZM260.977 208.704C261.396 208.605 262.083 208.605 262.502 208.704C262.922 208.803 262.579 208.884 261.739 208.884C260.9 208.884 260.557 208.803 260.977 208.704ZM129.97 205.179C130.27 205.07 130.76 205.07 131.06 205.179C131.36 205.287 131.115 205.377 130.515 205.377C129.916 205.377 129.67 205.288 129.97 205.179ZM132.177 205.171C132.492 205.057 132.868 205.071 133.013 205.202C133.158 205.332 132.9 205.425 132.441 205.408C131.933 205.389 131.829 205.296 132.177 205.171V205.171ZM125.202 183.954C125.516 183.84 125.893 183.854 126.037 183.985C126.182 184.115 125.925 184.208 125.465 184.191C124.957 184.172 124.854 184.079 125.202 183.954V183.954ZM202.558 178.828C203.457 178.744 204.928 178.744 205.827 178.828C206.727 178.913 205.991 178.983 204.193 178.983C202.394 178.983 201.659 178.913 202.558 178.828ZM228.525 178.453C228.839 178.34 229.215 178.354 229.36 178.484C229.505 178.615 229.248 178.708 228.788 178.691C228.28 178.672 228.177 178.579 228.525 178.453V178.453ZM9.23603 172.952C9.55074 172.839 9.92676 172.853 10.0716 172.983C10.2165 173.114 9.959 173.207 9.49942 173.19C8.99155 173.171 8.88825 173.078 9.23603 172.952V172.952ZM96.1591 120.375C96.168 119.727 96.2657 119.509 96.3762 119.891C96.4868 120.274 96.4795 120.804 96.3601 121.07C96.2406 121.336 96.1502 121.023 96.1591 120.375H96.1591ZM140.978 73.2747C140.978 73.1931 141.321 72.8837 141.741 72.5871C142.433 72.0983 142.448 72.1122 141.906 72.7354C141.336 73.3899 140.978 73.598 140.978 73.2746V73.2747ZM257.029 57.9033C257.038 57.255 257.136 57.0373 257.246 57.4196C257.357 57.8019 257.349 58.3323 257.23 58.5983C257.11 58.8644 257.02 58.5516 257.029 57.9033H257.029ZM272.327 51.6168C272.33 50.5363 272.415 50.1409 272.515 50.7382C272.616 51.3354 272.613 52.2195 272.509 52.7027C272.406 53.186 272.324 52.6973 272.327 51.6168H272.327ZM272.313 44.9375C272.318 44.0731 272.407 43.7657 272.512 44.2544C272.616 44.7432 272.612 45.4504 272.502 45.8261C272.393 46.2017 272.308 45.8018 272.313 44.9375H272.313ZM257.03 42.1871C257.039 41.5388 257.136 41.3212 257.247 41.7035C257.357 42.0858 257.35 42.6162 257.231 42.8822C257.111 43.1482 257.021 42.8354 257.03 42.1871H257.03Z" fill="#DCAB07"/>
<path d="M180.651 245.368C180.651 245.286 180.995 244.977 181.414 244.68C182.106 244.192 182.121 244.206 181.579 244.829C181.009 245.483 180.651 245.691 180.651 245.368V245.368ZM197.252 230.357C197.273 229.899 197.377 229.806 197.516 230.119C197.642 230.403 197.626 230.742 197.481 230.872C197.337 231.003 197.233 230.771 197.252 230.357H197.252ZM78.6362 214.328C78.6362 214.247 78.9796 213.938 79.3992 213.641C80.0906 213.152 80.1061 213.166 79.5638 213.789C78.9942 214.444 78.6362 214.652 78.6362 214.328V214.328ZM259.479 208.708C259.793 208.594 260.17 208.608 260.314 208.739C260.459 208.869 260.202 208.962 259.742 208.945C259.234 208.926 259.131 208.833 259.479 208.708V208.708ZM263.375 208.716C263.675 208.607 264.165 208.607 264.465 208.716C264.765 208.825 264.52 208.914 263.92 208.914C263.321 208.914 263.075 208.825 263.375 208.716V208.716ZM133.486 205.171C133.8 205.058 134.176 205.072 134.321 205.202C134.466 205.333 134.209 205.426 133.749 205.409C133.241 205.39 133.138 205.297 133.486 205.171V205.171ZM127.137 183.941C127.796 183.851 128.875 183.851 129.535 183.941C130.194 184.031 129.655 184.105 128.336 184.105C127.017 184.105 126.478 184.031 127.137 183.941V183.941ZM34.7131 175.308C35.1327 175.21 35.8193 175.21 36.2389 175.308C36.6585 175.407 36.3152 175.488 35.476 175.488C34.6368 175.488 34.2934 175.407 34.7131 175.308V175.308ZM272.749 144.736C272.754 143.872 272.844 143.565 272.948 144.053C273.052 144.542 273.048 145.249 272.938 145.625C272.829 146.001 272.744 145.601 272.749 144.736H272.749ZM272.674 141.953C272.695 141.496 272.798 141.402 272.937 141.716C273.063 142 273.048 142.338 272.903 142.469C272.758 142.6 272.655 142.367 272.674 141.953H272.674ZM269.304 118.215C269.304 116.379 269.379 115.627 269.471 116.546C269.563 117.464 269.563 118.967 269.471 119.885C269.379 120.804 269.304 120.052 269.304 118.215ZM256.979 59.4435C257 58.9857 257.103 58.8926 257.243 59.2061C257.368 59.4897 257.353 59.8286 257.208 59.9591C257.063 60.0897 256.96 59.8576 256.979 59.4435H256.979ZM272.328 48.082C272.331 47.0015 272.416 46.6061 272.516 47.2033C272.617 47.8006 272.614 48.6846 272.51 49.1679C272.407 49.6511 272.325 49.1624 272.328 48.082H272.328ZM256.979 40.5841C257 40.1263 257.103 40.0332 257.243 40.3467C257.368 40.6303 257.353 40.9692 257.208 41.0997C257.063 41.2303 256.96 40.9982 256.979 40.5841H256.979Z" fill="#DCAB07"/>
<path d="M251.199 246.817C251.513 246.703 251.889 246.717 252.034 246.848C252.179 246.978 251.921 247.071 251.462 247.054C250.954 247.035 250.851 246.942 251.199 246.817V246.817ZM51.9643 232.279C52.279 232.166 52.6551 232.18 52.7999 232.31C52.9448 232.441 52.6873 232.534 52.2277 232.517C51.7199 232.498 51.6166 232.405 51.9643 232.279V232.279ZM117.525 228.029C117.534 227.381 117.632 227.163 117.742 227.546C117.853 227.928 117.846 228.458 117.726 228.724C117.607 228.99 117.516 228.678 117.525 228.029H117.525ZM265.149 208.705C265.464 208.592 265.84 208.606 265.985 208.736C266.13 208.867 265.872 208.96 265.413 208.943C264.905 208.924 264.801 208.831 265.149 208.705V208.705ZM22.7277 203.606C23.0274 203.497 23.5179 203.497 23.8176 203.606C24.1173 203.715 23.8721 203.804 23.2726 203.804C22.6732 203.804 22.428 203.715 22.7277 203.606ZM32.7548 175.317C33.0545 175.208 33.545 175.208 33.8447 175.317C34.1444 175.426 33.8992 175.515 33.2998 175.515C32.7003 175.515 32.4551 175.426 32.7548 175.317ZM37.1144 175.317C37.4141 175.208 37.9046 175.208 38.2043 175.317C38.504 175.426 38.2588 175.515 37.6594 175.515C37.0599 175.515 36.8147 175.426 37.1144 175.317ZM70.0378 172.161C70.4619 172.062 71.0505 172.068 71.3456 172.175C71.6408 172.283 71.2937 172.364 70.5744 172.356C69.8551 172.349 69.6136 172.26 70.0378 172.161V172.161ZM278.344 168.275C278.365 167.818 278.468 167.725 278.608 168.038C278.734 168.322 278.718 168.66 278.573 168.791C278.428 168.922 278.325 168.69 278.344 168.275H278.344ZM260.545 163.2C260.55 162.336 260.64 162.029 260.744 162.517C260.848 163.006 260.844 163.713 260.734 164.089C260.625 164.465 260.54 164.065 260.545 163.2H260.545ZM269.24 122.338C269.249 121.69 269.346 121.473 269.457 121.855C269.567 122.237 269.56 122.767 269.441 123.033C269.321 123.299 269.231 122.987 269.24 122.338V122.338ZM269.265 113.695C269.269 112.83 269.359 112.523 269.463 113.012C269.567 113.5 269.563 114.208 269.454 114.583C269.345 114.959 269.259 114.559 269.264 113.695H269.265ZM151.009 56.3788C151.009 56.2972 151.353 55.9878 151.772 55.6912C152.464 55.2025 152.479 55.2164 151.937 55.8395C151.367 56.494 151.009 56.7022 151.009 56.3788V56.3788ZM164.415 0.0817474C164.715 -0.0272491 165.205 -0.0272491 165.505 0.0817474C165.805 0.190744 165.56 0.279923 164.96 0.279923C164.361 0.279923 164.115 0.190744 164.415 0.0817474V0.0817474Z" fill="#DCAB07"/>
<path d="M28.535 213.461C28.5559 213.004 28.6592 212.911 28.7983 213.224C28.9243 213.508 28.9088 213.847 28.7639 213.977C28.6191 214.108 28.516 213.876 28.5349 213.461H28.535ZM151.115 211.53C151.12 210.665 151.209 210.358 151.314 210.847C151.418 211.335 151.414 212.043 151.304 212.418C151.195 212.794 151.11 212.394 151.115 211.53H151.115ZM71.2247 210.399C71.2247 210.317 71.568 210.008 71.9876 209.711C72.679 209.223 72.6945 209.237 72.1522 209.86C71.5827 210.514 71.2247 210.722 71.2247 210.399V210.399ZM266.453 208.707C266.768 208.594 267.144 208.608 267.289 208.738C267.434 208.869 267.176 208.962 266.717 208.945C266.209 208.926 266.105 208.833 266.453 208.707V208.707ZM179.234 208.323C179.534 208.214 180.024 208.214 180.324 208.323C180.623 208.432 180.378 208.521 179.779 208.521C179.179 208.521 178.934 208.432 179.234 208.323V208.323ZM54.3395 186.701C54.7637 186.601 55.3522 186.608 55.6474 186.715C55.9425 186.822 55.5955 186.904 54.8761 186.896C54.1568 186.888 53.9153 186.8 54.3395 186.7V186.701ZM72.0148 172.167C72.3295 172.054 72.7056 172.068 72.8504 172.198C72.9953 172.329 72.7378 172.422 72.2782 172.405C71.7704 172.386 71.6671 172.293 72.0148 172.167V172.167ZM128.453 170.199C128.877 170.099 129.465 170.106 129.761 170.213C130.056 170.321 129.709 170.402 128.989 170.394C128.27 170.386 128.029 170.298 128.453 170.198V170.199ZM269.185 123.879C269.206 123.422 269.309 123.329 269.449 123.642C269.574 123.926 269.559 124.264 269.414 124.395C269.269 124.526 269.166 124.294 269.185 123.879H269.185ZM269.252 111.143C269.252 110.386 269.341 110.077 269.451 110.455C269.561 110.833 269.561 111.452 269.451 111.83C269.342 112.208 269.252 111.899 269.252 111.143ZM86.9881 103.285C86.9881 102.744 87.087 102.523 87.208 102.793C87.3289 103.064 87.3289 103.506 87.208 103.776C87.087 104.046 86.9881 103.825 86.9881 103.285V103.285ZM187.695 95.4265C187.695 94.8863 187.794 94.6653 187.915 94.9354C188.036 95.2055 188.036 95.6475 187.915 95.9177C187.794 96.1878 187.695 95.9668 187.695 95.4265ZM188.096 63.765C188.117 63.3073 188.221 63.2142 188.36 63.5276C188.486 63.8113 188.47 64.1501 188.326 64.2807C188.181 64.4113 188.078 64.1792 188.097 63.765H188.096ZM256.978 61.4076C256.999 60.9499 257.102 60.8568 257.242 61.1702C257.368 61.4538 257.352 61.7927 257.207 61.9233C257.062 62.0538 256.959 61.8218 256.978 61.4076H256.978ZM50.7689 49.2276C50.7899 48.7699 50.8932 48.6768 51.0323 48.9902C51.1583 49.2738 51.1428 49.6127 50.9979 49.7433C50.8531 49.8738 50.75 49.6417 50.769 49.2276H50.7689ZM54.7431 30.7938C54.752 30.1455 54.8497 29.9279 54.9603 30.3102C55.0708 30.6924 55.0635 31.2229 54.9441 31.4889C54.8247 31.7549 54.7343 31.4421 54.7431 30.7938H54.7431Z" fill="#DCAB07"/>
<path d="M34.6926 238.639C34.7015 237.991 34.7992 237.773 34.9097 238.155C35.0203 238.538 35.013 239.068 34.8936 239.334C34.7742 239.6 34.6837 239.287 34.6926 238.639H34.6926ZM271.444 214.598C271.863 214.499 272.55 214.499 272.97 214.598C273.389 214.696 273.046 214.777 272.207 214.777C271.367 214.777 271.024 214.696 271.444 214.598ZM267.765 208.706C268.08 208.593 268.456 208.607 268.601 208.737C268.746 208.868 268.488 208.961 268.029 208.944C267.521 208.925 267.418 208.832 267.765 208.706V208.706ZM94.0157 203.202C94.4399 203.102 95.0284 203.109 95.3236 203.216C95.6187 203.324 95.2717 203.405 94.5523 203.397C93.833 203.389 93.5915 203.301 94.0157 203.201V203.202ZM51.7191 186.701C52.1387 186.602 52.8254 186.602 53.245 186.701C53.6646 186.8 53.3213 186.881 52.482 186.881C51.6428 186.881 51.2995 186.8 51.7191 186.701V186.701ZM182.29 180.801C182.829 180.708 183.712 180.708 184.251 180.801C184.791 180.895 184.35 180.972 183.271 180.972C182.192 180.972 181.75 180.895 182.29 180.801ZM130.437 170.202C130.752 170.088 131.128 170.102 131.273 170.233C131.418 170.363 131.16 170.456 130.701 170.439C130.193 170.42 130.09 170.327 130.437 170.202V170.202ZM269.189 125.057C269.21 124.599 269.314 124.506 269.453 124.82C269.579 125.103 269.563 125.442 269.418 125.573C269.274 125.703 269.171 125.471 269.189 125.057H269.189ZM269.28 108.195C269.283 107.114 269.368 106.719 269.468 107.316C269.568 107.914 269.565 108.798 269.462 109.281C269.358 109.764 269.276 109.275 269.279 108.195H269.28ZM269.224 97.783C269.224 97.2427 269.323 97.0217 269.444 97.2918C269.565 97.562 269.565 98.004 269.444 98.2741C269.323 98.5442 269.224 98.3232 269.224 97.783ZM140.647 74.6016C140.647 73.8453 140.737 73.5359 140.847 73.914C140.957 74.2922 140.957 74.911 140.847 75.2892C140.737 75.6674 140.647 75.358 140.647 74.6016V74.6016ZM238.638 61.4875C238.638 61.4059 238.981 61.0965 239.401 60.7999C240.092 60.3112 240.107 60.3251 239.565 60.9482C238.996 61.6027 238.638 61.8108 238.638 61.4875V61.4875ZM50.807 50.6345C50.807 50.0942 50.906 49.8732 51.0269 50.1434C51.1479 50.4135 51.1479 50.8555 51.0269 51.1256C50.906 51.3957 50.807 51.1747 50.807 50.6345Z" fill="#DCAB07"/>
<path d="M221.553 233.461C221.868 233.347 222.244 233.361 222.389 233.492C222.534 233.622 222.276 233.715 221.817 233.698C221.309 233.679 221.206 233.586 221.553 233.461V233.461ZM69.5532 214.477C69.5532 213.937 69.6522 213.716 69.7731 213.986C69.8941 214.256 69.8941 214.698 69.7731 214.968C69.6522 215.238 69.5532 215.017 69.5532 214.477ZM255.095 214.609C255.395 214.501 255.885 214.501 256.185 214.609C256.485 214.718 256.24 214.808 255.64 214.808C255.041 214.808 254.795 214.718 255.095 214.609V214.609ZM158.054 210.155C158.054 209.615 158.153 209.394 158.273 209.664C158.394 209.934 158.394 210.376 158.273 210.646C158.152 210.916 158.054 210.695 158.054 210.155ZM269.073 208.708C269.388 208.594 269.764 208.608 269.909 208.739C270.054 208.869 269.796 208.962 269.337 208.945C268.829 208.926 268.725 208.833 269.073 208.708V208.708ZM31.474 188.277C31.7887 188.163 32.1647 188.177 32.3096 188.308C32.4544 188.438 32.1969 188.531 31.7374 188.514C31.2295 188.495 31.1262 188.402 31.474 188.277V188.277ZM186.001 180.798C186.664 180.708 187.645 180.71 188.181 180.803C188.717 180.896 188.175 180.97 186.976 180.967C185.777 180.964 185.339 180.888 186.001 180.797V180.798ZM4.52607 175.824C4.52607 175.742 4.86939 175.433 5.289 175.136C5.98046 174.648 5.99588 174.661 5.4536 175.285C4.88407 175.939 4.52607 176.147 4.52607 175.824V175.824ZM269.189 126.237C269.21 125.78 269.314 125.686 269.453 126C269.579 126.283 269.563 126.622 269.418 126.753C269.274 126.883 269.171 126.651 269.189 126.237H269.189ZM269.316 102.499C269.316 100.23 269.388 99.3021 269.476 100.437C269.564 101.571 269.564 103.428 269.476 104.562C269.388 105.697 269.316 104.768 269.316 102.499V102.499Z" fill="#DCAB07"/>
<path d="M35.3986 246.03C35.7133 245.917 36.0893 245.93 36.2342 246.061C36.3791 246.192 36.1216 246.284 35.662 246.267C35.1541 246.248 35.0508 246.155 35.3986 246.03V246.03ZM190.822 240.405C190.822 239 190.901 238.426 190.998 239.128C191.095 239.83 191.095 240.979 190.998 241.682C190.901 242.384 190.822 241.81 190.822 240.405ZM253.06 231.532C253.081 231.074 253.184 230.981 253.323 231.294C253.449 231.578 253.434 231.917 253.289 232.047C253.144 232.178 253.041 231.946 253.06 231.532H253.06ZM144.54 227.439C144.54 226.899 144.639 226.678 144.76 226.948C144.88 227.218 144.88 227.66 144.76 227.93C144.639 228.2 144.54 227.979 144.54 227.439ZM151.547 223.51C151.547 222.754 151.637 222.444 151.747 222.822C151.856 223.201 151.856 223.819 151.747 224.198C151.637 224.576 151.547 224.266 151.547 223.51V223.51ZM250.88 223.281C250.901 222.823 251.004 222.73 251.143 223.043C251.269 223.327 251.254 223.666 251.109 223.796C250.964 223.927 250.861 223.695 250.88 223.281H250.88ZM69.5198 215.816C69.5407 215.358 69.644 215.265 69.7832 215.578C69.9091 215.862 69.8936 216.201 69.7488 216.331C69.6039 216.462 69.5009 216.23 69.5198 215.816H69.5198ZM230.39 213.458C230.411 213 230.514 212.907 230.653 213.221C230.779 213.504 230.764 213.843 230.619 213.974C230.474 214.104 230.371 213.872 230.39 213.458H230.39ZM131.31 213.026C131.625 212.913 132.001 212.927 132.146 213.057C132.291 213.188 132.033 213.28 131.574 213.263C131.066 213.245 130.962 213.151 131.31 213.026V213.026ZM271.217 208.689C271.991 208.602 273.364 208.601 274.269 208.686C275.173 208.771 274.54 208.842 272.862 208.844C271.183 208.845 270.443 208.776 271.217 208.689V208.689ZM31.7332 207.303L30.9027 206.419L31.8836 207.167C32.8055 207.871 33.063 208.187 32.7141 208.187C32.6314 208.187 32.19 207.789 31.7332 207.303ZM29.4941 188.269C29.9183 188.17 30.5069 188.176 30.802 188.283C31.0972 188.391 30.7501 188.472 30.0308 188.464C29.3115 188.457 29.07 188.368 29.4941 188.269V188.269ZM65.044 186.309C65.3587 186.195 65.7347 186.209 65.8796 186.34C66.0244 186.47 65.767 186.563 65.3074 186.546C64.7995 186.527 64.6962 186.434 65.044 186.309V186.309ZM164.852 181.995C165.152 181.886 165.642 181.886 165.942 181.995C166.242 182.104 165.996 182.193 165.397 182.193C164.798 182.193 164.552 182.104 164.852 181.995V181.995ZM246.84 166.27C247.155 166.157 247.531 166.171 247.676 166.301C247.821 166.432 247.563 166.525 247.104 166.508C246.596 166.489 246.492 166.396 246.84 166.27V166.27ZM226.35 164.699C226.665 164.585 227.041 164.599 227.186 164.73C227.33 164.861 227.073 164.953 226.613 164.936C226.105 164.918 226.002 164.824 226.35 164.699V164.699ZM201.064 117.55C201.379 117.437 201.755 117.451 201.9 117.581C202.045 117.712 201.787 117.805 201.328 117.788C200.82 117.769 200.716 117.676 201.064 117.55V117.55ZM190.717 104.624C190.738 104.166 190.841 104.073 190.981 104.386C191.107 104.67 191.091 105.009 190.946 105.139C190.801 105.27 190.698 105.038 190.717 104.624H190.717ZM252.624 91.6579C252.645 91.2002 252.748 91.1071 252.887 91.4206C253.013 91.7042 252.998 92.0431 252.853 92.1736C252.708 92.3042 252.605 92.0721 252.624 91.6579H252.624ZM235.261 65.3661C235.266 64.5017 235.355 64.1944 235.459 64.6831C235.564 65.1718 235.559 65.8791 235.45 66.2547C235.341 66.6304 235.255 66.2305 235.26 65.3661H235.261ZM271.806 37.0443C271.827 36.5866 271.93 36.4935 272.07 36.8069C272.195 37.0905 272.18 37.4294 272.035 37.56C271.89 37.6905 271.787 37.4585 271.806 37.0443H271.806Z" fill="#DCAB07"/>
<path d="M11.61 247.6C12.0296 247.501 12.7162 247.501 13.1358 247.6C13.5554 247.699 13.2121 247.78 12.3729 247.78C11.5337 247.78 11.1904 247.699 11.61 247.6ZM77.6853 240.138C78 240.024 78.376 240.038 78.5209 240.169C78.6657 240.299 78.4083 240.392 77.9487 240.375C77.4408 240.356 77.3375 240.263 77.6853 240.138V240.138ZM190.75 237.263C190.75 236.723 190.849 236.502 190.97 236.772C191.091 237.042 191.091 237.484 190.97 237.754C190.849 238.024 190.75 237.803 190.75 237.263ZM15.9456 235.495C15.9544 234.846 16.0522 234.629 16.1627 235.011C16.2732 235.393 16.266 235.924 16.1466 236.19C16.0271 236.456 15.9367 236.143 15.9456 235.495H15.9456ZM98.9392 235.806C98.7026 235.246 98.7527 235.201 99.1832 235.586C99.4812 235.853 99.6151 236.17 99.4809 236.291C99.3467 236.412 99.1029 236.194 98.9392 235.806ZM110.097 229.012C110.097 228.472 110.196 228.251 110.317 228.521C110.438 228.791 110.438 229.233 110.317 229.503C110.196 229.773 110.097 229.552 110.097 229.012ZM77.7114 225.574C77.1691 224.951 77.1846 224.937 77.876 225.426C78.2956 225.722 78.639 226.032 78.639 226.113C78.639 226.437 78.281 226.229 77.7114 225.574V225.574ZM51.0644 225.608C51.3642 225.499 51.8546 225.499 52.1543 225.608C52.4541 225.717 52.2088 225.807 51.6094 225.807C51.0099 225.807 50.7647 225.717 51.0644 225.608ZM178.508 221.317C178.529 220.86 178.633 220.767 178.772 221.08C178.898 221.364 178.882 221.703 178.737 221.833C178.593 221.964 178.49 221.732 178.509 221.317H178.508ZM15.9793 219.189C15.9793 218.217 16.0643 217.819 16.1683 218.305C16.2722 218.791 16.2722 219.587 16.1683 220.073C16.0643 220.559 15.9793 220.162 15.9793 219.189ZM183.74 217.388C183.761 216.931 183.864 216.838 184.003 217.151C184.129 217.435 184.114 217.774 183.969 217.904C183.824 218.035 183.721 217.803 183.74 217.388H183.74ZM262.511 214.982C263.053 214.888 263.838 214.892 264.254 214.99C264.671 215.088 264.228 215.165 263.268 215.161C262.309 215.156 261.968 215.076 262.511 214.982V214.982ZM279.651 211.888C279.672 211.43 279.776 211.337 279.915 211.65C280.041 211.934 280.025 212.273 279.88 212.403C279.736 212.534 279.633 212.302 279.651 211.888H279.651ZM19.0296 209.487C19.4538 209.388 20.0423 209.394 20.3375 209.501C20.6326 209.609 20.2856 209.69 19.5663 209.682C18.8469 209.675 18.6054 209.586 19.0296 209.487V209.487ZM61.0993 186.294C61.8829 186.206 63.06 186.208 63.7151 186.298C64.3702 186.388 63.7291 186.459 62.2904 186.457C60.8518 186.454 60.3158 186.382 61.0993 186.294V186.294ZM160.934 181.972C161.718 181.884 162.895 181.886 163.55 181.976C164.205 182.066 163.564 182.137 162.125 182.135C160.687 182.132 160.151 182.06 160.934 181.972V181.972ZM3.25214 179.67C3.27306 179.212 3.37636 179.119 3.51553 179.432C3.64147 179.716 3.62598 180.055 3.4811 180.185C3.33623 180.316 3.2332 180.084 3.25213 179.67H3.25214ZM219.127 178.434C220.027 178.349 221.498 178.349 222.397 178.434C223.296 178.519 222.561 178.588 220.762 178.588C218.964 178.588 218.228 178.519 219.127 178.434ZM255.557 178.452C255.872 178.338 256.248 178.352 256.393 178.483C256.538 178.613 256.28 178.706 255.821 178.689C255.313 178.67 255.21 178.577 255.557 178.452V178.452ZM265.348 178.055C265.772 177.955 266.36 177.962 266.655 178.069C266.951 178.177 266.603 178.258 265.884 178.25C265.165 178.242 264.923 178.154 265.348 178.054V178.055ZM257.938 134.715C257.938 133.743 258.023 133.345 258.127 133.831C258.231 134.317 258.231 135.113 258.127 135.599C258.023 136.085 257.938 135.687 257.938 134.715ZM256.194 109.176C256.194 108.204 256.279 107.806 256.383 108.292C256.487 108.778 256.487 109.574 256.383 110.06C256.279 110.547 256.194 110.149 256.194 109.176ZM190.75 106.033C190.75 105.493 190.849 105.272 190.97 105.542C191.091 105.812 191.091 106.254 190.97 106.524C190.849 106.794 190.75 106.573 190.75 106.033ZM182.342 81.3784C181.8 80.7552 181.815 80.7413 182.507 81.2301C183.233 81.7433 183.464 82.066 183.105 82.066C183.015 82.066 182.671 81.7566 182.342 81.3784V81.3784ZM224.72 79.8723C224.741 79.4146 224.844 79.3215 224.984 79.6349C225.11 79.9185 225.094 80.2574 224.949 80.388C224.804 80.5185 224.701 80.2865 224.72 79.8723H224.72ZM271.368 29.5806C271.389 29.1229 271.492 29.0298 271.632 29.3433C271.757 29.6269 271.742 29.9658 271.597 30.0963C271.452 30.2269 271.349 29.9948 271.368 29.5806H271.368Z" fill="#DCAB07"/>
<path d="M132.41 261.245C131.93 261.063 130.656 260.095 129.578 259.093C127.633 257.287 127.615 257.246 127.372 253.946C127.079 249.97 126.211 248.591 123.776 248.234C122.915 248.107 121.917 247.785 121.558 247.516C121.2 247.248 119.883 246.785 118.633 246.488C117.383 246.191 115.459 245.39 114.358 244.709C111.689 243.058 108.443 238.553 107.85 235.677C107.607 234.498 107.21 233.067 106.969 232.497C106.315 230.954 107.11 222.293 108.196 219.133C109.368 215.723 111.958 212.281 115.399 209.558C117.606 207.811 118.863 207.165 121.584 206.376C124.589 205.505 125.611 205.402 130.1 205.512L135.202 205.637L136.858 207.036C137.768 207.805 139.346 208.912 140.364 209.495C141.779 210.307 142.626 211.27 143.972 213.597C144.938 215.269 146.235 217.434 146.852 218.406C147.952 220.139 147.97 220.289 147.749 225.898C147.543 231.099 147.399 231.907 146.172 234.739C145.43 236.452 144.073 238.827 143.156 240.016C141.488 242.179 140.921 242.598 136.307 245.078L133.833 246.407L134.093 248.025C134.591 251.124 135.322 252.682 137.086 254.408C138.821 256.104 138.851 256.18 138.356 257.67C137.35 260.694 134.878 262.181 132.41 261.245V261.245ZM122.677 238.641C122.921 237.834 122.759 236.447 122.164 234.249C121.06 230.177 121.066 230.021 122.414 227.949C123.528 226.236 123.549 226.226 125.749 226.343C128.287 226.478 129.484 227.5 129.825 229.826C130.209 232.436 130.441 233.39 131.355 236.101C131.862 237.606 132.521 238.837 132.819 238.837C133.855 238.837 138.627 233.935 139.103 232.382C139.355 231.559 139.914 230.535 140.345 230.105C141.017 229.436 141.117 228.673 141.042 224.777C140.958 220.445 140.894 220.154 139.686 218.63C138.006 216.511 134.825 214.639 131.21 213.641C127.271 212.554 125.359 212.915 124.127 214.979C123.29 216.38 123.161 216.439 120.956 216.44C118.693 216.442 118.638 216.47 117.358 218.289C114.913 221.764 114.15 224.128 114.149 228.229C114.149 231.306 114.317 232.251 115.105 233.615C115.631 234.525 116.061 235.596 116.061 235.994C116.061 236.85 118.435 239.02 119.985 239.581C121.623 240.173 122.283 239.943 122.677 238.641V238.641ZM228.751 248.974C227.039 247.14 223.037 239.399 222.447 236.777C221.853 234.137 220.894 233.339 218.306 233.332C217.34 233.329 215.471 233.066 214.152 232.747C212.834 232.428 211.419 232.165 211.009 232.162C209.843 232.155 208.574 233.662 208.245 235.444C208.081 236.338 207.702 237.511 207.404 238.051C207.107 238.591 206.737 240.17 206.583 241.56C206.428 242.949 205.96 244.717 205.541 245.488C204.909 246.652 204.482 246.934 203.038 247.14C200.88 247.448 199.699 247.065 198.741 245.747C197.39 243.89 197.384 242.65 198.717 241.222C199.562 240.317 200.025 239.262 200.258 237.713C200.442 236.494 201.031 234.652 201.568 233.618C202.519 231.788 202.525 231.692 201.807 229.886C200.728 227.172 200.85 226.453 202.554 225.503C203.369 225.05 204.319 224.284 204.667 223.801C205.429 222.743 208.759 213.717 209.178 211.575C209.522 209.815 212.05 207.277 213.868 206.866C215.532 206.489 217.974 207.527 218.555 208.858C218.819 209.463 219.386 210.673 219.814 211.547C220.242 212.42 220.829 214.188 221.118 215.476C221.408 216.763 222.117 218.59 222.694 219.536C223.271 220.482 223.744 221.517 223.744 221.837C223.744 222.157 224.478 223.629 225.376 225.109L227.007 227.798L230.062 228.43C231.742 228.778 233.536 229.139 234.048 229.231C234.697 229.349 235.038 229.767 235.176 230.616C235.343 231.639 235.196 231.896 234.246 232.236C233.625 232.458 232.266 232.733 231.227 232.846C228.687 233.124 228.111 234.177 229.153 236.637C229.562 237.6 230.542 239.152 231.332 240.086C233.592 242.759 234.207 244.118 234.207 246.447C234.207 248.463 234.116 248.646 232.738 249.413C230.756 250.518 230.127 250.448 228.751 248.974H228.751ZM218.076 226.114C218.076 226.032 217.587 224.794 216.99 223.364C215.871 220.684 215.003 219.192 214.563 219.192C214.425 219.192 213.851 220.457 213.288 222.004L212.265 224.816L213.257 225.54C214.107 226.16 218.076 226.633 218.076 226.114V226.114ZM60.0921 248.126C58.0274 246.123 53.9899 238.34 53.4569 235.336C53.0655 233.13 51.1869 232.296 45.8098 231.941C41.6831 231.668 41.5934 231.681 40.9116 232.619C40.5296 233.144 40.0923 234.183 39.9397 234.928C39.7871 235.674 39.4219 236.637 39.1282 237.069C38.8345 237.501 38.4623 238.762 38.3012 239.871C38.1401 240.98 37.7101 242.792 37.3456 243.898C36.6306 246.068 36.4504 246.149 32.7931 245.934C30.8271 245.818 30.1657 245.21 29.8739 243.249C29.6812 241.955 29.8087 241.528 30.5613 240.947C31.2617 240.406 31.4852 239.783 31.4852 238.369C31.4852 237.241 31.8457 235.88 32.3978 234.926C33.7075 232.661 33.9076 230.595 33.02 228.501C32.0757 226.272 32.4093 225.314 34.553 224.094C35.8428 223.36 36.3624 222.735 36.7438 221.459C37.0187 220.539 37.6455 219.077 38.1366 218.212C38.6278 217.346 39.3964 215.312 39.8446 213.691C40.729 210.493 42.4015 207.71 44.1344 206.551C45.1654 205.861 45.351 205.855 47.2511 206.438C48.3623 206.779 49.5653 207.357 49.9245 207.723C50.6666 208.478 52.4882 213.516 53.2882 217.027C53.6169 218.469 54.1417 219.581 54.6438 219.898C55.0944 220.182 55.463 220.707 55.463 221.065C55.463 222.249 57.3682 226.166 58.1616 226.612C58.5908 226.854 60.2888 227.224 61.935 227.434C66.0938 227.966 66.362 228.097 66.362 229.598C66.362 230.996 65.8725 231.288 62.0582 232.167C60.1528 232.606 60.1522 232.607 60.3818 234.15C60.5082 234.999 61.5393 237.12 62.6733 238.863L64.735 242.032L66.0934 240.877C67.8616 239.374 69.1572 239.136 71.9543 239.801C73.9157 240.268 74.8207 240.265 78.2595 239.783C80.4678 239.474 83.844 239.047 85.7622 238.835C90.0781 238.358 94.2 237.41 95.3534 236.629L96.2253 236.038L95.3534 235.439C94.8738 235.11 93.2451 234.308 91.734 233.657C90.2229 233.007 88.7534 232.138 88.4684 231.726C88.1834 231.315 87.6291 230.979 87.2366 230.979C86.8441 230.979 86.2876 230.723 86.0001 230.411C85.7125 230.099 84.4623 229.549 83.2219 229.19C81.9816 228.831 80.2469 228.122 79.3671 227.613C78.4874 227.104 77.2446 226.569 76.6054 226.425C74.6027 225.972 67.9472 221.62 67.1704 220.255C66.3616 218.835 66.2451 218.064 66.3138 214.589C66.356 212.451 66.5302 211.974 67.7108 210.762C69.1824 209.252 74.3386 206.626 78.1329 205.454C79.4517 205.047 82.2964 204.415 84.4544 204.05C91.2606 202.898 100.945 203.841 103.389 205.893C104.406 206.746 104.636 209.293 103.767 210.076C103.072 210.703 101.304 210.672 99.1822 209.998C96.8231 209.247 89.3051 209.543 83.2358 210.624C78.9879 211.381 78.339 211.613 76.5728 213.015C74.3071 214.812 73.1776 216.547 73.5624 217.64C73.7108 218.062 74.4566 218.83 75.2197 219.348C76.6735 220.334 87.8009 225.475 90.2132 226.275C90.9828 226.53 92.6503 227.443 93.9189 228.303C95.1874 229.162 97.1126 230.276 98.197 230.777C100.485 231.833 105.109 235.879 105.37 237.052C106.13 240.473 106.102 240.681 104.724 241.725C103.992 242.28 102.761 242.826 101.989 242.938C101.217 243.05 97.0544 243.599 92.7394 244.158C88.4243 244.718 83.2255 245.53 81.1864 245.964C73.9111 247.511 69.2973 247.354 67.4304 245.495C66.6632 244.731 66.6206 244.759 64.991 247.081C63.0298 249.877 62.1003 250.075 60.0921 248.126V248.126ZM48.9212 224.987C48.9153 222.848 46.9447 218.799 45.9098 218.799C45.347 218.799 43.6426 224.412 44.0844 224.81C44.4949 225.18 46.8092 225.76 48.1607 225.831C48.6751 225.858 48.9228 225.583 48.9212 224.987ZM166.824 247.555C165.321 247.103 158.471 241.985 157.258 240.406C156.632 239.592 155.76 237.856 155.32 236.547C154.881 235.238 154.091 233.623 153.565 232.957C151.757 230.669 147.898 216.442 147.891 212.04C147.884 207.617 148.849 206.23 151.514 206.833C153.69 207.325 154.251 208.441 154.795 213.363C155.54 220.093 158.18 228.121 161.445 233.589C163.601 237.199 166.393 240.011 167.833 240.021C168.252 240.024 169.018 240.129 169.535 240.254C170.804 240.561 172.123 239.317 172.749 237.223C173.021 236.313 173.546 235.152 173.915 234.644C174.769 233.469 175.51 224.862 175.109 220.764C174.923 218.861 174.453 217.163 173.779 215.964C172.558 213.792 172.472 212.338 173.438 210.163C174.061 208.758 174.301 208.583 175.602 208.583C176.802 208.583 177.265 208.847 178.184 210.057C179.652 211.99 180.728 215.346 180.362 216.848C180.191 217.552 180.459 219.621 181.028 221.975C181.821 225.262 181.9 226.211 181.5 227.643C181.236 228.588 181.02 230.871 181.02 232.716C181.02 235.334 180.781 236.64 179.93 238.678C179.33 240.114 178.84 241.853 178.84 242.543C178.84 243.403 178.458 244.128 177.626 244.845C175.604 246.592 169.071 248.23 166.824 247.555V247.555ZM3.3658 246.878C0.964084 246.051 -0.0464082 245.042 0.00163127 243.519C0.0605693 241.651 0.980778 240.985 2.73927 241.537C4.73992 242.166 7.07146 242.11 7.07146 241.434C7.07146 241.133 6.6834 240.117 6.20911 239.175C5.69841 238.16 5.33896 236.581 5.32762 235.301C5.31627 234.021 4.95683 232.441 4.44612 231.427C3.34511 229.24 3.35804 228.997 4.70212 226.606C5.67104 224.883 5.81109 224.163 5.75025 221.217C5.71163 219.347 5.82128 216.225 5.99392 214.28C6.27616 211.101 6.21319 210.581 5.36942 209.129C4.032 206.827 4.60163 205.686 7.70557 204.449C9.94709 203.556 10.4292 203.512 15.8818 203.712C19.5324 203.845 22.4019 204.157 23.6379 204.554C25.8821 205.275 30.6133 209.107 30.6133 210.204C30.6133 210.598 31.0269 211.687 31.5324 212.625L32.4516 214.33L31.4543 216.419C30.6697 218.063 29.7991 218.98 27.3725 220.717C25.6759 221.932 23.3573 223.456 22.2199 224.104C19.8674 225.444 19.6186 226.132 21.3492 226.513C22.0085 226.658 23.0159 227.103 23.5877 227.503C24.1596 227.902 24.914 228.229 25.2643 228.229C26.2653 228.229 28.3834 229.752 29.0866 230.977C29.6012 231.874 29.6453 232.657 29.3115 234.974C29.0832 236.558 28.8903 238.158 28.8829 238.529C28.8449 240.432 22.4018 245.091 18.11 246.318C14.1606 247.447 5.92648 247.759 3.3658 246.878V246.878ZM19.1679 239.281C21.2026 238.345 23.302 236.256 23.11 235.357C23.0366 235.013 21.7349 234.153 20.2174 233.445C18.1212 232.467 16.9052 232.158 15.156 232.158H12.8537L12.6253 233.693C12.4997 234.537 12.5027 236.415 12.632 237.867L12.8671 240.507L15.1452 240.295C16.3981 240.178 18.2084 239.722 19.1679 239.281H19.1679ZM16.9983 221.005C21.8967 218.787 25.5109 215.559 25.3002 213.59C25.1841 212.506 24.8287 212.154 22.9118 211.228C20.1588 209.899 16.0519 209.136 14.68 209.699C13.9477 210 13.7699 210.335 13.9335 211.106C14.0516 211.663 13.8617 212.516 13.5116 213.003C12.7494 214.062 12.1844 218.974 12.5729 221.164C12.7255 222.024 12.9273 222.728 13.0214 222.728C13.1154 222.728 14.905 221.952 16.9983 221.005ZM189.426 246.457C188.655 246.108 187.919 245.527 187.791 245.165C187.664 244.802 187.463 241.464 187.346 237.748C187.102 230.026 186.132 219.086 185.117 212.599C184.307 207.425 184.47 207.012 187.327 207.012C189.811 207.012 190.465 207.775 191.223 211.555C191.567 213.27 191.974 215.292 192.127 216.049C192.503 217.905 193.103 223.376 193.636 229.8C193.882 232.769 194.462 236.305 194.954 237.832C195.785 240.409 195.795 240.682 195.145 242.744C194.05 246.214 193.576 246.879 192.123 246.99C191.411 247.045 190.197 246.805 189.426 246.457V246.457ZM245.349 246.341C244.267 245.96 243.294 242.743 243.137 239.034C243.073 237.521 242.765 235.753 242.453 235.104C242.078 234.323 241.804 231.114 241.643 225.586C241.411 217.628 241.356 217.207 240.426 216.37C239.476 215.515 239.373 215.507 236.284 216.033C234.542 216.329 232.11 216.646 230.879 216.737C228.924 216.881 228.552 216.787 227.936 215.995C227.129 214.956 226.987 211.909 227.727 211.497C227.999 211.345 229.421 211.084 230.887 210.917C232.353 210.75 236.397 210.16 239.874 209.606C247.025 208.465 247.191 208.46 262.98 208.792C274.158 209.028 274.557 209.064 275.286 209.89C276.408 211.162 276.278 213.369 275.018 214.436C274.113 215.202 273.757 215.269 272.293 214.953C271.013 214.677 252.213 214.574 249.154 214.826C248.124 214.911 247.619 216.604 247.51 220.332C247.421 223.389 247.595 224.661 248.427 227.05C249.189 229.235 249.456 230.923 249.46 233.582C249.463 235.843 249.719 237.801 250.152 238.886C251.049 241.132 251.185 245.178 250.393 246.042C249.761 246.731 246.93 246.899 245.349 246.341V246.341ZM14.0468 187.714C8.26917 187.252 4.36586 186.114 2.13884 184.242C0.421366 182.798 0.340791 182.623 0.174609 179.973L0.00131999 177.209L2.07019 175.215C3.91407 173.439 4.33595 173.222 5.94962 173.222C6.94543 173.222 8.88998 173.487 10.2708 173.811C11.6517 174.135 12.9641 174.401 13.1873 174.401C14.0973 174.401 15.391 171.04 16.1743 166.64C16.7904 163.18 17.3733 161.317 18.4252 159.444C19.2059 158.054 20.512 154.53 21.3275 151.612C22.1431 148.695 24.5557 141.623 26.689 135.896C32.5837 120.073 33.5714 116.873 34.1101 111.856C35.0863 102.763 35.8606 98.385 37.5639 92.3242C38.5254 88.9032 39.6217 84.4446 40 82.4163C40.3784 80.388 41.1675 77.5761 41.7535 76.1676C43.585 71.7659 45 66.0504 45 63.0543C45 61.0162 45.2343 59.8563 45.8579 58.8077C46.9062 57.045 47.608 53.3544 47.6125 49.5819C47.6146 47.6883 48.0622 45.2323 48.9726 42.1167C52.2045 31.0569 52.2448 30.18 49.7396 25.4291C47.694 21.5497 47.7088 20.9707 49.9193 18.3588C51.8861 16.0348 54.7855 14.4949 57.7058 14.2232C59.8337 14.0253 60.2123 14.1113 61.4952 15.0842C64.1615 17.1062 65.9879 21.2745 68.9815 32.1693C70.2965 36.9551 71.1466 39.2185 72.2289 40.8152C74.2166 43.7478 74.8132 45.2132 76.6176 51.5954C78.3332 57.6636 79.2459 59.7878 80.9786 61.7449C81.7559 62.6228 82.5538 64.4929 83.374 67.3588C84.0505 69.7224 85.9014 74.8271 87.4873 78.7026C89.0731 82.578 91.0376 87.8368 91.8528 90.3887C94.5199 98.738 100.091 110.246 102.784 112.969L104.282 114.483L105.223 113.501C106.823 111.832 108.546 107.933 110.621 101.291C112.546 95.1303 112.705 94.8066 115.408 91.5606C118.927 87.3351 122.593 80.9567 126.276 72.6528C128.377 67.9164 129.546 65.8121 130.643 64.7947C132.552 63.0234 134.249 59.7152 134.62 57.0395C134.869 55.2396 135.135 54.7904 136.545 53.7838C137.938 52.7894 138.225 52.3131 138.481 50.5742C138.647 49.4511 139.186 48.0203 139.681 47.3946C140.175 46.7689 140.845 45.4611 141.17 44.4884C141.495 43.5157 142.358 42.0403 143.088 41.2097C145.172 38.8385 146.508 35.6834 148.771 27.7945C149.925 23.7675 151.389 19.3037 152.024 17.8747C153.151 15.336 153.165 15.1897 152.672 11.4657C152.092 7.09104 152.399 3.83158 153.471 2.98354C156.405 0.661128 162.275 -0.32475 164.759 1.08752C166.671 2.17473 167.425 3.67537 167.874 7.28737C168.084 8.97904 168.65 11.1588 169.132 12.1312C169.614 13.1036 170.237 15.5789 170.518 17.6319C171.822 27.1778 174.095 34.6947 178.212 43.0791C180.695 48.1356 181.52 50.8391 182.284 56.4146C182.527 58.1882 183.126 60.3873 183.616 61.3014C184.106 62.2155 184.516 63.5049 184.526 64.1666C184.537 64.8283 184.846 66.077 185.213 66.9414C185.581 67.8057 186.147 69.4854 186.472 70.6739C187.204 73.3551 191.196 83.5713 192.189 85.3059C192.592 86.0103 193.579 87.3634 194.382 88.3129C195.185 89.2624 195.839 90.2348 195.835 90.4739C195.824 91.095 198.178 96.6074 198.45 96.5965C199.044 96.5727 225.475 55.9238 241.577 30.2699C250.356 16.2843 251.216 14.7531 250.623 14.1608C248.603 12.1398 249.595 8.9272 253.185 5.86753C255.763 3.67044 257.831 2.7015 259.943 2.7015C262.109 2.7015 262.885 3.33356 264.69 6.56939L266.392 9.62007L267.068 17.6532C269.418 45.5643 269.005 67.8342 265.827 84.5002C264.996 88.8613 264.874 90.3853 265.185 92.5547C265.395 94.0264 265.574 102.423 265.581 111.213C265.597 128.499 265.828 131.176 267.804 136.962C268.804 139.889 269.083 141.457 269.083 144.134C269.083 147.013 269.217 147.671 269.919 148.243C270.568 148.772 270.817 149.687 271.034 152.331C271.196 154.321 271.951 157.778 272.846 160.643C275.531 169.227 275.334 171.286 271.511 174.643C268.526 177.265 265.875 178.104 261.53 177.803C259.81 177.685 257.757 177.468 256.968 177.322C255.976 177.139 255.305 177.237 254.789 177.642C254.152 178.141 249.87 178.261 225.487 178.465C197.614 178.699 196.87 178.725 194.316 179.558C192.098 180.282 190.278 180.459 182.327 180.727C177.172 180.901 171.287 181.227 169.249 181.452C163.88 182.043 152.979 181.963 149.894 181.309C147.521 180.806 147.17 180.823 145.317 181.54C144.212 181.967 142.819 182.288 142.219 182.253C138.891 182.062 137.387 182.177 135.026 182.805C131.527 183.735 121.958 184.07 116.051 183.47C113.539 183.214 107.992 182.552 103.725 181.999C96.8186 181.103 95.8836 181.057 95.2233 181.579C94.0754 182.487 92.8595 182.656 91.4297 182.108C90.3114 181.679 89.7811 181.714 87.7705 182.349C86.3343 182.802 82.6485 183.311 78.301 183.655C74.386 183.966 70.3434 184.495 69.3174 184.833C68.2914 185.17 66.9487 185.592 66.3336 185.769C65.7185 185.946 61.2063 186.213 56.3065 186.361C51.4067 186.51 43.9646 186.973 39.7685 187.392C31.7576 188.19 21.6037 188.317 14.0468 187.714V187.714ZM53.7192 173.869C60.3131 173.116 68.5527 172.38 72.0295 172.232C77.2927 172.01 78.7708 171.806 80.8589 171.016C83.0056 170.204 84.5444 170.007 91.54 169.646C99.0982 169.256 100.053 169.12 104.234 167.838C109.708 166.159 111.217 166.233 114.621 168.346C116.743 169.663 117.428 169.861 121.128 170.222C126.464 170.744 133.565 170.171 144.617 168.328C149.173 167.568 153.899 166.944 155.12 166.941C156.34 166.938 160.166 167.575 163.621 168.356C169.721 169.736 170.073 169.771 175.788 169.555C179.025 169.432 184.812 168.877 188.649 168.321C192.485 167.765 197.548 167.047 199.898 166.726C207.361 165.707 219.328 164.899 227.885 164.836C235.12 164.782 236.472 164.872 238.566 165.545C241.122 166.367 244.021 166.429 252.735 165.85L257.095 165.56L257.014 160.612C256.97 157.891 256.416 152.056 255.782 147.646C254.851 141.165 254.657 138.411 254.772 133.276C254.91 127.121 254.884 126.893 253.923 125.972C252.369 124.48 252.193 123.205 252.527 115.858C253.027 104.877 252.286 98.4575 250.069 94.5624C249.109 92.876 249.321 90.4851 250.604 88.5113C251.52 87.1023 251.856 85.8213 252.323 81.9584C253.304 73.8317 253.823 62.7802 253.824 49.9883C253.825 37.7861 253.822 37.7453 252.777 36.0869L251.728 34.4236L250.587 36.0525C249.96 36.9485 248.748 38.6652 247.895 39.8675C247.041 41.0697 245.967 43.0388 245.507 44.2432C244.961 45.6736 243.943 47.1277 242.572 48.4362C240.05 50.8428 238.173 54.2555 237.839 57.0403C237.611 58.9457 237.392 59.2588 234.593 61.6901C232.016 63.9273 231.591 64.4897 231.591 65.6565C231.591 66.5313 231.27 67.2778 230.691 67.7502C230.196 68.154 228.421 70.4732 226.748 72.9041C225.074 75.3349 223.187 77.6907 222.555 78.1392C221.659 78.7742 221.378 79.3509 221.287 80.745C221.189 82.25 220.862 82.8326 219.234 84.4009C217.011 86.5421 216.117 87.9596 214.83 91.379C214.127 93.2469 213.561 94.0282 212.398 94.7337C211.075 95.5368 210.356 96.7482 206.73 104.282C204.446 109.028 201.931 113.928 201.14 115.17C199.727 117.39 199.668 117.43 197.755 117.43C194.659 117.43 189.319 114.555 188.34 112.362C188.089 111.8 187.738 109.218 187.561 106.625C187.277 102.485 187.072 101.599 185.873 99.356C184.992 97.7085 184.508 96.2001 184.508 95.106C184.507 93.9 184.19 93.0357 183.411 92.1147C182.701 91.2758 182.004 89.5384 181.434 87.1845C180.448 83.1122 179.673 81.5016 178.404 80.8895C176.734 80.0842 176.13 78.3249 176.454 75.2109C176.731 72.5514 176.671 72.2456 175.568 70.6716C174.73 69.4742 174.036 67.4318 173.179 63.6407C171.833 57.6846 171.22 56.1147 169.533 54.3117C168.677 53.3969 168.377 52.6411 168.377 51.3993C168.377 50.2152 168 49.1927 167.096 47.9199C166.392 46.9285 165.094 44.703 164.211 42.9742C163.328 41.2454 161.971 38.5933 161.195 37.0806C160.418 35.5679 159.404 33.915 158.941 33.4075L158.098 32.4848L154.77 39.4975C151.231 46.9567 149.932 50.2213 149.422 52.942C149.246 53.8805 148.581 55.1807 147.922 55.8736C146.143 57.7453 145.102 59.4894 143.329 63.5722C141.227 68.4124 139.899 70.7359 138.296 72.3812C137.382 73.3199 136.988 74.1336 136.988 75.0829C136.988 76.1507 136.754 76.5372 135.898 76.8889C134.967 77.2713 134.808 77.5981 134.808 79.1318C134.808 80.504 134.457 81.422 133.318 83.026C132.499 84.1803 131.621 85.2401 131.368 85.3811C131.115 85.5221 130.696 86.3815 130.437 87.2907C130.178 88.2 128.697 91.3351 127.147 94.2576C125.353 97.6399 124.147 100.496 123.83 102.116C123.483 103.889 122.978 105.017 122.163 105.839C120.548 107.467 119.424 109.295 118.052 112.518C115.877 117.631 115.085 119.192 113.664 121.162C112.885 122.243 112.124 123.873 111.972 124.785C111.586 127.1 109.686 132.379 108.856 133.44C107.504 135.169 101.448 134.245 98.7642 131.9C97.2503 130.577 95.5713 126.704 95.5713 124.534C95.5713 123.865 95.0861 123.051 94.2634 122.341C93.2346 121.452 92.9556 120.874 92.9556 119.631C92.9556 118.565 92.2607 116.699 90.8253 113.909C89.6537 111.631 88.5841 109.466 88.4484 109.097C88.3127 108.728 87.416 107.979 86.4557 107.433C84.1817 106.139 83.8004 105.418 83.8004 102.414C83.8004 100.223 83.5007 99.3224 81.3406 95.0209C79.9878 92.3269 75.992 83.6693 72.461 75.7817C63.8257 56.4918 59.7869 48.4795 58.7585 48.5986C58.533 48.6248 57.9084 50.9945 57.3706 53.8647C56.8329 56.7349 54.8211 66.5092 52.9 75.5853C48.8781 94.5871 46.7931 105.564 45.2462 115.881C44.2188 122.733 44.0204 123.451 41.9535 127.792C39.37 133.218 37.0054 140.044 36.3234 144.044C36.0568 145.608 35.3546 147.874 34.763 149.08C32.168 154.368 29.6727 163.187 29.0994 169.096C28.9527 170.609 28.7202 172.714 28.5829 173.774L28.3331 175.701L35.0317 175.469C38.7159 175.341 47.1253 174.621 53.7192 173.869V173.869Z" fill="#DCAB07"/>
</svg>
