<?xml version="1.0" encoding="UTF-8" standalone="no"?>
<svg
   xmlns:dc="http://purl.org/dc/elements/1.1/"
   xmlns:cc="http://creativecommons.org/ns#"
   xmlns:rdf="http://www.w3.org/1999/02/22-rdf-syntax-ns#"
   xmlns:svg="http://www.w3.org/2000/svg"
   xmlns="http://www.w3.org/2000/svg"
   width="361.59052"
   height="372.54315"
   viewBox="0 0 95.671425 98.568662"
   version="1.1"
   id="svg1453">
  <defs
     id="defs1447" />
  <metadata
     id="metadata1450">
    <rdf:RDF>
      <cc:Work
         rdf:about="">
        <dc:format>image/svg+xml</dc:format>
        <dc:type
           rdf:resource="http://purl.org/dc/dcmitype/StillImage" />
        <dc:title></dc:title>
      </cc:Work>
    </rdf:RDF>
  </metadata>
  <g
     id="layer1"
     transform="translate(-3.208181,-6.7430119)">
    <path
       style="fill:#d9d9d9;fill-opacity:1;stroke-width:0.264583"
       d="m -8.1545461,236.04864 c 0.0127,-0.30822 0.07539,-0.37092 0.1598506,-0.15985 0.07643,0.191 0.067032,0.4192 -0.020876,0.50712 -0.087918,0.0879 -0.1504527,-0.0683 -0.1389645,-0.34727 z m 97.3666671,-0.79375 c 0.0127,-0.30822 0.07539,-0.37092 0.15985,-0.15985 0.07643,0.191 0.06703,0.4192 -0.02088,0.50712 -0.08792,0.0879 -0.150453,-0.0684 -0.138965,-0.34727 z m 2.931302,-4.07899 c 0,-0.3638 0.06006,-0.51263 0.133454,-0.33073 0.0734,0.1819 0.0734,0.47956 0,0.66146 -0.0734,0.1819 -0.133454,0.0331 -0.133454,-0.33073 z m 0.772864,0.11024 c 0.0127,-0.30822 0.07539,-0.37092 0.159851,-0.15985 0.07643,0.191 0.06703,0.4192 -0.02088,0.50712 -0.08792,0.0879 -0.150452,-0.0684 -0.138964,-0.34727 z m -114.850055,-1.43316 c 0.15576,-0.29104 0.342733,-0.52916 0.415493,-0.52916 0.07276,0 0.0048,0.23812 -0.15091,0.52916 -0.15576,0.29104 -0.342733,0.52917 -0.415494,0.52917 -0.07276,0 -0.0048,-0.23813 0.150911,-0.52917 z m 29.054557,-6.53074 c 0.1909947,-0.0764 0.4192005,-0.067 0.5071189,0.0209 0.087918,0.0879 -0.068353,0.15045 -0.3472656,0.13896 -0.3082264,-0.0127 -0.3709194,-0.0754 -0.1598533,-0.15985 z m 22.925188,-0.36603 c -0.09592,-0.1552 -0.117655,-0.33893 -0.0483,-0.40828 0.06935,-0.0694 0.196602,0.0576 0.282774,0.28218 0.178906,0.46623 0.02643,0.54824 -0.234474,0.1261 z m -90.588023,-1.45965 c 0.0127,-0.30823 0.07539,-0.37092 0.159851,-0.15985 0.07643,0.19099 0.06703,0.4192 -0.02088,0.50712 -0.08792,0.0879 -0.150453,-0.0684 -0.138965,-0.34727 z m 86.233278,-0.21014 c 0,-0.0549 0.208359,-0.2633 0.463021,-0.46302 0.419645,-0.32911 0.429003,-0.31975 0.0999,0.0999 -0.345644,0.44072 -0.562917,0.58088 -0.562917,0.36312 z m -42.333334,-0.53325 c 0,-0.0572 0.184777,-0.17489 0.410618,-0.26156 0.235458,-0.0904 0.341662,-0.046 0.248967,0.10399 -0.155379,0.25141 -0.659585,0.37185 -0.659585,0.15757 z m 0.0209,-1.10869 c 0.0127,-0.30823 0.07539,-0.37092 0.159851,-0.15986 0.07643,0.191 0.06703,0.4192 -0.02088,0.50712 -0.08792,0.0879 -0.150452,-0.0683 -0.138964,-0.34726 z m 10.2482522,-1.34932 c 0.1909948,-0.0764 0.4192005,-0.067 0.5071189,0.0209 0.087918,0.0879 -0.068352,0.15045 -0.3472656,0.13896 -0.3082264,-0.0127 -0.3709194,-0.0754 -0.1598533,-0.15985 z m -75.0502942,-1.14218 c 0,-0.3638 0.06005,-0.51263 0.133452,-0.33073 0.0734,0.1819 0.0734,0.47956 0,0.66146 -0.0734,0.1819 -0.133452,0.0331 -0.133452,-0.33073 z m 53.024192,-0.71619 c -0.143584,-0.37708 -0.113194,-0.40747 0.148114,-0.14811 0.180821,0.17947 0.262115,0.39297 0.180652,0.47443 -0.08146,0.0815 -0.229407,-0.0654 -0.328766,-0.32632 z m -3.20289,-3.27016 c -0.09592,-0.1552 -0.117655,-0.33893 -0.0483,-0.40829 0.06935,-0.0694 0.196601,0.0576 0.282773,0.28219 0.178906,0.46622 0.02643,0.54823 -0.234474,0.1261 z M 68.55373,207.77589 c 0,-0.20969 0.107958,-0.44798 0.239908,-0.52953 0.13195,-0.0816 0.177594,0.09 0.101433,0.38126 -0.161557,0.6178 -0.341341,0.69589 -0.341341,0.14827 z m -17.247526,-2.97448 c 0.190994,-0.0764 0.4192,-0.067 0.507119,0.0209 0.08792,0.0879 -0.06835,0.15045 -0.347266,0.13896 -0.308226,-0.0127 -0.370919,-0.0754 -0.159853,-0.15985 z m 0.578776,-0.97749 c 0,-0.0549 0.208359,-0.2633 0.46302,-0.46302 0.419646,-0.32911 0.429004,-0.31975 0.0999,0.0999 -0.345644,0.44073 -0.562917,0.58089 -0.562917,0.36313 z M 14.335037,192.65698 c 0.0127,-0.30823 0.07539,-0.37092 0.159851,-0.15986 0.07643,0.191 0.06703,0.4192 -0.02088,0.50712 -0.08792,0.0879 -0.150452,-0.0684 -0.138964,-0.34726 z m -63.041331,-1.34932 c 0.190994,-0.0764 0.419198,-0.067 0.507119,0.0209 0.08792,0.0879 -0.06835,0.15046 -0.347266,0.13897 -0.308226,-0.0127 -0.370919,-0.0754 -0.159853,-0.15985 z m 89.743359,-1.40676 c -0.238466,-0.15411 -0.2711,-0.2581 -0.08176,-0.26053 0.173313,-0.002 0.3887,0.11501 0.478637,0.26053 0.203015,0.32849 0.111421,0.32849 -0.396875,0 z m 25.156306,-1.21267 c 0.0127,-0.30823 0.07539,-0.37092 0.15985,-0.15986 0.07643,0.191 0.06703,0.4192 -0.02088,0.50712 -0.08792,0.0879 -0.150453,-0.0684 -0.138965,-0.34726 z m -138.641668,-3.175 c 0.01269,-0.30823 0.07539,-0.37092 0.159853,-0.15986 0.07643,0.191 0.06703,0.4192 -0.02089,0.50712 -0.08792,0.0879 -0.150453,-0.0684 -0.138965,-0.34726 z m 117.739584,-1.32292 c 0.0127,-0.30823 0.07539,-0.37092 0.159851,-0.15985 0.07643,0.19099 0.06703,0.4192 -0.02088,0.50711 -0.08792,0.0879 -0.150452,-0.0683 -0.138964,-0.34726 z m -65.88125,-2.64583 c 0.0127,-0.30823 0.07539,-0.37092 0.159851,-0.15986 0.07643,0.191 0.06703,0.4192 -0.02088,0.50712 -0.08792,0.0879 -0.150452,-0.0684 -0.138964,-0.34726 z m 92.798252,-0.0264 c 0.190995,-0.0764 0.419201,-0.067 0.507119,0.0209 0.08792,0.0879 -0.06835,0.15045 -0.347266,0.13896 -0.308226,-0.0127 -0.370919,-0.0754 -0.159853,-0.15985 z m -24.027474,-0.59739 c 0,-0.13693 0.1177,-0.32171 0.261554,-0.41062 0.149982,-0.0927 0.194336,0.0135 0.103984,0.24897 -0.175893,0.45837 -0.365538,0.54224 -0.365538,0.16165 z m -88.879111,-3.60954 c 0.0127,-0.30822 0.07539,-0.37092 0.159851,-0.15985 0.07643,0.19099 0.06703,0.4192 -0.02088,0.50712 -0.08792,0.0879 -0.150453,-0.0684 -0.138965,-0.34727 z m 117.454111,-1.15296 c 0,-0.13693 0.1177,-0.32171 0.261554,-0.41062 0.149982,-0.0927 0.194336,0.0135 0.103984,0.24897 -0.175893,0.45837 -0.365538,0.54224 -0.365538,0.16165 z m -91.347396,-1.51376 c 0.181901,-0.0734 0.479557,-0.0734 0.661459,0 0.181901,0.0734 0.03307,0.13345 -0.33073,0.13345 -0.363802,0 -0.51263,-0.0601 -0.330729,-0.13345 z m 70.709896,-7.33709 c 0,-0.0572 0.184777,-0.17489 0.410617,-0.26155 0.235458,-0.0904 0.341662,-0.046 0.248968,0.10398 -0.155379,0.25141 -0.659585,0.37186 -0.659585,0.15757 z m -16.118694,-2.69619 c 0.0127,-0.30822 0.07539,-0.37092 0.15985,-0.15985 0.07643,0.19099 0.06703,0.4192 -0.02088,0.50712 -0.08792,0.0879 -0.150453,-0.0683 -0.138965,-0.34727 z m 16.118694,-1.27256 c 0,-0.0572 0.184777,-0.17489 0.410617,-0.26155 0.235458,-0.0904 0.341662,-0.046 0.248968,0.10398 -0.155379,0.25141 -0.659585,0.37186 -0.659585,0.15757 z m -1.810308,-10.74393 c 0,-0.3638 0.06005,-0.51263 0.133453,-0.33073 0.0734,0.1819 0.0734,0.47956 0,0.66146 -0.0734,0.1819 -0.133453,0.0331 -0.133453,-0.33073 z m 31.729114,-8.09184 c 0.0127,-0.30823 0.07539,-0.37092 0.15985,-0.15986 0.07643,0.191 0.06703,0.4192 -0.02088,0.50712 -0.08792,0.0879 -0.150453,-0.0683 -0.138965,-0.34726 z m -66.675,-2.91042 c 0.0127,-0.30822 0.07539,-0.37092 0.15985,-0.15985 0.07643,0.19099 0.06703,0.4192 -0.02088,0.50712 -0.08792,0.0879 -0.150453,-0.0684 -0.138965,-0.34727 z m -21.0552643,-4.079 c 0.089937,-0.14552 0.216027,-0.26459 0.280199,-0.26459 0.064172,0 0.116676,0.11907 0.116676,0.26459 0,0.14552 -0.1260899,0.26458 -0.2801991,0.26458 -0.1541092,0 -0.2066131,-0.11906 -0.1166759,-0.26458 z m 0.94693049,-0.15434 c 0.0127,-0.30823 0.0753904,-0.37092 0.15985066,-0.15986 0.0764302,0.191 0.0670322,0.4192 -0.0208756,0.50712 -0.0879184,0.0879 -0.15045267,-0.0684 -0.13896446,-0.34726 z M 55.345454,132.33197 c 0.0127,-0.30822 0.07539,-0.37092 0.159851,-0.15985 0.07643,0.191 0.06703,0.4192 -0.02088,0.50712 -0.08792,0.0879 -0.150453,-0.0683 -0.138965,-0.34727 z m -93.85667,-6.07478 c -0.08617,-0.22455 -0.09756,-0.4674 -0.02529,-0.53966 0.07225,-0.0722 0.194881,0.11148 0.2725,0.40829 0.164875,0.63048 -0.01831,0.72784 -0.247201,0.13137 z m 101.00042,-5.03772 c 0.0127,-0.30822 0.07539,-0.37092 0.159851,-0.15985 0.07643,0.191 0.06703,0.4192 -0.02088,0.50712 -0.08792,0.0879 -0.150453,-0.0683 -0.138965,-0.34727 z m -86.783333,-7.14375 c 0.0127,-0.30822 0.07539,-0.37092 0.15985,-0.15985 0.07643,0.191 0.06703,0.4192 -0.02088,0.50712 -0.08792,0.0879 -0.150453,-0.0683 -0.138965,-0.34727 z M 93.46634,112.64256 c 0,-0.3638 0.06005,-0.51263 0.133453,-0.33073 0.0734,0.18191 0.0734,0.47956 0,0.66146 -0.0734,0.1819 -0.133453,0.0331 -0.133453,-0.33073 z"
       id="path2410" />
    <path
       style="fill:#000000;fill-opacity:1;stroke-width:0.254002"
       d="m 272.76518,35.133515 c -0.31595,-0.402862 -0.30696,-0.411846 0.0959,-0.0959 0.4231,0.33182 0.55765,0.540403 0.3486,0.540403 -0.0527,0 -0.25277,-0.200026 -0.4445,-0.444503 z"
       id="path2593" />
    <path
       style="fill:#000000;fill-opacity:1;stroke-width:0.254002"
       d="m 283.67202,29.308468 c 0.18336,-0.07337 0.40244,-0.06435 0.48684,0.02004 0.0844,0.0844 -0.0656,0.144436 -0.33338,0.133407 -0.2959,-0.01219 -0.35608,-0.07238 -0.15346,-0.153458 z m -18.27289,-5.351025 c -0.32246,-0.411167 -0.3105,-0.416557 0.1594,-0.07187 0.2794,0.204946 0.55563,0.404972 0.61384,0.444502 0.0582,0.03953 -0.0135,0.07187 -0.1594,0.07187 -0.14588,0 -0.42211,-0.200026 -0.61384,-0.444502 z m 12.60548,-0.0635 c 0.0863,-0.139701 0.20739,-0.254002 0.26899,-0.254002 0.0616,0 0.11201,0.114301 0.11201,0.254002 0,0.139701 -0.12104,0.254002 -0.26899,0.254002 -0.14794,0 -0.19835,-0.114301 -0.11201,-0.254002 z"
       id="path2591" />
    <path
       style="fill:#000000;fill-opacity:1;stroke-width:0.254002"
       d="m 299.24888,48.193432 c -0.21004,-0.25308 -0.1965,-0.338671 0.0536,-0.338671 0.18405,0 0.33463,0.152401 0.33463,0.338671 0,0.186267 -0.0241,0.338668 -0.0536,0.338668 -0.0295,0 -0.18005,-0.152401 -0.33464,-0.338668 z M 283.92602,33.626495 c 0.18336,-0.07337 0.40244,-0.06435 0.48684,0.02004 0.0844,0.0844 -0.0656,0.144435 -0.33338,0.133407 -0.29589,-0.01219 -0.35608,-0.07238 -0.15346,-0.153458 z m -7.06442,-2.874508 c -0.22892,-0.147946 -0.26025,-0.247776 -0.0785,-0.250113 0.16638,-0.002 0.37316,0.110412 0.4595,0.250113 0.19489,0.31535 0.10696,0.31535 -0.38101,0 z m 7.57243,-1.443519 c 0.18335,-0.07337 0.40243,-0.06435 0.48684,0.02004 0.0844,0.0844 -0.0656,0.144436 -0.33338,0.133407 -0.2959,-0.01219 -0.35609,-0.07238 -0.15346,-0.153458 z m -31.48098,-3.573013 c -0.31594,-0.402862 -0.30696,-0.411846 0.0959,-0.0959 0.42311,0.33182 0.55766,0.540404 0.34861,0.540404 -0.0528,0 -0.25277,-0.200027 -0.44451,-0.444504 z"
       id="path2589" />
    <path
       style="fill:#000000;fill-opacity:1;stroke-width:0.254002"
       d="m 271.80163,26.539794 c 0.0122,-0.295899 0.0724,-0.356085 0.15345,-0.15346 0.0734,0.183356 0.0644,0.402432 -0.02,0.486837 -0.0844,0.0844 -0.14443,-0.06562 -0.1334,-0.333377 z"
       id="path2585" />
    <path
       style="fill:#494949;fill-opacity:1;stroke-width:0.429918"
       d="M 29.107622,91.81039 7.28927,79.323729 V 55.956107 32.588482 L 29.160394,20.089588 C 41.189511,13.215197 51.177484,7.590695 51.355891,7.590695 c 0.178407,0 10.16638,5.624502 22.195497,12.498893 L 95.42251,32.588482 V 55.956498 79.324515 L 73.551388,91.823408 C 61.522271,98.6978 51.51055,104.31662 51.303119,104.30968 51.095687,104.30273 41.107715,98.67805 29.107622,91.81039 Z M 71.777008,88.497311 91.76821,77.022492 V 55.956498 34.890504 L 71.777008,23.415684 C 60.781849,17.104534 51.592346,11.940865 51.355891,11.940865 c -0.236455,0 -9.425958,5.163669 -20.421117,11.474819 l -19.991198,11.47482 v 21.065994 21.065994 l 19.991198,11.474819 c 10.995159,6.311153 20.184662,11.474819 20.421117,11.474819 0.236455,0 9.425958,-5.163666 20.421117,-11.474819 z"
       id="path2716" />
    <path
       style="fill:#000000;stroke-width:2.85714"
       d="m 106.41847,307.86042 -74.999998,-42.75387 0.03074,-79.11102 0.03074,-79.11102 74.402728,-42.428283 C 174.89706,25.10066 180.84374,22.263749 187.9948,25.28397 c 4.24016,1.790816 38.56653,20.935158 76.28081,42.542983 l 68.57143,39.286957 0.75849,78.60283 0.75848,78.60284 -75.0442,42.4755 c -41.27431,23.36152 -75.68705,42.77783 -76.47277,43.14737 -0.78571,0.36952 -35.17857,-18.5674 -76.42857,-42.08203 z"
       id="path2738"
       transform="matrix(0.264585,0,0,0.264585,3.208181,6.7426787)" />
  </g>
</svg>
