<?xml version="1.0" encoding="UTF-8" standalone="no"?>
<svg
   xmlns:dc="http://purl.org/dc/elements/1.1/"
   xmlns:cc="http://creativecommons.org/ns#"
   xmlns:rdf="http://www.w3.org/1999/02/22-rdf-syntax-ns#"
   xmlns:svg="http://www.w3.org/2000/svg"
   xmlns="http://www.w3.org/2000/svg"
   width="361.59052"
   height="447.54315"
   viewBox="0 0 95.671425 118.41218"
   version="1.1"
   id="svg1453">
  <defs
     id="defs1447" />
  <metadata
     id="metadata1450">
    <rdf:RDF>
      <cc:Work
         rdf:about="">
        <dc:format>image/svg+xml</dc:format>
        <dc:type
           rdf:resource="http://purl.org/dc/dcmitype/StillImage" />
        <dc:title></dc:title>
      </cc:Work>
    </rdf:RDF>
  </metadata>
  <g
     id="layer1"
     transform="translate(-3.208181,-6.7430119)">
    <path
       style="fill:#d9d9d9;fill-opacity:1;stroke-width:0.264583"
       d="m -8.1545461,236.04864 c 0.0127,-0.30822 0.07539,-0.37092 0.1598506,-0.15985 0.07643,0.191 0.067032,0.4192 -0.020876,0.50712 -0.087918,0.0879 -0.1504527,-0.0683 -0.1389645,-0.34727 z m 97.3666671,-0.79375 c 0.0127,-0.30822 0.07539,-0.37092 0.15985,-0.15985 0.07643,0.191 0.06703,0.4192 -0.02088,0.50712 -0.08792,0.0879 -0.150453,-0.0684 -0.138965,-0.34727 z m 2.931302,-4.07899 c 0,-0.3638 0.06006,-0.51263 0.133454,-0.33073 0.0734,0.1819 0.0734,0.47956 0,0.66146 -0.0734,0.1819 -0.133454,0.0331 -0.133454,-0.33073 z m 0.772864,0.11024 c 0.0127,-0.30822 0.07539,-0.37092 0.159851,-0.15985 0.07643,0.191 0.06703,0.4192 -0.02088,0.50712 -0.08792,0.0879 -0.150452,-0.0684 -0.138964,-0.34727 z m -114.850055,-1.43316 c 0.15576,-0.29104 0.342733,-0.52916 0.415493,-0.52916 0.07276,0 0.0048,0.23812 -0.15091,0.52916 -0.15576,0.29104 -0.342733,0.52917 -0.415494,0.52917 -0.07276,0 -0.0048,-0.23813 0.150911,-0.52917 z m 29.054557,-6.53074 c 0.1909947,-0.0764 0.4192005,-0.067 0.5071189,0.0209 0.087918,0.0879 -0.068353,0.15045 -0.3472656,0.13896 -0.3082264,-0.0127 -0.3709194,-0.0754 -0.1598533,-0.15985 z m 22.925188,-0.36603 c -0.09592,-0.1552 -0.117655,-0.33893 -0.0483,-0.40828 0.06935,-0.0694 0.196602,0.0576 0.282774,0.28218 0.178906,0.46623 0.02643,0.54824 -0.234474,0.1261 z m -90.588023,-1.45965 c 0.0127,-0.30823 0.07539,-0.37092 0.159851,-0.15985 0.07643,0.19099 0.06703,0.4192 -0.02088,0.50712 -0.08792,0.0879 -0.150453,-0.0684 -0.138965,-0.34727 z m 86.233278,-0.21014 c 0,-0.0549 0.208359,-0.2633 0.463021,-0.46302 0.419645,-0.32911 0.429003,-0.31975 0.0999,0.0999 -0.345644,0.44072 -0.562917,0.58088 -0.562917,0.36312 z m -42.333334,-0.53325 c 0,-0.0572 0.184777,-0.17489 0.410618,-0.26156 0.235458,-0.0904 0.341662,-0.046 0.248967,0.10399 -0.155379,0.25141 -0.659585,0.37185 -0.659585,0.15757 z m 0.0209,-1.10869 c 0.0127,-0.30823 0.07539,-0.37092 0.159851,-0.15986 0.07643,0.191 0.06703,0.4192 -0.02088,0.50712 -0.08792,0.0879 -0.150452,-0.0683 -0.138964,-0.34726 z m 10.2482522,-1.34932 c 0.1909948,-0.0764 0.4192005,-0.067 0.5071189,0.0209 0.087918,0.0879 -0.068352,0.15045 -0.3472656,0.13896 -0.3082264,-0.0127 -0.3709194,-0.0754 -0.1598533,-0.15985 z m -75.0502942,-1.14218 c 0,-0.3638 0.06005,-0.51263 0.133452,-0.33073 0.0734,0.1819 0.0734,0.47956 0,0.66146 -0.0734,0.1819 -0.133452,0.0331 -0.133452,-0.33073 z m 53.024192,-0.71619 c -0.143584,-0.37708 -0.113194,-0.40747 0.148114,-0.14811 0.180821,0.17947 0.262115,0.39297 0.180652,0.47443 -0.08146,0.0815 -0.229407,-0.0654 -0.328766,-0.32632 z m -3.20289,-3.27016 c -0.09592,-0.1552 -0.117655,-0.33893 -0.0483,-0.40829 0.06935,-0.0694 0.196601,0.0576 0.282773,0.28219 0.178906,0.46622 0.02643,0.54823 -0.234474,0.1261 z M 68.55373,207.77589 c 0,-0.20969 0.107958,-0.44798 0.239908,-0.52953 0.13195,-0.0816 0.177594,0.09 0.101433,0.38126 -0.161557,0.6178 -0.341341,0.69589 -0.341341,0.14827 z m -17.247526,-2.97448 c 0.190994,-0.0764 0.4192,-0.067 0.507119,0.0209 0.08792,0.0879 -0.06835,0.15045 -0.347266,0.13896 -0.308226,-0.0127 -0.370919,-0.0754 -0.159853,-0.15985 z m 0.578776,-0.97749 c 0,-0.0549 0.208359,-0.2633 0.46302,-0.46302 0.419646,-0.32911 0.429004,-0.31975 0.0999,0.0999 -0.345644,0.44073 -0.562917,0.58089 -0.562917,0.36313 z M 14.335037,192.65698 c 0.0127,-0.30823 0.07539,-0.37092 0.159851,-0.15986 0.07643,0.191 0.06703,0.4192 -0.02088,0.50712 -0.08792,0.0879 -0.150452,-0.0684 -0.138964,-0.34726 z m -63.041331,-1.34932 c 0.190994,-0.0764 0.419198,-0.067 0.507119,0.0209 0.08792,0.0879 -0.06835,0.15046 -0.347266,0.13897 -0.308226,-0.0127 -0.370919,-0.0754 -0.159853,-0.15985 z m 89.743359,-1.40676 c -0.238466,-0.15411 -0.2711,-0.2581 -0.08176,-0.26053 0.173313,-0.002 0.3887,0.11501 0.478637,0.26053 0.203015,0.32849 0.111421,0.32849 -0.396875,0 z m 25.156306,-1.21267 c 0.0127,-0.30823 0.07539,-0.37092 0.15985,-0.15986 0.07643,0.191 0.06703,0.4192 -0.02088,0.50712 -0.08792,0.0879 -0.150453,-0.0684 -0.138965,-0.34726 z m -138.641668,-3.175 c 0.01269,-0.30823 0.07539,-0.37092 0.159853,-0.15986 0.07643,0.191 0.06703,0.4192 -0.02089,0.50712 -0.08792,0.0879 -0.150453,-0.0684 -0.138965,-0.34726 z m 117.739584,-1.32292 c 0.0127,-0.30823 0.07539,-0.37092 0.159851,-0.15985 0.07643,0.19099 0.06703,0.4192 -0.02088,0.50711 -0.08792,0.0879 -0.150452,-0.0683 -0.138964,-0.34726 z m -65.88125,-2.64583 c 0.0127,-0.30823 0.07539,-0.37092 0.159851,-0.15986 0.07643,0.191 0.06703,0.4192 -0.02088,0.50712 -0.08792,0.0879 -0.150452,-0.0684 -0.138964,-0.34726 z m 92.798252,-0.0264 c 0.190995,-0.0764 0.419201,-0.067 0.507119,0.0209 0.08792,0.0879 -0.06835,0.15045 -0.347266,0.13896 -0.308226,-0.0127 -0.370919,-0.0754 -0.159853,-0.15985 z m -24.027474,-0.59739 c 0,-0.13693 0.1177,-0.32171 0.261554,-0.41062 0.149982,-0.0927 0.194336,0.0135 0.103984,0.24897 -0.175893,0.45837 -0.365538,0.54224 -0.365538,0.16165 z m -88.879111,-3.60954 c 0.0127,-0.30822 0.07539,-0.37092 0.159851,-0.15985 0.07643,0.19099 0.06703,0.4192 -0.02088,0.50712 -0.08792,0.0879 -0.150453,-0.0684 -0.138965,-0.34727 z m 117.454111,-1.15296 c 0,-0.13693 0.1177,-0.32171 0.261554,-0.41062 0.149982,-0.0927 0.194336,0.0135 0.103984,0.24897 -0.175893,0.45837 -0.365538,0.54224 -0.365538,0.16165 z m -91.347396,-1.51376 c 0.181901,-0.0734 0.479557,-0.0734 0.661459,0 0.181901,0.0734 0.03307,0.13345 -0.33073,0.13345 -0.363802,0 -0.51263,-0.0601 -0.330729,-0.13345 z m 70.709896,-7.33709 c 0,-0.0572 0.184777,-0.17489 0.410617,-0.26155 0.235458,-0.0904 0.341662,-0.046 0.248968,0.10398 -0.155379,0.25141 -0.659585,0.37186 -0.659585,0.15757 z m -16.118694,-2.69619 c 0.0127,-0.30822 0.07539,-0.37092 0.15985,-0.15985 0.07643,0.19099 0.06703,0.4192 -0.02088,0.50712 -0.08792,0.0879 -0.150453,-0.0683 -0.138965,-0.34727 z m 16.118694,-1.27256 c 0,-0.0572 0.184777,-0.17489 0.410617,-0.26155 0.235458,-0.0904 0.341662,-0.046 0.248968,0.10398 -0.155379,0.25141 -0.659585,0.37186 -0.659585,0.15757 z m -1.810308,-10.74393 c 0,-0.3638 0.06005,-0.51263 0.133453,-0.33073 0.0734,0.1819 0.0734,0.47956 0,0.66146 -0.0734,0.1819 -0.133453,0.0331 -0.133453,-0.33073 z m 31.729114,-8.09184 c 0.0127,-0.30823 0.07539,-0.37092 0.15985,-0.15986 0.07643,0.191 0.06703,0.4192 -0.02088,0.50712 -0.08792,0.0879 -0.150453,-0.0683 -0.138965,-0.34726 z m -66.675,-2.91042 c 0.0127,-0.30822 0.07539,-0.37092 0.15985,-0.15985 0.07643,0.19099 0.06703,0.4192 -0.02088,0.50712 -0.08792,0.0879 -0.150453,-0.0684 -0.138965,-0.34727 z m -21.0552643,-4.079 c 0.089937,-0.14552 0.216027,-0.26459 0.280199,-0.26459 0.064172,0 0.116676,0.11907 0.116676,0.26459 0,0.14552 -0.1260899,0.26458 -0.2801991,0.26458 -0.1541092,0 -0.2066131,-0.11906 -0.1166759,-0.26458 z m 0.94693049,-0.15434 c 0.0127,-0.30823 0.0753904,-0.37092 0.15985066,-0.15986 0.0764302,0.191 0.0670322,0.4192 -0.0208756,0.50712 -0.0879184,0.0879 -0.15045267,-0.0684 -0.13896446,-0.34726 z M 55.345454,132.33197 c 0.0127,-0.30822 0.07539,-0.37092 0.159851,-0.15985 0.07643,0.191 0.06703,0.4192 -0.02088,0.50712 -0.08792,0.0879 -0.150453,-0.0683 -0.138965,-0.34727 z m -93.85667,-6.07478 c -0.08617,-0.22455 -0.09756,-0.4674 -0.02529,-0.53966 0.07225,-0.0722 0.194881,0.11148 0.2725,0.40829 0.164875,0.63048 -0.01831,0.72784 -0.247201,0.13137 z m 101.00042,-5.03772 c 0.0127,-0.30822 0.07539,-0.37092 0.159851,-0.15985 0.07643,0.191 0.06703,0.4192 -0.02088,0.50712 -0.08792,0.0879 -0.150453,-0.0683 -0.138965,-0.34727 z m -86.783333,-7.14375 c 0.0127,-0.30822 0.07539,-0.37092 0.15985,-0.15985 0.07643,0.191 0.06703,0.4192 -0.02088,0.50712 -0.08792,0.0879 -0.150453,-0.0683 -0.138965,-0.34727 z M 93.46634,112.64256 c 0,-0.3638 0.06005,-0.51263 0.133453,-0.33073 0.0734,0.18191 0.0734,0.47956 0,0.66146 -0.0734,0.1819 -0.133453,0.0331 -0.133453,-0.33073 z"
       id="path2410" />
    <path
       style="fill:#000000;fill-opacity:1;stroke-width:0.254002"
       d="m 272.76518,35.133515 c -0.31595,-0.402862 -0.30696,-0.411846 0.0959,-0.0959 0.4231,0.33182 0.55765,0.540403 0.3486,0.540403 -0.0527,0 -0.25277,-0.200026 -0.4445,-0.444503 z"
       id="path2593" />
    <path
       style="fill:#000000;fill-opacity:1;stroke-width:0.254002"
       d="m 283.67202,29.308468 c 0.18336,-0.07337 0.40244,-0.06435 0.48684,0.02004 0.0844,0.0844 -0.0656,0.144436 -0.33338,0.133407 -0.2959,-0.01219 -0.35608,-0.07238 -0.15346,-0.153458 z m -18.27289,-5.351025 c -0.32246,-0.411167 -0.3105,-0.416557 0.1594,-0.07187 0.2794,0.204946 0.55563,0.404972 0.61384,0.444502 0.0582,0.03953 -0.0135,0.07187 -0.1594,0.07187 -0.14588,0 -0.42211,-0.200026 -0.61384,-0.444502 z m 12.60548,-0.0635 c 0.0863,-0.139701 0.20739,-0.254002 0.26899,-0.254002 0.0616,0 0.11201,0.114301 0.11201,0.254002 0,0.139701 -0.12104,0.254002 -0.26899,0.254002 -0.14794,0 -0.19835,-0.114301 -0.11201,-0.254002 z"
       id="path2591" />
    <path
       style="fill:#000000;fill-opacity:1;stroke-width:0.254002"
       d="m 299.24888,48.193432 c -0.21004,-0.25308 -0.1965,-0.338671 0.0536,-0.338671 0.18405,0 0.33463,0.152401 0.33463,0.338671 0,0.186267 -0.0241,0.338668 -0.0536,0.338668 -0.0295,0 -0.18005,-0.152401 -0.33464,-0.338668 z M 283.92602,33.626495 c 0.18336,-0.07337 0.40244,-0.06435 0.48684,0.02004 0.0844,0.0844 -0.0656,0.144435 -0.33338,0.133407 -0.29589,-0.01219 -0.35608,-0.07238 -0.15346,-0.153458 z m -7.06442,-2.874508 c -0.22892,-0.147946 -0.26025,-0.247776 -0.0785,-0.250113 0.16638,-0.002 0.37316,0.110412 0.4595,0.250113 0.19489,0.31535 0.10696,0.31535 -0.38101,0 z m 7.57243,-1.443519 c 0.18335,-0.07337 0.40243,-0.06435 0.48684,0.02004 0.0844,0.0844 -0.0656,0.144436 -0.33338,0.133407 -0.2959,-0.01219 -0.35609,-0.07238 -0.15346,-0.153458 z m -31.48098,-3.573013 c -0.31594,-0.402862 -0.30696,-0.411846 0.0959,-0.0959 0.42311,0.33182 0.55766,0.540404 0.34861,0.540404 -0.0528,0 -0.25277,-0.200027 -0.44451,-0.444504 z"
       id="path2589" />
    <path
       style="fill:#000000;fill-opacity:1;stroke-width:0.254002"
       d="m 271.80163,26.539794 c 0.0122,-0.295899 0.0724,-0.356085 0.15345,-0.15346 0.0734,0.183356 0.0644,0.402432 -0.02,0.486837 -0.0844,0.0844 -0.14443,-0.06562 -0.1334,-0.333377 z"
       id="path2585" />
    <path
       style="fill:#000000;fill-opacity:1;stroke-width:0.313713"
       d="M 27.684425,111.16216 C 15.951587,104.37318 5.9759748,98.569645 5.5163412,98.265371 3.5976604,96.995194 3.6666751,98.120078 3.7585777,69.613044 L 3.8423199,43.633622 4.5185128,42.692479 C 4.9835307,42.04526 9.1906244,39.448952 17.98951,34.379125 c 7.037155,-4.054739 12.909057,-7.419282 13.04869,-7.476803 0.139647,-0.05743 0.253891,0.54245 0.253891,1.333284 0,1.340292 0.05549,1.437838 0.817844,1.437838 0.614841,0 0.770871,-0.122446 0.628547,-0.493297 -0.1041,-0.27131 -0.0455,-0.762167 0.130479,-1.090792 0.249225,-0.465645 0.177211,-0.740096 -0.326269,-1.243568 -0.355337,-0.35532 -0.571584,-0.766569 -0.480554,-0.913848 0.294004,-0.475715 4.345583,-1.953314 4.934038,-1.799428 0.655202,0.171346 0.740452,-0.123792 0.193683,-0.670546 -0.292784,-0.292802 -0.228777,-0.376466 0.288073,-0.376466 0.365477,0 0.880944,-0.08312 1.145511,-0.184571 0.393601,-0.151044 0.44898,0.01263 0.304778,0.901251 -0.104417,0.643785 -0.03456,1.173457 0.172082,1.301069 0.191572,0.11842 0.348309,1.036592 0.348309,2.040432 v 1.825171 l -2.689369,-0.775175 c -1.479135,-0.426349 -2.76342,-0.701101 -2.853961,-0.610563 -0.09058,0.09059 0.09136,0.597912 0.404136,1.12748 l 0.568785,0.962851 h 3.069472 c 2.876151,0 3.069477,-0.04006 3.069477,-0.637265 0,-0.350501 -0.176453,-0.706448 -0.392148,-0.791004 -0.366833,-0.143825 -0.724353,-3.904831 -0.371175,-3.904831 0.08166,0 1.01635,0.352694 2.0772,0.783763 2.23173,0.906821 2.795527,0.819811 0.91251,-0.140829 -1.116204,-0.569446 -1.285249,-0.793187 -1.285249,-1.700993 0,-1.040483 0.0184,-1.053047 3.935835,-2.712594 l 3.935825,-1.667271 1.585223,1.542552 c 1.340488,1.304419 1.634785,1.467152 1.906389,1.054194 0.286948,-0.43628 0.626507,-0.407676 3.184469,0.268223 1.574794,0.416114 2.913801,0.804056 2.975577,0.862089 0.06184,0.05801 -0.397025,0.943991 -1.019565,1.968783 -0.622528,1.024807 -1.131879,1.933351 -1.131879,2.018992 0,0.08554 0.606921,0.08728 1.34871,0.003 1.012174,-0.114043 1.618832,0.01258 2.431249,0.507928 1.741583,1.0617 2.162412,0.762361 0.740877,-0.526995 -0.710313,-0.644286 -1.357702,-1.557926 -1.45062,-2.047246 -0.146094,-0.769143 -0.002,-0.988417 1.111746,-1.691462 l 1.279565,-0.807767 1.582781,1.774151 c 0.870512,0.975793 1.658234,1.772235 1.750477,1.769896 0.09234,-0.0018 0.508968,-0.916871 0.926118,-2.032258 0.41712,-1.115399 0.805587,-1.980834 0.863247,-1.923178 0.0576,0.05763 -0.05074,1.384529 -0.240959,2.94862 -0.30001,2.467523 -0.279387,2.945076 0.155819,3.609295 0.477568,0.728863 0.467279,0.77618 -0.21462,0.988712 -0.393896,0.122775 -1.193684,0.287496 -1.777307,0.366057 -0.583624,0.07855 -1.656928,0.631069 -2.385136,1.227782 -0.728227,0.596708 -1.396189,1.08493 -1.484389,1.08493 -0.08814,0 -0.402967,-0.635264 -0.699497,-1.411702 -0.296518,-0.776434 -0.635489,-1.411712 -0.753267,-1.411712 -0.117695,0 -0.477169,0.741158 -0.798668,1.646997 -0.321509,0.905842 -0.659745,1.84343 -0.75167,2.083529 -0.133497,0.348758 0.0758,0.390967 1.040947,0.209917 1.07843,-0.202317 1.16392,-0.173418 0.79648,0.269296 -0.276724,0.333438 -0.88729,0.484018 -1.863298,0.459556 -0.798459,-0.02 -1.204683,-0.100967 -0.902733,-0.179864 0.694215,-0.181414 0.706428,-0.597344 0.02526,-0.858759 -0.529481,-0.203185 -3.865987,1.333202 -3.867394,1.78086 -3.3e-4,0.129409 1.530244,0.235288 3.401447,0.235288 2.96443,0 3.472829,0.07802 3.950969,0.60637 0.569786,0.629599 0.984944,0.577157 2.293461,-0.2897 0.833737,-0.552318 0.911193,-0.944093 0.186671,-0.944093 -0.46692,0 -0.462018,-0.06322 0.04867,-0.627429 0.681061,-0.752552 0.575648,-0.770381 -0.902821,-0.152641 -0.624964,0.261124 -1.131821,0.367006 -1.126317,0.235284 0.004,-0.131723 0.676042,-0.974873 1.490127,-1.873679 l 1.480142,-1.634179 1.411699,0.275089 c 1.11774,0.217809 1.524488,0.173751 1.953312,-0.211583 0.297878,-0.267671 0.484986,-0.578268 0.415809,-0.690196 -0.06914,-0.11194 0.335214,-0.519389 0.898643,-0.905461 l 1.024412,-0.701942 2.794876,0.909084 c 2.259322,0.73489 2.814193,1.037634 2.89579,1.57991 0.112036,0.74499 1.925262,1.815538 3.343235,1.973933 0.823055,0.09196 0.924293,-0.02879 1.541774,-1.84027 0.698171,-2.048055 1.131452,-2.759743 1.131452,-1.858492 0,0.364274 0.69576,0.863162 2.117544,1.518348 l 2.117568,0.975815 -1.25485,0.392098 c -1.988705,0.621416 -2.34632,0.551365 -2.556756,-0.500803 -0.312375,-1.561911 -0.73769,-1.059358 -0.730093,0.862705 0.005,1.718253 0.05526,1.827335 1.019557,2.29909 0.707826,0.346244 1.146957,0.876965 1.459599,1.763929 0.417038,1.183287 0.671703,1.379489 3.783115,2.914681 3.090835,1.525029 3.328068,1.706627 3.228313,2.471173 -0.08957,0.687589 0.15498,1.00826 1.467537,1.923172 1.498516,1.04454 3.780595,3.931438 3.777962,4.779276 -6.03e-4,0.218341 -0.258714,1.308053 -0.573464,2.42159 l -0.572254,2.024702 -2.307402,-3.069784 c -1.948444,-2.592249 -2.420442,-3.048159 -3.034201,-2.930835 -0.650123,0.124283 -0.72787,0.0193 -0.736809,-0.993967 -0.004,-0.623114 -0.214841,-1.403679 -0.465234,-1.734603 -0.313839,-0.414766 -0.356887,-0.720258 -0.138552,-0.983327 0.230546,-0.277787 -0.09084,-0.683478 -1.180653,-1.490792 -0.823579,-0.610042 -1.54769,-1.058876 -1.60915,-0.997417 -0.251995,0.251997 1.334148,4.439059 1.929245,5.092774 0.353421,0.38823 0.53654,0.705864 0.406953,0.705864 -0.129586,0 0.234022,0.381858 0.808031,0.848574 0.573992,0.466713 2.273951,2.019585 3.777709,3.450829 1.787915,1.70171 2.982138,2.602459 3.450829,2.602833 0.601353,6.39e-4 0.801925,0.289882 1.245908,1.79755 0.291022,0.988328 0.481511,1.844573 0.423322,1.902776 -0.05817,0.05815 -0.836874,-0.264651 -1.730389,-0.717424 -0.893527,-0.452774 -1.723939,-0.779903 -1.845377,-0.72694 -0.121438,0.05303 0.0469,1.260947 0.373791,2.684417 l 0.594536,2.588144 h 1.062757 1.062765 v 17.42113 c 0,18.694067 0.002,18.669037 -1.60656,20.107328 -0.410468,0.367101 -10.345874,6.214995 -22.078676,12.995395 -20.749477,11.99124 -21.383858,12.33136 -23.214686,12.44657 l -1.882298,0.11829 -21.332387,-12.3433 z M 88.628412,59.392957 c -0.776651,-0.673165 -1.489646,-1.774914 -2.117543,-3.272104 -0.520651,-1.241476 -0.946636,-2.405036 -0.946636,-2.585713 0,-0.180672 0.703298,-0.78838 1.562913,-1.350464 0.859607,-0.562091 1.565468,-1.112553 1.568571,-1.223248 0.003,-0.110723 -0.360136,-0.293086 -0.807177,-0.40528 -0.612735,-0.153802 -0.758412,-0.335892 -0.591829,-0.739865 0.748561,-1.815288 1.00658,-1.727451 -4.274822,-1.455506 -2.656441,0.136775 -5.384204,0.258476 -6.061712,0.270454 l -1.231826,0.02176 -0.543418,-2.141249 c -0.298878,-1.177666 -0.612119,-2.209945 -0.696129,-2.293926 -0.08398,-0.08406 -0.754527,0.950153 -1.490115,2.298085 -0.735566,1.347956 -1.381736,2.505784 -1.435906,2.572977 -0.05425,0.06718 -0.596448,-0.257617 -1.205026,-0.7218 -0.608607,-0.464218 -1.106534,-0.752579 -1.106534,-0.640841 0,0.111769 0.698665,1.194848 1.552597,2.40689 l 1.552592,2.203713 0.0944,-1.853394 0.0944,-1.853401 6.11736,0.912174 c 3.364571,0.501686 6.171249,0.960704 6.23709,1.020031 0.0659,0.05931 -0.181211,1.307662 -0.548995,2.774064 -0.36779,1.46641 -0.668704,2.808589 -0.668704,2.982619 0,0.341907 5.286088,4.054245 5.803661,4.075832 0.172551,0.0058 -0.213189,-0.443617 -0.857198,-1.001819 z M 72.388349,56.16765 v -2.367262 l -1.63377,-0.756934 c -0.89857,-0.416315 -1.68141,-0.709283 -1.739634,-0.651047 -0.09204,0.09198 1.94949,5.26942 2.329223,5.907234 0.07704,0.129403 0.343485,0.235277 0.592119,0.235277 0.35366,0 0.452062,-0.515256 0.452062,-2.367268 z m 17.541819,-6.651932 c -1.011575,-1.333201 -1.331227,-1.620729 -1.610174,-1.448329 -0.16363,0.101159 0.09342,0.591908 0.571179,1.090592 0.942546,0.983823 1.716142,1.250166 1.038995,0.357737 z M 63.873231,47.903112 c 0.437805,-0.277404 0.274474,-1.857974 -0.295289,-2.857794 -0.224415,-0.393795 -0.269713,-0.379205 -0.277702,0.0894 -0.006,0.455839 -0.122406,0.499609 -0.616349,0.235282 -1.11149,-0.594854 -1.226986,-0.337774 -0.558782,1.243806 0.664902,1.573802 0.95794,1.789917 1.748122,1.289234 z m 2.25646,-1.140433 c 0.509048,-0.263247 0.923795,-0.580875 0.921654,-0.705851 -0.002,-0.124974 -0.496224,-0.546169 -1.097983,-0.935965 l -1.094105,-0.708732 v 1.414587 c 0,0.77802 0.07747,1.414585 0.172439,1.414585 0.0948,0 0.588929,-0.215384 1.097995,-0.478624 z m -4.050109,-3.151675 c 0.910536,-0.47085 0.929415,-0.520033 0.416938,-1.086309 -0.73631,-0.813608 -0.384495,-1.495425 0.833247,-1.614842 l 1.016181,-0.09967 -1.317592,-0.90929 c -0.724664,-0.500132 -1.360063,-0.853064 -1.412005,-0.784296 -0.331214,0.438583 -1.108571,4.100621 -0.955273,4.50013 0.230516,0.600669 0.245959,0.600604 1.418504,-0.0046 z m 19.6471,-2.877401 c -0.941873,-1.279425 -1.499865,-2.443594 -1.781414,-3.716594 -0.225483,-1.019483 -0.460728,-2.030069 -0.522789,-2.245745 -0.06887,-0.239423 -0.666409,-0.392139 -1.534344,-0.392139 -1.212405,0 -1.421547,-0.09234 -1.421547,-0.627429 0,-0.519545 -0.209139,-0.627424 -1.216432,-0.627424 -0.698566,0 -1.3827,-0.20033 -1.60697,-0.470565 -0.630918,-0.76021 -0.881247,-0.549001 -0.836556,0.705861 0.02294,0.647021 -0.06768,1.611452 -0.20152,2.143155 -0.231969,0.921277 -0.180085,0.991866 1.103169,1.500936 l 1.34661,0.534192 -0.784277,0.626207 c -0.566203,0.452068 -1.089593,0.584089 -1.882263,0.474793 -0.603911,-0.08331 -1.846642,-0.247921 -2.761667,-0.365929 l -1.663657,-0.214518 0.199732,0.905343 c 0.408264,1.850583 0.306341,1.791866 2.785348,1.604369 1.270327,-0.09603 2.431692,-0.05858 2.580803,0.08326 0.381446,0.36282 5.133675,0.546456 5.133675,0.198397 0,-0.157288 -0.705866,-0.991849 -1.568567,-1.854538 -1.036838,-1.036852 -1.568571,-1.831637 -1.568571,-2.344614 0,-0.65171 0.113161,-0.745743 0.705869,-0.586889 0.388213,0.10404 1.129358,0.196735 1.646972,0.206001 l 0.941144,0.01683 -0.887448,0.480987 c -1.021976,0.553896 -0.987084,0.730486 0.573537,2.902772 0.816101,1.13595 1.604396,1.802089 2.766714,2.337995 0.893997,0.412198 1.670557,0.713176 1.72568,0.668888 0.0551,-0.04433 -0.516942,-0.918895 -1.271231,-1.943554 z m -7.299217,-6.040766 c -0.554277,-0.612458 -0.547938,-0.627419 0.265093,-0.627419 0.623745,0 0.832887,0.157551 0.832887,0.627419 0,0.34508 -0.119334,0.627425 -0.26507,0.627425 -0.145807,0 -0.520623,-0.282345 -0.83291,-0.627425 z m -20.704972,5.031551 c 1.051872,-0.254067 0.846914,-0.39428 -1.411711,-0.965859 -0.776429,-0.196494 -1.730035,-0.652247 -2.119121,-1.012794 -0.660007,-0.611593 -0.774134,-0.623954 -1.702368,-0.184349 l -0.994919,0.471187 1.388636,0.982683 c 1.437129,1.017003 2.761402,1.211054 4.839483,0.709132 z m -5.630127,-6.531141 c -0.163537,-0.163544 -3.624368,0.837956 -3.624368,1.04882 0,0.0875 0.233361,0.515282 0.518577,0.950576 l 0.518578,0.791444 1.357123,-1.331911 c 0.746404,-0.732549 1.299951,-1.389064 1.23009,-1.458929 z m 23.437006,0.562973 c 0.132099,-0.917957 0.198221,-1.710974 0.146931,-1.762242 -0.0512,-0.05121 -0.687478,0.640842 -1.413713,1.538089 l -1.320475,1.631339 0.860399,0.196175 c 1.33571,0.304559 1.470246,0.179661 1.726858,-1.603361 z m -3.532997,1.111991 c 0,-0.248632 -0.141178,-0.539302 -0.313721,-0.645945 -0.172535,-0.106636 -0.313709,0.09672 -0.313709,0.452057 0,0.355257 0.141174,0.645939 0.313709,0.645939 0.172543,0 0.313721,-0.20343 0.313721,-0.452051 z m -0.804679,-2.178922 c 0.366803,0.140754 1.656502,-1.01814 1.40404,-1.261644 -0.250444,-0.241581 -2.28121,0.919099 -2.419617,1.382917 -0.108831,0.364619 -0.05242,0.387781 0.2507,0.103019 0.215142,-0.202208 0.559341,-0.303104 0.764877,-0.224233 z m -18.37631,-1.223283 c -3.607101,-3.022743 -5.245853,-4.302249 -5.510105,-4.302249 -0.169729,0 -0.55269,0.269705 -0.851018,0.599358 -0.525163,0.580298 -0.434373,0.659979 2.853217,2.504071 3.483764,1.954151 5.046609,2.488232 3.507906,1.19882 z m 2.083693,-0.537712 c 0.106597,-0.172544 1.119926,-0.313703 2.251723,-0.313703 h 2.057837 l -0.905957,-0.926655 c -0.824208,-0.843009 -1.121691,-0.935013 -3.296784,-1.019544 l -2.390835,-0.09297 1.847863,-2.798594 c 1.01631,-1.539221 1.847856,-2.857199 1.847856,-2.928827 0,-0.12754 -3.25104,1.612845 -5.239085,2.804626 l -1.003976,0.601866 1.945116,2.48842 c 1.876662,2.40085 2.473688,2.852883 2.886242,2.185342 z m 18.741904,-0.990581 c -0.275077,-0.275071 -0.487912,-0.259631 -0.877442,0.06369 -0.473235,0.392744 -0.468048,0.443933 0.06512,0.641254 0.743282,0.275079 1.304914,-0.212302 0.812309,-0.704911 z m 22.342268,6.819867 c -0.313719,-0.478805 -0.461036,-1.259909 -0.399353,-2.117543 l 0.09764,-1.358904 0.506211,2.117555 c 0.278416,1.164647 0.458137,2.117561 0.399385,2.117561 -0.05877,0 -0.330528,-0.341397 -0.603937,-0.758669 z m -5.64423,-1.518313 C 85.47108,34.884145 84.5116,34.262994 84.206825,33.858932 c -0.549138,-0.728004 -0.54609,-0.73466 0.336318,-0.73466 0.640951,0 1.278645,0.395546 2.27593,1.411718 0.762012,0.776432 1.32078,1.39757 1.24174,1.38033 -0.07894,-0.01727 -0.853873,-0.321922 -1.721792,-0.677053 z m -10.144243,-7.420802 -1.683522,-0.184156 1.253191,-1.00364 c 1.018194,-0.815451 1.341515,-0.933093 1.724308,-0.627416 0.50241,0.401191 1.036216,2.13643 0.630788,2.050497 -0.132681,-0.02816 -0.998831,-0.133994 -1.924765,-0.235285 z M 87.597477,27.35565 c -0.51643,-0.788155 -0.520912,-0.897548 -0.05591,-1.36259 0.365171,-0.365171 0.677154,-0.425314 1.123041,-0.216481 0.601224,0.281608 0.602674,0.317312 0.05586,1.362611 l -0.56153,1.073415 z M 69.256856,25.046194 c 0.003,-0.31482 0.705733,-0.999552 1.64698,-1.605313 l 1.641368,-1.056325 -1.556773,1.605327 c -0.856229,0.88292 -1.597358,1.605318 -1.647002,1.605318 -0.04964,0 -0.08763,-0.247059 -0.0847,-0.549007 z M 80.683227,23.87976 c -0.593719,-0.449074 -0.591292,-0.460842 0.09691,-0.470573 0.422716,-0.0048 0.705834,0.178786 0.705834,0.460597 0,0.581378 -0.04667,0.581952 -0.802724,0.0093 z m 3.520087,-1.370107 c -1.247254,-1.266315 -1.420379,-1.578255 -1.047615,-1.887636 0.366469,-0.304128 0.648247,-0.03202 1.57101,1.517005 0.618451,1.038185 1.089864,1.887617 1.047613,1.887617 -0.04214,0 -0.749214,-0.682648 -1.571008,-1.516986 z m -9.047189,0.991419 c -0.44085,-0.116511 -0.473232,-0.291008 -0.199619,-1.075862 0.409285,-1.174123 1.008186,-1.020268 1.137824,0.292309 0.09836,0.996346 0.04278,1.042818 -0.938205,0.783553 z m -16.819713,-3.355778 -1.974,-1.003674 0.773685,-0.726839 c 0.697196,-0.654971 0.882774,-0.690813 1.877294,-0.362604 0.848548,0.280054 1.188158,0.620439 1.469477,1.472807 0.202701,0.614261 0.245836,1.223493 0.09666,1.366279 -0.148031,0.141725 -1.157468,-0.193962 -2.243164,-0.745969 z m 4.523409,0.160669 c -0.506306,-0.559475 -0.467652,-0.59185 0.936305,-0.784271 2.63201,-0.360781 2.915785,-0.240507 1.376837,0.583547 -1.722731,0.922469 -1.664536,0.917431 -2.313142,0.200724 z m -9.911293,-1.661136 -0.732636,-1.303547 1.027799,0.205559 c 0.565297,0.113097 1.287736,0.205554 1.60542,0.205554 0.547664,0 0.544019,0.05692 -0.0701,1.097995 -0.3563,0.603898 -0.749067,1.097995 -0.872789,1.097995 -0.123718,0 -0.554637,-0.58659 -0.957588,-1.303556 z m 24.111502,-0.55053 c -0.743647,-0.609475 -0.744735,-0.619063 -0.122895,-1.082915 0.586399,-0.437375 0.643973,-0.405719 0.88059,0.484652 0.326318,1.227851 0.165428,1.35488 -0.757724,0.598263 z m -3.884247,-0.974438 c 0.108264,-0.175348 0.328461,-0.237596 0.489074,-0.138331 0.435135,0.268917 0.354001,0.457159 -0.197051,0.457159 -0.268989,0 -0.400407,-0.143469 -0.292023,-0.318828 z m 10.819891,0.0041 c 0,-0.17254 0.132831,-0.313708 0.29519,-0.313708 0.162359,0 0.382445,0.141168 0.48908,0.313708 0.106593,0.172547 -0.02622,0.313706 -0.295201,0.313706 -0.268984,0 -0.489069,-0.141159 -0.489069,-0.313706 z m -18.280764,-1.2332 c -0.09326,-0.356493 -0.04988,-0.648163 0.09629,-0.648163 0.449562,0 0.704999,0.664485 0.38027,0.989201 -0.200336,0.20034 -0.366034,0.08187 -0.476605,-0.341038 z m 9.354907,-1.590588 c -1.02159,-0.598917 -1.397588,-0.967706 -1.097982,-1.076948 1.616537,-0.589474 3.233382,-1.117736 3.420987,-1.117736 0.120928,0 0.0754,0.705849 -0.101425,1.568556 -0.176729,0.862712 -0.399314,1.561443 -0.49464,1.552747 -0.09522,-0.0076 -0.872461,-0.42567 -1.726969,-0.926619 z m 8.015128,-1.373758 c -0.277715,-0.334638 -0.250608,-0.475968 0.118413,-0.617578 0.329078,-0.126295 0.478587,0.0087 0.478587,0.433933 0,0.731291 -0.1135,0.766224 -0.597012,0.183645 z m 6.032798,-3.0393802 c -0.270554,-0.270746 -0.277972,-0.5654697 -0.02807,-1.113946 0.632385,-1.387945 1.055569,-0.8516744 0.599965,0.7602901 -0.156085,0.5522471 -0.290427,0.6353271 -0.571887,0.3536559 z"
       id="path2583" />
  </g>
</svg>
