<?xml version="1.0" encoding="UTF-8" standalone="no"?>
<svg
   xmlns:dc="http://purl.org/dc/elements/1.1/"
   xmlns:cc="http://creativecommons.org/ns#"
   xmlns:rdf="http://www.w3.org/1999/02/22-rdf-syntax-ns#"
   xmlns:svg="http://www.w3.org/2000/svg"
   xmlns="http://www.w3.org/2000/svg"
   version="1.1"
   id="svg2"
   xml:space="preserve"
   width="1500"
   height="1000"
   viewBox="0 0 1500 1000"><metadata
     id="metadata8"><rdf:RDF><cc:Work
         rdf:about=""><dc:format>image/svg+xml</dc:format><dc:type
           rdf:resource="http://purl.org/dc/dcmitype/StillImage" /><dc:title></dc:title></cc:Work></rdf:RDF></metadata><defs
     id="defs6"><clipPath
       clipPathUnits="userSpaceOnUse"
       id="clipPath998"><path
         d="M 0,780 H 1096 V 0 H 0 Z"
         id="path996" /></clipPath><clipPath
       clipPathUnits="userSpaceOnUse"
       id="clipPath8906"><path
         d="M 0,780 H 1096 V 0 H 0 Z"
         id="path8904" /></clipPath></defs><g
     id="g10"
     transform="matrix(1.3333333,0,0,-1.3333333,0,1040)"><g
       id="g17421"
       transform="matrix(2.2743805,0,0,3.4599527,-1342.7591,-42.060258)"><g
         id="g8830"
         transform="translate(1033.6256,151.8589)" /><g
         id="g18856"><path
           d="m 1036.3796,151.52262 1.158,0.621 0.426,-0.784 z m -2.769,0.053 -1.565,-0.412 -2.433,0.247 -0.924,-0.46 -2.349,0.238 -0.927,-0.462 -1.514,0.154 -0.878,-0.408 -2.36,0.24 -0.102,0.417 1.602,0.448 1.433,-0.146 1.864,0.345 0.989,0.477 0.744,-0.076 0.936,0.46 1.526,-0.155 0.956,0.46 1.524,-0.155 0.66,0.354 1.709,-0.101 0.368,-0.818 z m -5.815,-4.148 -1.304,0.144 0.04,0.177 0.29,0.137 0.763,-0.078 0.254,-0.202 z m 4.973,27.452 0.381,-0.034 0.634,-0.249 -0.717,-0.283 -0.377,0.045 -0.253,0.206 z m 4.845,0.003 0.234,-0.2 -0.135,-0.159 -0.296,-0.104 -0.698,0.067 z m -18.631,-24.571 -1.548,0.157 -0.247,0.215 0.34,0.317 1.549,-0.157 0.247,-0.214 z m -3.184,-0.205 -0.767,0.069 -0.896,-0.454 -3.104,0.329 -0.292,0.363 0.29,0.162 1.559,-0.158 0.888,0.453 2.316,-0.249 0.293,-0.363 z m -0.066,-8.663 3.883,-0.407 0.314,-0.36 -0.292,-0.166 -1.557,0.158 -0.899,-0.454 -1.562,0.15 -0.292,-0.148 0.27,-0.367 2.733,-0.293 0.615,0.464 2.614,-0.25 1.305,0.356 0.234,-0.199 -0.134,-0.159 -0.295,-0.105 -1.11,0.107 -0.614,-0.466 -2.615,0.252 -0.32,-0.414 -1.685,0.036 -0.823,-0.352 -2.813,0.471 0.861,0.513 v 0.516 l -0.648,0.636 1.934,0.03 z m 9.469,-5.289 0.323,0.415 1.929,-0.1 0.738,0.022 0.599,0.323 1.803,-0.044 0.695,0.371 2.322,-0.235 0.944,0.456 1.525,-0.154 0.918,0.454 1.035,-0.299 -0.315,-0.281 -1.968,-0.014 0.628,-0.593 -1.09,-0.172 -0.789,0.617 -0.885,-0.441 -0.774,0.047 -0.964,-0.445 -1.402,0.143 -1.095,-0.372 -0.295,-0.087 -3.882,0.389 -0.328,-0.418 -0.254,0.007 -2.375,0.18 -0.826,-0.443 -0.586,0.059 -0.806,-0.384 -0.923,0.099 -0.257,0.208 0.369,0.307 0.395,-0.033 0.815,0.704 -0.222,0.189 1.293,-0.131 0.968,0.447 0.773,-0.592 z m 6.787,-27.918 1.158,0.621 0.426,-0.784 z m -3.313,22.791 -0.378,0.045 -0.252,0.206 0.332,0.315 0.381,-0.034 0.633,-0.248 z m 0.544,-22.738 -1.565,-0.412 -2.433,0.247 -0.924,-0.46 -2.349,0.238 -0.927,-0.462 -1.514,0.154 -0.878,-0.408 -2.36,0.24 -0.102,0.417 1.602,0.448 1.432,-0.146 1.865,0.346 0.988,0.476 0.745,-0.076 0.936,0.46 1.526,-0.155 0.955,0.46 1.525,-0.155 0.66,0.354 1.709,-0.101 0.367,-0.818 z m -5.815,-4.148 -1.305,0.145 0.04,0.176 0.291,0.137 0.763,-0.078 0.254,-0.202 z m -8.813,2.884 -1.548,0.157 -0.247,0.215 0.34,0.317 1.549,-0.157 0.246,-0.214 z m -3.184,-0.205 -0.767,0.069 -0.896,-0.454 -3.105,0.329 -0.291,0.363 0.289,0.162 1.56,-0.158 0.888,0.453 2.316,-0.249 0.293,-0.363 z m -0.067,-8.662996 3.884,-0.406 0.314,-0.361 -0.292,-0.166 -1.557,0.158 -0.9,-0.454 -1.561,0.15 -0.292,-0.148 0.27,-0.367 2.733,-0.293001 0.615,0.464001 2.614,-0.25 1.305,0.357 0.234,-0.2 -0.134,-0.159 -0.295,-0.105 -1.11,0.107 -0.614,-0.466001 -2.615,0.252 -0.32,-0.413 -1.685,0.035 -0.823,-0.352 -2.813,0.472 0.861,0.512001 v 0.516 l -0.648,0.636 1.934,0.03 z m -10.386,83.469996 -1.60698,0.181 0.86998,0.447 0.562,0.102 0.206,-0.473 z m -17.19498,-107.376997 -0.286,-0.156 -0.282,-0.114 0.169,1.046 0.99,-0.291 z m -45.754,-3.809 -1.603,0.163 -0.773,0.603 -4.781,0.485 -0.113,0.104 c 0.234,0.301 0.458,0.608 0.674,0.92 l 0.337,-0.031 0.925,0.427 1.344,-0.557 0.73,-0.17 2.359,-0.263 1.089,-0.615 1.802,-0.494 z m -58.017,-2.772 -1.591,0.161 -0.624,0.489 c 0.824,-0.195 1.659,-0.322 2.502,-0.398 l 0.03,-0.077 z m -7.965,0.824 -0.764,0.558 -9.802,0.994 0.057,0.556 -2.761,0.28 -0.78,0.612 -2.347,0.238 -0.974,-0.469 -3.907,0.388 -0.297,-0.152 -0.125,-0.53 0.351,-0.322 -0.78,0.079 -0.941,-0.459 -8.687,0.881 -0.857,-0.421 -0.232,0.195 1.234,0.257 0.091,0.376 -2.63,0.274 -0.152,-0.44 0.043,-0.02 -0.196,0.016 -0.01,0.019 0.16,-0.015 -0.54,0.052 -0.04,-0.023 -1.436,0.112 -0.075,0.073 -2.284,0.235 -0.506,0.59 -1.975,0.2 -1.044,1.284 0.915,0.356 1.198,-0.658 0.981,-0.441 -0.075,-0.741 0.695,0.121 0.725,0.825 1.849,0.05 -0.668,0.624 -1.59,0.73 -0.612,0.312 -1.251,0.656 -2.378,0.242 -0.879,-0.437 -1.084,-0.092 1.361,-1.291 -0.12,-1.053 -0.273,-0.169 -2.659,0.281 -0.56,0.47 -1.606,0.163 -0.878,-0.412 -2.35,0.239 -0.774,0.616 c 0.622,0.174 1.244,0.349 1.866,0.523 0.369,0.104 0.671,0.286 0.919,0.512 l 0.917,0.492 -0.224,0.174 c 2.001,0.619 4.002,1.238 6.003,1.856 l 0.62,-0.179 0.625,0.335 3.108,-0.244 0.483,0.217 0.396,-0.299 0.732,-0.075 0.447,-0.345 -0.756,-0.437 0.474,-0.323 1.844,-0.199 0.124,0.159 0.268,-0.204 -0.392,0.045 -0.054,-0.75 0.41,-0.327 1.137,0.612 -0.387,0.338 -0.229,0.026 1.012,-0.102 0.84,-0.605 1.584,-0.162 v -10e-4 l 0.763,-0.078 h 10e-4 l 1.281,-0.131 0.27,-0.08 0.83,-0.567 2.277,0.279 1.604,-0.163 0.776,-0.576 3.899,-0.396 0.814,-0.637 1.249,0.082 -0.038,0.032 0.227,-0.02 0.476,0.038 -0.391,-0.277 -0.098,0.081 -0.085,-1.07 0.355,-0.116 0.395,-0.044 4.985,-0.506 0.398,-0.308 -0.023,-0.272 0.656,0.096 0.062,0.373 9.378,-0.951 0.395,-0.044 0.325,-0.131 0.599,-0.5 2.047,-0.208 c 0.727,-0.316 1.467,-0.561 2.214,-0.766 l -4.297,0.436 z m -16.931,-2.612 -0.982,0.102 -0.247,0.208 0.445,0.273 1.567,-0.158 z m -47.434,3.412 -1.231,-0.66 -0.786,0.603 -1.247,-0.084 0.038,-0.032 -0.226,0.019 -0.476,-0.036 0.39,0.276 0.092,-0.076 0.019,0.53 -0.256,0.032 c 0.671,0.188 1.342,0.377 2.012,0.565 l 0.377,-0.186 0.786,-0.092 0.562,-0.331 z m -131.404,8.458 -0.562,-0.102 -0.206,0.473 0.031,0.256 1.607,-0.18 z m -17.601,0.977 -1.086,0.118 -0.931,-0.416 -0.4,0.334 c 0.986,0.138 1.973,0.276 2.959,0.414 l 0.172,-0.355 z m -9.372,29.099997 -0.936,-0.459 -1.527,0.154 -0.955,-0.459 -1.524,0.155 -0.661,-0.354 -1.708,0.101 -0.367,0.818 1.258,0.647 1.565,0.412 2.433,-0.247 0.924,0.46 2.349,-0.238 0.927,0.462 1.514,-0.154 0.878,0.408 2.36,-0.24 0.102,-0.417 -1.602,-0.448 -1.433,0.145 -1.864,-0.345 -0.989,-0.476 z m -5.578,-22.700997 -0.381,0.034 -0.634,0.248 0.717,0.283 0.377,-0.044 0.253,-0.206 z m -4.845,-0.003 -0.234,0.2 0.135,0.159 0.296,0.104 0.698,-0.067 z m 1.234,23.359997 -1.158,-0.621 -0.426,0.784 z m 8.584,4.095 1.304,-0.145 -0.04,-0.177 -0.29,-0.136 -0.763,0.078 -0.254,0.202 z m 8.813,-2.884 1.548,-0.157 0.247,-0.215 -0.34,-0.317 -1.549,0.157 -0.247,0.214 z m 3.184,0.205 0.767,-0.069 0.896,0.454 3.104,-0.33 0.292,-0.362 -0.29,-0.162 -1.559,0.158 -0.888,-0.453 -2.316,0.249 -0.293,0.363 z m 0.066,8.663 -3.883,0.406 -0.314,0.361 0.292,0.166 1.557,-0.158 0.899,0.454 1.562,-0.15 0.291,0.148 -0.269,0.367 -2.734,0.293 -0.614,-0.464 -2.615,0.25 -1.304,-0.357 -0.235,0.2 0.135,0.159 0.295,0.105 1.109,-0.107 0.615,0.466 2.614,-0.252 0.321,0.413 1.685,-0.035 0.822,0.352 2.814,-0.472 -0.861,-0.512 v -0.517 l 0.648,-0.635 -1.934,-0.031 z m -9.469,5.289 -0.323,-0.415 -1.929,0.1 -0.738,-0.022 -0.599,-0.323 -1.803,0.044 -0.695,-0.371 -2.322,0.235 -0.944,-0.456 -1.525,0.154 -0.918,-0.454 -1.035,0.299 0.315,0.281 1.968,0.014 -0.628,0.593 1.09,0.171 0.789,-0.616 0.885,0.44 0.774,-0.047 0.963,0.445 1.403,-0.142 1.095,0.372 0.295,0.087 3.882,-0.389 0.328,0.417 0.254,-0.006 2.375,-0.18 0.826,0.443 0.586,-0.059 0.806,0.384 0.923,-0.099 0.257,-0.208 -0.369,-0.307 -0.395,0.032 -0.815,-0.704 0.222,-0.188 -1.293,0.131 -0.968,-0.447 -0.773,0.592 z m -6.787,27.918 -1.158,-0.621 -0.426,0.784 z m 3.313,-22.792 0.378,-0.044 0.252,-0.206 -0.332,-0.315 -0.381,0.033 -0.633,0.249 z m -0.544,22.739 1.565,0.412 2.433,-0.247 0.924,0.46 2.349,-0.238 0.927,0.462 1.514,-0.154 0.878,0.408 2.36,-0.24 0.102,-0.417 -1.602,-0.448 -1.432,0.145 -1.865,-0.345 -0.988,-0.476 -0.745,0.075 -0.936,-0.46 -1.526,0.155 -0.956,-0.459 -1.524,0.155 -0.66,-0.355 -1.709,0.102 -0.367,0.818 z m 5.815,4.148 1.305,-0.145 -0.04,-0.177 -0.291,-0.137 -0.763,0.079 -0.254,0.202 z m 8.813,-2.884 1.548,-0.157 0.247,-0.215 -0.34,-0.317 -1.549,0.157 -0.246,0.214 z m 3.184,0.205 0.767,-0.069 0.896,0.454 3.104,-0.33 0.292,-0.362 -0.289,-0.162 -1.56,0.158 -0.888,-0.453 -2.316,0.248 -0.293,0.364 z m 0.067,8.663 -3.884,0.406 -0.314,0.361 0.292,0.166 1.557,-0.158 0.899,0.454 1.562,-0.15 0.292,0.148 -0.27,0.367 -2.733,0.293 -0.615,-0.464 -2.614,0.25 -1.305,-0.357 -0.234,0.2 0.134,0.159 0.295,0.105 1.11,-0.107 0.614,0.466 2.615,-0.252 0.32,0.413 1.685,-0.035 0.823,0.351 2.813,-0.471 -0.861,-0.512 0.01,-0.517 0.648,-0.635 -1.934,-0.031 z m 20.624,11.068 -0.29,-0.137 -0.764,0.077 -0.254,0.202 0.043,0.178 1.305,-0.143 z m -7,1.39 -0.137,-0.159 -0.295,-0.104 -1.104,0.106 0.612,0.167 c 0.292,0.01 0.585,0.022 0.877,0.03 z m -2.781,-1.088 -1.529,0.156 -0.948,-0.446 -0.772,0.052 -0.897,-0.448 -3.142,0.319 -0.92,-0.458 -0.748,0.076 -0.443,-0.396 -0.939,-0.538 -1.104,0.112 0.474,0.759 0.051,0.509 1.026,0.219 1.099,0.375 1.394,-0.141 0.997,0.454 2.28,-0.232 0.953,0.455 0.735,-0.075 0.407,0.204 c 0.726,0.031 1.452,0.059 2.178,0.085 l 1.089,-0.11 z m -21.71,-0.54 c 0.757,0.084 1.513,0.159 2.27,0.236 l -0.789,-0.386 z m 38.448,13.077 0.286,0.155 0.282,0.115 -0.169,-1.046 -0.99,0.291 z m 8.494,3.549 0.4,0.215 c 2.379,-0.053 4.757,-0.107 7.136,-0.16 l 0.32,-0.352 c -0.029,-0.013 -0.057,-0.026 -0.086,-0.039 l -0.975,-0.088 -0.927,-0.454 -0.734,0.074 -0.878,-0.419 -2.315,0.235 -0.965,0.594 z m -1.254,-0.137 -0.748,0.076 -0.467,0.341 c 0.556,-0.013 1.111,-0.025 1.667,-0.038 l -0.01,-0.033 z m 31.485,2.206 0.917,0.427 1.372,-0.608 1.82,-0.328 0.235,-0.473 1.102,-0.126 0.358,-0.334 -0.598,-0.165 -0.66,0.175 -0.202,0.45 -0.391,0.032 -1.238,-0.652 0.668,-0.629 -0.216,-0.073 c -0.315,0.12 -0.683,0.179 -1.112,0.149 -1.719,-0.118 -3.438,-0.237 -5.157,-0.356 0.325,0.145 0.65,0.289 0.976,0.433 0.459,0.204 0.775,0.494 0.972,0.83 v -0.085 l 1.306,-0.119 -10e-4,0.18 -1.265,0.118 c 0.195,0.382 0.245,0.814 0.18,1.249 z m 8.632,-1.972 0.773,-0.603 4.781,-0.485 0.95,-0.882 -0.378,-0.245 -1.47,0.134 -0.925,-0.427 -1.344,0.556 -0.73,0.17 -2.359,0.264 -1.089,0.614 -1.802,0.495 1.99,0.572 z m 7.176,-0.722 1.562,-0.15 1.557,-0.172 0.266,-0.37 -0.291,-0.146 -3.121,0.323 -0.266,0.368 z m 55.906,-2.431 3.124,-0.31 0.252,-0.209 -0.356,-0.299 -1.951,0.183 -1.169,0.127 -0.253,0.208 z m 19.251,0.767 -1.249,-0.082 0.038,-0.032 -0.227,0.02 -0.476,-0.038 0.391,0.277 0.098,-0.081 0.085,1.07 -0.355,0.116 -0.395,0.044 -4.985,0.506 -0.398,0.308 0.023,0.272 -0.656,-0.096 -0.062,-0.374 -9.378,0.952 -0.395,0.044 -0.325,0.131 -0.599,0.5 -7.017,0.712 -0.355,0.897 0.318,0.175 1.591,-0.161 0.773,-0.606 4.726,-0.479 0.875,0.422 0.764,-0.558 9.802,-0.994 -0.057,-0.556 2.761,-0.28 0.78,-0.612 2.347,-0.238 0.974,0.469 3.907,-0.388 0.297,0.152 0.124,0.53 -0.35,0.322 0.78,-0.079 0.941,0.459 8.687,-0.881 0.856,0.42 0.233,-0.194 -1.234,-0.257 -0.091,-0.376 2.63,-0.274 0.152,0.44 -0.043,0.02 0.196,-0.016 0.01,-0.019 -0.16,0.015 0.54,-0.052 0.04,0.023 1.436,-0.112 0.075,-0.073 2.284,-0.235 0.506,-0.59 1.975,-0.2 1.044,-1.284 -0.915,-0.356 -1.198,0.658 -0.981,0.44 0.075,0.742 -0.695,-0.121 -0.725,-0.825 -1.849,-0.051 0.668,-0.624 1.213,-0.556 c -3.324,-0.073 -6.648,-0.147 -9.972,-0.221 l -0.5,0.342 -2.277,-0.279 -1.605,0.163 -0.775,0.576 -3.899,0.396 z m -1.023,7.109 0.982,-0.102 0.247,-0.208 -0.445,-0.273 -1.567,0.158 z m 26.204,-7.233 0.274,0.169 2.659,-0.281 0.56,-0.47 1.606,-0.163 0.878,0.411 2.35,-0.238 0.751,-0.598 -8.867,-0.197 -0.33,0.314 z m 21.23,3.821 1.231,0.66 0.786,-0.603 0.783,0.053 c -0.267,-0.025 -0.533,-0.049 -0.8,-0.073 -0.722,-0.066 -1.269,-0.373 -1.659,-0.798 l -0.395,0.233 z m -14.421,-116.144997 15.113,-1.526 c 0.413,-0.41 0.832,-0.794 1.257,-1.149 l 0.039,-0.059 0.032,-0.003 c 0.265,-0.22 0.532,-0.424 0.801,-0.623 l -0.785,0.08 -2.772,0.287 -3.03,0.386 -0.599,0.499 -3.122,0.317 -0.829,0.639 -0.762,0.077 -0.874,-0.425 -0.802,0.599 -3.613,0.365 -0.586,0.311 z m -103.614,2.069 0.309,-0.239 0.762,-0.077 0.876,0.41 0.818,-0.588 2.589,-0.265 c -3.403,0.043 -6.805,0.086 -10.207,0.129 1.618,0.21 3.235,0.42 4.853,0.63 m 196.095,103.363997 -0.314,-0.13 -1.378,-0.311 -1.326,0.289 -0.055,0.045 c 0.68,0.047 1.361,0.094 2.041,0.141 0.344,-0.011 0.688,-0.022 1.032,-0.034 m -85.139,-0.738 -0.387,0.343 0.63,0.537 -0.861,0.676 c 1.563,0.035 3.125,0.069 4.687,0.104 -0.415,-0.204 -0.828,-0.411 -1.24,-0.62 l -0.542,-0.195 -1.035,-0.186 0.55,-0.153 c -0.37,-0.193 -0.743,-0.38 -1.111,-0.578 z m 89.7,9.755 c -1.233,-0.356 -2.466,-0.711 -3.699,-1.066 -0.555,0.581 -1.381,0.923 -2.389,0.716 -7.7,-1.578 -15.399,-3.157 -23.099,-4.735 l -2.952,0.301 -0.345,0.107 -0.535,0.445 -4.181,0.581 -0.554,0.461 -0.359,0.089 -5.212,0.53 c 0.157,0.277 0.314,0.554 0.472,0.832 14.284,0.579 28.568,1.159 42.853,1.739 m -90.568,-8.205 -0.327,-0.314 -0.61,-0.525 -2.38,0.238 -2.156,0.179 -1.145,-0.363 -0.166,-0.041 -1.142,0.116 -0.641,-0.344 -0.342,-0.065 -0.66,0.067 0.059,0.55 0.184,0.295 c 3.109,0.069 6.217,0.138 9.326,0.207 m -36.192,4.349 -0.271,0.38 0.286,0.16 1.549,-0.157 0.271,-0.38 -0.209,-0.116 -0.414,-0.01 z m 27.394,-110.697997 -0.286,-0.16 -1.549,0.157 -0.271,0.379 0.287,0.161 1.548,-0.157 z m 138.648,12.625 0.29,0.137 0.763,-0.078 0.255,-0.202 -0.043,-0.177 -1.305,0.143 z m 7.137,-1.232 0.295,0.105 1.104,-0.106 -1.302,-0.357 -0.234,0.2 z m 2.64398,0.929 1.529,-0.155 0.948,0.446 0.772,-0.052 0.897,0.448 3.142,-0.319 0.92,0.458 0.747,-0.076 0.444,0.396 0.939,0.537 1.104,-0.112 -0.474,-0.758 -0.051,-0.509 -1.026,-0.219 -1.1,-0.376 -1.393,0.142 -0.997,-0.454 -2.28,0.231 -0.953,-0.454 -0.735,0.074 -0.914,-0.458 -2.76098,0.28 z m 1.776,-6.105 1.135,-0.115 0.964,0.515 0.431,0.405 0.78,-0.6 1.562,-0.167 0.257,-0.207 -0.363,-0.307 -0.748,0.043 -0.946,-0.445 -2.308,0.234 -0.637,-0.342 -0.733,-0.029 -1.028,0.139 -0.07,0.414 z m -46.40998,-11.521 0.377,-0.047 0.262,-0.376 -0.288,-0.15 -0.379,0.031 -0.645,0.421 z m 109.99698,84.506997 -2.367,0.24 -0.924,-0.452 -2.31,0.234 -0.966,-0.458 -2.311,0.234 -1.598,-0.858 -0.81,0.565 -2.357,0.239 -1.757,-0.89 -0.749,0.076 -0.434,-0.401 -0.961,-0.534 -1.476,-0.405 -1.358,0.244 -0.238,0.475 -2.724,0.263 -0.37,-0.298 0.513,-0.428 -0.344,-0.308 -1.962,0.064 -0.249,-0.272 -0.247,-0.043 -0.123,0.352 0.629,0.072 0.025,0.271 -0.966,0.391 -0.528,0.328 0.652,0.17 1.324,0.349 1.657,0.436 5.566,-0.565 1.21,0.767 -1.306,1.089 1.026,0.633 1.689,0.391 1.49,-0.037 0.347,0.047 0.321,0.424 -0.387,0.046 -0.785,0.612 -0.768,0.107 -0.808,0.598 -0.757,0.019 -0.908,-0.394 -2.059,0.222 -0.568,0.318 0.83,0.485 0.11,0.537 1.214,0.651 1.557,-0.151 0.302,0.141 -0.255,0.373 -8.694,0.909 -0.253,0.21 0.382,0.293 3.941,-0.35 0.284,0.147 -0.402,0.355 -2.329,0.314 -0.242,0.193 1.598,0.456 0.056,0.56 1.073,0.155 2.379,-1.916 3.929,-0.398 0.947,0.46 1.518,-0.132 0.983,0.383 1.266,-0.558 0.526,0.154 0.064,0.502 -0.548,0.455 0.226,0.374 3.115,-0.316 0.927,0.461 0.771,-0.078 0.507,1.181 -0.373,0.419 -2.349,0.238 -0.43,-0.403 -0.246,-0.461 -0.6,-0.317 -0.672,-0.252 -2.104,-0.229 -1.661,-0.401 -0.793,0.03 -3.163,0.329 -0.386,0.352 0.668,0.153 0.413,-0.044 0.902,0.45 3.389,-0.344 1.336,0.926 1.005,-0.009 1.19,0.573 0.113,1.121 0.309,0.157 h 0.925 l 2.854,1.531 -10e-4,1.299 -3.405,0.507 -0.282,0.229 0.806,0.481 -0.581,0.315 -4.745,0.498 -0.716,0.175 -0.19,0.199 0.285,0.161 1.88,0.003 -0.112,0.37 -1.833,0.387 -0.374,0.97 -0.874,0.089 -0.974,-0.474 -0.279,0.779 0.881,0.538 -0.686,0.625 1.036,0.182 1.243,0.543 -0.174,0.402 -0.812,0.082 -0.99,0.885 1.587,0.96 0.034,0.261 -1.606,0.163 -1.247,-1.005 -1.801,-0.217 -0.568,0.474 -0.879,-0.39 -0.765,0.048 -0.797,0.624 -1.125,-0.134 -0.192,-0.972 -0.484,-0.336 -1.049,0.359 0.791,0.491 0.051,0.51 -0.699,0.643 0.664,0.189 1.505,-0.037 0.665,0.355 1.123,-0.114 0.394,-0.035 0.374,0.305 -0.248,0.218 -0.798,0.081 0.46,1.26 -0.432,0.346 -2.179,0.236 -0.991,-0.424 -2.694,-0.019 0.629,-0.594 -1.091,-0.171 -0.789,0.617 -0.885,-0.441 -0.774,0.047 -0.963,-0.445 -1.403,0.143 -1.095,-0.373 -1.436,-0.421 -2.652,0.262 -3.046,0.231 -1.561,-0.838 -1.58,0.169 -0.257,0.208 0.369,0.307 0.395,-0.033 0.815,0.704 -0.983,0.835 -1.063,0.11 -0.604,-0.318 -3.442,0.178 -0.652,-0.349 -0.771,0.595 -0.197,0.406 0.714,0.095 1.086,-0.118 0.93,0.416 0.573,-0.477 1.334,0.631 -0.264,0.211 -3.229,0.336 -0.852,-0.422 -2.347,0.238 -0.882,-0.439 -4.763,0.483 -1.338,1.095 -0.709,0.181 -0.345,-0.059 -2.403,-1.283 -0.791,0.081 -0.34,0.458 0.097,1.339 -0.432,0.453 -1.57,-0.446 -0.902,-0.389 -1.56098,0.11 -0.744,-0.399 -2.291,0.232 -0.997,-0.456 -1.502,0.152 -0.939,-0.46 -1.552,0.157 -0.93,-0.463 -1.518,0.154 -0.979,-0.457 -2.253,0.229 -0.787,-0.342 -1.807,0.06 c -0.351,0.967 -1.189,1.794 -2.342,1.832 -5.991,0.192 -11.981,0.385 -17.972,0.578 -0.377,0.906 -1.224,1.61 -2.315,1.535 l -1.395,-0.096 13.952,4.021 c 2.699,0.778 -41.554,3.246 -61.955,2.418 -0.286,1.374 -1.652,2.58 -3.116,1.99 -0.334,-0.135 -0.668,-0.269 -1.001,-0.403 -0.174,0.017 -0.359,0.019 -0.558,0.001 -9.5,-0.864 -18.999,-1.728 -28.499,-2.592 l -0.211,0.339 -0.274,-0.142 0.144,-0.228 c -0.252,-0.023 -0.504,-0.046 -0.756,-0.069 l -3.958,0.402 -0.807,0.624 -1.555,0.158 -0.957,-0.46 -2.319,0.235 -0.638,-0.338 -1.075,0.072 -1.026,0.729 0.117,0.617 0.709,0.559 -0.269,0.229 -2.344,0.245 -0.266,0.197 0.016,0.182 0.594,0.328 -1.063,0.471 -0.837,0.596 -4.414,0.444 -1.544,-0.612 1.482,-0.457 0.756,-0.41 -1.075,-0.102 -0.91,-0.447 -1.097,-0.111 -0.454,-1.757 -1.814,0.014 -1.021,-0.453 -2.309,0.355 -0.526,0.437 -2.661,0.241 -0.634,-0.34 -0.798,0.588 -1.522,0.154 -0.829,0.64 -1.556,0.158 0.164,0.509 1.094,0.167 0.114,1.121 -1.875,1.42 -0.817,-0.377 -3.905,0.396 -0.925,-0.454 -1.087,-0.097 0.596,-0.633 -0.01,-0.684 -1.151,-0.505 -1.065,0.144 -0.59,0.486 -1.094,0.111 -0.876,-0.785 0.263,-0.227 2.476,-0.251 0.647,-0.604 -1.484,0.15 -0.839,0.605 -6.01,0.613 -0.113,0.034 3.67,-0.371 0.49,0.3 -0.288,0.725 -0.857,-0.419 -0.766,0.604 -1.549,0.158 -0.886,-0.452 -0.773,0.07 -0.017,-0.009 -0.016,0.01 -1.683,0.171 -0.395,0.039 -0.639,-0.506 -1.166,-0.395 -0.827,0.615 -2.353,0.239 -0.879,-0.436 -2.352,0.238 -0.779,0.605 -1.851,-0.363 -2.234,0.323 -0.252,0.212 -0.225,0.738 -0.961,-0.307 -1.463,0.148 -1.01,-0.469 -3.871,0.38 -0.368,-0.299 0.255,-0.21 12.346,-1.258 -0.713,-0.032 -0.668,-0.36 -6.252,0.62 -0.403,-0.242 0.314,-0.288 -0.467,0.047 -2.751,0.229 -0.285,-0.158 0.144,-0.197 1.549,-0.746 3.137,-0.386 2.773,-0.286 3.17,-0.322 1.365,-0.138 0.019,-0.015 2.29,-0.232 0.117,-0.419 -1.393,-0.24 -1.019,-0.178 -0.858,0.088 -0.786,0.606 -0.874,-0.421 -1.104,0.389 -0.429,-1.249 -1.512,0.074 -15.854,1.601 -1.146,0.03 -0.328,-0.419 4.24,-0.443 0.413,-0.349 -0.278,-0.143 -4.152,0.471 -0.223,0.464 -3.542,0.36 -0.797,0.622 -3.542,0.36 0.238,-0.475 1.519,-0.257 0.493,-0.339 -0.375,-0.201 -1.482,0.139 -0.433,-0.277 0.261,-0.227 1.545,-0.156 0.825,-0.639 7.892,-0.8 0.773,-0.598 3.938,-0.4 0.878,0.401 2.301,-0.233 1.001,-0.583 1.32,-0.701 3.048,-0.31 2.773,-0.287 3.03,-0.386 0.599,-0.499 3.122,-0.317 0.829,-0.639 0.762,-0.077 0.874,0.425 0.802,-0.599 3.613,-0.365 0.586,-0.311 -0.532,-0.225 -20.996,2.12 -0.356,0.104 -1.242,0.603 -1.41,-0.173 -0.407,-0.701 -2.418,0.245 -0.778,0.576 -1.515,0.153 -0.817,0.639 -1.556,0.158 -0.798,0.622 -0.765,0.047 -0.901,-0.401 -1.661,0.69 -1.326,0.677 -1.459,0.145 -0.602,-0.542 0.388,-0.515 2.271,-0.244 0.321,-0.363 -0.295,-0.165 -1.572,0.159 -0.927,-0.978 -1.569,0.159 -0.862,0.644 -3.895,0.395 -1.269,0.668 -1.033,0.584 -2.468,0.402 -0.552,0.459 -5.494,0.558 -0.812,0.626 -0.237,0.409 0.705,0.112 1.157,-0.125 1.22,0.655 -0.484,0.339 -9.903,1.006 -0.664,-0.184 -0.054,-0.53 1.571,-0.729 1.821,-0.968 1.567,-0.159 0.818,-0.64 0.772,-0.088 0.255,-0.211 -0.388,-0.292 -1.471,0.137 -0.909,0.666 -5.466,0.554 -0.698,0.58 -2.571,0.265 -3.077,0.377 -0.598,0.498 -4.893,0.594 -0.626,0.522 -1.533,0.155 -0.833,0.642 -0.754,0.076 -0.823,0.639 -2.312,0.234 -0.816,0.615 -0.439,0.044 -0.977,-0.326 -1.37,-0.186 -0.059,-0.585 0.704,-0.645 -0.322,-0.165 -3.253,0.323 -0.754,0.573 -1.925,0.195 -0.394,0.033 -0.303,-0.141 -0.023,-0.179 0.591,-0.961 0.821,-0.45 0.888,-0.51 1.502,-0.264 2.374,-0.258 0.61,-0.317 -2.624,0.005 -3.168,0.313 -2.527,0.341 c -0.45,0.454 -1.042,0.758 -1.711,0.749 l -1.033,-0.013 -0.683,0.071 -3.022,0.387 -0.596,0.496 -0.893,-0.433 -1.978,0.056 0.687,-0.661 c -0.286,-0.004 -0.572,-0.008 -0.858,-0.011 l -0.632,0.521 0.455,0.325 0.297,-0.033 -0.17,0.474 -2.565,0.412 -0.58,0.482 -0.641,-0.738 -1.482,-0.797 0.291,-0.37 2.337,-0.252 0.011,-0.059 c -10.499,-0.136 -20.997,-0.272 -31.496,-0.408 -3.237,-0.042 -3.093,-4.928 0.11,-5 5.555,-0.124 11.11,-0.249 16.665,-0.374 l -0.44,-0.192 -2.419,0.155 -0.599,-0.321 -1.273,-0.257 1.344,-1.121 0.472,-0.916 1.081,0.143 -0.667,0.639 0.057,0.561 1.27,0.59 2.542,-0.327 0.819,-0.84 -0.61,-0.327 0.699,-0.43 0.67,-0.531 0.175,-0.5 0.566,-0.472 -1.365,-0.627 -1.297,0.132 -1.54,1.291 -1.939,-0.905 -1.349,1.123 -2.401,0.244 -0.854,-0.398 -1.001,0.067 -0.671,-0.463 -0.249,-0.364 0.685,-0.225 0.651,-0.316 -0.798,-0.486 0.14,-0.53 -2.685,-0.306 -1.986,-0.579 -3.946,0.4 -0.93,-0.462 -3.136,0.318 -0.947,-0.462 -2.324,0.236 -0.637,-0.33 -1.709,-0.398 -0.729,-0.019 -1.06,0.049 -0.717,-0.386 -1.515,0.154 -0.971,-0.459 -1.515,0.153 -0.943,-0.461 -3.128,0.317 -0.955,-0.46 -1.522,0.154 -1.892,-0.868 -2.174,-0.295 -1.517,0.154 -0.963,-0.46 -1.526,0.155 -0.942,-0.462 -0.739,0.075 -0.96,-0.46 -2.273,0.231 -0.949,-0.421 -4.434,0.446 -1.943,0.113 -0.3,-0.153 0.603,-0.321 11.842,-1.101 0.637,0.342 1.521,-0.155 0.937,0.448 0.77,-0.573 0.936,0.447 1.476,-0.149 1.026,0.452 1.512,-0.154 1.718,0.438 1.514,0.812 2.353,-0.239 0.894,0.432 0.794,-0.597 0.639,-0.065 c -3.67,-0.533 -7.341,-1.067 -11.011,-1.6 l -0.271,0.027 -0.206,-0.097 c -0.451,-0.065 -0.902,-0.131 -1.353,-0.196 -0.108,-0.016 -0.203,-0.049 -0.304,-0.075 l -1.37,0.139 -0.928,-0.404 -1.476,0.105 -0.769,-0.309 -1.891,-0.054 -0.628,-0.337 -2.33,0.237 -0.943,-0.463 -0.755,0.076 -0.505,-0.642 -0.864,-0.769 -0.028,-0.27 1.237,-0.922 0.608,0.325 3.447,-0.175 0.654,0.35 1.54,-0.156 0.935,0.463 1.554,-0.158 0.488,0.242 c 0.01,-1.242 0.815,-2.384 2.438,-2.203 0.018,0.002 0.037,0.004 0.056,0.006 l -1.186,-0.636 -0.073,-0.521 0.466,-0.264 2.336,0.753 1.537,-0.168 0.334,-0.361 -0.291,-0.157 -0.772,0.07 -0.917,-0.454 -0.797,0.055 -1.711,-0.919 -2.176,1.321 -2.349,0.238 -0.813,0.631 -0.501,-1.173 0.373,-0.389 0.97,0.448 1.003,-0.339 -0.06,-0.596 -0.827,-0.486 -0.052,-0.512 0.687,-0.647 -0.336,-0.178 -0.357,-0.346 0.652,-0.266 6.347,-0.636 0.328,0.417 1.683,-0.043 0.881,0.39 1.477,-0.15 0.963,0.46 0.734,-0.074 0.941,0.461 0.738,-0.074 0.957,0.459 1.45,-0.147 1.049,0.41 1.706,0.353 1.338,0.373 1.677,0.411 0.785,-0.079 0.904,0.434 0.772,-0.569 1.231,0.658 -0.222,0.872 -0.043,-0.023 0.01,0.153 -0.091,0.328 0.438,-0.289 -0.108,-0.058 0.772,-0.063 0.349,0.679 0.673,0.116 0.035,0.252 1.262,0.659 1.235,-0.125 1.618,0.702 -0.229,0.34 -0.082,-0.044 v 0.069 l 0.061,0.002 0.017,-0.027 0.052,0.028 c 0.151,0.003 0.302,0.007 0.454,0.01 l 1.361,-0.169 0.183,0.201 c 0.118,0.001 0.236,0.003 0.354,0.004 l 0.083,-0.241 -0.628,-0.073 0.01,0.109 -0.051,-0.378 -2.932,-1.603 -2.805,0.284 0.553,-0.596 1.49,-0.25 0.229,-0.466 3.55,-0.36 0.876,0.423 0.816,-0.6 0.807,-0.014 0.598,0.32 0.504,-0.346 3.089,-0.764 -1.223,-0.657 -0.779,0.079 -0.93,-0.462 -1.577,0.16 -1.682,-0.418 -2.139,-0.26 -1.845,-0.864 -0.799,0.048 -0.796,0.622 -2.352,0.239 -0.877,-0.436 -1.561,0.159 -0.9,0.66 -1.048,-0.132 -0.056,-0.553 -1.38,-0.288 -0.967,-0.343 -0.389,0.046 -0.437,0.354 0.639,0.504 -1.012,0.299 -0.904,-0.449 -1.233,-0.664 -1.199,-0.679 -1.579,0.11 -0.932,-0.398 -2.241,0.227 -0.968,-0.447 -0.773,0.592 -1.964,0.199 -0.323,-0.415 -1.929,0.1 -0.738,-0.022 -0.599,-0.323 -1.803,0.044 -0.695,-0.371 -2.322,0.235 -0.944,-0.456 -1.525,0.154 -0.918,-0.454 -1.034,0.299 0.378,0.338 0.376,0.407 0.85,0.771 -1.245,0.503 -1.336,1.114 -1.742,-0.882 -1.548,0.157 -0.791,0.594 -1.227,-0.659 -0.052,-0.515 -0.831,-0.491 0.601,-0.547 0.278,-0.868 1.661,-0.169 1.578,-1.261 4.337,-0.44 0.298,0.409 1.798,-0.133 0.238,-0.191 -0.451,-0.262 -1.883,0.177 -0.036,-0.264 -0.289,-0.156 -2.254,-0.803 0.262,-0.696 6.442,-0.654 0.884,0.441 3.142,-0.318 0.922,0.46 1.523,-0.155 0.972,0.458 1.466,-0.149 1.015,0.445 1.788,-0.49 -1.194,-0.642 -0.811,0.034 -0.914,-0.438 -1.529,0.155 -0.462,-0.363 -0.53,-0.631 -0.738,0.075 -0.944,-0.459 -2.291,0.232 -0.995,-0.454 -2.236,0.227 -0.93,-0.397 -1.561,0.108 -0.692,-0.373 -0.757,0.015 -0.786,0.065 -0.561,-0.268 0.256,-0.727 0.79,-0.126 0.913,0.447 2.338,-0.238 0.933,0.459 2.316,-0.235 0.955,0.458 2.277,-0.231 0.806,0.361 2.457,-0.121 0.921,0.387 3.181,-0.246 0.69,0.371 2.622,-0.111 0.655,0.351 1.114,-0.106 0.685,-0.229 -0.249,-0.364 -0.715,-0.461 -0.955,0.068 -0.951,-0.448 -1.468,0.149 -0.877,-0.387 -2.479,0.119 -0.328,-0.414 1.954,-0.214 0.247,-0.373 -0.297,-0.141 -1.959,0.192 -0.328,-0.419 -1.146,0.024 -0.738,-0.033 -0.636,-0.342 -2.35,0.238 -1.179,-0.625 -0.72,-0.836 -6.14,0.623 -1.965,-0.87 -1.62,0.701 -2.324,0.124 -0.598,-0.322 -0.825,0.033 -1.76,-0.892 -1.583,0.16 0.095,0.983 1.992,0.117 -1.485,0.726 0.136,1.337 -3.575,0.363 -1.187,-0.647 1.429,-0.711 -0.806,-0.484 -0.151,-1.614 0.294,-0.254 0.852,0.375 -0.063,-1.028 -3.98,0.404 -1.173,-0.655 1.15,-0.487 -0.146,-0.434 -2.414,0.18 -0.688,-0.368 -2.678,0.082 -0.632,-0.34 -1.535,1.202 -1.851,-0.877 -0.746,-0.019 -0.296,-0.16 -0.162,-1.596 -1.5,-0.807 0.179,-0.403 2.366,-0.24 0.924,0.452 2.31,-0.234 0.966,0.458 2.311,-0.235 1.598,0.858 0.81,-0.564 2.357,-0.239 1.757,0.89 0.749,-0.076 0.434,0.4 0.961,0.534 1.476,0.406 1.358,-0.244 0.237,-0.476 2.725,-0.263 0.37,0.299 -0.513,0.427 0.344,0.309 1.962,-0.064 0.249,0.272 0.247,0.043 0.123,-0.353 -0.629,-0.072 -0.025,-0.27 0.966,-0.391 0.528,-0.328 -0.652,-0.17 -1.324,-0.35 -1.657,-0.435 -5.566,0.565 -1.21,-0.767 1.306,-1.09 -1.026,-0.632 -1.689,-0.391 -1.49,0.037 -0.347,-0.048 -0.321,-0.424 0.387,-0.045 0.785,-0.613 0.768,-0.107 0.808,-0.598 0.757,-0.018 0.909,0.393 2.058,-0.222 0.568,-0.317 -0.83,-0.485 -0.109,-0.537 -1.215,-0.651 -1.557,0.15 -0.302,-0.14 0.255,-0.373 8.694,-0.909 0.253,-0.21 -0.382,-0.293 -3.941,0.35 -0.283,-0.147 0.401,-0.355 2.329,-0.314 0.242,-0.194 -1.597,-0.456 -0.057,-0.56 -1.073,-0.154 -2.379,1.915 -3.929,0.399 -0.947,-0.46 -1.518,0.132 -0.983,-0.383 -1.266,0.558 -0.526,-0.154 -0.064,-0.503 0.548,-0.455 -0.226,-0.374 -3.115,0.316 -0.927,-0.461 -0.771,0.079 -0.507,-1.181 0.373,-0.419 2.349,-0.239 0.43,0.404 0.246,0.46 0.601,0.318 0.671,0.251 2.104,0.23 1.661,0.401 0.793,-0.031 3.163,-0.328 0.386,-0.352 -0.668,-0.153 -0.413,0.044 -0.902,-0.45 -3.389,0.344 -1.335,-0.926 -1.006,0.009 -1.189,-0.573 -0.114,-1.121 -0.309,-0.157 h -0.925 l -1.63,-0.875 -0.04,0.064 -0.274,-0.142 0.042,-0.067 -0.952,-0.512 v -1.299 l 3.405,-0.507 0.282,-0.229 -0.806,-0.48 0.581,-0.315 4.745,-0.498 0.716,-0.175 0.19,-0.199 -0.285,-0.162 -1.879,-0.002 0.111,-0.371 1.833,-0.386 0.374,-0.97 0.874,-0.089 0.974,0.474 0.279,-0.78 -0.88,-0.537 0.685,-0.626 -1.036,-0.181 -1.243,-0.543 0.174,-0.402 0.812,-0.083 0.991,-0.885 -1.588,-0.959 -0.034,-0.261 1.606,-0.163 1.247,1.005 1.802,0.216 0.568,-0.474 0.878,0.391 0.765,-0.049 0.797,-0.623 1.125,0.133 0.192,0.973 0.484,0.336 1.049,-0.359 -0.791,-0.491 -0.051,-0.511 0.699,-0.642 -0.395,-0.113 -0.707,0.59 -1.742,-0.882 -1.548,0.157 -0.792,0.594 -1.226,-0.659 -0.052,-0.515 -0.831,-0.491 0.601,-0.547 0.278,-0.868 1.661,-0.169 1.578,-1.261 4.337,-0.44 0.297,0.409 1.799,-0.132 0.238,-0.192 -0.451,-0.262 -1.883,0.177 -0.036,-0.264 -0.289,-0.156 -2.254,-0.803 0.262,-0.696 6.442,-0.653 0.884,0.441 3.142,-0.319 0.922,0.46 1.523,-0.155 0.972,0.458 1.465,-0.149 1.016,0.445 1.788,-0.49 -1.194,-0.641 -0.812,0.033 -0.913,-0.438 -1.529,0.156 -0.462,-0.364 -0.53,-0.631 -0.739,0.075 -0.944,-0.459 -2.291,0.232 -0.994,-0.454 -2.236,0.227 -0.93,-0.397 -1.561,0.108 -0.692,-0.373 -0.757,0.015 -0.786,0.065 -0.562,-0.268 0.257,-0.727 0.79,-0.126 0.912,0.447 2.338,-0.238 0.933,0.459 2.316,-0.235 0.955,0.458 2.277,-0.231 0.806,0.361 2.458,-0.121 0.921,0.387 0.872,-0.067 0.57,-0.168 0.02,0.122 1.718,-0.133 0.691,0.371 2.622,-0.111 0.655,0.352 1.114,-0.107 0.685,-0.229 -0.249,-0.364 -0.715,-0.461 -0.955,0.068 -0.951,-0.448 -1.468,0.149 -0.877,-0.387 -2.479,0.12 -0.329,-0.415 1.955,-0.214 0.247,-0.373 -0.297,-0.141 -1.959,0.192 -0.328,-0.418 -1.147,0.024 -0.738,-0.034 -0.635,-0.342 -2.35,0.238 -1.179,-0.625 -0.72,-0.836 -6.14,0.623 -1.965,-0.87 -1.62,0.701 -2.324,0.124 -0.598,-0.322 -0.825,0.033 -1.76,-0.892 -1.583,0.16 0.095,0.983 1.991,0.117 -1.484,0.726 0.136,1.337 -3.575,0.363 -1.188,-0.647 1.429,-0.71 -0.806,-0.484 -0.151,-1.615 0.295,-0.254 0.852,0.375 -0.063,-1.028 -3.98,0.404 -1.173,-0.655 1.15,-0.487 -0.147,-0.434 -2.413,0.18 -0.688,-0.368 -2.678,0.082 -0.632,-0.34 -1.535,1.202 -1.851,-0.877 -0.746,-0.019 -0.296,-0.16 -0.162,-1.596 -1.5,-0.807 0.178,-0.403 2.367,-0.24 0.924,0.452 2.31,-0.234 0.966,0.458 2.311,-0.235 1.598,0.858 0.81,-0.564 2.357,-0.239 1.757,0.89 0.749,-0.076 0.434,0.401 0.961,0.533 1.476,0.406 1.358,-0.244 0.237,-0.476 2.724,-0.263 0.37,0.299 -0.512,0.427 0.344,0.309 1.962,-0.064 0.249,0.272 0.247,0.043 0.123,-0.353 -0.629,-0.071 -0.026,-0.271 0.967,-0.391 0.528,-0.328 -0.653,-0.17 -1.323,-0.349 -1.657,-0.436 -5.566,0.565 -1.211,-0.767 1.307,-1.09 -1.026,-0.632 -1.689,-0.391 -1.49,0.037 -0.347,-0.047 -0.321,-0.424 0.387,-0.046 0.785,-0.612 0.768,-0.107 0.808,-0.598 0.756,-0.019 0.909,0.394 2.059,-0.223 0.568,-0.317 -0.83,-0.485 -0.11,-0.537 -1.214,-0.651 -1.557,0.15 -0.302,-0.14 0.255,-0.373 8.694,-0.908996 0.253,-0.21 -0.382,-0.293 -3.941,0.35 -0.284,-0.147 0.402,-0.355 2.329,-0.314 0.242,-0.194 -1.597,-0.456 -0.057,-0.56 -1.073,-0.154 -2.379,1.916 -3.929,0.398 -0.947,-0.46 -1.518,0.132 -0.984,-0.383 -1.265,0.558 -0.526,-0.154 -0.064,-0.503 0.548,-0.455 -0.226,-0.374 -3.115,0.316 -0.927,-0.461 -0.771,0.079 -0.507,-1.181 0.373,-0.419001 2.349,-0.239 0.43,0.404 0.245,0.460001 0.601,0.318 0.672,0.251 2.104,0.23 1.66,0.401 0.794,-0.031 3.163,-0.328 0.386,-0.352 -0.668,-0.153 -0.413,0.044 -0.902,-0.45 -3.389,0.344 -1.336,-0.926001 -1.005,0.009 -1.19,-0.573 -0.113,-1.121 -0.309,-0.157 h -0.925 l -2.854,-1.531 v -1.3 l 3.406,-0.507 0.282,-0.228 -0.806,-0.481 0.581,-0.315 4.745,-0.498 0.715,-0.175 0.19,-0.199 -0.285,-0.162 -1.878,-0.002 0.11,-0.371 1.834,-0.386 0.374,-0.97 0.874,-0.089 0.974,0.474 0.279,-0.78 -0.881,-0.537 0.686,-0.625 -1.036,-0.182 -1.243,-0.543 0.174,-0.402 0.811,-0.083 0.991,-0.884 -1.587,-0.96 -0.034,-0.261 1.606,-0.163 1.247,1.005 1.801,0.216 0.568,-0.474 0.879,0.391 0.765,-0.048 0.797,-0.624 1.125,0.133 0.192,0.973 0.484,0.336 1.049,-0.359 -0.791,-0.491 -0.052,-0.51 0.7,-0.643 -0.664,-0.189 -1.505,0.037 -0.665,-0.355 -1.123,0.114 -0.394,0.035 -0.374,-0.305 0.248,-0.219 0.797,-0.08 -0.459,-1.26 0.432,-0.347 2.179,-0.235 0.991,0.424 2.694,0.019 -0.629,0.593 1.091,0.171 0.789,-0.616 0.885,0.44 0.774,-0.047 0.963,0.446 1.403,-0.143 1.095,0.372 1.436,0.422 2.652,-0.262 3.046,-0.231 0.772,0.414 c -0.127,-1.445 0.908,-3.108 2.513,-2.883 0.813,0.113 1.626,0.227 2.439,0.341 l -0.83,-0.393 0.264,-0.211 3.229,-0.336 0.851,0.422 2.348,-0.238 0.882,0.439 4.763,-0.484 1.338,-1.094 0.709,-0.182 0.345,0.06 2.402,1.282 0.792,-0.08 0.34,-0.458 -0.097,-1.339 0.432,-0.453 1.57,0.445 0.902,0.39 1.561,-0.11 0.744,0.399 2.291,-0.232 0.997,0.456 1.502,-0.153 0.939,0.461 1.552,-0.157 0.93,0.463 1.518,-0.154 0.318,0.148 c 0.71,-0.016 1.42,-0.032 2.131,-0.048 -1.725,-0.282 -3.45,-0.563 -5.175,-0.845 -2.891,-0.473 69.929,-7.029 103.364,-6.462 l 0.435,-0.338 3.146,-0.319 0.879,0.403 1.607,-0.163 0.347,-0.028 c 0.38,-1.139 1.469,-2.033 2.971,-1.611 0.371,0.104 0.743,0.208 1.114,0.312 l 0.101,-0.162 0.274,0.142 -0.067,0.106 c 0.226,0.064 0.452,0.127 0.678,0.191 l 3.959,-0.402 0.807,-0.625 1.555,-0.157 0.957,0.46 2.319,-0.235 0.638,0.338 1.075,-0.073 1.026,-0.728 -0.117,-0.617 -0.709,-0.559 0.269,-0.229 2.344,-0.245 0.266,-0.197 -0.016,-0.182 -0.594,-0.328 1.063,-0.471 0.837,-0.596 4.414,-0.444 1.544,0.612 -1.482,0.457 -0.756,0.41 1.075,0.102 0.91,0.447 1.097,0.111 0.454,1.756 1.814,-0.014 1.021,0.454 2.309,-0.355 0.526,-0.438 2.661,-0.24 0.634,0.34 0.798,-0.588 1.522,-0.154 0.829,-0.64 1.556,-0.158 -0.164,-0.509 -1.094,-0.167 -0.114,-1.121 1.875,-1.421 0.817,0.378 3.905,-0.396 0.925,0.453 1.087,0.098 -0.596,0.633 0.01,0.684 1.151,0.505 1.065,-0.144 0.59,-0.487 1.094,-0.111 0.876,0.786 -0.263,0.227 -2.476,0.251 -0.647,0.604 1.484,-0.15 0.839,-0.605 6.01,-0.614 0.113,-0.033 -3.67,0.371 -0.49,-0.3 0.288,-0.725 0.857,0.419 0.766,-0.605 1.548,-0.157 0.887,0.452 0.773,-0.07 0.017,0.009 0.016,-0.011 1.683,-0.17 0.395,-0.039 0.639,0.506 1.165,0.395 0.828,-0.616 2.353,-0.238 0.879,0.436 2.352,-0.238 0.779,-0.605 1.851,0.363 2.234,-0.324 0.252,-0.211 0.225,-0.738 0.961,0.307 1.463,-0.148 1.01,0.469 3.871,-0.381 0.368,0.299 -0.255,0.211 -12.346,1.257 0.712,0.033 0.669,0.359 6.252,-0.619 0.403,0.242 -0.314,0.288 0.467,-0.047 2.751,-0.229 0.285,0.158 -0.144,0.197 -1.549,0.746 -3.137,0.386 -2.773,0.286 -3.17,0.322 -1.365,0.138 -0.019,0.015 -2.29,0.232 -0.117,0.419 1.393,0.24 1.018,0.177 0.859,-0.087 0.786,-0.607 0.874,0.422 1.104,-0.389 0.428,1.248 1.513,-0.073 15.854,-1.601 1.145,-0.03 0.329,0.418 -4.24,0.444 -0.413,0.349 0.144,0.074 c 0.199,0.001 0.4,0.009 0.6,0.016 l 3.686,-0.418 0.223,-0.465 3.542,-0.359 0.796,-0.622 3.543,-0.36 -0.238,0.475 -1.519,0.257 -0.494,0.339 0.376,0.201 1.482,-0.139 0.433,0.277 -0.261,0.226 -1.546,0.157 -0.824,0.639 -4.26,0.432 c 1.087,0.239 2.178,0.539 3.27,0.88 l 0.327,-0.167 1.459,-0.146 0.602,0.543 -0.346,0.459 c 0.821,0.295 1.641,0.609 2.46,0.942 l 0.131,-0.098 3.895,-0.395 0.396,-0.208 c 0.631,-0.816 1.479,-1.611 2.533,-2.414 1.567,-1.194 3.316,-2.089 5.156,-2.727 l -0.125,-0.118 0.258,-0.201 1.419,-0.15 c 5,-1.288 10.512,-0.669 15.095,1.706 l 2.932,-0.359 0.598,-0.498 4.892,-0.594 0.627,-0.522 1.533,-0.155 0.833,-0.642 0.754,-0.077 0.823,-0.638 2.312,-0.234 0.816,-0.615 0.439,-0.045 0.977,0.326 1.37,0.187 0.059,0.585 -0.704,0.645 0.321,0.165 3.254,-0.323 0.754,-0.573 1.925,-0.195 0.394,-0.033 0.303,0.14 0.023,0.18 -0.591,0.961 -0.821,0.45 -0.888,0.51 -1.503,0.264 -2.373,0.258 -0.61,0.317 2.624,-0.005 3.168,-0.313 2.693,-0.363 0.611,-0.509 2.65,-0.276 3.022,-0.387 0.596,-0.496 0.893,0.433 1.978,-0.057 -0.734,0.707 0.577,0.237 0.96,-0.792 -0.455,-0.325 -0.297,0.033 0.17,-0.474 2.565,-0.412 0.58,-0.482 0.64,0.738 1.483,0.796 -0.291,0.371 -2.337,0.252 -0.252,1.379 -2.503,2.085 -0.351,0.092 -0.869,0.698 -0.66,0.537 -0.672,0.23 0.533,0.513 -0.199,0.905 -1.77,-0.814 -0.262,0.219 -1.319,0.3 -1.357,-0.327 -1.317,-0.708 0.278,-0.229 0.201,-0.402 -0.306,-0.127 -1.517,0.146 -0.469,-0.406 -0.944,-0.534 -5.027,0.512 -0.917,-0.427 -1.372,0.608 -1.82,0.328 -0.235,0.473 -1.102,0.126 -0.358,0.334 0.598,0.165 0.66,-0.175 0.202,-0.45 0.391,-0.033 1.238,0.653 -0.668,0.629 0.599,0.202 1.185,-0.094 0.559,0.214 -0.581,0.315 -0.769,0.397 1.056,0.117 1.778,0.902 0.801,-0.12 0.263,-0.217 1.627,-0.216 1.621,-0.19 1.151,-0.349 2.506,1.344 2.44,-0.248 1.046,-0.871 0.245,-0.762 0.983,0.341 3.033,-0.313 0.3,-0.163 0.537,-0.448 0.781,-0.079 0.911,0.445 0.739,-0.075 0.899,0.419 1.072,-0.893 -0.052,-0.536 1.591,-0.119 -0.01,0.523 -0.58,0.638 1.088,0.098 0.927,0.454 0.734,-0.075 0.878,0.42 2.315,-0.235 0.965,-0.594 0.976,-0.394 -1.494,-0.804 0.174,-0.405 1.571,-0.16 0.437,0.365 0.119,0.794 0.447,0.347 0.748,-0.076 0.779,-0.568 0.92,0.402 2.419,-0.156 0.599,0.322 1.273,0.257 -1.345,1.121 -0.471,0.916 -1.081,-0.143 0.667,-0.639 -0.057,-0.562 -1.27,-0.59 -2.542,0.328 -0.819,0.84 0.61,0.327 -0.699,0.43 -0.67,0.531 -0.175,0.499 -0.566,0.473 1.365,0.627 1.296,-0.132 1.541,-1.291 1.939,0.905 1.349,-1.124 2.4,-0.243 0.855,0.398 1.001,-0.067 0.671,0.463 0.249,0.364 -0.685,0.225 -0.651,0.316 0.798,0.486 -0.14,0.529 2.685,0.307 1.986,0.579 3.946,-0.4 0.93,0.462 3.136,-0.318 0.94698,0.462 2.324,-0.236 0.637,0.33 1.709,0.397 0.729,0.02 1.06,-0.049 0.717,0.386 1.515,-0.154 0.971,0.459 1.515,-0.154 0.943,0.462 3.128,-0.317 0.955,0.46 1.522,-0.154 1.892,0.868 2.174,0.295 1.517,-0.154 0.963,0.46 1.526,-0.155 0.942,0.462 0.739,-0.075 0.96,0.46 2.273,-0.231 0.949,0.421 4.434,-0.446 1.943,-0.113 0.3,0.152 -0.603,0.321 -11.842,1.102 -0.637,-0.342 -1.521,0.154 -0.937,-0.447 -0.77,0.573 -0.936,-0.448 -1.476,0.15 -1.026,-0.452 -1.512,0.154 -1.718,-0.438 -1.514,-0.812 -2.353,0.239 -0.894,-0.433 -0.794,0.598 -1.236,0.124 -0.586,0.311 0.536,0.227 0.724,0.031 2.241,0.221 0.937,0.423 2.288,-0.232 0.946,0.462 0.755,-0.077 0.93,0.463 3.108,-0.315 0.977,0.458 2.256,-0.229 0.928,0.404 1.476,-0.105 0.769,0.309 1.89,0.054 0.629,0.337 2.33,-0.237 0.943,0.463 0.755,-0.077 0.504,0.642 0.865,0.77 0.028,0.27 -1.237,0.922 -0.608,-0.325 -3.447,0.175 -0.654,-0.351 -1.54,0.157 -0.935,-0.463 -1.554,0.158 -0.932,-0.462 -2.307,0.234 -0.988,-0.458 -1.131,0.115 -1.303,-0.28 -0.522,0.435 -0.966,0.179 -1.372,-0.962 -1.808,0.183 -0.905,-0.448 -0.771,0.045 -0.97,-0.444 -1.498,0.152 -1.594,-0.856 -0.782,0.564 -0.884,-0.429 -0.746,0.076 -0.895,-0.425 -0.549,0.452 -1.06,0.149 -0.612,-0.301 -1.071,-0.108 -1.049,-0.638 0.646,-0.282 0.673,-0.239 -0.297,-0.356 -0.956,-0.47 -0.96098,0.296 -0.18,1.366 -0.321,0.143 -3.11,0.262 -1.562,-0.838 -1.556,0.158 0.019,1.044 0.76,-0.077 2.599,1.336 3.208,-0.23 0.92398,0.38 2.442,-0.131 0.636,0.342 1.524,-0.155 0.959,0.46 3.12,-0.316 1.83,0.929 3.915,-0.397 1.542,0.827 2.336,-0.15 0.508,0.23 -0.527,0.632 1.058,0.102 0.933,0.457 1.542,-0.157 1.215,0.652 0.073,0.521 -0.466,0.264 -2.336,-0.754 -1.538,0.168 -0.333,0.362 0.291,0.156 0.772,-0.069 0.917,0.454 0.797,-0.055 1.711,0.919 2.176,-1.321 2.349,-0.238 0.813,-0.631 0.501,1.173 -0.373,0.388 -0.97,-0.448 -1.003,0.34 0.06,0.596 0.827,0.486 0.052,0.512 -0.687,0.647 0.336,0.178 0.357,0.346 -0.652,0.266 -6.347,0.636 -0.328,-0.418 -1.683,0.044 -0.881,-0.391 -1.477,0.15 -0.963,-0.459 -0.734,0.074 -0.941,-0.462 -0.738,0.075 -0.957,-0.459 -1.45,0.147 -1.049,-0.41 -1.706,-0.353 -1.338,-0.373 -1.677,-0.412 -0.785,0.08 -0.904,-0.434 -0.772,0.569 -1.231,-0.658 0.222,-0.872 0.043,0.023 -0.01,-0.153 0.091,-0.328 -0.438,0.289 0.108,0.058 -0.772,0.062 -0.349,-0.678 -0.67398,-0.116 -0.035,-0.252 -1.261,-0.66 -1.235,0.126 -1.618,-0.702 0.228,-0.341 0.083,0.045 -0.01,-0.153 0.093,-0.328 -0.44,0.289 0.123,0.066 -1.716,0.213 -0.249,-0.273 -0.251,-0.042 -0.12,0.351 0.628,0.073 -0.01,-0.109 0.051,0.377 2.932,1.604 2.804,-0.284 -0.552,0.596 -1.49,0.25 -0.229,0.466 -3.55,0.36 -0.876,-0.423 -0.816,0.6 -0.807,0.013 -0.598,-0.319 -0.504,0.346 -3.089,0.764 1.223,0.657 0.779,-0.079 0.93,0.461 1.577,-0.16 1.682,0.419 2.139,0.26 1.844,0.864 0.8,-0.048 0.796,-0.622 2.35198,-0.239 0.877,0.435 1.561,-0.158 0.9,-0.661 1.048,0.133 0.056,0.553 1.38,0.287 0.967,0.344 0.389,-0.046 0.436,-0.354 -0.638,-0.504 1.012,-0.299 0.904,0.448 1.233,0.665 1.199,0.679 1.579,-0.11 0.932,0.398 2.241,-0.227 0.968,0.447 0.773,-0.592 1.964,-0.199 0.323,0.415 1.929,-0.1 0.738,0.022 0.599,0.323 1.803,-0.044 0.695,0.371 2.322,-0.235 0.944,0.456 1.525,-0.154 0.918,0.454 1.034,-0.299 -0.378,-0.338 -0.377,-0.408 -0.849,-0.771 1.245,-0.502 1.336,-1.114 1.742,0.882 1.548,-0.157 0.791,-0.594 1.227,0.658 0.052,0.516 0.83,0.491 -0.6,0.547 -0.278,0.868 -1.661,0.169 -1.579,1.261 -4.336,0.44 -0.298,-0.409 -1.798,0.132 -0.239,0.192 0.452,0.261 1.883,-0.176 0.036,0.263 0.289,0.157001 2.254,0.803 -0.262,0.696 -6.442,0.653 -0.884,-0.441 -3.142,0.319 -0.922,-0.46 -1.523,0.155 -0.972,-0.458 -1.466,0.149 -1.015,-0.445 -1.788,0.49 1.194,0.641 0.811,-0.033 0.914,0.437 1.529,-0.155 0.462,0.364 0.53,0.631 0.738,-0.075 0.944,0.458996 2.291,-0.231996 0.995,0.453996 2.236,-0.227 0.93,0.397 1.561,-0.108 0.692,0.373 0.757,-0.015 0.786,-0.066 0.561,0.269 -0.256,0.726 -0.79,0.127 -0.913,-0.447 -2.338,0.237 -0.932,-0.459 -2.317,0.235 -0.955,-0.458 -2.277,0.231 -0.806,-0.36 -2.457,0.121 -0.921,-0.388 -3.181,0.247 -0.69,-0.371 -2.622,0.111 -0.655,-0.352 -1.114,0.107 -0.685,0.229 0.249,0.364 0.715,0.461 0.955,-0.068 0.951,0.448 1.468,-0.149 0.877,0.387 2.479,-0.12 0.328,0.415 -1.954,0.214 -0.247,0.372 0.297,0.141 1.959,-0.191 0.328,0.418 1.146,-0.024 0.738,0.034 0.636,0.342 2.35,-0.239 1.179,0.626 0.72,0.835 6.14,-0.622 1.965,0.87 1.619,-0.701 2.325,-0.124 0.598,0.322 0.825,-0.033 1.76,0.892 1.583,-0.16 -0.095,-0.983 -1.992,-0.117 1.485,-0.726 -0.136,-1.338 3.575,-0.362 1.187,0.647 -1.429,0.71 0.806,0.484 0.151,1.614 -0.294,0.255 -0.852,-0.375 0.063,1.028 3.98,-0.404 1.173,0.655 -1.15,0.487 0.146,0.434 2.414,-0.18 0.688,0.368 2.678,-0.082 0.631,0.34 1.536,-1.202 1.85,0.877 0.747,0.019 0.295,0.16 0.162,1.596 1.501,0.807 -0.179,0.403 -2.366,0.24 -0.924,-0.452 -2.31,0.234 -0.966,-0.458 -2.311,0.234 -1.598,-0.857 -0.81,0.564 -2.357,0.239 -1.757,-0.89 -0.749,0.076 -0.434,-0.401 -0.961,-0.534 -1.476,-0.405 -1.358,0.244 -0.238,0.475 -2.724,0.263 -0.37,-0.298 0.513,-0.427 -0.344,-0.309 -1.962,0.064 -0.249,-0.272 -0.248,-0.043 -0.122,0.352 0.629,0.072 0.025,0.271 -0.966,0.391 -0.528,0.328 0.652,0.17 1.323,0.349 1.658,0.436 5.566,-0.565 1.21,0.767 -1.307,1.089 1.027,0.633 1.689,0.391 1.489,-0.037 0.348,0.047 0.321,0.424 -0.387,0.046 -0.785,0.612 -0.768,0.107 -0.808,0.598 -0.757,0.019 -0.909,-0.394 -2.058,0.223 -0.568,0.317 0.83,0.485 0.109,0.537 1.215,0.651 1.557,-0.151 0.302,0.141 -0.255,0.373 -8.694,0.909 -0.253,0.21 0.382,0.293 3.941,-0.35 0.283,0.147 -0.401,0.355 -2.329,0.314 -0.242,0.193 1.597,0.456 0.057,0.56 1.073,0.155 2.379,-1.916 3.929,-0.398 0.947,0.46 1.518,-0.132 0.983,0.383 1.266,-0.558 0.526,0.154 0.064,0.502 -0.548,0.456 0.226,0.374 3.115,-0.316 0.927,0.46 0.771,-0.078 0.507,1.181 -0.373,0.419 -2.349,0.238 -0.43,-0.403 -0.246,-0.46 -0.601,-0.318 -0.671,-0.251 -2.105,-0.23 -1.66,-0.401 -0.793,0.03 -3.163,0.329 -0.386,0.352 0.668,0.153 0.413,-0.044 0.902,0.45 3.389,-0.344 1.335,0.926 1.006,-0.009 1.189,0.573 0.114,1.121 0.308,0.157 h 0.926 l 1.63,0.875 0.04,-0.064 0.274,0.142 -0.042,0.067 0.952,0.511 -10e-4,1.3 -3.405,0.507 -0.282,0.228 0.805,0.481 -0.581,0.315 -4.744,0.498 -0.716,0.175 -0.19,0.199 0.285,0.162 1.879,0.002 -0.111,0.371 -1.833,0.386 -0.374,0.97 -0.874,0.089 -0.974,-0.474 -0.279,0.78 0.88,0.537 -0.685,0.625 1.036,0.182 1.243,0.543 -0.174,0.402 -0.812,0.083 -0.991,0.884 1.588,0.96 0.034,0.261 -1.606,0.163 -1.247,-1.005 -1.802,-0.217 -0.568,0.474 -0.878,-0.39 -0.765,0.048 -0.798,0.624 -1.124,-0.134 -0.192,-0.972 -0.484,-0.336 -1.049,0.359 0.791,0.491 0.051,0.51 -0.699,0.643 0.395,0.112 0.707,-0.589 1.742,0.882 1.548,-0.157 0.791,-0.594 1.227,0.658 0.052,0.516 0.831,0.491 -0.601,0.547 -0.278,0.868 -1.661,0.169 -1.578,1.261 -4.337,0.44 -0.298,-0.409 -1.798,0.132 -0.238,0.192 0.451,0.261 1.883,-0.176 0.036,0.263 0.289,0.157 2.254,0.803 -0.262,0.696 -6.442,0.653 -0.884,-0.441 -3.142,0.319 -0.922,-0.46 -1.523,0.154 -0.972,-0.457 -1.465,0.149 -1.016,-0.445 -1.788,0.49 1.194,0.641 0.811,-0.034 0.914,0.438 1.529,-0.155 0.462,0.364 0.53,0.631 0.739,-0.075 0.944,0.459 2.291,-0.232 0.994,0.454 2.236,-0.227 0.93,0.397 1.561,-0.108 0.692,0.372 0.757,-0.014 0.786,-0.066 0.562,0.269 -0.257,0.726 -0.79,0.127 -0.913,-0.447 -2.338,0.237 -0.932,-0.459 -2.317,0.235 -0.955,-0.458 -2.277,0.231 -0.806,-0.36 -2.457,0.121 -0.921,-0.388 -0.872,0.068 -0.57,0.168 -0.02,-0.122 -1.719,0.133 -0.69,-0.371 -2.622,0.11 -0.655,-0.351 -1.114,0.107 -0.685,0.229 0.249,0.364 0.715,0.461 0.955,-0.068 0.951,0.447 1.468,-0.149 0.877,0.387 2.479,-0.119 0.329,0.415 -1.955,0.214 -0.247,0.372 0.297,0.141 1.959,-0.191 0.328,0.418 1.147,-0.024 0.738,0.033 0.635,0.343 2.35,-0.239 1.179,0.626 0.72,0.835 6.14,-0.622 1.965,0.87 1.62,-0.701 2.324,-0.124 0.598,0.322 0.825,-0.033 1.76,0.892 1.583,-0.16 -0.095,-0.983 -1.992,-0.117 1.485,-0.726 -0.136,-1.338 3.575,-0.362 1.187,0.647 -1.428,0.71 0.806,0.484 0.151,1.614 -0.295,0.255 -0.852,-0.375 0.063,1.028 3.98,-0.404 1.173,0.655 -1.15,0.487 0.146,0.434 2.414,-0.181 0.688,0.369 2.678,-0.082 0.631,0.34 1.536,-1.202 1.851,0.877 0.746,0.019 0.296,0.16 0.162,1.596 1.5,0.807 z"
           style="fill:#dcab07;fill-opacity:1;fill-rule:nonzero;stroke:none"
           id="path8832" /></g></g></g></svg>
