<?xml version="1.0" encoding="UTF-8" standalone="no"?>
<svg
   xmlns:dc="http://purl.org/dc/elements/1.1/"
   xmlns:cc="http://creativecommons.org/ns#"
   xmlns:rdf="http://www.w3.org/1999/02/22-rdf-syntax-ns#"
   xmlns:svg="http://www.w3.org/2000/svg"
   xmlns="http://www.w3.org/2000/svg"
   width="210mm"
   height="297mm"
   viewBox="0 0 210 297"
   version="1.1"
   id="svg8">
  <defs
     id="defs2" />
  <metadata
     id="metadata5">
    <rdf:RDF>
      <cc:Work
         rdf:about="">
        <dc:format>image/svg+xml</dc:format>
        <dc:type
           rdf:resource="http://purl.org/dc/dcmitype/StillImage" />
        <dc:title></dc:title>
      </cc:Work>
    </rdf:RDF>
  </metadata>
  <g
     id="layer1">
    <g
       id="g92">
      <path
         style="fill:#333333;fill-opacity:1;stroke-width:0.254807"
         d="m 109.63915,290.22119 c 0.0122,-0.2978 0.0724,-0.35835 0.15345,-0.15445 0.0734,0.18454 0.0644,0.405 -0.02,0.48994 -0.0844,0.0849 -0.14443,-0.066 -0.1334,-0.33549 z m -5.08,-44.9885 c 0.0122,-0.29778 0.0724,-0.35835 0.15345,-0.15444 0.0734,0.18453 0.0644,0.40499 -0.02,0.48994 -0.0844,0.0849 -0.14443,-0.066 -0.1334,-0.3355 z m 17.1399,-75.64928 c -0.27118,-0.20642 -0.3709,-0.37531 -0.2216,-0.37531 0.14929,0 0.41373,0.17254 0.58764,0.38343 0.39553,0.47962 0.27111,0.47685 -0.36604,-0.008 z M 36.741146,144.00859 c 0.01219,-0.29778 0.07237,-0.35834 0.153457,-0.15443 0.07337,0.18451 0.06435,0.40499 -0.02004,0.48992 -0.0844,0.0849 -0.144435,-0.066 -0.133406,-0.33549 z M 156.62915,106.6886 c 0.0122,-0.29779 0.0724,-0.35836 0.15346,-0.15444 0.0734,0.18452 0.0644,0.40499 -0.02,0.48993 -0.0844,0.0849 -0.14444,-0.066 -0.13341,-0.33549 z M 43.292693,92.842704 c -0.315943,-0.405423 -0.306959,-0.414464 0.0959,-0.09651 0.423101,0.333929 0.557652,0.543839 0.3486,0.543839 -0.05274,0 -0.252768,-0.201298 -0.4445,-0.447329 z M 123.60915,54.798462 c 0.0122,-0.29778 0.0724,-0.358349 0.15345,-0.154436 0.0734,0.184522 0.0644,0.404991 -0.02,0.489932 -0.0844,0.08494 -0.14443,-0.06604 -0.1334,-0.335496 z M 83.731151,38.183395 c 0.0122,-0.297781 0.0724,-0.358349 0.15345,-0.154436 0.0734,0.184522 0.0643,0.404991 -0.02,0.489932 -0.0844,0.08494 -0.14443,-0.06604 -0.1334,-0.335496 z"
         id="path44" />
      <path
         style="fill:#333333;fill-opacity:1;stroke-width:0.254807"
         d="m 141.06747,262.07787 c 0.18336,-0.0739 0.40243,-0.0648 0.48683,0.0202 0.0844,0.0849 -0.0656,0.14537 -0.33337,0.13427 -0.2959,-0.0123 -0.35608,-0.0729 -0.15346,-0.15445 z m 64.53122,-19.44394 c -0.31593,-0.40543 -0.30696,-0.41448 0.0959,-0.0965 0.24447,0.19295 0.4445,0.39424 0.4445,0.44732 0,0.21038 -0.20859,0.075 -0.54041,-0.35081 z m -8.128,-7.15726 c -0.31593,-0.40543 -0.30696,-0.41447 0.0959,-0.0965 0.24447,0.19295 0.4445,0.39424 0.4445,0.44732 0,0.21038 -0.20859,0.075 -0.54041,-0.35081 z M 163.1807,205.82516 c -0.31595,-0.40542 -0.30696,-0.41447 0.0959,-0.0965 0.24447,0.19295 0.4445,0.39425 0.4445,0.44733 0,0.21038 -0.20859,0.075 -0.5404,-0.35082 z m -25.14601,-19.93809 c -0.31594,-0.40541 -0.30695,-0.41446 0.0959,-0.0965 0.4231,0.33393 0.55765,0.54384 0.3486,0.54384 -0.0528,0 -0.25277,-0.20129 -0.44451,-0.44733 z m 1.01601,-30.92958 c -0.31595,-0.40543 -0.30696,-0.41446 0.0959,-0.0965 0.24447,0.19296 0.4445,0.39425 0.4445,0.44733 0,0.21039 -0.20859,0.075 -0.5404,-0.35082 z M 42.631427,140.14631 c 0.247134,-0.0648 0.590034,-0.0606 0.762,0.009 0.171966,0.07 -0.03023,0.12304 -0.449334,0.11783 -0.4191,-0.005 -0.5598,-0.0625 -0.312666,-0.1273 z m 96.979723,-2.52813 c 0.0122,-0.29778 0.0724,-0.35835 0.15346,-0.15443 0.0734,0.18451 0.0644,0.40499 -0.02,0.48992 -0.0844,0.0849 -0.14443,-0.066 -0.1334,-0.33549 z M 75.550691,78.272568 c -0.31594,-0.405423 -0.30696,-0.414464 0.0959,-0.09651 0.24448,0.192953 0.4445,0.39425 0.4445,0.447329 0,0.210383 -0.20858,0.07497 -0.5404,-0.350819 z M 69.019198,72.07387 c 0,-0.351473 0.05765,-0.495257 0.128115,-0.319521 0.07046,0.175737 0.07046,0.463305 0,0.639041 -0.07046,0.175737 -0.128115,0.03195 -0.128115,-0.31952 z M 93.891151,54.287229 c 0.0122,-0.29778 0.0724,-0.358349 0.15345,-0.154436 0.0734,0.184522 0.0644,0.404991 -0.02,0.489933 -0.0844,0.08494 -0.14443,-0.06604 -0.1334,-0.335497 z m -8.85113,-13.909794 c 0,-0.492062 0.0523,-0.69336 0.11616,-0.447329 0.0639,0.246031 0.0639,0.648627 0,0.894657 -0.0639,0.246031 -0.11616,0.04473 -0.11616,-0.447328 z"
         id="path42" />
      <path
         style="fill:#333333;fill-opacity:1;stroke-width:0.254807"
         d="m 113.4692,273.24399 c 0,-0.35147 0.0576,-0.49526 0.12811,-0.31952 0.0705,0.17573 0.0705,0.4633 0,0.63904 -0.0705,0.17573 -0.12811,0.0319 -0.12811,-0.31952 z m -7.64005,-27.24444 c 0.0122,-0.2978 0.0724,-0.35835 0.15345,-0.15445 0.0734,0.18453 0.0644,0.405 -0.02,0.48994 -0.0844,0.0849 -0.14443,-0.066 -0.1334,-0.33549 z m 7.366,-8.17974 c 0.0122,-0.29778 0.0724,-0.35834 0.15345,-0.15443 0.0734,0.18452 0.0644,0.40499 -0.02,0.48993 -0.0844,0.0849 -0.14443,-0.066 -0.1334,-0.3355 z m 89.66199,-67.22711 c 0.0122,-0.29778 0.0724,-0.35835 0.15346,-0.15444 0.0734,0.18452 0.0644,0.40499 -0.0201,0.48993 -0.0844,0.0849 -0.14445,-0.066 -0.13343,-0.33549 z m -6.858,-0.25562 c 0.0122,-0.29778 0.0724,-0.35834 0.15346,-0.15443 0.0734,0.18451 0.0644,0.40499 -0.0201,0.48992 -0.0844,0.0849 -0.14445,-0.066 -0.13343,-0.33549 z m -35.53994,-4.96322 c 0,-0.35148 0.0576,-0.49525 0.12812,-0.31952 0.0705,0.17574 0.0705,0.46331 0,0.63904 -0.0705,0.17574 -0.12812,0.032 -0.12812,-0.31952 z m -23.44051,-0.19172 c -0.31594,-0.40542 -0.30695,-0.41446 0.0959,-0.0965 0.4231,0.33394 0.55765,0.54384 0.34859,0.54384 -0.0527,0 -0.25276,-0.20129 -0.4445,-0.44733 z M 73.063151,98.764489 c 0.0122,-0.297783 0.0724,-0.358357 0.15345,-0.154437 0.0734,0.184517 0.0644,0.404991 -0.02,0.489928 -0.0844,0.08494 -0.14443,-0.06602 -0.1334,-0.335491 z M 144.18315,79.593254 c 0.0122,-0.297781 0.0724,-0.358349 0.15346,-0.154436 0.0734,0.184521 0.0644,0.404994 -0.02,0.489933 -0.0844,0.08494 -0.14443,-0.06604 -0.1334,-0.335497 z m -12.00568,-9.227697 c 0.18336,-0.07384 0.40243,-0.06476 0.48683,0.02017 0.0844,0.08494 -0.0656,0.145353 -0.33337,0.134255 -0.2959,-0.01227 -0.35608,-0.07283 -0.15346,-0.154434 z m 8.42963,-1.711211 c 0,-0.05308 0.20002,-0.254376 0.4445,-0.447328 0.40285,-0.317954 0.41184,-0.308913 0.0959,0.09651 -0.33182,0.425793 -0.5404,0.561201 -0.5404,0.350818 z m -29.6779,-0.670339 c 0,-0.351472 0.0576,-0.495256 0.12811,-0.31952 0.0705,0.175736 0.0705,0.463305 0,0.639041 -0.0705,0.175736 -0.12811,0.03195 -0.12811,-0.319521 z m 14.15149,-8.371437 c -0.31594,-0.405423 -0.30695,-0.414464 0.0959,-0.09651 0.42311,0.333929 0.55766,0.543839 0.3486,0.543839 -0.0527,0 -0.25276,-0.201298 -0.4445,-0.447329 z m -0.67067,-2.875684 c 0,-0.492062 0.0523,-0.69336 0.11616,-0.447329 0.0639,0.246031 0.0639,0.648627 0,0.894657 -0.0639,0.246031 -0.11616,0.04473 -0.11616,-0.447328 z M 85.040021,38.843736 c 0,-0.492061 0.0523,-0.693359 0.11616,-0.447328 0.0639,0.24603 0.0639,0.648626 0,0.894657 -0.0639,0.246031 -0.11616,0.04473 -0.11616,-0.447329 z m 4.25907,-7.513335 c 0,-0.05525 0.17739,-0.168963 0.3942,-0.25269 0.22604,-0.08729 0.32799,-0.04444 0.23901,0.100456 -0.14917,0.242889 -0.63321,0.359256 -0.63321,0.15223 z"
         id="path40" />
      <path
         style="fill:#333333;fill-opacity:1;stroke-width:0.254807"
         d="m 105.5952,250.23851 c 0,-0.35147 0.0577,-0.49526 0.12811,-0.31952 0.0705,0.17573 0.0705,0.4633 0,0.63904 -0.0705,0.17574 -0.12811,0.0319 -0.12811,-0.31952 z m 58.6015,-43.39088 c -0.31595,-0.40543 -0.30696,-0.41447 0.0959,-0.0965 0.24447,0.19295 0.4445,0.39424 0.4445,0.44733 0,0.21038 -0.20859,0.075 -0.5404,-0.35082 z m -50.74755,-25.00781 c 0.0122,-0.29778 0.0724,-0.35835 0.15345,-0.15444 0.0734,0.18452 0.0644,0.40499 -0.02,0.48993 -0.0844,0.0849 -0.14443,-0.066 -0.1334,-0.33549 z m 47.98595,-19.11864 c 0,-0.053 0.20002,-0.25437 0.4445,-0.44733 0.40286,-0.31795 0.41184,-0.30891 0.0959,0.0965 -0.33182,0.4258 -0.5404,0.56121 -0.5404,0.35082 z M 49.791649,150.53111 c -0.09208,-0.14995 -0.112949,-0.32745 -0.04637,-0.39446 0.06658,-0.067 0.188738,0.0557 0.271463,0.27263 0.17175,0.45042 0.02537,0.52965 -0.225095,0.12183 z M 30.592693,96.67695 c -0.315943,-0.405423 -0.306959,-0.414464 0.0959,-0.09651 0.244475,0.192952 0.4445,0.39425 0.4445,0.447328 0,0.210383 -0.208582,0.07497 -0.5404,-0.350818 z M 92.367151,29.23682 c 0.0122,-0.29778 0.0724,-0.358348 0.15345,-0.154435 0.0734,0.184522 0.0644,0.404991 -0.02,0.489932 -0.0844,0.08494 -0.14443,-0.06604 -0.1334,-0.335497 z"
         id="path38" />
      <path
         style="fill:#333333;fill-opacity:1;stroke-width:0.254807"
         d="m 113.4692,306.72974 c 0,-0.35147 0.0576,-0.49526 0.12811,-0.31952 0.0705,0.17573 0.0705,0.4633 0,0.63904 -0.0705,0.17573 -0.12811,0.0319 -0.12811,-0.31952 z m -4.572,-25.81726 c 0,-0.35147 0.0576,-0.49526 0.12811,-0.31952 0.0705,0.17573 0.0705,0.4633 0,0.63904 -0.0705,0.17573 -0.12811,0.0319 -0.12811,-0.31952 z m -3.302,-39.87616 c 0,-0.35147 0.0577,-0.49526 0.12811,-0.31952 0.0705,0.17573 0.0705,0.4633 0,0.63904 -0.0705,0.17573 -0.12811,0.032 -0.12811,-0.31952 z m -0.52805,-8.07322 c 0.0122,-0.29778 0.0724,-0.35834 0.15345,-0.15444 0.0734,0.18453 0.0644,0.405 -0.02,0.48994 -0.0844,0.0849 -0.14443,-0.066 -0.1334,-0.3355 z m -2.75513,-3.1739 c 0,-0.49206 0.0523,-0.69336 0.11616,-0.44733 0.0639,0.24603 0.0639,0.64862 0,0.89466 -0.0639,0.24603 -0.11616,0.0448 -0.11616,-0.44733 z m 50.20068,-33.16623 c -0.31595,-0.40542 -0.30696,-0.41447 0.0959,-0.0965 0.24447,0.19296 0.4445,0.39426 0.4445,0.44733 0,0.21039 -0.20859,0.075 -0.5404,-0.35081 z m -33.39274,-18.78781 -0.48387,-0.57514 0.5715,0.48695 c 0.53707,0.45761 0.68714,0.66332 0.48387,0.66332 -0.0482,0 -0.30537,-0.2588 -0.5715,-0.57513 z m -6.23127,-6.26261 c -0.31594,-0.40541 -0.30695,-0.41446 0.0959,-0.0965 0.24448,0.19296 0.4445,0.39426 0.4445,0.44733 0,0.21039 -0.20858,0.075 -0.5404,-0.35082 z m -10.29693,-10.19929 c 0,-0.25165 0.0856,-0.26528 0.33867,-0.0539 0.18626,0.15556 0.33866,0.30711 0.33866,0.33676 0,0.0297 -0.1524,0.0539 -0.33866,0.0539 -0.18627,0 -0.33867,-0.15155 -0.33867,-0.33677 z m 31.96885,-12.48666 c 0.005,-0.42177 0.0621,-0.56336 0.1265,-0.31465 0.0644,0.2487 0.0602,0.59378 -0.009,0.76685 -0.0696,0.17305 -0.12227,-0.0304 -0.11709,-0.4522 z m 40.65882,-1.0718 c 0.24713,-0.0648 0.59003,-0.0606 0.762,0.009 0.17197,0.07 -0.0302,0.12305 -0.44933,0.11783 -0.4191,-0.005 -0.5598,-0.0625 -0.31267,-0.1273 z m 4.72527,-0.5258 c -0.31595,-0.40543 -0.30696,-0.41446 0.0959,-0.0965 0.24447,0.19296 0.4445,0.39425 0.4445,0.44732 0,0.21039 -0.20859,0.075 -0.5404,-0.35081 z m -2.032,-2.04494 c -0.31595,-0.40542 -0.30696,-0.41446 0.0959,-0.0965 0.24447,0.19296 0.4445,0.39426 0.4445,0.44733 0,0.21039 -0.20859,0.075 -0.5404,-0.35082 z m -2.032,-2.04493 c -0.31595,-0.40542 -0.30696,-0.41446 0.0959,-0.0965 0.24447,0.19296 0.4445,0.39426 0.4445,0.44733 0,0.21039 -0.20859,0.075 -0.5404,-0.35082 z m -2.032,-2.04493 c -0.31595,-0.40542 -0.30696,-0.41446 0.0959,-0.0965 0.24447,0.19296 0.4445,0.39426 0.4445,0.44733 0,0.21039 -0.20859,0.075 -0.5404,-0.35082 z m -2.032,-2.04493 c -0.31595,-0.40542 -0.30696,-0.41446 0.0959,-0.0965 0.24447,0.19295 0.4445,0.39425 0.4445,0.44733 0,0.21039 -0.20859,0.075 -0.5404,-0.35082 z m -2.032,-2.04493 c -0.31595,-0.40542 -0.30696,-0.41446 0.0959,-0.0965 0.4231,0.33393 0.55765,0.54384 0.3486,0.54384 -0.0528,0 -0.25277,-0.20129 -0.4445,-0.44733 z M 118.73069,86.196677 c -0.31594,-0.405423 -0.30695,-0.414465 0.0959,-0.09651 0.42311,0.33393 0.55766,0.54384 0.3486,0.54384 -0.0527,0 -0.25276,-0.201298 -0.4445,-0.44733 z m -2.032,-2.044931 c -0.31594,-0.405424 -0.30695,-0.414465 0.0959,-0.09651 0.42311,0.333929 0.55766,0.54384 0.3486,0.54384 -0.0527,0 -0.25276,-0.201298 -0.4445,-0.44733 z m -2.032,-2.044931 c -0.31594,-0.405424 -0.30695,-0.414465 0.0959,-0.09651 0.42311,0.333929 0.55766,0.54384 0.3486,0.54384 -0.0527,0 -0.25276,-0.201298 -0.4445,-0.44733 z m -2.032,-2.044931 c -0.31594,-0.405424 -0.30695,-0.414465 0.0959,-0.09651 0.24448,0.192952 0.4445,0.39425 0.4445,0.447329 0,0.210382 -0.20858,0.07497 -0.5404,-0.350817 z M 29.322693,78.016951 c -0.315943,-0.405422 -0.306959,-0.414464 0.0959,-0.09651 0.4231,0.33393 0.557652,0.543839 0.3486,0.543839 -0.05274,0 -0.252768,-0.201298 -0.4445,-0.447329 z m 81.279997,0 c -0.31594,-0.405422 -0.30695,-0.414464 0.0959,-0.09651 0.24448,0.192952 0.4445,0.39425 0.4445,0.447329 0,0.210382 -0.20858,0.07497 -0.5404,-0.350819 z m -7.31354,-2.257943 c 0.0122,-0.297781 0.0724,-0.358349 0.15345,-0.154437 0.0734,0.184522 0.0644,0.404994 -0.02,0.489934 -0.0844,0.08494 -0.14443,-0.06604 -0.1334,-0.335497 z M 92.093091,69.676812 c 0,-0.05308 0.20003,-0.254377 0.4445,-0.447329 0.40286,-0.317953 0.41185,-0.308912 0.0959,0.09651 -0.33181,0.425793 -0.5404,0.5612 -0.5404,0.350819 z m 1.54406,-9.254789 c 0.0122,-0.29778 0.0724,-0.358349 0.15345,-0.154436 0.0734,0.184522 0.0644,0.404993 -0.02,0.489932 -0.0844,0.08494 -0.14443,-0.06604 -0.1334,-0.335496 z m -1.32246,-0.809453 c -0.31594,-0.405423 -0.30696,-0.414464 0.0959,-0.09651 0.24448,0.192952 0.4445,0.39425 0.4445,0.447329 0,0.210382 -0.20858,0.07497 -0.5404,-0.350819 z m 2.64505,-7.860204 c 0.002,-0.702945 0.0512,-0.960175 0.10962,-0.571623 0.0584,0.388552 0.0568,0.963689 -0.003,1.278082 -0.0603,0.314393 -0.10805,-0.0035 -0.10615,-0.706459 z m -1.78147,-5.495754 c 0,-0.632651 0.0495,-0.891462 0.11008,-0.575137 0.0605,0.316325 0.0605,0.83395 0,1.150275 -0.0605,0.316325 -0.11008,0.05751 -0.11008,-0.575138 z m -7.64907,-2.556164 c 0,-0.351473 0.0576,-0.495257 0.12811,-0.319521 0.0705,0.175737 0.0705,0.463305 0,0.639041 -0.0705,0.175737 -0.12811,0.03195 -0.12811,-0.31952 z m -1.29005,-2.194039 c 0.0122,-0.297781 0.0724,-0.358349 0.15345,-0.154437 0.0734,0.184522 0.0644,0.404991 -0.02,0.489933 -0.0844,0.08494 -0.14443,-0.06604 -0.1334,-0.335496 z"
         id="path32" />
      <g
         id="g73"
         transform="translate(-276.36455,5.273032)"
         style="fill:#000000">
        <path
           style="fill:#000000;fill-opacity:1;stroke-width:0.254807"
           d="m 390.39334,296.50304 c -0.40902,-0.30098 -0.48716,-0.77367 -0.55959,-3.38486 -0.0463,-1.66926 -0.31256,-4.53037 -0.59169,-6.35803 -0.27914,-1.82766 -0.62545,-4.76085 -0.7696,-6.51822 -0.14414,-1.75736 -0.42749,-4.59128 -0.62965,-6.29759 -0.5568,-4.69959 -0.45113,-7.39767 0.24531,-6.26363 0.17604,0.28664 0.80901,5.66474 1.1625,9.87725 0.38334,4.5682 0.92906,8.22385 1.67697,11.23365 0.34752,1.39848 0.69877,3.584 0.78056,4.85671 0.1336,2.07883 0.0985,2.35929 -0.34534,2.75931 -0.42571,0.38367 -0.55982,0.39687 -0.96947,0.0954 z m 42.29391,-22.11368 c -0.20955,-0.1174 -1.09825,-0.28499 -1.97487,-0.3724 -0.87663,-0.0875 -1.90928,-0.32307 -2.29478,-0.52371 -0.3855,-0.20061 -1.13334,-0.44638 -1.66187,-0.54618 -0.73727,-0.13918 -1.11357,-0.41348 -1.6165,-1.17829 -0.64276,-0.97747 -0.65198,-1.05518 -0.47379,-3.99425 0.27785,-4.58277 0.45541,-5.38275 1.35137,-6.0884 0.42202,-0.33239 1.00151,-1.10576 1.28775,-1.71857 0.47231,-1.01119 0.59132,-1.10375 1.28713,-1.00096 0.51733,0.0764 1.01734,-0.0664 1.5373,-0.43898 0.73785,-0.52874 0.85919,-0.53855 2.85568,-0.231 1.98396,0.30567 2.1445,0.38072 3.31018,1.54766 0.78757,0.78842 1.44498,1.22642 1.84078,1.22642 0.55962,0 0.60278,0.08 0.47402,0.8785 -0.10125,0.62787 0.007,1.12016 0.3778,1.72541 0.88831,1.44823 1.15555,3.01393 0.80537,4.71846 -0.42197,2.054 -1.62718,4.3934 -2.41958,4.69659 -0.34711,0.13279 -0.74494,0.54277 -0.88408,0.91107 -0.19097,0.50547 -0.36106,0.62237 -0.69394,0.47687 -0.7943,-0.34717 -2.02839,-0.42519 -2.20397,-0.13928 -0.2026,0.32992 -0.38762,0.34035 -0.904,0.051 z m -42.86457,-11.55547 c -0.86454,-0.3234 -1.21084,-1.28493 -0.78571,-2.18155 0.66764,-1.4081 2.75627,-0.90438 2.75627,0.66475 0,1.2072 -0.91514,1.91163 -1.97056,1.5168 z m -5.90344,-0.86853 c 0,-0.21088 0.1143,-0.38342 0.254,-0.38342 0.1397,0 0.254,0.17254 0.254,0.38342 0,0.21088 -0.1143,0.38343 -0.254,0.38343 -0.1397,0 -0.254,-0.17255 -0.254,-0.38343 z m 2.5681,-0.69249 c -0.47057,-1.24557 -1.46186,-11.04066 -1.15464,-11.40913 0.0402,-0.0482 0.27166,0.29687 0.51437,0.76684 0.3087,0.59778 0.49725,1.81445 0.62758,4.04971 0.10247,1.75737 0.33261,3.97427 0.51143,4.92647 0.24335,1.29585 0.2523,1.80455 0.0356,2.02267 -0.21672,0.21809 -0.3511,0.12842 -0.53432,-0.35656 z m 28.18556,-3.9086 c 0.004,-1.03402 0.56673,-3.12073 0.94459,-3.50098 0.22546,-0.22691 0.38038,-0.23261 0.58989,-0.0217 0.35071,0.35293 -0.38576,2.90232 -1.08007,3.7388 l -0.45716,0.55077 0.003,-0.76684 z m 29.24785,-4.79281 c -2.03622,-3.43874 -3.4915,-6.37411 -6.30466,-12.71692 -1.77709,-4.00679 -3.38447,-7.51196 -3.57196,-7.78927 -0.42998,-0.636 -0.44527,-1.49054 -0.0242,-1.34928 0.43067,0.14448 2.09435,3.09332 2.6308,4.66309 0.23983,0.70174 0.94283,2.42715 1.56224,3.83425 0.61941,1.40708 1.52323,3.65109 2.00849,4.98669 0.82388,2.26757 1.27928,3.21312 2.9554,6.13624 0.72991,1.27295 1.51675,3.06595 1.34546,3.06595 -0.0603,0 -0.33106,-0.37384 -0.60162,-0.83075 z m -27.26089,-2.55293 c -0.1654,-0.31811 -0.73783,-1.06044 -1.27206,-1.64964 -1.07973,-1.19079 -1.37817,-2.01671 -1.14773,-3.17621 0.47718,-2.40106 2.31158,-4.06006 4.48934,-4.06006 2.37559,0 3.79674,1.70488 3.79744,4.55557 2.6e-4,1.28092 -0.13699,1.85191 -0.66214,2.75373 -0.80274,1.37849 -1.24001,1.63728 -2.76646,1.63728 -0.64702,0 -1.39269,0.11647 -1.65704,0.25885 -0.38792,0.20895 -0.53864,0.1473 -0.78135,-0.31952 z m -15.1581,-3.14903 c -1.20928,-0.85241 -0.35748,-3.18542 1.15988,-3.17681 0.83069,0.005 1.15479,0.20215 1.53958,0.93786 0.70841,1.35444 -0.0143,2.63687 -1.48598,2.63687 -0.35693,0 -0.903,-0.17906 -1.21348,-0.39792 z m -24.27118,-1.56181 c -0.0931,-0.0937 -0.16934,-0.38129 -0.16934,-0.63905 0,-0.53511 0.90738,-0.65988 1.08442,-0.1491 0.24356,0.70268 -0.42652,1.27981 -0.91508,0.78815 z m 6.56482,-0.0801 c -0.0937,-0.15261 -0.21774,-0.8201 -0.2756,-1.48329 -0.0579,-0.66319 -0.21504,-2.4136 -0.34927,-3.88979 -0.34488,-3.79251 -0.0934,-7.26363 0.56912,-7.8545 0.50613,-0.45142 0.50736,-0.43934 0.34198,3.38121 -0.0955,2.20556 -0.0639,4.19042 0.0743,4.67274 0.34698,1.21091 0.40579,5.25119 0.078,5.36112 -0.1475,0.0495 -0.34485,-0.0349 -0.43857,-0.18749 z m -30.0589,-1.98616 c -0.31392,-0.61428 -0.0993,-1.08637 0.49388,-1.08637 0.62141,0 0.8903,0.65136 0.47618,1.15351 -0.41184,0.4994 -0.69037,0.48013 -0.97006,-0.0671 z m 40.34274,-3.67382 c 0,-0.45329 0.0627,-0.4902 0.381,-0.22433 0.20955,0.17502 0.381,0.41916 0.381,0.54252 0,0.12338 -0.17145,0.22433 -0.381,0.22433 -0.21899,0 -0.381,-0.2307 -0.381,-0.54252 z m -0.381,-2.26926 c -0.0863,-0.14059 -0.0359,-0.25562 0.11201,-0.25562 0.14795,0 0.26899,0.11503 0.26899,0.25562 0,0.14059 -0.0504,0.25561 -0.112,0.25561 -0.0616,0 -0.18266,-0.11502 -0.269,-0.25561 z m 16.51834,-1.07397 c -0.21579,-0.73128 -0.67847,-1.63012 -1.02818,-1.99747 -0.3497,-0.36732 -1.08139,-1.76571 -1.62597,-3.1075 -0.54459,-1.34178 -1.22734,-2.9075 -1.51724,-3.47937 -0.2899,-0.57185 -0.59941,-1.659 -0.6878,-2.41586 -0.12271,-1.0507 -0.29808,-1.46321 -0.74156,-1.74433 -1.68816,-1.07015 -3.70783,-3.03802 -4.29902,-4.18874 -1.01113,-1.96816 -0.89167,-2.96184 0.54845,-4.56187 1.09775,-1.21964 1.11125,-1.24929 0.16128,-0.35428 l -1.03673,0.97675 -0.53785,-0.97675 c -1.47253,-2.67419 -4.39569,-8.81904 -4.26017,-8.95542 0.29101,-0.29286 1.11404,0.7189 1.56209,1.92029 0.24648,0.66092 0.84364,2.00686 1.32702,2.99099 1.37457,2.79853 2.41291,3.66032 2.75544,2.28694 0.1598,-0.64078 -0.027,-2.75752 -0.32051,-3.63205 -0.10807,-0.32199 -0.038,-0.29509 0.25448,0.0977 0.22196,0.29808 0.51162,1.02596 0.64369,1.61751 0.13208,0.59155 0.29403,1.12978 0.35991,1.19608 0.0659,0.0663 0.5618,-0.18283 1.10206,-0.55359 0.88031,-0.60415 1.1721,-0.66471 2.81089,-0.58346 2.08105,0.10318 2.78951,0.49554 3.99708,2.21364 1.27603,1.8155 1.24151,5.39009 -0.0639,6.61632 l -0.68181,0.64047 0.5715,0.3854 c 0.91994,0.62041 0.6725,0.8343 -0.96512,0.8343 -1.67003,0 -3.03539,0.53172 -3.03539,1.18211 0,0.22117 0.15112,0.7646 0.33581,1.20761 0.1847,0.44301 0.77175,2.1283 1.30456,3.74507 1.02632,3.1143 2.98507,7.64327 3.74605,8.66154 0.55148,0.73791 0.58825,1.3075 0.0844,1.3075 -0.22769,0 -0.52283,-0.51395 -0.76351,-1.32958 z m 79.1769,0.48643 c -0.52428,-0.46374 -1.77701,-1.44871 -2.78384,-2.18882 -1.00683,-0.74011 -2.37843,-1.94563 -3.048,-2.67895 -0.66957,-0.73332 -2.05272,-2.00165 -3.0737,-2.81849 -1.02098,-0.81686 -2.79263,-2.37963 -3.937,-3.47283 -3.29507,-3.14771 -4.80205,-4.40232 -7.46567,-6.21543 -1.36896,-0.93184 -3.41638,-2.53409 -4.54983,-3.56055 -1.13343,-1.02646 -2.56218,-2.26237 -3.17499,-2.74645 -0.61281,-0.48408 -1.96903,-1.85082 -3.01381,-3.0372 -1.04478,-1.18638 -2.35026,-2.44334 -2.90105,-2.79326 -1.21308,-0.77065 -1.65511,-1.19729 -2.44904,-2.36377 l -0.60893,-0.89465 0.88131,0.66222 c 0.48473,0.36424 1.45282,1.08047 2.15132,1.59164 0.6985,0.51117 2.0701,1.81215 3.048,2.89107 0.9779,1.07891 2.63525,2.60088 3.683,3.38213 1.04775,0.78126 2.87655,2.23853 4.064,3.2384 1.18745,0.99986 2.78765,2.26573 3.556,2.81304 1.78897,1.27434 4.52272,3.64457 7.80278,6.76527 2.11724,2.01437 2.53867,2.53428 2.286,2.8202 -0.26048,0.29475 -0.24001,0.29747 0.1287,0.0171 0.37734,-0.28696 0.58989,-0.21562 1.524,0.51152 0.59702,0.46474 1.9081,1.62068 2.91348,2.56877 1.00538,0.94808 2.9623,2.46457 4.34871,3.37 1.38643,0.90538 2.60251,1.77929 2.70241,1.94197 0.21905,0.3567 -0.29444,1.04024 -0.78146,1.04024 -0.19202,0 -0.7781,-0.37941 -1.30239,-0.84314 z m -96.45724,-1.20178 c -0.20714,-0.33729 0.0966,-0.81596 0.39856,-0.62813 0.30851,0.19189 0.3065,0.88375 -0.003,0.88375 -0.13145,0 -0.30965,-0.11503 -0.39599,-0.25562 z m -48.133,-2.70526 c -0.34925,-0.19504 -0.9779,-0.35673 -1.397,-0.35933 -0.99334,-0.006 -2.1773,-0.7484 -3.06767,-1.92316 -0.54126,-0.71414 -0.73618,-1.2902 -0.80745,-2.38622 -0.0835,-1.28463 0.0196,-1.66546 0.93001,-3.43529 l 1.02395,-1.99049 -0.54435,-0.43787 c -1.54141,-1.23989 -1.78584,-1.604 -1.62386,-2.41905 0.0871,-0.43838 0.34621,-1.00588 0.57575,-1.26115 0.57679,-0.64139 1.97839,-0.60321 2.6495,0.0722 0.53938,0.5428 0.5527,0.9839 0.0867,2.87137 l -0.17867,0.72366 1.24005,-0.18077 c 0.68203,-0.0994 1.37397,-0.2879 1.53765,-0.41883 0.18552,-0.1484 0.47247,-0.13869 0.762,0.0258 0.25542,0.14511 0.87915,0.42759 1.38608,0.62771 0.85918,0.3392 0.96846,0.51173 1.61164,2.54448 0.74566,2.35667 0.72629,3.05985 -0.13501,4.90085 -0.2996,0.64039 -0.86995,1.26126 -1.52632,1.66151 -0.57639,0.35147 -1.14842,0.89785 -1.2712,1.21418 -0.25266,0.65099 -0.36402,0.66616 -1.25179,0.17042 z m 37.33232,-5.91261 c -0.89232,-4.26244 -1.1293,-5.94514 -1.19826,-8.50843 -0.0473,-1.75736 0.0213,-3.35575 0.15235,-3.55198 0.80437,-1.20413 2.01448,1.70836 2.32547,5.59691 0.11805,1.47619 0.33713,3.08654 0.48685,3.57857 0.37368,1.22811 0.11768,7.42143 -0.32519,7.86713 -0.26924,0.27095 -0.53078,-0.63317 -1.44122,-4.9822 z m -9.25396,3.28594 c -0.0824,-0.26138 -0.0779,-0.66397 0.0101,-0.89466 0.32624,-0.85559 1.37558,-0.25908 1.37558,0.78196 0,0.45236 -0.14246,0.58792 -0.61788,0.58792 -0.3792,0 -0.67578,-0.18358 -0.76776,-0.47522 z m 21.70218,-0.59606 c -0.002,-0.32463 -0.0789,-0.87779 -0.17105,-1.22927 -0.15047,-0.57378 -0.12417,-0.60321 0.25747,-0.28822 0.46356,0.38261 0.57879,1.69613 0.17104,1.94973 -0.14104,0.0877 -0.25554,-0.1045 -0.25746,-0.43224 z m -3.61979,-1.9941 c -0.22025,-0.56428 -0.63979,-1.11505 -0.93231,-1.22396 -0.49944,-0.18593 -0.46556,-0.26346 0.55608,-1.27251 l 1.08793,-1.07451 -0.0147,2.15668 c -0.008,1.18618 -0.0781,2.22048 -0.15561,2.29847 -0.0775,0.078 -0.32109,-0.3199 -0.54134,-0.88417 z m -3.54422,-1.6009 c -0.80934,-0.67265 -1.28889,-1.82286 -1.07928,-2.58865 0.66645,-2.4348 1.40656,-3.01942 3.15509,-2.49222 0.8936,0.26944 2.29766,1.78726 2.29766,2.48382 0,0.39741 -2.89623,3.1736 -3.30936,3.17219 -0.2055,-7.6e-4 -0.68435,-0.2595 -1.06411,-0.57514 z m 24.19114,-2.28743 c -0.27217,-0.45041 -0.44075,-0.87337 -0.37461,-0.93992 0.19192,-0.19315 1.63505,1.30276 1.48792,1.54233 -0.25298,0.41194 -0.62051,0.21308 -1.11331,-0.60241 z m -17.98466,-0.82319 c -0.22044,-0.48689 -0.20197,-0.68524 0.0862,-0.92595 0.30821,-0.25742 0.36676,-0.15848 0.36676,0.61964 0,1.08979 -0.0752,1.14067 -0.45299,0.30631 z m -36.79464,-0.49751 c -0.92603,-0.8016 -0.98227,-2.2973 -0.11303,-3.00565 1.7328,-1.41206 4.18575,0.6972 3.01146,2.58952 -0.29628,0.47744 -0.39574,0.42548 -1.84141,-0.96204 l -1.52821,-1.46673 1.39691,1.47892 c 1.14325,1.21035 1.32773,1.52297 1.01591,1.7215 -0.61955,0.39445 -1.1975,0.28862 -1.94163,-0.35552 z m 36.23163,-0.48338 c 0,-0.0367 -0.51858,-1.26912 -1.1524,-2.73861 -1.07756,-2.49824 -1.13616,-2.74801 -0.90226,-3.84557 0.13758,-0.6456 0.18297,-1.8288 0.10087,-2.62934 -0.0996,-0.97109 -0.0572,-1.45554 0.12729,-1.45554 0.32767,0 1.666,2.75593 2.05395,4.22956 0.4338,1.64783 0.74798,5.82204 0.46566,6.18681 -0.21298,0.27517 -0.69311,0.45022 -0.69311,0.25269 z m 4.318,-1.74379 c 0,-0.62295 0.59354,-0.53489 0.71713,0.1064 0.0486,0.25222 -0.081,0.42614 -0.3175,0.42614 -0.23562,0 -0.39963,-0.21855 -0.39963,-0.53254 z m 1.016,-2.79047 c 0,-0.14059 0.1143,-0.25562 0.254,-0.25562 0.1397,0 0.254,0.11503 0.254,0.25562 0,0.14059 -0.1143,0.25561 -0.254,0.25561 -0.1397,0 -0.254,-0.11502 -0.254,-0.25561 z m -1.016,-0.49615 c 0,-0.1323 0.1143,-0.31162 0.254,-0.39851 0.1397,-0.0868 0.254,0.0213 0.254,0.24052 0,0.21919 -0.1143,0.39852 -0.254,0.39852 -0.1397,0 -0.254,-0.10824 -0.254,-0.24053 z m -1.397,-3.84933 c -0.0863,-0.14059 -0.0427,-0.25562 0.097,-0.25562 0.1397,0 0.32463,0.11503 0.41097,0.25562 0.0863,0.14059 0.0427,0.25562 -0.097,0.25562 -0.1397,0 -0.32464,-0.11503 -0.41098,-0.25562 z m -13.29897,-3.36023 c -0.49435,-1.34486 0.67583,-2.31369 1.52294,-1.26088 0.60219,0.7484 0.276,1.65276 -0.63574,1.76258 -0.50928,0.0614 -0.72509,-0.0607 -0.8872,-0.5017 z m 29.58478,-0.68111 c -0.20175,-0.3285 0.12388,-1.34018 0.38007,-1.18084 0.29717,0.18484 0.28922,1.06227 -0.0113,1.24921 -0.13004,0.0809 -0.29598,0.0501 -0.36874,-0.0683 z m -12.19043,-0.95306 c -0.0871,-0.22845 -0.15113,-0.54974 -0.14227,-0.71398 0.009,-0.16424 0.12561,-0.0231 0.25945,0.31364 0.13385,0.33673 0.19787,0.65802 0.14228,0.71397 -0.0556,0.0559 -0.17235,-0.0852 -0.25946,-0.31363 z m -5.33166,-3.10879 c -0.0884,-0.089 -0.16072,-0.36858 -0.16072,-0.62138 0,-0.54735 0.90273,-1.12449 1.1441,-0.73147 0.18701,0.30452 -0.74754,1.59019 -0.98338,1.35285 z m 55.74423,-2.79726 c -0.32414,-0.22849 -1.34819,-0.78747 -2.27565,-1.2422 -2.11289,-1.03592 -3.67834,-2.27776 -6.26096,-4.96671 -2.38946,-2.48783 -4.4571,-4.22063 -8.67967,-7.27405 -2.18539,-1.58029 -3.08379,-2.3785 -3.05842,-2.71733 0.0264,-0.35289 0.1197,-0.4098 0.35271,-0.21518 0.17424,0.14553 0.45376,0.1794 0.62116,0.0753 0.19256,-0.11977 0.23779,-0.0809 0.12314,0.1058 -0.10465,0.17041 -0.0281,0.29512 0.1812,0.29512 0.19935,0 1.23106,0.6614 2.29271,1.46979 1.06165,0.80838 2.76268,2.06992 3.78006,2.80341 1.01737,0.73349 3.38636,2.896 5.26442,4.80559 2.78463,2.8314 3.76876,3.65805 5.334,4.48044 2.43229,1.27796 3.53677,2.15458 3.17901,2.52314 -0.18649,0.19213 -0.43791,0.14998 -0.85371,-0.1431 z m -18.99904,-1.15685 c -0.63603,-0.68496 -1.71508,-2.99338 -1.50027,-3.20956 0.41494,-0.41758 2.26602,2.46992 2.13378,3.3285 -0.069,0.44769 -0.11546,0.43896 -0.63351,-0.11894 z m -34.45981,-0.78744 c -0.39863,-1.49692 0.0927,-2.06299 0.57706,-0.6648 0.36299,1.04793 0.35176,1.23994 -0.0725,1.23994 -0.19326,0 -0.4203,-0.25882 -0.50453,-0.57514 z m -1.27077,-3.25234 c -0.22754,-0.57231 -1.16547,-2.71043 -2.08426,-4.75137 -1.35007,-2.99891 -1.67673,-3.97669 -1.7028,-5.09693 -0.0177,-0.76239 0.0488,-1.46767 0.14775,-1.5673 0.33635,-0.33848 1.3847,0.95455 2.16465,2.66985 0.93673,2.06013 2.59602,7.4977 2.6637,8.72912 0.0734,1.33581 -0.66046,1.34608 -1.18904,0.0166 z m -12.35133,0.37666 c 0,-0.21088 0.1143,-0.38342 0.254,-0.38342 0.1397,0 0.254,0.17254 0.254,0.38342 0,0.21088 -0.1143,0.38342 -0.254,0.38342 -0.1397,0 -0.254,-0.17254 -0.254,-0.38342 z m 9.4309,-0.27159 c -1.05237,-1.34639 -1.27838,-3.41249 -0.30722,-2.80846 0.38753,0.24104 1.08054,1.64034 1.30387,2.63272 0.23414,1.04041 -0.25358,1.12641 -0.99665,0.17574 z m -9.7484,-0.51493 c -0.10477,-0.10635 -0.1905,-0.42724 -0.1905,-0.7131 0,-0.37621 0.0767,-0.44254 0.27782,-0.24016 0.15281,0.15377 0.23853,0.47466 0.1905,0.71309 -0.048,0.23843 -0.17304,0.3465 -0.27782,0.24017 z m 19.04471,-2.30751 c -0.10186,-0.10251 -0.18173,-0.42603 -0.17748,-0.71892 0.007,-0.4917 0.028,-0.4975 0.27197,-0.0756 0.28413,0.49132 0.21145,1.10238 -0.0945,0.79449 z m -11.5611,-1.44355 c -0.15693,-0.31611 -0.46193,-1.02021 -0.67777,-1.56466 -0.32471,-0.81906 -0.32987,-0.93765 -0.0299,-0.6871 0.35088,0.29305 1.2456,2.5723 1.07654,2.74244 -0.046,0.0462 -0.21194,-0.17456 -0.36887,-0.49068 z m 9.5536,-3.06191 c -1.10845,-2.10076 -6.20328,-12.7071 -7.28737,-15.17076 -0.63929,-1.45282 -0.79732,-2.15855 -0.80135,-3.57863 -0.004,-1.29366 -0.20544,-2.34091 -0.75101,-3.8978 -0.70551,-2.01331 -1.12896,-4.32551 -1.35887,-7.42001 l -0.10172,-1.36916 6.63281,6.60926 6.6328,6.60926 -6.90529,-7.02942 c -5.79086,-5.89495 -7.00466,-7.25871 -7.52099,-8.4502 -0.50075,-1.15556 -1.03781,-1.7792 -2.87699,-3.34079 -2.01795,-1.71338 -3.65608,-2.68953 -3.97494,-2.36864 -0.0618,0.0622 -0.27156,-0.091 -0.46609,-0.34039 -0.32751,-0.41993 -0.31608,-0.42642 0.1543,-0.0876 0.2794,0.20122 -0.83512,-1.00606 -2.47671,-2.68284 l -2.98472,-3.0487 13.01741,-13.16538 13.01741,-13.16539 -13.08011,13.10007 -13.0801,13.10006 -13.84359,-13.86691 -13.84359,-13.86692 13.78722,13.93974 13.78722,13.93973 -0.73099,0.70478 c -0.72814,0.70204 -0.73409,0.70301 -1.52685,0.24699 -1.11712,-0.64261 -1.71432,-0.23939 -1.63949,1.10695 0.0303,0.54527 0.13054,2.22376 0.22274,3.72997 l 0.16764,2.73857 -0.66724,0.30595 c -0.36699,0.16828 -0.66725,0.46365 -0.66725,0.65637 0,0.19273 0.51435,1.12202 1.143,2.06508 0.85418,1.28139 1.143,1.95959 1.143,2.68397 0,0.62581 0.13502,1.02145 0.381,1.11645 0.23269,0.0899 0.381,0.47712 0.381,0.99483 0,0.51686 0.23426,1.12968 0.60025,1.57025 0.33013,0.39741 0.68813,1.01012 0.79556,1.3616 0.10742,0.35147 0.72313,1.43351 1.36825,2.40452 2.00411,3.01654 3.26531,5.11122 3.45508,5.73847 0.33062,1.09276 -0.61333,0.24447 -1.74517,-1.56831 -0.57473,-0.92049 -2.13951,-3.03517 -3.47729,-4.69928 -2.44181,-3.03747 -3.04768,-4.03046 -5.19926,-8.52143 -0.63987,-1.3356 -1.46576,-2.74722 -1.83531,-3.13695 l -0.6719,-0.70859 2.40238,-2.48661 2.40238,-2.48662 -2.53998,2.48429 -2.53999,2.48429 -1.10035,-0.82278 c -0.6052,-0.45253 -1.72084,-1.36916 -2.47919,-2.03696 -1.55588,-1.37007 -2.05624,-1.47626 -2.86648,-0.60832 -0.68823,0.73725 -0.69608,0.91128 -0.18596,4.12304 0.22329,1.40589 0.40666,2.70675 0.40748,2.89078 0.003,0.65776 -0.4527,0.0376 -0.57282,-0.77957 -0.20316,-1.38217 -1.01384,-4.3901 -1.27515,-4.73127 -0.14183,-0.18517 -0.81659,-0.31952 -1.60477,-0.31952 -1.1466,0 -1.42132,0.0941 -1.75046,0.59964 -0.21473,0.32981 -0.67625,0.73071 -1.0256,0.8909 -0.34935,0.16018 -0.76129,0.56979 -0.91543,0.91024 -0.25094,0.55427 -0.35879,0.59143 -1.0315,0.35542 -0.53537,-0.18781 -0.83331,-0.18097 -1.03681,0.0239 -0.15706,0.15805 -0.66275,0.28736 -1.12376,0.28736 -0.71173,0 -0.8382,-0.0911 -0.8382,-0.60389 0,-0.33214 -0.3429,-1.03812 -0.762,-1.56885 -0.4191,-0.53072 -0.762,-1.15975 -0.762,-1.39784 0,-0.23809 -0.29798,-0.59338 -0.66218,-0.78953 -0.61575,-0.33164 -0.70401,-0.30771 -1.25868,0.34124 -0.32807,0.38384 -0.66765,1.12878 -0.75461,1.65543 -0.25479,1.54305 -0.39322,1.80977 -0.62966,1.21317 -0.21984,-0.55472 -0.0646,-1.64298 0.28992,-2.03215 0.12167,-0.13356 0.22121,-0.55261 0.22121,-0.93121 0,-1.10477 -1.2611,-1.35365 -2.37819,-0.46935 l -0.6687,0.52935 -0.25455,-0.67379 c -0.34691,-0.91824 -0.31852,-1.40571 0.13255,-2.27615 0.21118,-0.40754 0.35336,-0.75262 0.31593,-0.76685 -0.91959,-0.34967 -1.08056,-0.65281 -0.99967,-1.88259 0.13173,-2.00257 -1.17169,-3.89466 -2.68294,-3.89466 -0.34377,0 -0.94433,-0.1898 -1.33457,-0.42178 -0.67411,-0.40075 -0.7544,-0.39388 -1.60847,0.13731 -1.21375,0.75493 -4.02248,1.33329 -5.0436,1.03856 -1.00074,-0.28882 -1.73379,-0.95203 -1.73379,-1.56857 0,-0.26381 -0.17145,-0.54585 -0.381,-0.62677 -0.50296,-0.19424 -0.48288,-0.60016 0.0491,-0.99159 0.39288,-0.28911 0.31569,-0.54808 -0.89298,-2.99568 -1.39009,-2.81499 -1.68517,-3.1918 -3.04081,-3.88306 -0.46021,-0.23466 -1.0535,-0.79492 -1.31844,-1.245 -0.78686,-1.33675 -0.9793,-1.45739 -2.32494,-1.45739 -1.10035,0 -1.3874,-0.11022 -1.99689,-0.76685 -0.3915,-0.42176 -0.80883,-0.76193 -0.92741,-0.75595 -0.11857,0.006 -0.70606,0.44456 -1.30553,0.97459 -0.84577,0.74779 -1.17227,1.27503 -1.45748,2.35355 -0.4978,1.88241 -0.46787,2.60823 0.16902,4.09814 0.29843,0.69814 0.4741,1.33829 0.39038,1.42254 -0.0837,0.0842 -0.6708,-0.38377 -1.30461,-1.04006 -1.33527,-1.38263 -1.41131,-1.88592 -0.62504,-4.1371 0.29003,-0.8304 0.53076,-2.08495 0.53496,-2.7879 0.0132,-2.20605 1.98616,-7.53207 3.34723,-9.03578 0.29891,-0.33024 1.09191,-0.88137 1.76222,-1.22472 1.22351,-0.62673 1.87041,-1.42927 3.22801,-4.00467 l 0.61882,-1.17389 -0.61556,-0.6594 -0.61555,-0.6594 2.34511,-2.35695 c 6.96828,-7.0035 6.51988,-6.49672 6.14777,-6.94795 -0.31226,-0.37864 -0.46069,-0.30552 -1.52885,0.75328 -1.84045,1.82431 -2.75888,1.0186 -1.60492,-1.40796 0.53386,-1.12259 0.58402,-1.4257 0.33578,-2.02884 -0.59272,-1.44005 -2.23448,-1.74749 -3.62641,-0.67905 l -0.87741,0.67349 -0.71917,-1.04437 c -0.39554,-0.5744 -1.12905,-1.2548 -1.63002,-1.512 -1.15507,-0.59303 -2.84403,-2.40793 -4.52411,-4.86151 -1.94691,-2.84325 -2.37089,-3.276429 -3.62917,-3.707897 -1.08707,-0.372757 -4.55606,-3.202378 -4.55606,-3.716328 0,-0.124452 0.23938,-0.355208 0.53196,-0.512787 0.43366,-0.233565 0.63315,-0.192351 1.0795,0.223004 0.98989,0.921155 3.66669,2.346066 4.40726,2.346066 0.66304,0 1.77287,0.56025 2.12497,1.072701 0.33144,0.48237 1.89682,1.483461 2.31966,1.483461 0.60331,0 0.58626,-0.662469 -0.0494,-1.917123 -0.2794,-0.551514 -0.508,-1.165057 -0.508,-1.363428 0,-0.691006 0.77128,0.244472 1.651,2.002469 0.99276,1.983902 1.17934,2.163412 2.96468,2.852052 2.18541,0.84297 2.40242,0.85281 2.87292,0.13016 0.47978,-0.73689 0.32544,-1.19847 -0.73428,-2.196011 -1.25132,-1.177898 -0.69272,-1.875057 0.72603,-0.90614 3.01411,2.058451 0.97132,-2.880538 -2.64636,-6.398278 -0.86749,-0.843534 -1.94821,-2.108835 -2.40158,-2.81178 -0.45338,-0.702945 -1.01469,-1.435951 -1.24737,-1.628901 -0.46928,-0.389165 -0.5764,-1.310688 -0.15235,-1.310688 0.88353,0 2.53068,1.943142 5.81182,6.856172 1.64228,2.459065 1.87034,2.660639 3.05918,2.703882 0.57283,0.02083 0.98667,0.410913 2.23841,2.10987 1.52932,2.075724 2.5955,3.858704 2.13682,3.573414 -0.13257,-0.0824 -0.41872,0.0487 -0.63589,0.29138 -0.36009,0.40246 -0.34072,0.50444 0.22006,1.15851 0.3382,0.39446 0.61491,0.65461 0.61491,0.57812 0,-0.0765 0.84266,0.73972 1.87257,1.81382 1.91811,2.00039 2.735,2.40342 3.75635,1.85334 0.60648,-0.32665 0.59227,-0.80717 -0.0409,-1.38385 -0.2794,-0.25446 -0.508,-0.67489 -0.508,-0.93428 0,-0.54047 0.27238,-0.60648 0.7052,-0.17091 0.22906,0.23052 0.40874,0.20056 0.76991,-0.12837 0.25911,-0.23599 0.56577,-0.34254 0.68147,-0.23679 0.1157,0.10575 0.14291,0.002 0.0605,-0.22985 -0.26393,-0.7433 0.54791,-0.36886 1.36612,0.6301 0.95717,1.1686 1.96149,1.26476 2.93867,0.28135 0.59708,-0.60087 0.64353,-0.79252 0.51119,-2.10884 -0.0801,-0.79633 -0.50007,-2.34653 -0.93334,-3.44486 -0.92726,-2.350579 -1.34092,-5.396105 -0.69928,-5.148315 0.4171,0.161071 0.64115,0.648291 1.34629,2.927613 0.66741,2.157352 1.32453,3.323012 1.87329,3.323012 0.71127,0 0.76088,-0.48424 0.2017,-1.968771 -0.30468,-0.808855 -0.43725,-1.584861 -0.33845,-1.981031 0.22623,-0.90708 0.66075,-0.81535 0.66075,0.139488 0,0.574536 0.13825,0.827159 0.50557,0.92383 0.38783,0.102065 0.47014,0.275069 0.35346,0.742918 -0.11902,0.477238 -0.0494,0.611839 0.31994,0.618924 0.98513,0.01892 1.72127,0.696642 2.11427,1.946542 0.23806,0.75713 0.53805,1.23961 0.77076,1.23961 0.30891,0 0.41028,-0.58044 0.53574,-3.067401 0.14565,-2.887239 0.20754,-3.164979 1.05371,-4.728902 0.49444,-0.913828 0.97778,-2.150373 1.07409,-2.747876 0.10994,-0.681998 0.30862,-1.08637 0.53379,-1.08637 0.46517,0 0.45491,0.221635 -0.14375,3.106657 -0.49948,2.407092 -0.47759,3.398165 0.13181,5.967722 0.29467,1.24249 1.12043,2.42836 1.69094,2.42836 0.43907,0 0.48925,-0.10584 0.33327,-0.70295 -0.27219,-1.042 -0.20487,-2.348589 0.14272,-2.770085 0.21065,-0.255435 0.56539,-0.322127 1.13815,-0.213993 0.69867,0.131904 0.89856,0.05505 1.24643,-0.47926 0.62754,-0.963834 0.75566,-2.288581 0.31692,-3.276804 -0.21108,-0.475442 -0.80794,-2.129743 -1.32634,-3.676222 -1.13987,-3.400412 -1.92391,-4.997695 -2.67874,-5.457201 -0.54714,-0.333073 -0.27631,-0.637035 7.91445,-8.88267 4.66453,-4.695789 8.54915,-8.537799 8.63247,-8.537799 0.0833,0 0.29779,0.661408 0.4766,1.469795 0.4668,2.11052 1.20404,3.871702 2.00505,4.789799 0.38273,0.438689 0.83331,1.165207 1.00129,1.614489 0.16797,0.449282 0.43306,1.160716 0.58908,1.580964 0.31218,0.84085 1.81082,2.313952 2.96528,2.914746 1.02351,0.532646 1.63092,0.06382 2.36815,-1.827824 0.49012,-1.257576 0.5744,-1.967932 0.58893,-4.964097 0.0161,-3.313273 0.0403,-3.475296 0.46146,-3.091682 0.24448,0.222654 0.4445,0.599888 0.4445,0.838296 0,1.518333 1.19034,2.810308 2.58922,2.810308 0.42236,0 2.53755,1.949528 7.69611,7.093356 l 7.11367,7.093356 -7.03625,-7.15726 -7.03626,-7.15726 0.9645,-0.60156 c 2.26088,-1.41011 3.00011,-4.786274 2.3044,-10.524458 -0.14444,-1.191321 -0.42306,-2.683658 -0.61915,-3.316309 -0.1961,-0.632651 -0.55241,-2.390172 -0.7918,-3.905604 -0.3908,-2.473786 -0.39542,-2.787218 -0.0453,-3.067397 0.41535,-0.332368 0.75003,-1.650894 0.45002,-1.772942 -0.0985,-0.04005 -0.24241,-0.561715 -0.31992,-1.159252 -0.0775,-0.597534 -0.0467,-1.027852 0.0684,-0.956261 0.2812,0.174898 0.7586,2.476833 0.75756,3.652874 -7.6e-4,0.93744 0.29077,2.308216 1.80529,8.486664 2.491,10.162061 2.69135,10.670564 3.77458,9.580437 0.59074,-0.594503 1.41798,-3.65005 1.84979,-6.832561 0.37929,-2.795405 0.84519,-2.999423 0.58372,-0.255616 -0.10382,1.089565 -0.18115,2.309136 -0.17184,2.71016 0.0253,1.090552 0.81973,2.280423 1.87003,2.800958 1.18634,0.587951 1.77786,0.307 2.17711,-1.034055 0.58507,-1.965235 1.3632,-9.2845 1.65586,-15.575516 0.16461,-3.538398 0.37742,-6.511872 0.4729,-6.60772 0.39143,-0.392931 0.71539,0.236555 0.71539,1.390072 0,0.675048 -0.18396,2.825022 -0.4088,4.777721 -0.48145,4.181219 -0.37388,6.185698 0.38398,7.155297 0.67969,0.869584 0.68063,2.03382 0.004,4.464274 -0.84155,3.021096 -0.8465,3.118502 -0.18891,3.722054 0.51249,0.470383 3.06372,1.377515 7.05524,2.508617 0.62156,0.176137 1.17833,0.481543 1.23727,0.678679 0.0589,0.197137 0.51656,0.789783 1.01694,1.316992 1.10831,1.167751 1.93852,1.253098 2.48642,0.255617 0.21237,-0.38662 1.10948,-2.02576 1.99358,-3.642534 0.88411,-1.616774 1.7766,-3.097751 1.98332,-3.291061 1.44333,-1.349693 1.55552,-1.426253 1.32925,-0.907083 -0.11787,0.27044 -0.26311,1.009329 -0.32277,1.64198 -0.07,0.74222 -0.31932,1.37697 -0.70287,1.789315 -0.78934,0.848608 -2.40425,4.170877 -2.40425,4.946132 0,0.338157 0.14287,0.730937 0.3175,0.872845 0.51217,0.416215 2.2813,0.604027 3.18215,0.337817 1.07758,-0.318438 2.7488,-1.655395 3.16387,-2.531075 0.20459,-0.431631 0.56458,-0.714282 0.97051,-0.762028 0.43184,-0.05079 0.79942,-0.363936 1.11129,-0.946726 0.54534,-1.019085 1.33156,-1.916965 1.67857,-1.916965 0.48215,0 0.22683,0.823683 -0.77189,2.490123 -0.5588,0.932399 -1.016,1.845985 -1.016,2.030192 0,0.184208 -0.38448,0.766607 -0.85439,1.294222 -1.19174,1.338081 -1.63443,2.310936 -1.98336,4.358663 l -0.30179,1.771136 1.20983,3.186548 c 1.19849,3.156696 1.53611,3.826925 3.13621,6.225834 0.75703,1.134977 0.8255,1.404267 0.8255,3.247118 0,1.105226 -0.12957,2.527346 -0.28794,3.160266 -0.20753,0.829423 -0.21147,1.319629 -0.0141,1.755514 0.25626,0.566001 0.20116,0.629663 -0.85971,0.993434 -1.08546,0.372213 -1.18984,0.362301 -2.46236,-0.23393 -1.46885,-0.688213 -2.22682,-0.772275 -3.06006,-0.339386 -0.80585,0.418668 -9.03749,8.660662 -9.46449,9.476402 -0.50268,0.96032 -0.45156,1.90033 0.17408,3.20094 0.38384,0.79796 0.48654,1.34539 0.36282,1.93392 -0.0949,0.45151 -0.23193,1.35773 -0.30448,2.01384 l -0.13191,1.19291 4.04198,4.09487 c 2.47286,2.5052 4.30964,4.16246 4.73144,4.26899 1.38947,0.35096 2.14197,-0.061 4.662,-2.55213 l 2.44734,-2.4193 0.57436,1.42217 c 0.31589,0.78219 0.98535,2.04511 1.48767,2.80647 1.19176,1.80634 1.33007,2.57161 0.69091,3.82261 -0.93658,1.83312 -2.8691,3.14429 -5.95058,4.03735 -1.07618,0.31189 -1.86623,0.78909 -3.01654,1.82203 -0.85717,0.76971 -1.65356,1.39946 -1.76974,1.39946 -0.11619,0 -0.51405,0.51998 -0.88414,1.1555 -0.53363,0.91638 -0.64029,1.35281 -0.51538,2.10884 0.31253,1.89155 0.30312,1.94474 -0.38824,2.19442 -0.5489,0.19823 -0.82128,0.12144 -1.54798,-0.43636 -1.17218,-0.89976 -1.41901,-0.85604 -1.58986,0.28164 -0.0792,0.52721 -0.45072,1.93629 -0.82566,3.1313 -0.58863,1.87608 -0.6955,2.71927 -0.78267,6.17564 -0.0932,3.69417 -0.0647,4.02246 0.36965,4.25637 0.5623,0.30285 0.56878,0.30388 1.90694,0.30388 0.90225,0 1.19669,0.14954 2.02983,1.03093 1.90922,2.01978 2.36719,4.03197 1.25875,5.53063 -0.43543,0.58873 -0.55383,0.99227 -0.43312,1.47625 0.20813,0.83451 1.78767,2.6188 2.52247,2.84942 0.64134,0.20131 0.9234,0.56285 0.92886,1.19064 0.007,0.80982 -0.60564,0.46423 -2.58183,-1.45634 l -1.95071,-1.89579 -1.58423,0.0465 c -0.98723,0.029 -1.62323,0.16437 -1.68771,0.35926 -0.0569,0.17201 0.68035,1.14974 1.63836,2.17274 0.95801,1.023 2.07045,2.3201 2.47208,2.88246 0.40164,0.56235 1.1283,1.38111 1.61481,1.81946 0.86112,0.77589 0.92957,1.37574 0.15697,1.37574 -0.20469,0 -1.48382,-1.0539 -2.84251,-2.34201 -2.59838,-2.46339 -3.70251,-3.27901 -4.44106,-3.28059 -0.39337,-7.7e-4 -0.42735,0.17459 -0.28454,1.46884 0.0979,0.88769 0.35032,1.67879 0.63722,1.9975 0.54804,0.60882 0.63244,1.24928 0.13953,1.05893 -0.18452,-0.0713 -1.5241,-0.9033 -2.97684,-1.84899 -2.73038,-1.77739 -3.8835,-2.13535 -4.38256,-1.36049 -0.21274,0.3303 -0.0995,0.68865 0.52056,1.64801 0.85443,1.32186 0.85125,1.64233 -0.0162,1.62563 -0.84497,-0.0163 -1.99036,-0.72854 -3.84174,-2.38901 -1.33442,-1.1968 -1.73484,-1.73183 -1.95516,-2.61233 -0.31405,-1.25518 -0.85228,-1.86738 -1.27113,-1.44586 -0.18666,0.18784 -0.18342,0.81077 0.0108,2.07028 0.36258,2.3518 0.35203,2.59831 -0.11122,2.59831 -0.55928,0 -0.7316,0.66252 -0.3889,1.49515 0.414,1.00582 3.19513,3.24495 5.45497,4.39185 0.40705,0.20659 1.27791,0.8616 1.93525,1.45558 1.67626,1.51471 2.20186,1.67067 3.56327,1.05727 0.61311,-0.27625 1.3603,-0.44024 1.66041,-0.36444 0.7824,0.19762 1.18511,1.33324 0.86639,2.44319 -0.55177,1.92154 -0.52438,1.95422 4.74788,5.66669 1.98402,1.39704 5.18442,3.9262 7.112,5.62034 2.9572,2.59905 4.88247,4.38452 4.23541,3.92783 -0.0909,-0.0642 -0.49252,0.11773 -0.89237,0.40426 l -0.72701,0.52097 -4.38166,-4.07521 c -2.40993,-2.24137 -4.66742,-4.38823 -5.01667,-4.7708 -0.34925,-0.38258 -1.5494,-1.3408 -2.667,-2.12938 -1.1176,-0.78858 -3.33263,-2.53167 -4.92229,-3.87354 -4.96208,-4.18861 -7.24194,-5.90134 -7.76062,-5.83015 -1.40105,0.19231 -0.80628,4.67594 1.00925,7.60806 0.30468,0.49206 1.20326,1.57918 1.99686,2.41581 2.32176,2.44766 3.55715,5.03264 2.58464,5.40821 -0.64963,0.25086 -1.31698,-0.35432 -2.76564,-2.50804 -0.78457,-1.16643 -2.10903,-2.90899 -2.94325,-3.87237 -0.83423,-0.96338 -1.68852,-2.11365 -1.89844,-2.55616 -0.40696,-0.85788 -4.18328,-4.51335 -5.4865,-5.31093 -0.42971,-0.26299 -1.00713,-0.47816 -1.28315,-0.47816 -0.8308,0 -0.67207,2.43132 0.40143,6.14883 1.99271,6.90071 5.18514,15.81687 6.89014,19.24353 1.31916,2.6512 1.35028,3.62329 0.0363,1.13295 z M 333.68337,99.33741 c 1.1586,-1.1538 1.46787,-1.62842 1.46787,-2.25272 0,-0.86618 -1.01694,-2.04595 -1.90208,-2.20665 -0.2778,-0.0504 -0.54638,-0.32042 -0.59686,-0.59998 -0.15225,-0.84322 -1.08069,-1.65858 -1.88862,-1.65858 -0.56221,0 -1.12037,0.36704 -2.29374,1.50835 -1.36849,1.33111 -1.50981,1.55795 -1.20261,1.93046 0.31468,0.38158 0.47861,0.2924 1.70756,-0.92901 1.12927,-1.12233 1.43396,-1.30412 1.79941,-1.0736 0.75018,0.47323 0.64374,1.20038 -0.31218,2.13279 -1.01077,0.98592 -1.07383,1.16547 -0.48873,1.39142 0.26257,0.1014 0.76313,-0.16252 1.3911,-0.73346 0.79252,-0.72055 1.09183,-0.8509 1.55834,-0.67861 1.03173,0.38104 0.90166,1.47019 -0.3259,2.72894 -0.69428,0.71192 -1.01657,1.2391 -0.91707,1.50007 0.0844,0.22131 0.23943,0.40238 0.34454,0.40238 0.10511,0 0.85165,-0.6578 1.65897,-1.4618 z m 35.34937,88.6029 c -0.29022,-0.37045 -1.1155,-2.68497 -1.1155,-3.12845 0,-0.59263 1.04234,0.76798 1.28602,1.67869 0.33447,1.25005 0.24813,1.98415 -0.17052,1.44976 z m 17.86818,-3.14027 c -0.52542,-0.71991 -1.40268,-1.85435 -1.94946,-2.52099 -1.07277,-1.30792 -1.97667,-3.43144 -2.21947,-5.2141 -0.12747,-0.93587 -0.0831,-1.11452 0.27708,-1.11452 0.42658,0 1.35065,1.77093 2.27984,4.36919 0.23091,0.64568 0.93921,1.87733 1.57399,2.73699 0.86667,1.1737 1.13412,1.74848 1.07374,2.30768 l -0.0804,0.74468 z m 42.07491,0.6133 c -0.7767,-0.31582 -1.71457,-1.57923 -1.34359,-1.80996 0.16175,-0.10063 0.21862,-0.3058 0.12637,-0.456 -0.2945,-0.47955 1.4645,-0.0973 1.82463,0.39652 0.18388,0.25215 0.26343,0.68851 0.17677,0.96969 -0.0867,0.28118 -0.16833,0.65501 -0.1815,0.83075 -0.0131,0.17573 -0.0335,0.31223 -0.0451,0.30331 -0.0116,-0.009 -0.26255,-0.11435 -0.55758,-0.23431 z m -65.51059,-0.53856 c -0.20664,-0.6552 0.0707,-2.27832 0.38932,-2.27832 0.32421,0 0.8629,1.91939 0.67615,2.40917 -0.21979,0.57641 -0.86751,0.49686 -1.06547,-0.13085 z m 30.47355,-0.36119 c 0.0975,-0.42178 0.25807,-1.28448 0.3569,-1.91713 l 0.17969,-1.15028 0.56393,1.47939 c 0.68884,1.80705 0.68991,1.71583 -0.0203,1.71583 -0.32131,0 -0.73568,0.14378 -0.92083,0.31952 -0.27693,0.26285 -0.3052,0.18351 -0.15942,-0.44733 z m -23.45011,-0.98435 c -0.15663,-0.18993 -0.35634,-0.90885 -0.44381,-1.59761 -0.14239,-1.12127 -0.11842,-1.21217 0.22911,-0.86887 0.55844,0.55165 1.45644,2.3442 1.30109,2.59716 -0.19975,0.32525 -0.76663,0.25706 -1.08639,-0.13068 z m -3.21755,-0.43964 c -0.0953,-0.15514 -0.0612,-0.3948 0.0757,-0.53259 0.16259,-0.16363 0.30084,-0.11441 0.39857,0.14189 0.1777,0.46601 -0.22455,0.79736 -0.47429,0.3907 z m -0.73648,-1.82809 c -0.49191,-0.70676 -0.53117,-2.24368 -0.0573,-2.24368 0.53387,0 1.27732,1.76344 1.02378,2.42835 -0.20431,0.53581 -0.50499,0.47835 -0.96645,-0.18467 z m -3.42626,-1.04802 c -0.3993,-1.05693 -1.07642,-4.9886 -0.96656,-5.61229 0.18081,-1.02646 0.86488,0.99913 1.2129,3.59142 0.32089,2.39027 0.21656,3.24614 -0.24634,2.02087 z m 80.15922,-0.38504 c -1.10894,-1.23315 -0.046,-3.6224 1.61164,-3.6224 0.49488,0 1.01554,0.23192 1.40854,0.62742 1.34479,1.35335 0.36309,3.46244 -1.61163,3.46244 -0.63476,0 -1.13853,-0.16718 -1.40855,-0.46746 z m -75.14222,-3.87802 c -0.23477,-0.63265 -0.49684,-1.66142 -0.58237,-2.28616 -0.15435,-1.12733 -0.15165,-1.13236 0.35839,-0.66785 0.58997,0.53731 0.85071,1.63793 0.73279,3.09307 l -0.082,1.01121 z m 7.77918,-3.08967 c -0.26176,-0.42621 0.32695,-0.91497 0.67734,-0.56235 0.2931,0.29496 0.10966,0.84024 -0.28267,0.84024 -0.12321,0 -0.30081,-0.12504 -0.39467,-0.27789 z m 55.25868,-3.93978 c -0.25717,-0.31183 -0.24507,-0.38343 0.0648,-0.38343 0.20955,0 0.52329,0.17255 0.69721,0.38343 0.25716,0.31184 0.24507,0.38342 -0.0648,0.38342 -0.20955,0 -0.52329,-0.17254 -0.6972,-0.38342 z m -58.33076,-1.28373 c -0.72363,-0.56993 -2.62925,-4.38131 -2.62925,-5.25871 0,-0.50966 3.06662,4.05499 3.31886,4.94011 0.12565,0.44088 0.19835,0.83192 0.16155,0.86895 -0.0368,0.037 -0.41982,-0.21063 -0.85116,-0.55035 z m 56.09671,-0.56321 c -0.614,-0.62269 -0.63734,-0.70659 -0.2198,-0.78999 0.45126,-0.0902 1.69185,0.84523 1.69185,1.2756 0,0.44857 -0.8165,0.17921 -1.47205,-0.48561 z m -2.40686,-2.17902 c -0.20973,-0.31632 -1.24528,-1.20779 -2.30122,-1.98103 -1.81423,-1.32851 -2.37651,-2.04493 -1.60498,-2.04493 0.18859,0 0.82885,0.35428 1.42281,0.78728 1.07862,0.78632 3.8223,3.42818 3.8223,3.68045 0,0.38667 -1.01075,0.0531 -1.33891,-0.44177 z m 3.98174,-0.82581 c -0.91731,-0.42711 -1.38758,-0.82955 -1.61496,-1.38198 -0.17644,-0.42867 -0.82292,-1.19348 -1.43663,-1.69957 -1.39791,-1.15277 -1.81264,-1.85081 -1.2327,-2.07477 0.28457,-0.10989 0.84503,0.28659 1.80765,1.2788 0.76737,0.79094 2.01287,1.80987 2.76779,2.26428 1.48983,0.89678 1.83797,1.39249 1.32985,1.89354 -0.26348,0.25981 -0.57769,0.20548 -1.621,-0.2803 z m -12.67583,-0.59092 c -0.66532,-0.59281 -3.175,-3.54855 -3.175,-3.73931 0,-0.31916 0.46254,-0.11821 1.16699,0.50698 0.4059,0.36024 1.25954,0.9264 1.89696,1.25815 1.36716,0.71152 1.83617,1.21549 1.71692,1.84493 -0.11704,0.61784 -0.9796,0.68726 -1.60587,0.12925 z m 58.65246,-2.20571 c -1.15347,-0.50542 -1.88346,-1.57173 -1.88346,-2.75122 0,-2.15081 1.44963,-3.57335 3.69577,-3.62671 1.15542,-0.0275 1.47297,0.0701 2.02045,0.62021 0.37896,0.38086 0.71221,1.07298 0.80002,1.66151 l 0.15047,1.00872 -1.74584,-1.66145 -1.74587,-1.66145 1.7145,1.79567 c 0.94297,0.98763 1.7145,1.95447 1.7145,2.14856 0,0.5543 -1.22118,2.02411 -2.03251,2.44634 -0.89718,0.46689 -1.65496,0.47249 -2.68803,0.0198 z m -53.24274,-1.71275 c -1.99061,-1.0559 -3.25072,-2.02997 -3.25072,-2.51281 0,-0.1473 0.14287,-0.26869 0.3175,-0.26976 0.41429,-0.003 5.2705,3.32955 5.2705,3.61637 0,0.35721 -0.28084,0.25703 -2.33728,-0.8338 z m -39.78037,-0.92741 c -0.27294,-0.38662 -0.67163,-1.12632 -0.88598,-1.64379 -0.21436,-0.51746 -0.89781,-1.72525 -1.51879,-2.68397 -0.62098,-0.95872 -1.47809,-2.44028 -1.9047,-3.29235 -0.4346,-0.86802 -1.23391,-1.93578 -1.81784,-2.42835 -0.5732,-0.48353 -1.50341,-1.28174 -2.06714,-1.7738 l -1.02496,-0.89466 0.84828,-0.827 0.84827,-0.82701 2.65422,2.68023 c 1.66806,1.68441 2.49074,2.68022 2.21425,2.68022 -0.75209,0 -0.49572,0.95366 0.45191,1.68105 0.99489,0.76367 1.79491,2.20857 2.64313,4.77368 0.31272,0.9457 0.67397,1.785 0.80279,1.86511 0.12881,0.0801 0.2342,0.42646 0.2342,0.76964 0,0.8677 -0.84108,0.82273 -1.47764,-0.079 z m 17.04229,0.12781 c -0.47528,-0.61845 -0.60615,-0.95856 -0.36885,-0.95856 0.13188,0 0.42701,0.28756 0.65585,0.63904 0.41823,0.64237 0.17188,0.91663 -0.287,0.31952 z m -39.82165,-0.44733 c -0.0863,-0.14059 -0.0359,-0.25562 0.11201,-0.25562 0.14795,0 0.26899,0.11503 0.26899,0.25562 0,0.14059 -0.0504,0.25561 -0.11201,0.25561 -0.0616,0 -0.18265,-0.11502 -0.26899,-0.25561 z m 80.05353,-1.33885 c -0.8839,-0.88952 -1.69452,-2.57962 -1.69452,-3.53295 0,-0.44127 0.19027,-1.20582 0.42282,-1.69902 0.48501,-1.02858 2.68521,-2.88699 3.41796,-2.88699 0.77194,0 0.80712,-0.58079 0.10956,-1.80891 -0.35323,-0.62187 -0.6436,-1.45271 -0.64528,-1.84631 -0.007,-1.6034 1.57026,-3.24338 3.12105,-3.24547 1.10067,-0.002 2.21229,0.70926 2.6109,1.66933 0.77412,1.86453 0.21156,3.57359 -1.54541,4.69491 -0.89228,0.56947 -1.08559,0.79992 -0.8071,0.96216 0.48825,0.28445 1.405,2.04744 1.59519,3.0677 0.29144,1.56336 -0.8795,3.74761 -2.44607,4.56288 -0.39043,0.20317 -1.33893,0.44382 -2.10778,0.53476 -1.26573,0.1497 -1.45781,0.10506 -2.03132,-0.47209 z m -85.61398,-2.41809 c 0.22705,-0.9516 0.26571,-0.97555 0.5901,-0.36554 0.22954,0.43162 0.18756,0.571 -0.2416,0.80213 -0.479,0.25799 -0.50611,0.22402 -0.3485,-0.43659 z M 455.42025,136.1902 c -0.4191,-0.19167 -1.14482,-0.35367 -1.61272,-0.36001 -0.51833,-0.007 -1.43251,-0.37292 -2.33975,-0.93646 -0.81897,-0.50872 -1.8649,-1.00171 -2.32429,-1.09554 -0.76678,-0.15661 -0.84162,-0.25831 -0.913,-1.24061 -0.061,-0.83896 -0.23597,-1.1834 -0.81048,-1.59508 -0.403,-0.28879 -0.78458,-0.72338 -0.84796,-0.96576 -0.0634,-0.24237 -0.37518,-1.55396 -0.69287,-2.91463 l -0.57764,-2.47395 0.67785,-1.52007 c 0.37282,-0.83603 0.67786,-1.77335 0.67786,-2.08291 0,-0.56072 0.84895,-1.51569 2.12347,-2.38865 0.36879,-0.2526 0.67053,-0.67717 0.67053,-0.94349 0,-0.26631 0.14287,-0.5765 0.3175,-0.6893 0.46258,-0.29882 2.50017,-0.82353 3.2385,-0.83396 0.40108,-0.006 0.88599,-0.31586 1.31636,-0.84204 0.63528,-0.77672 0.69415,-0.79848 0.87047,-0.32182 0.27603,0.74621 0.51528,0.84237 2.58031,1.03712 1.66135,0.15667 2.01067,0.28772 3.12059,1.17064 0.68741,0.54682 1.62275,1.20319 2.07855,1.45861 0.47023,0.26351 0.86445,0.70916 0.91133,1.0302 0.0626,0.42852 0.20125,0.52792 0.57151,0.40966 0.26889,-0.0858 0.48888,-0.043 0.48888,0.0954 0,0.13835 -0.13236,0.29594 -0.29411,0.35021 -0.18669,0.0626 -0.2306,0.35338 -0.12024,0.7959 0.12562,0.50369 0.37881,0.73848 0.91206,0.84582 0.66302,0.13344 0.71404,0.21242 0.50122,0.77573 -0.32037,0.84803 -0.30008,2.12758 0.0337,2.12758 0.1489,0 0.50201,-0.12457 0.78469,-0.27682 0.43584,-0.23474 0.50066,-0.20559 0.42634,0.19171 -0.0482,0.25769 -0.34392,0.58197 -0.6571,0.7206 -0.61748,0.27334 -1.04206,1.48896 -1.59248,4.55942 -0.2588,1.44362 -0.41511,1.78327 -0.90742,1.97164 -0.32712,0.12517 -0.74123,0.46716 -0.92024,0.75999 -0.17901,0.29282 -1.12557,1.12558 -2.10347,1.85055 -1.40821,1.04398 -1.98932,1.32285 -2.794,1.34077 -0.5588,0.0125 -1.2446,0.0936 -1.524,0.18034 -0.2794,0.0867 -0.8509,0.001 -1.27,-0.19077 z m 3.683,-0.1817 c 0,-0.0362 -2.94323,-2.99814 -6.5405,-6.58213 l -6.5405,-6.51634 6.47513,6.58212 c 6.01708,6.11651 6.60587,6.69731 6.60587,6.51635 z m -13.03867,-0.87149 c -0.28997,-0.29181 -0.18601,-1.03115 0.18905,-1.3444 0.47744,-0.39875 0.75789,0.0554 0.54969,0.8903 -0.15477,0.62056 -0.41462,0.78029 -0.73874,0.4541 z m -145.3619,-7.26449 c -0.43645,-0.12735 -0.93622,-0.40454 -1.1106,-0.61599 -0.17437,-0.21145 -0.51623,-0.38445 -0.75969,-0.38445 -0.87661,0 -1.70372,-1.00807 -2.5083,-3.05712 -0.73019,-1.85957 -0.79378,-2.23322 -0.64409,-3.78465 0.10423,-1.08013 0.33238,-1.91181 0.61247,-2.23261 0.24551,-0.28118 0.52213,-0.76294 0.61471,-1.07057 0.10574,-0.35138 0.51796,-0.67197 1.10869,-0.86224 0.5172,-0.1666 1.16897,-0.51113 1.44837,-0.76562 0.83352,-0.75923 1.65944,-0.91665 4.02331,-0.76686 1.84751,0.11707 2.32003,0.23463 2.667,0.66352 0.23193,0.28668 0.82174,0.63596 1.31069,0.77618 0.72105,0.20677 0.89382,0.38458 0.91453,0.94119 0.014,0.37745 0.34375,1.39986 0.73269,2.27205 l 0.70716,1.5858 -0.45566,1.29724 c -0.25061,0.71349 -0.6089,1.52415 -0.79619,1.80146 -0.18729,0.27731 -0.34053,0.71255 -0.34053,0.96719 0,0.25702 -0.39045,0.69481 -0.87774,0.98414 -0.48275,0.28665 -0.94372,0.73038 -1.02436,0.98607 -0.14741,0.46744 -0.96407,0.73801 -2.69954,0.89442 -0.50525,0.0456 -1.15496,0.21008 -1.4438,0.36564 -0.28884,0.15558 -0.56125,0.27249 -0.60536,0.25981 -0.0441,-0.0127 -0.4373,-0.12726 -0.87376,-0.2546 z m 7.52456,-6.81216 c 0,-0.18326 -0.37749,0.18232 -3.55953,3.44727 l -3.42547,3.51472 3.4925,-3.44726 c 1.92087,-1.896 3.4925,-3.47763 3.4925,-3.51473 z m 108.26443,-13.42641 c -2.41598,-2.43516 -3.86898,-4.09213 -3.86657,-4.40939 0.002,-0.27952 0.15728,-1.02472 0.3448,-1.65599 0.29,-0.97625 0.28587,-1.31041 -0.0276,-2.23634 -0.20272,-0.59873 -0.47218,-1.15302 -0.5988,-1.23178 -0.29648,-0.18439 -0.29099,-1.40989 0.008,-1.88613 0.61426,-0.97692 8.79171,-8.942816 9.31636,-9.075334 0.33038,-0.08343 1.03029,0.03422 1.55534,0.261403 1.84225,0.797261 2.30959,0.857001 3.50288,0.447822 1.90183,-0.652144 1.99866,-0.508516 1.80629,2.679099 -0.1914,3.17126 0.0957,5.16756 1.02927,7.15692 0.35059,0.74706 0.5971,1.40146 0.54781,1.45421 -0.0493,0.0527 -1.48979,1.52985 -3.20111,3.28247 -3.37335,3.45476 -3.27616,3.26231 -3.12669,6.19155 0.047,0.92183 -0.0641,1.14594 -0.98262,1.98103 -1.72506,1.5684 -1.89424,1.48903 -6.30777,-2.95954 z m 8.45373,-5.92961 c 4.89722,-2.88822 1.11795,-10.38778 -4.124,-8.18361 -2.73427,1.14972 -3.58243,4.69223 -1.71762,7.17394 1.28257,1.70684 3.89414,2.15823 5.84162,1.00967 z m -101.09716,-0.37325 c -0.9779,-0.24059 -2.01862,-0.56885 -2.31271,-0.72945 -0.2941,-0.16062 -1.3228,-0.41788 -2.286,-0.57172 -0.96321,-0.15383 -2.66569,-0.55251 -3.78329,-0.88597 -1.1176,-0.33346 -2.39558,-0.67997 -2.83995,-0.77003 -1.55487,-0.31511 -1.78586,-1.58254 -0.24155,-1.32537 0.43752,0.0729 1.93265,0.54012 3.3225,1.03836 1.38986,0.49823 3.58235,1.04842 4.87221,1.22262 1.28986,0.17421 2.30783,0.37936 2.26215,0.45588 -0.0457,0.0765 0.0739,0.28509 0.2657,0.46348 0.28659,0.26653 0.54215,0.14007 1.43384,-0.70952 1.42182,-1.35467 2.12264,-1.31034 2.04835,0.12956 -0.0739,1.43295 -0.12915,1.65755 -0.37059,1.50738 -0.11641,-0.0725 -0.21166,0.0477 -0.21166,0.26685 0,0.46381 0.12142,0.46899 -2.159,-0.0921 z m 111.78108,-0.75319 c -0.10942,-0.17817 -0.13035,-0.39297 -0.0465,-0.47734 0.22732,-0.22877 0.47518,0.10769 0.3524,0.47837 -0.086,0.25976 -0.14587,0.25955 -0.30589,-0.001 z m -2.94207,-5.29318 c 0,-0.23805 0.17281,-0.36844 0.42345,-0.31952 0.63722,0.12436 0.72472,0.72168 0.10571,0.72168 -0.31199,0 -0.52916,-0.16504 -0.52916,-0.40216 z m 2.70933,0.23175 c -0.2675,-0.2692 -0.19717,-0.85206 0.10281,-0.85206 0.37595,0 1.00915,0.67028 0.81643,0.86423 -0.20719,0.20852 -0.70652,0.20191 -0.91924,-0.0122 z m -98.97302,-0.72143 c -0.17264,-0.20933 -0.43289,-0.30659 -0.57835,-0.21613 -0.15862,0.0986 -0.18784,0.0398 -0.073,-0.14727 0.14388,-0.23428 0.31145,-0.20249 0.67425,0.12793 0.26553,0.24184 0.48278,0.47938 0.48278,0.52789 0,0.19002 -0.20611,0.0709 -0.50568,-0.29242 z m 100.20069,-0.13063 c -0.0863,-0.14059 -0.0359,-0.25561 0.112,-0.25561 0.14795,0 0.269,0.11502 0.269,0.25561 0,0.14059 -0.0504,0.25562 -0.11201,0.25562 -0.0616,0 -0.18265,-0.11503 -0.26899,-0.25562 z m -97.09151,-3.13822 c -0.59023,-0.27153 -0.75452,-0.80764 -0.32866,-1.0725 0.23236,-0.14453 1.20043,1.06533 0.99807,1.24734 -0.0539,0.0484 -0.35509,-0.0303 -0.66941,-0.17484 z m -3.35413,-5.300489 c -1.51478,-2.321566 -1.95662,-3.236526 -1.6917,-3.503136 0.27529,-0.277045 0.8568,0.455891 1.65295,2.083398 0.44042,0.900309 1.1411,2.00358 1.55707,2.451714 0.84103,0.906053 0.94765,1.271943 0.37063,1.271943 -0.21212,0 -1.06215,-1.036766 -1.88895,-2.303919 z m -13.90704,-1.965172 c -0.39013,-0.520343 -2.14596,-2.447052 -3.90184,-4.281575 -1.81258,-1.893767 -3.75469,-4.219393 -4.49314,-5.380426 -2.38313,-3.74692 -4.90648,-7.27662 -6.26145,-8.758641 -0.73719,-0.806309 -2.83488,-3.766564 -4.66155,-6.578345 -1.82666,-2.81178 -4.21628,-6.128607 -5.31028,-7.370724 -2.33192,-2.647672 -6.36358,-8.092672 -8.22923,-11.114099 -0.7218,-1.168954 -1.52757,-2.260629 -1.7906,-2.425938 -0.26303,-0.165312 -0.47824,-0.453272 -0.47824,-0.63991 0,-0.633199 1.45465,0.674643 2.62606,2.361027 0.85366,1.228944 1.0604,1.702578 0.84053,1.925629 -0.21995,0.223135 -0.19799,0.261731 0.0894,0.157089 0.26776,-0.09749 1.28695,1.09458 3.429,4.010622 1.6764,2.282137 3.62265,4.782082 4.325,5.555426 0.70235,0.773348 2.09285,2.7289 3.08999,4.345673 0.99714,1.616774 2.11954,3.227158 2.49422,3.57863 0.37467,0.351473 0.90648,1.081148 1.18179,1.621503 0.2753,0.540353 1.84297,2.380791 3.4837,4.089862 2.8944,3.014955 7.69642,8.553386 8.85603,10.214134 0.3139,0.449557 0.74253,1.04207 0.9525,1.316695 0.20998,0.274627 0.38177,0.64275 0.38177,0.818052 0,0.175304 0.15712,0.410719 0.34914,0.523147 0.79604,0.466062 3.21841,3.874981 3.70199,5.20969 0.28648,0.790693 0.52087,1.512084 0.52087,1.60309 0,0.43573 -0.55575,0.0729 -1.19567,-0.780611 z m 34.8586,-1.429397 c -0.10872,-0.252094 -0.12641,-0.530077 -0.0393,-0.617738 0.25794,-0.259579 0.46586,0.105043 0.34715,0.608755 -0.10525,0.44655 -0.11894,0.446949 -0.30784,0.009 z m -12.96801,-1.222417 c -0.092,-0.291773 -0.0904,-0.607917 0.004,-0.702543 0.22183,-0.223238 0.9171,0.728818 0.7413,1.01508 -0.23279,0.379065 -0.57167,0.236893 -0.74495,-0.312537 z m -3.29592,-5.604297 c -0.0863,-0.140589 -0.0359,-0.255616 0.11201,-0.255616 0.14794,0 0.26899,0.115027 0.26899,0.255616 0,0.140589 -0.0504,0.255616 -0.11201,0.255616 -0.0616,0 -0.18265,-0.115027 -0.26899,-0.255616 z m 11.049,-3.004882 c 0,-0.421812 0.17145,-1.179879 0.381,-1.684595 0.5983,-1.441044 0.4828,-2.717395 -0.36811,-4.067673 -0.41201,-0.653811 -0.87852,-1.68282 -1.03667,-2.286688 -0.40568,-1.5489 -0.8728,-2.177663 -1.76422,-2.3747 -1.16142,-0.256713 -1.53,-0.773996 -1.53,-2.147275 0,-0.668127 -0.28575,-2.175538 -0.635,-3.349802 -0.65666,-2.207853 -0.82524,-4.196984 -0.37921,-4.474404 0.30318,-0.188569 0.34391,-0.07391 0.88451,2.490348 0.32893,1.560204 0.6476,2.289088 1.50871,3.450821 0.60043,0.810054 1.64488,2.550411 2.32101,3.867464 1.18185,2.302176 2.95902,4.62848 3.9392,5.156394 0.36469,0.196416 0.52701,0.139784 0.73834,-0.257608 0.21665,-0.407398 0.11622,-0.817701 -0.50166,-2.049509 -0.4249,-0.847075 -1.22792,-2.983324 -1.78448,-4.747218 -1.03364,-3.275847 -1.32467,-3.932053 -2.41976,-5.455923 -0.3436,-0.478149 -0.74497,-1.340854 -0.89193,-1.917123 -0.79421,-3.114344 -1.08844,-3.858329 -1.81511,-4.589616 -0.56493,-0.568527 -0.86689,-1.212941 -1.10499,-2.358176 -0.1802,-0.866732 -0.67632,-2.326416 -1.10249,-3.24375 -0.73782,-1.588137 -1.28719,-3.764848 -0.9502,-3.764848 0.0868,0 0.50149,0.477368 0.92147,1.060818 0.5604,0.778546 0.76359,1.346628 0.76359,2.134938 0,0.735248 0.19712,1.348137 0.6248,1.942675 1.09745,1.525578 1.68035,2.779939 2.1653,4.659581 0.58273,2.25861 1.7981,5.235975 2.56154,6.27516 0.80795,1.099772 2.03013,1.642857 2.92587,1.300132 0.91241,-0.349106 1.37449,-0.150929 1.37449,0.589486 0,0.660425 1.64908,2.446242 1.9647,2.127603 0.43485,-0.439018 0.13178,-3.471237 -0.6284,-6.287107 -0.43647,-1.616774 -0.93189,-3.917322 -1.10094,-5.112329 -0.16904,-1.195006 -0.57335,-3.262388 -0.89846,-4.594181 -0.52545,-2.152468 -0.55029,-2.484136 -0.22364,-2.985847 0.32111,-0.493192 0.32012,-0.678473 -0.008,-1.468496 -0.20644,-0.497253 -0.37536,-1.467274 -0.37536,-2.155604 0,-0.799544 -0.3184,-2.113385 -0.88167,-3.63808 l -0.88168,-2.386573 2.31098,2.287885 c 2.19054,2.168641 2.40016,2.474397 4.02206,5.866514 0.94109,1.968246 1.9179,4.136267 2.17069,4.817822 0.4984,1.34374 0.92774,1.679336 1.51786,1.186461 0.2638,-0.220333 0.37776,-0.819242 0.37776,-1.985336 0,-1.614363 0.0157,-1.655472 0.47452,-1.237659 0.34249,0.311916 0.50871,0.909725 0.59739,2.148454 0.0845,1.180494 0.39594,2.354673 0.99759,3.761216 0.74731,1.747053 0.97229,2.056472 1.54453,2.124154 0.90688,0.107264 1.31247,-0.692861 1.1281,-2.225488 -0.0913,-0.759327 -0.002,-1.555462 0.25255,-2.244373 0.37611,-1.018842 0.35804,-1.23086 -0.39528,-4.640062 -0.75857,-3.43295 -1.08897,-7.673055 -0.57289,-7.35207 0.11908,0.07406 0.2877,0.901886 0.37471,1.839608 0.14729,1.587326 2.02038,7.680595 2.88532,9.386103 0.20142,0.397167 0.42986,1.54744 0.50765,2.556164 l 0.14144,1.834046 -1.61831,-1.533632 -1.61832,-1.53363 1.59083,1.671691 1.59082,1.671693 -0.16869,3.736217 -0.1687,3.736217 -8.45917,8.510164 c -5.46453,5.497465 -8.50068,8.379011 -8.57642,8.139693 -0.0645,-0.20376 -0.18611,-0.686795 -0.27029,-1.073415 -0.22559,-1.036091 -1.04338,-0.936523 -1.40667,0.171265 -0.15768,0.480814 -0.4523,1.012523 -0.6547,1.181572 -0.30744,0.256774 -0.36801,0.181132 -0.36801,-0.459569 z m -88.35283,-10.60079 c -3.57478,-6.188236 -3.83265,-6.712474 -3.34243,-6.794943 0.25864,-0.04352 0.92424,0.153967 1.47911,0.438842 1.22079,0.626763 3.09415,3.287505 3.09415,4.394631 0,0.403728 0.13817,1.253952 0.30705,1.889384 0.25998,0.978218 0.24795,1.214799 -0.0784,1.543266 -0.34465,0.34684 -0.49927,0.190984 -1.45945,-1.47118 z M 381.958,58.813206 c -0.28815,-0.315769 -0.60577,-0.963008 -0.70581,-1.438307 l -0.1819,-0.864174 -0.56645,0.714925 c -0.3636,0.45889 -0.62943,0.612386 -0.7423,0.428603 -0.3124,-0.508688 0.1401,-1.618321 0.75604,-1.853989 0.32888,-0.125838 0.5448,-0.376259 0.47982,-0.556497 -0.065,-0.180236 -0.28909,-1.821262 -0.49804,-3.646726 -0.3354,-2.930206 -0.33587,-3.363338 -0.004,-3.697308 0.33186,-0.33397 0.37591,-0.199687 0.37602,1.146281 7e-5,0.905383 0.20639,2.070718 0.508,2.869299 0.27933,0.739601 0.51025,1.947389 0.51317,2.683973 0.003,0.736584 0.16223,2.086921 0.35405,3.00075 0.19182,0.913828 0.32324,1.689811 0.29204,1.724403 -0.0312,0.03459 -0.29248,-0.195462 -0.58063,-0.511233 z m 39.46083,-3.128826 c 0.0801,-0.210075 0.24983,-0.317153 0.37717,-0.237954 0.26634,0.165656 0.0525,0.619911 -0.29177,0.619911 -0.12707,0 -0.1655,-0.171881 -0.0854,-0.381957 z m 6.69642,-0.478177 c 0,-0.167012 0.5249,-1.22841 0.95673,-1.934604 0.0373,-0.06093 0.20475,0.02712 0.37221,0.195644 0.23663,0.23814 0.1225,0.489546 -0.51224,1.128316 -0.44919,0.45205 -0.8167,0.726838 -0.8167,0.610644 z m -73.25794,-0.383642 c -0.10941,-0.178164 -0.13034,-0.392966 -0.0465,-0.47734 0.22732,-0.228767 0.47517,0.107691 0.35239,0.478374 -0.086,0.259749 -0.14586,0.259547 -0.30589,-10e-4 z m 76.45255,-0.257988 c -0.15345,-0.249865 1.00771,-1.940914 1.8482,-2.69162 0.32676,-0.29185 0.54519,-0.363574 0.54519,-0.179019 0,0.756709 -1.55721,3.094321 -2.06129,3.094321 -0.1071,0 -0.25655,-0.100656 -0.3321,-0.223682 z m -19.70461,-0.911505 c 0,-0.219181 0.1143,-0.398511 0.254,-0.398511 0.1397,0 0.254,0.108238 0.254,0.24053 0,0.132292 -0.1143,0.311622 -0.254,0.398511 -0.1397,0.08689 -0.254,-0.02134 -0.254,-0.24053 z m -57.72628,-1.400486 c -0.11048,-0.42518 -0.0774,-0.52498 0.11106,-0.335295 0.1476,0.148539 0.21839,0.420955 0.1573,0.605366 -0.0634,0.191444 -0.17854,0.07558 -0.26836,-0.270071 z m 67.38635,-1.824854 c -0.004,-0.219161 0.15974,-0.621756 0.36485,-0.894657 0.29814,-0.396681 0.37454,-0.416276 0.381,-0.09771 0.004,0.21916 -0.15974,0.621756 -0.36485,0.894657 -0.29813,0.396681 -0.37454,0.416277 -0.381,0.09771 z m 14.34293,-2.541116 c 0.50516,-1.009503 1.06004,-1.789314 1.27319,-1.789314 0.59256,0 0.45539,0.397872 -0.6371,1.848032 -0.5582,0.740945 -1.0154,1.433443 -1.016,1.538885 -5.1e-4,0.105442 -0.11683,0.191712 -0.25829,0.191712 -0.14145,0 0.14573,-0.805191 0.6382,-1.789315 z m -56.1196,-0.643761 c -0.6279,-1.512361 -0.48323,-3.446101 0.25783,-3.446101 0.4823,0 0.81358,0.721357 1.00774,2.194354 0.14126,1.071637 0.0886,1.330965 -0.35201,1.732216 -0.51026,0.464712 -0.52417,0.457399 -0.91356,-0.480469 z m 43.30067,-0.01033 c -0.004,-0.289455 0.15974,-0.749565 0.36485,-1.022465 0.36684,-0.488093 0.37305,-0.487602 0.381,0.0301 0.004,0.289454 -0.15974,0.749564 -0.36485,1.022466 -0.36684,0.488091 -0.37305,0.487601 -0.381,-0.0301 z M 351.5238,47.102759 c -0.0921,-0.149942 -0.10643,-0.334001 -0.0319,-0.409022 0.18194,-0.183101 0.67733,0.139524 0.67733,0.441115 0,0.326669 -0.4385,0.304865 -0.64544,-0.03209 z m 80.05665,-1.523904 c -1.21133,-0.365311 -1.6872,-0.977548 -1.6872,-2.170673 0,-1.265595 0.62554,-2.198427 1.80352,-2.689468 0.72101,-0.300552 0.91797,-0.27501 1.89286,0.245455 1.89284,1.010541 2.07895,2.676455 0.45893,4.107907 -0.90645,0.80094 -1.25524,0.872556 -2.46811,0.506779 z m -80.66956,-0.482128 c -0.19659,-0.369669 -0.20046,-0.533126 -0.0126,-0.533126 0.30792,0 0.64328,0.716878 0.43392,0.927573 -0.0758,0.07627 -0.26538,-0.101229 -0.42131,-0.394447 z m 73.61908,-1.656649 c 0.37715,-0.899632 0.80888,-1.791304 0.9594,-1.981496 0.15052,-0.190191 0.42154,-0.805912 0.60227,-1.368268 0.18072,-0.562356 0.37626,-0.879684 0.43453,-0.705174 0.15722,0.470902 -0.41074,2.032544 -1.39497,3.835585 -1.16376,2.131918 -1.44623,2.234974 -0.60123,0.219353 z m -39.34073,0.974414 c 0,-0.4514 0.54681,-0.372788 0.7038,0.101181 0.0553,0.166948 -0.0804,0.303545 -0.30163,0.303545 -0.22119,0 -0.40217,-0.182127 -0.40217,-0.404726 z m -30.2895,-0.765221 c -0.10477,-0.106336 -0.1905,-0.427229 -0.1905,-0.713095 0,-0.376212 0.0767,-0.442538 0.27782,-0.240165 0.1528,0.153774 0.23853,0.474667 0.1905,0.713096 -0.048,0.238428 -0.17304,0.346503 -0.27782,0.240164 z m 17.75342,-0.363752 c -0.0683,-0.210883 -0.31569,-1.693978 -0.54968,-3.295767 -0.31591,-2.162554 -0.40296,-4.16973 -0.33812,-7.796301 0.048,-2.686175 -0.003,-5.746664 -0.1128,-6.801081 -0.14222,-1.362354 -0.12337,-1.793798 0.0651,-1.490946 0.14589,0.234397 0.43698,2.798887 0.64687,5.698868 0.20988,2.899978 0.48829,5.756425 0.61869,6.347658 0.36077,1.635797 0.41671,6.611644 0.081,7.209761 -0.23091,0.41146 -0.31115,0.436404 -0.41115,0.127808 z m -8.0728,-1.95111 c -0.56064,-0.643361 -0.98046,-2.787868 -0.98413,-5.027018 -0.002,-1.012352 -0.17175,-2.473289 -0.37799,-3.246529 -0.20623,-0.77324 -0.37632,-1.974102 -0.37798,-2.668584 -0.002,-0.694484 -0.11245,-1.902271 -0.24621,-2.683972 -0.13376,-0.781703 -0.3699,-2.614448 -0.52476,-4.072765 -0.15486,-1.458316 -0.50115,-3.356268 -0.76953,-4.21767 -0.5904,-1.894979 -0.61124,-2.466737 -0.11352,-3.114932 0.37715,-0.49117 0.38485,-0.49117 0.762,0 0.24217,0.315385 0.38136,1.060516 0.38197,2.044931 5.1e-4,0.851812 0.1817,2.583994 0.4026,3.849295 0.22089,1.265301 0.49769,3.565849 0.6151,5.112328 0.11742,1.546479 0.33576,3.616972 0.48522,4.601095 0.14945,0.984123 0.50986,3.362959 0.8009,5.286298 0.29104,1.923343 0.4916,3.748485 0.44569,4.055877 -0.081,0.542134 -0.096,0.544583 -0.49936,0.08165 z m 83.64013,-4.324777 c 0.0483,-0.25057 0.24155,-0.50712 0.42951,-0.570109 0.2186,-0.07325 0.31014,0.04965 0.254,0.341062 -0.0483,0.25057 -0.24155,0.50712 -0.42951,0.570109 -0.2186,0.07325 -0.31013,-0.04965 -0.254,-0.341062 z m -61.16794,-2.560063 c -0.18332,-0.480747 0.26617,-1.004998 0.65456,-0.763432 0.41867,0.260399 0.33107,1.164039 -0.11284,1.164039 -0.21393,0 -0.45771,-0.180274 -0.54172,-0.400607 z m -31.62438,-2.347271 c -2.07591,-2.142627 -2.19411,-2.327972 -2.81199,-4.409383 -0.35474,-1.195006 -0.81363,-2.862903 -1.01975,-3.706437 -0.89855,-3.677247 -2.25613,-8.651371 -3.08503,-11.303409 -1.15878,-3.7074466 -1.88906,-9.5293276 -1.19534,-9.5293276 0.3053,0 0.53518,0.653106 0.53518,1.520489 0,0.391505 0.55928,2.883944 1.24285,5.5387506 0.68356,2.654807 1.4917,5.942491 1.79585,7.305962 0.31218,1.39942 0.99857,3.403195 1.57609,4.601095 0.76839,1.593768 1.10409,2.700798 1.3485,4.446783 0.34666,2.476483 0.85793,3.855439 1.71202,4.617582 l 0.52735,0.470567 -0.15122,-1.917123 c -0.1847,-2.341518 0.12148,-1.944655 0.81758,1.059709 0.27345,1.180217 0.61581,2.459843 0.7608,2.843618 0.14498,0.383771 0.22997,0.697768 0.18886,0.697768 -0.0411,0 -1.0499,-1.00649 -2.24175,-2.236644 z m 12.4436,-5.066526 c -0.0557,-1.255345 -0.0275,-2.627527 0.0628,-3.049294 l 0.16411,-0.76685 0.29764,0.739024 c 0.30868,0.766442 0.14673,4.281032 -0.23014,4.994243 -0.10617,0.200928 -0.23864,-0.661778 -0.29438,-1.917123 z m -12.4499,-0.876555 c -0.28018,-0.661075 -0.43327,-3.323013 -0.19111,-3.323013 0.12694,0 0.29725,0.266434 0.37847,0.592077 0.19281,0.773104 0.0242,3.230188 -0.18736,2.730936 z m 15.98962,-3.57863 c -0.10192,-0.351472 -0.18339,-0.869095 -0.18105,-1.150274 0.004,-0.474437 0.0232,-0.478567 0.26677,-0.05738 0.14439,0.249617 0.22587,0.76724 0.18106,1.150273 l -0.0815,0.696427 z m -0.41186,-4.089862 c 0,-1.009946 0.0336,-1.08011 0.27562,-0.575137 0.19816,0.413506 0.19816,0.736768 0,1.150274 -0.242,0.504973 -0.27562,0.434808 -0.27562,-0.575137 z m -3.33639,0.255616 c 0,-0.281178 0.1143,-0.511233 0.254,-0.511233 0.1397,0 0.254,0.230055 0.254,0.511233 0,0.281178 -0.1143,0.511233 -0.254,0.511233 -0.1397,0 -0.254,-0.230055 -0.254,-0.511233 z m 21.98282,0.191713 c -0.0546,-0.175737 -0.17544,-0.77963 -0.26859,-1.341987 -0.12498,-0.754554 -0.46767,-1.310565 -1.30788,-2.121976 -1.31806,-1.272891 -1.56759,-2.188918 -1.1143,-4.090478 0.4297,-1.8025796 1.38986,-2.6586696 3.14629,-2.8052526 1.90165,-0.158704 3.02751,0.413233 3.74351,1.9017066 0.41117,0.854776 0.5174,1.437776 0.42016,2.305985 -0.16476,1.471008 -0.79642,2.332772 -2.33065,3.179643 -1.49466,0.825025 -1.64252,1.055576 -1.4764,2.301979 0.1074,0.805861 0.0534,0.9899 -0.29048,0.9899 -0.23233,0 -0.46708,-0.143784 -0.52166,-0.31952 z m 24.24519,-7.701099 c 0,-0.193668 0.17629,-0.499368 0.39176,-0.679329 0.48282,-0.403253 1.02329,0.02674 0.79293,0.630849 -0.18819,0.493549 -1.18469,0.534327 -1.18469,0.04848 z M 370.87367,8.5999424 c -0.30357,-0.305503 -0.16401,-0.845106 0.21857,-0.845106 0.20955,0 0.381,0.165751 0.381,0.368338 0,0.427045 -0.36253,0.715319 -0.59957,0.476768 z m -0.16243,-6.085242 c 0,-0.381051 0.10938,-0.601187 0.254,-0.511233 0.1397,0.08689 0.254,0.316943 0.254,0.511233 0,0.194288 -0.1143,0.424343 -0.254,0.511232 -0.14462,0.08995 -0.254,-0.130183 -0.254,-0.511232 z m -24.47708,-1.025678 c -0.0811,-0.21265 -0.26734,-1.33416697 -0.4139,-2.49226 -0.3021,-2.3870953 -0.4934,-3.2767451 -1.15434,-5.3681107 -0.33697,-1.0662459 -0.38883,-1.5503943 -0.18777,-1.7527368 0.48627,-0.4893643 1.15909,0.9564589 1.3625,2.9278798 0.10394,1.0074495 0.36035,2.4222833 0.56979,3.1440736 0.53079,1.82924413 0.63656,3.9277911 0.19798,3.9277911 -0.12476,0 -0.29317,-0.173988 -0.37426,-0.386637 z m 60.40891,-5.084258 c -0.40525,-0.2982118 -0.44445,-0.4810691 -0.23293,-1.0863694 0.20192,-0.5778148 0.40885,-0.7278044 1.0041,-0.7278044 0.58501,0 0.80258,0.1511158 0.99008,0.6876729 0.42667,1.2209431 -0.67519,1.9256976 -1.76125,1.1265009 z"
           id="path26" />
        <path
           style="fill:#000000;fill-opacity:1;stroke-width:0.264583"
           id="path54"
           d="m 421.84832,90.4684 c -0.65973,-1.88286 -1.34498,-3.75876 -1.84914,-5.69056 -2.02209,-4.977666 -7.55603,2.70184 -11.26845,5.33141 -0.01,0.007 -0.18243,3.34711 -0.19288,3.56578 -0.12994,2.50736 -0.0802,5.01784 -0.0605,7.52699 -0.0266,1.72346 0.45,3.3427 1.09701,4.9186 0.6566,1.61391 1.52486,3.08237 2.72236,4.3465 0.96681,0.9044 1.98991,1.76126 3.11139,2.46832 0.68011,0.33368 1.32693,0.72251 1.97525,1.11278 4.4812,2.48138 5.97533,-1.9328 12.13697,-5.46209 0.48418,-0.90543 0.71697,-1.90467 0.82859,-2.91746 0.0902,-0.88988 0.0896,-1.78516 0.11316,-2.67837 0.013,-0.69216 0.03,-1.38424 0.0415,-2.07643 -0.0247,-0.86645 -0.47862,-1.67592 -0.78362,-2.47267 -0.47013,-1.21274 -1.01292,-2.39631 -1.5525,-3.5795 -0.96677,-2.11789 -1.71395,-4.3243 -2.39526,-6.54743 -0.64992,-2.24174 -0.93445,-4.55866 -1.0629,-6.882014 -0.0564,-1.022509 -0.0287,-2.045769 -0.004,-3.068513 -0.0642,-0.778679 -0.43994,-1.480812 -0.61977,-2.236113 -0.074,-0.445325 -0.12224,-0.88428 -0.25842,-1.315709 0,0 -10.56409,5.763736 -10.56409,5.763736 v 0 c 0.10457,0.421497 0.14895,0.855197 0.2669,1.273971 0.18164,0.64919 0.49458,1.277827 0.46159,1.965432 0.0131,1.0357 0.0718,2.07107 0.16187,3.10279 0.25017,2.37854 0.61351,4.74743 1.28543,7.04818 0.67434,2.27824 1.43103,4.53198 2.34078,6.72833 0.47708,1.19412 1.03571,2.35144 1.49533,3.5525 0.25612,0.68952 0.55508,1.38193 0.49736,2.13153 0.008,0.67497 0.014,1.35013 -0.005,2.025 -0.023,0.8479 -0.0634,1.69827 -0.19148,2.53764 -0.18198,0.80944 -0.42969,1.6712 -1.22208,2.07715 3.35647,-1.89065 6.67933,-3.84226 10.06941,-5.67197 0.0849,-0.0458 -0.0111,0.20861 -0.0771,0.2789 -0.14357,0.15281 -0.75488,-0.12913 -0.90372,-0.15292 -0.68847,-0.32181 -1.27938,-0.81618 -1.98928,-1.09699 -1.12301,-0.50412 -2.06271,-1.32517 -2.99649,-2.11218 -1.12122,-1.127 -1.89927,-2.46971 -2.49075,-3.9445 -0.56531,-1.46072 -0.92383,-2.95603 -0.91939,-4.53425 -0.10138,-2.46412 -0.14875,-4.93239 0.0313,-7.39475 0.0601,-0.74035 0.11971,-1.75119 0.26249,-2.49217 0.0564,-0.29258 0.50714,-0.98758 0.23699,-0.86189 -3.49728,1.62725 -6.72165,3.79519 -10.18614,5.49113 -0.14292,0.07 -0.21656,-0.42441 -0.065,-0.47295 0.15105,-0.0484 0.14169,0.2838 0.21254,0.42569 0.58824,1.90188 1.36305,3.74815 1.78388,5.6992 0,0 10.52547,-5.71013 10.52547,-5.71013 z" />
      </g>
      <path
         style="fill:#000000;fill-opacity:1;stroke-width:0.264583"
         id="path75"
         d="m 105.33081,140.42165 c -1.15784,1.34677 -2.50584,2.50814 -3.92074,3.57446 -0.0676,0.0328 -0.27384,0.12347 -0.20294,0.0985 10.05851,-3.54796 10.25666,-1.6607 14.30709,-7.41863 1.35803,-2.36319 1.86809,-5.05113 2.26143,-7.71357 1.60369,-6.90371 -10.07146,-1.60859 -11.60784,3.75353 -0.56005,1.78831 -1.1493,3.56876 -1.51943,5.40809 -0.14342,1.21016 -0.61059,2.33562 -0.97248,3.48927 -0.24655,0.95912 -0.41314,1.91812 -0.82053,2.82489 -0.44006,1.04397 -0.61715,2.16373 -0.87551,3.25845 -0.0711,0.0833 -0.11874,0.19454 -0.21317,0.25 -0.2795,0.16415 -1.23985,0.34985 -0.95107,0.20264 3.30804,-1.68626 6.68811,-3.22842 9.99928,-4.90852 0.43905,-0.22278 -0.95548,0.24149 -1.44028,0.32727 -1.0653,0.1704 -2.14522,0.15482 -3.21858,0.21786 -1.08199,0.089 -2.14315,-0.13189 -3.18321,-0.40356 -1.2621,-0.41307 -2.41385,-1.09119 -3.589966,-1.69594 -1.964219,-1.01326 -4.033543,-1.79358 -6.12205,-2.50558 -3.123761,-0.97961 -6.18707,-2.11476 -9.120839,-3.56934 -2.616633,-1.35535 -4.953886,-3.15649 -7.188303,-5.06041 -1.238004,-1.09379 -2.435801,-2.23444 -3.603386,-3.40308 -0.08571,-0.32215 -0.580928,-0.43111 -0.678755,-0.7551 -0.02559,-0.0847 0.153692,0.088 0.226978,0.13755 0.198427,0.13418 0.796034,0.29502 0.587788,0.41338 -8.077824,4.59133 -13.712917,5.67602 -8.791075,4.64521 2.921913,-0.49857 5.822088,-0.16239 8.676204,0.52242 2.651617,0.70173 5.080293,1.9638 7.35035,3.47601 1.586118,1.13957 3.021271,2.47467 4.336758,3.91452 0.921764,0.56786 1.002845,2.04114 1.887683,2.61139 0.287523,0.1853 0.632452,0.26082 0.94868,0.39123 3.933481,-1.85756 7.945551,-3.55708 11.800445,-5.57267 0.431318,-0.22553 3.091138,-3.1045 3.181338,-3.20651 2.46481,-2.78753 4.57861,-5.83957 6.73509,-8.86447 0.81164,-1.17964 1.62327,-2.35929 2.4349,-3.53894 0,0 -10.44698,3.78707 -10.44698,3.78707 v 0 c -0.82084,1.17425 -1.641688,2.34851 -2.462536,3.52276 -2.255287,3.0447 -4.481523,6.1017 -7.14043,8.81562 -3.645762,3.7212 -10.624719,6.6933 5.968873,-1.35137 -0.145335,0.1361 -0.242914,0.35971 -0.436007,0.40832 -0.10278,0.0259 -1.642028,-2.24143 -1.929429,-2.51879 -1.37465,-1.52406 -2.898359,-2.89793 -4.547415,-4.12238 -2.350018,-1.61555 -4.872087,-2.95598 -7.610443,-3.79435 -2.892734,-0.78589 -5.831525,-1.30799 -8.841782,-0.96409 -5.166275,0.39175 -2.408026,0.0524 -12.581853,5.36201 -0.423195,0.22086 -0.101401,1.23171 0.02495,1.47343 0.170137,0.32549 0.592365,0.47463 0.759248,0.79848 1.210183,1.18754 2.450711,2.34488 3.750593,3.43442 2.33362,1.93665 4.766484,3.76944 7.4305,5.23326 2.925178,1.52494 5.986174,2.74042 9.123479,3.76043 2.020138,0.68916 4.026823,1.43407 5.924621,2.41955 1.214594,0.62473 2.390204,1.32612 3.636044,1.88697 1.08067,0.42172 2.239484,0.6645 3.3943,0.76163 1.110369,-0.001 2.223485,-0.0848 3.332626,-0.14375 5.144351,-0.48408 4.767511,-1.52757 12.855911,-5.46911 0.55178,-0.26889 0.72452,-0.93192 0.8462,-1.46618 0.19063,-1.05123 0.48123,-2.07731 0.91023,-3.05837 0.32383,-0.94956 0.48586,-1.93464 0.77834,-2.89372 0.3739,-1.18197 0.77663,-2.35497 0.9116,-3.59561 0.37634,-1.77572 0.88875,-3.52377 1.58693,-5.20125 2.25637,-4.09333 -0.0805,0.44031 -10.11213,4.32213 -0.45787,0.17718 -0.12211,-1.90034 -0.27,-0.002 -0.0206,0.26469 -0.0502,0.52862 -0.0752,0.79293 -0.33702,2.52122 -0.9029,5.03371 -2.41962,7.13517 -3.81297,4.75405 -8.296367,6.82393 8.34731,-0.40701 1.37221,-1.18321 2.69009,-2.43147 3.8702,-3.80931 0,0 -11.29196,3.98252 -11.29196,3.98252 z" />
      <path
         style="fill:#000000;fill-opacity:1;stroke-width:0.264583"
         id="path77"
         d="m 108.42543,74.811291 c 2.21863,1.383673 4.34863,2.900871 6.54737,4.315494 2.02404,1.218571 3.85184,2.697708 5.50733,4.376087 0.96435,1.041405 1.78845,2.198878 2.63004,3.338169 0,0 10.47484,-5.344682 10.47484,-5.344682 v 0 c -0.86452,-1.181298 -1.71064,-2.379326 -2.66864,-3.488356 -1.66357,-1.796979 -3.51454,-3.389284 -5.63304,-4.636463 -2.1913,-1.361022 -4.35077,-2.776453 -6.40112,-4.344638 0,0 -10.45678,5.784389 -10.45678,5.784389 z" />
      <path
         style="fill:#000000;fill-opacity:1;stroke-width:0.264583"
         id="path79"
         d="m 105.33808,75.524266 c 2.06941,-0.04254 4.14001,-0.07835 6.20447,0.08722 1.82463,0.20974 3.60116,0.676351 5.28804,1.394806 3.23902,1.925498 5.51043,5.097031 7.66598,8.110104 2.64137,3.896725 4.52282,8.217987 6.09216,12.636396 0.19297,0.640612 0.38595,1.281227 0.57892,1.921838 0,0 10.52858,-4.943374 10.52858,-4.943374 v 0 c -0.21376,-0.648599 -0.42751,-1.297199 -0.64127,-1.945799 -1.65596,-4.494654 -3.59397,-8.894331 -6.25735,-12.896347 -2.19898,-3.194203 -4.53565,-6.427824 -7.66511,-8.77789 -1.71007,-0.950826 -3.58858,-1.42012 -5.51448,-1.737154 -2.05144,-0.293232 -4.11155,-0.224152 -6.17934,-0.259829 0,0 -10.1006,6.410031 -10.1006,6.410031 z" />
    </g>
  </g>
</svg>
