<?xml version="1.0" encoding="UTF-8" standalone="no"?>
<svg
   xmlns:dc="http://purl.org/dc/elements/1.1/"
   xmlns:cc="http://creativecommons.org/ns#"
   xmlns:rdf="http://www.w3.org/1999/02/22-rdf-syntax-ns#"
   xmlns:svg="http://www.w3.org/2000/svg"
   xmlns="http://www.w3.org/2000/svg"
   width="479.59052"
   height="447.54315"
   viewBox="0 0 126.89246 118.41218"
   version="1.1"
   id="svg1453">
  <defs
     id="defs1447" />
  <metadata
     id="metadata1450">
    <rdf:RDF>
      <cc:Work
         rdf:about="">
        <dc:format>image/svg+xml</dc:format>
        <dc:type
           rdf:resource="http://purl.org/dc/dcmitype/StillImage" />
        <dc:title></dc:title>
      </cc:Work>
    </rdf:RDF>
  </metadata>
  <g
     id="layer1"
     transform="translate(-3.208181,-6.7430119)">
    <path
       style="fill:#000000;fill-opacity:1;stroke-width:0.264583"
       d="m 43.298456,122.95218 c -0.638725,-0.2415 -1.001736,-0.95306 -0.609798,-1.19529 0.291224,-0.17998 0.04993,-1.21668 -0.341913,-1.46899 -0.136549,-0.0879 0.406445,-0.59444 1.206653,-1.12559 1.220629,-0.81021 2.202387,-1.63804 5.593022,-4.7161 0.170188,-0.1545 0.129683,-0.32019 -0.115279,-0.47159 -0.312878,-0.19337 -0.318288,-0.30492 -0.03154,-0.65044 0.237972,-0.28674 0.251749,-0.41704 0.04409,-0.41704 -0.189924,0 -0.240491,-0.24516 -0.136237,-0.66053 0.15571,-0.62039 0.115819,-0.65054 -0.656418,-0.4961 -0.73089,0.14618 -0.822201,0.0963 -0.822201,-0.44946 0,-0.33765 -0.319931,-0.94785 -0.710959,-1.35599 l -0.710959,-0.74208 h 0.710959 c 0.581967,0 0.710959,0.12001 0.710959,0.66145 0,0.45203 0.146601,0.66275 0.463021,0.66551 0.388348,0.003 0.400251,0.0438 0.07381,0.2502 -0.214066,0.13538 -0.295158,0.3402 -0.180207,0.45515 0.281731,0.28173 1.760045,0.34245 1.760045,0.0723 0,-0.1181 0.171521,-0.38624 0.381156,-0.59588 0.21589,-0.21589 0.317233,-0.62561 0.233725,-0.94494 -0.175469,-0.671 -0.426934,-0.71217 -0.896199,-0.14674 -0.286774,0.34554 -0.280988,0.46322 0.03375,0.68641 0.301258,0.21364 0.27957,0.23684 -0.104798,0.11213 -0.266563,-0.0865 -0.580756,-0.15725 -0.698207,-0.15725 -0.117448,0 -0.197009,-0.20836 -0.176797,-0.46302 0.02021,-0.25466 -0.11208,-0.43326 -0.293981,-0.39688 -0.181901,0.0364 -0.330729,-0.0529 -0.330729,-0.19843 0,-0.35662 0.353771,-0.33415 0.734581,0.0467 0.238609,0.23861 0.431779,0.20217 0.827707,-0.15614 0.607766,-0.55002 1.603393,-0.35113 1.630619,0.32574 0.01349,0.3355 0.08865,0.29851 0.305014,-0.15012 0.157911,-0.32742 0.454536,-0.59531 0.659167,-0.59531 0.204631,0 0.295251,0.12428 0.201374,0.27617 -0.42614,0.68951 1.537978,1.32392 2.163189,0.69871 0.290203,-0.29021 2.414243,-0.21092 5.597593,0.20894 1.626611,0.21454 3.614767,0.41155 4.418122,0.4378 0.803354,0.0263 1.426347,0.082 1.384429,0.12395 -0.276376,0.27637 -2.104916,1.42794 -2.256983,1.42138 -0.102677,-0.004 0.04978,-0.14513 0.338786,-0.31268 0.495411,-0.2872 0.480637,-0.31663 -0.258242,-0.51423 -0.456562,-0.1221 -0.891288,-0.10203 -1.04141,0.0481 -0.167206,0.1672 -0.140721,0.25769 0.07542,0.25769 0.183214,0 0.256538,0.12391 0.162941,0.27535 -0.0936,0.15144 -0.388257,0.20613 -0.654806,0.12153 -0.26655,-0.0846 -0.552847,-0.0435 -0.636217,0.0914 -0.08337,0.13489 0.08595,0.30738 0.376271,0.3833 0.509008,0.13311 0.511686,0.1662 0.07505,0.92699 -0.285726,0.49786 -0.595227,0.73431 -0.838813,0.64083 -0.278247,-0.10677 -0.322784,-0.0432 -0.159531,0.22757 0.186045,0.30861 0.154014,0.31705 -0.179377,0.0473 -0.223223,-0.18064 -0.484203,-0.25009 -0.579956,-0.15434 -0.09575,0.0957 -0.174093,-0.0938 -0.174093,-0.42122 0,-0.36209 -0.129569,-0.54961 -0.330729,-0.47864 -0.181901,0.0642 -0.314193,0.31221 -0.293981,0.55121 0.02021,0.239 -0.08183,0.43455 -0.226746,0.43455 -0.14492,0 -0.197286,0.17253 -0.116369,0.3834 0.09918,0.25846 0.01998,0.33461 -0.243027,0.23368 -0.300104,-0.11516 -0.320048,-0.23419 -0.08642,-0.51569 0.506301,-0.61006 -0.657847,-0.45386 -1.216269,0.16319 -0.26339,0.29104 -0.616754,0.52917 -0.785257,0.52917 -0.1685,0 -0.648573,0.35718 -1.066826,0.79375 -0.418254,0.43656 -0.863584,0.79375 -0.989624,0.79375 -0.126039,0 -1.068427,0.56554 -2.094198,1.25677 -1.025768,0.69122 -2.180294,1.4316 -2.565606,1.64529 -0.385316,0.21369 -1.323819,0.77924 -2.085565,1.25677 -0.761744,0.47754 -1.48513,0.86825 -1.607524,0.86825 -0.122393,0 -0.511178,0.30859 -0.863968,0.68575 -0.874127,0.93453 -1.335981,1.14131 -1.993691,0.89262 z m 18.153301,-10.12103 c 0,-0.18731 -0.238125,-0.3585 -0.529167,-0.38043 -0.527081,-0.0397 -0.688263,0.20913 -0.352777,0.54462 0.301615,0.30161 0.881944,0.19358 0.881944,-0.16419 z m -8.598958,-2.04067 c -0.08994,-0.14552 -0.275559,-0.26459 -0.412491,-0.26459 -0.136932,0 -0.248968,0.11907 -0.248968,0.26459 0,0.14552 0.185621,0.26458 0.412491,0.26458 0.22687,0 0.338905,-0.11906 0.248968,-0.26458 z m 15.871653,10.04875 c -0.105389,-0.17052 0.08471,-0.48409 0.437684,-0.72195 1.26791,-0.85439 3.428574,-3.30751 3.579979,-4.06454 0.08529,-0.42645 0.258757,-0.83944 0.385482,-0.91776 0.126725,-0.0783 0.23041,-0.32687 0.23041,-0.55234 0,-0.30241 -0.169259,-0.36747 -0.645242,-0.248 -0.354886,0.0891 -0.719101,0.0425 -0.809366,-0.10361 -0.09027,-0.14605 -0.446021,-0.26555 -0.790564,-0.26555 -0.374129,0 -0.67518,-0.1865 -0.747443,-0.46302 -0.09106,-0.34844 -0.128598,-0.3157 -0.151693,0.13229 -0.01688,0.32742 -0.168281,0.59531 -0.336447,0.59531 -0.168164,0 -0.696003,0.29766 -1.172972,0.66146 -0.47697,0.3638 -1.065149,0.66146 -1.307068,0.66146 -0.523989,0 -1.976705,-0.81972 -1.976705,-1.11538 0,-0.39243 1.058849,-1.26587 1.534583,-1.26587 0.679204,0 1.11125,-0.52232 1.11125,-1.34344 0,-0.38964 0.148828,-0.81724 0.330729,-0.95023 0.825585,-0.60358 5.349034,-1.64466 7.876178,-1.81271 2.125644,-0.14135 10.737194,-3.30302 13.020233,-4.78029 0.542584,-0.35108 1.061982,-0.63833 1.154219,-0.63833 0.622046,0 7.759006,-6.37822 8.329276,-7.44378 0.143777,-0.26865 0.406688,-0.45988 0.584245,-0.42495 0.177557,0.0349 0.292894,-0.12285 0.256307,-0.35063 -0.03659,-0.22778 0.826613,-1.35487 1.918233,-2.50464 1.09161,-1.14976 1.98475,-2.24493 1.98475,-2.43371 0,-0.18877 0.10695,-0.54997 0.23767,-0.80266 1.45012,-2.80317 3.28849,-7.02212 4.1777,-9.58755 0.22697,-0.65485 0.58117,-1.32621 0.78709,-1.49192 0.20593,-0.16571 0.39954,-0.8246 0.43025,-1.4642 0.0525,-1.09406 0.0971,-1.15696 0.7521,-1.06234 0.38295,0.0553 0.78183,-0.0379 0.88639,-0.20705 0.30009,-0.48555 -0.10057,-0.68107 -0.66865,-0.3263 -0.58402,0.36473 -0.64027,0.24917 -0.24144,-0.49603 0.22146,-0.41381 0.3776,-0.4606 0.79375,-0.23788 0.36384,0.19472 0.51805,0.19325 0.51805,-0.005 0,-0.15521 -0.18857,-0.35456 -0.41906,-0.44301 -0.34024,-0.13056 -0.35268,-0.20743 -0.0661,-0.40871 0.27742,-0.19487 0.28181,-0.27673 0.0205,-0.38265 -0.18281,-0.0741 -0.26508,-0.24364 -0.18282,-0.37673 0.23552,-0.38106 0.6475,-0.28251 0.6475,0.15489 0,0.21828 0.17859,0.39688 0.39687,0.39688 0.5165,0 0.51241,-0.42822 -0.006,-0.62715 -0.7172,-0.27522 0.10986,-1.21791 0.97968,-1.11664 0.44915,0.0523 0.892,-0.0956 1.15427,-0.38535 0.3926,-0.43381 0.38815,-0.47986 -0.0575,-0.59505 -0.42213,-0.10911 -0.41465,-0.12871 0.0594,-0.15554 0.29832,-0.0169 0.6665,-0.1548 0.81819,-0.30648 0.19134,-0.19135 0.37951,-0.15083 0.61448,0.13229 0.18628,0.22445 0.592,0.39427 0.9016,0.37739 0.42476,-0.0232 0.45288,-0.0597 0.11456,-0.14886 -0.2495,-0.0658 -0.38647,-0.27945 -0.30883,-0.48177 0.0767,-0.19998 0.2785,-0.31037 0.44835,-0.24531 0.18165,0.0696 0.32523,-0.16619 0.34865,-0.57246 0.0477,-0.82768 0.45618,-1.30023 0.89142,-1.03124 0.23948,0.14801 0.23122,0.24755 -0.0341,0.41155 -0.2549,0.15754 -0.15005,0.29234 0.38585,0.49609 0.95034,0.36132 1.41817,0.35382 1.65322,-0.0265 0.12893,-0.20861 0.0124,-0.26001 -0.36545,-0.1612 -0.48886,0.12784 -0.51742,0.0853 -0.24047,-0.35815 0.17285,-0.27677 0.52292,-0.56944 0.77794,-0.65039 0.25502,-0.0809 0.46368,-0.31773 0.46368,-0.52621 0,-0.36657 0.30287,-0.4883 0.99219,-0.39879 0.1819,0.0236 0.33072,-0.15456 0.33072,-0.39596 0,-0.40735 0.0476,-0.40774 0.66146,-0.006 0.5791,0.37944 0.66146,0.38322 0.66146,0.0304 0,-0.43533 0.40918,-0.54658 0.63953,-0.17387 0.0779,0.126 0.44887,0.17036 0.82443,0.0986 0.79826,-0.15259 1.53751,0.51531 2.12401,1.91901 0.87785,2.10098 1.03208,1.88258 -6.96742,9.8664 -4.04151,4.03359 -8.29799,8.16557 -9.45885,9.18218 -1.16086,1.01661 -3.01341,2.7271 -4.11677,3.80109 -1.10336,1.07399 -2.20469,2.06384 -2.4474,2.19966 -0.46668,0.26117 -0.61215,1.01441 -0.1959,1.01441 0.13496,0 0.46238,-0.26849 0.72761,-0.59665 0.26522,-0.32815 0.79881,-0.80005 1.18576,-1.04866 0.38695,-0.24861 1.04179,-0.75218 1.45521,-1.11904 0.41341,-0.36686 0.87073,-0.76818 1.01625,-0.89182 0.14552,-0.12364 0.75996,-0.76613 1.36541,-1.42775 0.60546,-0.66162 1.33826,-1.36924 1.62843,-1.57249 0.29018,-0.20325 1.61383,-1.40751 2.94145,-2.67613 1.32761,-1.26863 2.73795,-2.51204 3.13407,-2.76315 0.39612,-0.2511 1.29704,-0.93466 2.00205,-1.51901 0.705,-0.58436 1.47891,-1.06409 1.71979,-1.06607 0.66406,-0.005 1.74224,1.39701 1.79703,2.33752 0.0267,0.45863 0.0734,0.95294 0.10369,1.09846 0.15276,0.73329 -0.0479,1.45521 -0.40442,1.45521 -0.21828,0 -0.39688,0.17585 -0.39688,0.39078 0,0.51373 -1.2107,1.2973 -1.61674,1.04635 -0.18678,-0.11543 -0.24797,-0.0841 -0.14888,0.0762 0.19205,0.31075 -0.50933,1.11386 -2.1523,2.46446 -1.13378,0.93202 -1.13664,0.93884 -0.87824,2.08891 0.20424,0.90898 0.17917,1.23393 -0.11812,1.53122 -0.20756,0.20756 -0.37738,0.48352 -0.37738,0.61324 0,0.12972 -0.46305,0.68676 -1.02899,1.23787 -0.88138,0.85827 -1.00986,1.12574 -0.89563,1.8645 0.0975,0.63082 0.30286,0.90503 0.7644,1.02087 0.35389,0.0888 0.63105,0.35496 0.63105,0.60595 0,0.24616 0.13897,0.58654 0.30883,0.75639 0.31366,0.31367 0.31376,0.3136 -0.97029,0.71475 -0.51059,0.15951 -0.504,0.52483 0.0189,1.04774 0.22868,0.22867 0.3064,0.41577 0.17273,0.41577 -0.13368,0 -0.37225,0.26789 -0.53016,0.59531 -0.22859,0.47397 -0.29076,0.50094 -0.30502,0.13229 -0.0185,-0.47731 -0.81166,-0.67123 -0.81166,-0.19843 0,0.14552 0.11906,0.26458 0.26458,0.26458 0.14552,0 0.26459,0.11907 0.26459,0.26459 0,0.14552 -0.1786,0.26458 -0.39688,0.26458 -0.21828,0 -0.39687,0.11906 -0.39687,0.26458 0,0.14552 -0.10792,0.26459 -0.23982,0.26459 -0.13189,0 -0.17337,-0.25407 -0.0922,-0.56459 0.10639,-0.40683 0.044,-0.52993 -0.2232,-0.44054 -0.23381,0.0782 -0.37085,0.50684 -0.37085,1.1599 0,0.92511 -0.0707,1.03722 -0.66146,1.04863 -0.36381,0.007 -0.76199,-0.11203 -0.88486,-0.26458 -0.13173,-0.16356 -0.15996,-0.0813 -0.0688,0.20035 0.2044,0.63166 -1.00114,1.85818 -1.63042,1.65879 -0.25224,-0.0799 -0.79965,0.0318 -1.21647,0.24816 -0.41681,0.2164 -0.91009,0.39346 -1.09617,0.39346 -0.41025,0 -0.72826,0.73305 -0.48721,1.12309 0.10256,0.16594 0.0486,0.20405 -0.13143,0.0928 -0.40584,-0.25083 -0.39604,0.43978 0.012,0.84786 0.24694,0.24694 0.15875,0.3175 -0.39688,0.3175 -0.3929,0 -0.71437,0.13294 -0.71437,0.29543 0,0.17793 0.28274,0.24137 0.71095,0.15952 0.53495,-0.10226 0.83443,0.0211 1.20982,0.49832 0.58357,0.74189 1.03553,0.83522 0.82907,0.17121 -0.13613,-0.43783 -0.1277,-0.43772 0.15492,0.002 0.16438,0.25581 0.22588,0.58323 0.13665,0.7276 -0.21668,0.35059 -0.0591,0.33106 0.7608,-0.0943 0.37823,-0.19622 0.6002,-0.45344 0.49327,-0.57158 -0.10694,-0.11814 -0.0398,-0.12558 0.14914,-0.0165 0.26471,0.15276 0.27246,0.28396 0.0337,0.57159 -0.2433,0.29315 -0.2246,0.37332 0.0871,0.37332 0.57333,0 1.11905,0.70395 0.67115,0.86574 -0.27541,0.0995 -0.27027,0.24577 0.0264,0.75334 l 0.36821,0.62988 -0.61213,-0.52917 c -0.33667,-0.29104 -0.5251,-0.38034 -0.41874,-0.19844 0.10636,0.18191 0.0696,0.33073 -0.0818,0.33073 -0.15134,0 -0.34986,0.29766 -0.44117,0.66146 -0.18189,0.72472 -0.30876,0.78052 -0.9024,0.39688 -0.26458,-0.17099 -0.28663,-0.25783 -0.0661,-0.26054 0.1819,-0.002 0.33073,-0.12412 0.33073,-0.27087 0,-0.16284 -0.19595,-0.14446 -0.50277,0.0472 -0.27652,0.17269 -0.47463,0.44159 -0.44024,0.59755 0.0344,0.15597 0.0126,0.19427 -0.0485,0.0851 -0.22587,-0.40388 -0.80355,-0.18068 -0.94643,0.36568 -0.1487,0.56862 -0.38047,0.57966 -1.63399,0.0778 -0.46959,-0.18799 -0.48856,-0.16191 -0.16846,0.23166 0.19839,0.24392 0.45381,0.38596 0.56759,0.31564 0.11378,-0.0703 0.28066,0.0644 0.37083,0.29938 0.12588,0.32803 0.0401,0.39487 -0.36915,0.28784 -0.3384,-0.0885 -0.5331,-0.01 -0.5331,0.21486 0,0.44783 -0.83451,0.7238 -1.46134,0.48327 -0.31478,-0.1208 -0.41619,-0.084 -0.29754,0.108 0.099,0.1602 0.0672,0.36097 -0.0706,0.44616 -0.38869,0.24022 -0.5762,-0.27076 -0.33682,-0.91787 0.20383,-0.551 0.24143,-0.55837 0.66877,-0.13103 0.2736,0.27361 0.63335,0.3828 0.90902,0.27592 0.42315,-0.16407 0.41983,-0.20368 -0.0458,-0.54639 -0.2761,-0.20323 -0.60352,-0.30676 -0.7276,-0.23007 -0.39119,0.24176 -0.24658,-0.14889 0.36971,-0.99876 0.403,-0.55576 0.49327,-0.85696 0.27944,-0.93243 -0.17372,-0.0613 -0.25028,-0.28237 -0.17013,-0.49125 0.18824,-0.49054 0.10323,-0.48191 -1.50782,0.15311 -1.88915,0.74463 -2.33884,0.38141 -1.2878,-1.0402 0.85106,-1.15112 0.59634,-1.73969 -0.7578,-1.751 -0.615974,-0.005 -1.119955,0.0812 -1.119955,0.19188 0,0.11069 -0.305406,0.0851 -0.678683,-0.0568 -0.881414,-0.33511 -1.779122,-0.33136 -1.570276,0.007 0.08994,0.14552 0.447125,0.26458 0.79375,0.26458 0.346626,0 0.716317,0.1393 0.82154,0.30955 0.129796,0.21002 0.04532,0.25353 -0.262711,0.13532 -0.251094,-0.0964 -0.38682,-0.0655 -0.303672,0.0691 0.08269,0.1338 0.01603,0.32628 -0.14813,0.42774 -0.164163,0.10146 -0.38935,0.0374 -0.500409,-0.14226 -0.143706,-0.23252 -0.254114,-0.24229 -0.38291,-0.0339 -0.09954,0.16105 -0.03108,0.29283 0.152135,0.29283 0.446347,0 0.03451,0.39076 -0.944158,0.89585 -0.703963,0.36332 -0.806828,0.3588 -1.128538,-0.0496 -0.314034,-0.39867 -0.336026,-0.36996 -0.194905,0.25446 0.123084,0.54462 0.04919,0.72848 -0.32667,0.81279 -0.727721,0.16325 -2.380859,-0.74986 -2.553616,-1.41048 -0.113697,-0.43478 -0.07598,-0.50375 0.151223,-0.27654 0.436292,0.43629 0.607951,0.37532 0.653711,-0.23219 0.02334,-0.30975 -0.07544,-0.46336 -0.234675,-0.36495 -0.168264,0.104 -0.156898,-0.0507 0.02929,-0.39856 0.167338,-0.31268 0.435739,-0.48725 0.596442,-0.38793 0.160705,0.0993 0.218324,0.0611 0.128042,-0.085 -0.09028,-0.14608 0.129448,-0.52088 0.488286,-0.83288 0.358839,-0.31201 0.652434,-0.74667 0.652434,-0.96591 0,-0.23462 0.244932,-0.40194 0.595312,-0.40667 0.511945,-0.007 0.533654,-0.044 0.15503,-0.26501 -0.51059,-0.298 -1.279509,-0.0751 -1.279509,0.3709 0,0.16821 -0.217495,0.42336 -0.483322,0.56701 -0.911717,0.49267 -3.863703,2.53057 -4.011089,2.76905 -0.217776,0.35236 -1.983631,1.51417 -2.597613,1.70904 -0.292603,0.0929 -0.597358,0.33915 -0.67723,0.5473 -0.22274,0.58045 -1.978679,1.22982 -2.529046,0.93527 -0.807601,-0.43221 -1.145413,-1.03237 -0.971386,-1.72575 0.09157,-0.36484 0.253693,-0.63428 0.360275,-0.59875 0.106582,0.0355 0.193786,-0.006 0.193786,-0.0932 0,-0.0868 0.178586,-0.37295 0.396859,-0.63595 0.218273,-0.263 0.359775,-0.6971 0.314447,-0.96466 -0.05656,-0.33386 0.03805,-0.44023 0.301596,-0.3391 0.211206,0.0811 0.682405,-0.12824 1.047109,-0.46508 0.364707,-0.33684 1.335765,-1.08868 2.15791,-1.67077 0.822145,-0.58208 2.392739,-1.7727 3.490206,-2.64583 1.097466,-0.87312 2.619132,-2.06375 3.381476,-2.64583 2.186683,-1.66963 4.242834,-3.54118 4.074933,-3.70908 -0.08445,-0.0844 -0.60083,0.15001 -1.147522,0.521 -0.54669,0.371 -1.155962,0.67454 -1.353937,0.67454 -0.197974,0 -0.359952,0.1112 -0.359952,0.24712 0,0.20307 -2.050148,1.67169 -7.264723,5.2041 -1.978983,1.34058 -5.746602,3.80919 -5.813626,3.80919 -0.401955,0 -4.87444,3.30292 -6.691942,4.94198 -1.262134,1.13821 -2.492806,2.24808 -2.734831,2.46636 -0.242028,0.21828 -1.278639,1.20762 -2.303585,2.19854 -1.184441,1.14511 -1.931431,1.69181 -2.049848,1.50021 z m 36.724798,-8.19667 c 0.0761,-0.29104 0.0942,-0.52917 0.0402,-0.52917 -0.054,0 -0.22565,0.23813 -0.38141,0.52917 -0.15646,0.29234 -0.17443,0.52917 -0.0402,0.52917 0.13367,0 0.3053,-0.23813 0.38141,-0.52917 z M 72.82884,111.9811 c -0.493654,-0.50932 -1.016616,-0.92604 -1.162137,-0.92604 -0.145521,0 0.139316,0.41672 0.632971,0.92604 0.493654,0.50932 1.016616,0.92604 1.162137,0.92604 0.145521,0 -0.139316,-0.41672 -0.632971,-0.92604 z m 20.6375,0.66146 c 0,-0.14552 -0.185621,-0.26458 -0.41249,-0.26458 -0.22687,0 -0.338905,0.11906 -0.248968,0.26458 0.08994,0.14552 0.275558,0.26458 0.412491,0.26458 0.136932,0 0.248967,-0.11906 0.248967,-0.26458 z m 0.79375,0 c 0,-0.14552 -0.119062,-0.26458 -0.264583,-0.26458 -0.145521,0 -0.264583,0.11906 -0.264583,0.26458 0,0.14552 0.119062,0.26458 0.264583,0.26458 0.145521,0 0.264583,-0.11906 0.264583,-0.26458 z m 8.44462,-0.8158 c -0.6072,-0.6072 -0.8756,-0.55656 -0.61733,0.11647 0.0918,0.23911 0.39221,0.43475 0.66769,0.43475 0.4753,0 0.47274,-0.0281 -0.0504,-0.55122 z m -8.28402,-0.66105 c -0.08833,-0.23018 -0.1606,-0.46831 -0.1606,-0.52917 0,-0.0608 -0.107915,-0.11065 -0.239813,-0.11065 -0.131897,0 -0.177543,0.23813 -0.101433,0.52917 0.07611,0.29104 0.256294,0.52917 0.400412,0.52917 0.144119,0 0.189762,-0.18833 0.101434,-0.41852 z m 14.52377,0.15393 c 0.0899,-0.14552 -0.0291,-0.26458 -0.26458,-0.26458 -0.23546,0 -0.35452,0.11906 -0.26458,0.26458 0.0899,0.14552 0.209,0.26459 0.26458,0.26459 0.0556,0 0.17465,-0.11907 0.26458,-0.26459 z m -5.82083,-0.26458 c 0.0899,-0.14552 0.0374,-0.26458 -0.11667,-0.26458 -0.15411,0 -0.2802,0.11906 -0.2802,0.26458 0,0.14552 0.0525,0.26458 0.11667,0.26458 0.0642,0 0.19026,-0.11906 0.2802,-0.26458 z m 3.96875,-0.26458 c 0.0899,-0.14552 -0.0221,-0.26459 -0.24897,-0.26459 -0.22686,0 -0.41249,0.11907 -0.41249,0.26459 0,0.14552 0.11204,0.26458 0.24897,0.26458 0.13693,0 0.32255,-0.11906 0.41249,-0.26458 z m -2.77812,-0.56002 c 0,-0.17245 0.27534,-0.24279 0.66146,-0.16898 0.3638,0.0696 0.66145,0.0309 0.66145,-0.0858 0,-0.40518 -0.4884,-0.51049 -1.16842,-0.25195 -0.48777,0.18545 -0.68366,0.17336 -0.68366,-0.0422 0,-0.16618 -0.0623,-0.2398 -0.13852,-0.16361 -0.19766,0.19766 0.14915,1.008 0.43141,1.008 0.12995,0 0.23628,-0.13294 0.23628,-0.29543 z m -4.692965,-1.34465 c -0.465479,-0.46547 -0.923412,-0.76924 -1.017627,-0.67502 -0.191,0.191 1.196993,1.49986 1.604462,1.51299 0.14272,0.005 -0.12135,-0.37248 -0.586835,-0.83797 z m 1.087275,-0.92725 c -0.29016,-0.38863 -0.69791,-0.76338 -0.906118,-0.83278 -0.208211,-0.0694 -0.02238,0.29152 0.412978,0.80205 0.90859,1.06552 1.28314,1.08885 0.49314,0.0307 z m 1.48902,-0.50368 c 0,-0.0572 -0.24515,-0.10399 -0.54478,-0.10399 -0.29963,0 -0.47441,0.11387 -0.3884,0.25303 0.14118,0.22844 0.93318,0.10195 0.93318,-0.14904 z m 0.70818,-1.08386 c -0.29292,-0.0757 -0.42404,-0.27697 -0.33376,-0.51222 0.0833,-0.21721 0.0338,-0.31644 -0.11287,-0.22583 -0.14385,0.0889 -0.26155,0.0157 -0.26155,-0.16264 0,-0.17837 -0.0704,-0.2539 -0.15645,-0.16785 -0.35518,0.35519 0.20979,1.25372 0.76959,1.22397 0.4762,-0.0253 0.49287,-0.0526 0.095,-0.15543 z m 1.93765,-0.60763 c 0,-0.14552 -0.0525,-0.26458 -0.11667,-0.26458 -0.0642,0 -0.19026,0.11906 -0.2802,0.26458 -0.0899,0.14552 -0.0374,0.26459 0.11667,0.26459 0.15411,0 0.2802,-0.11907 0.2802,-0.26459 z m 2.29306,-0.13229 c 0,-0.21828 -0.15875,-0.39687 -0.35278,-0.39687 -0.44588,0 -0.46161,0.44115 -0.022,0.61852 0.1819,0.0734 0.34065,0.14285 0.35278,0.15434 0.0121,0.0115 0.022,-0.15771 0.022,-0.37599 z m -2.46544,-1.82915 c -0.75422,-0.90377 -1.41512,-1.37063 -1.41512,-0.99964 0,0.3322 1.53794,1.90275 1.86323,1.90275 0.16806,0 -0.0336,-0.4064 -0.44811,-0.90311 z m 9.69738,-2.90095 c 0,-0.0549 -0.18131,-0.25038 -0.40293,-0.4343 -0.3369,-0.27961 -0.37562,-0.26324 -0.23627,0.0999 0.14231,0.37088 0.6392,0.63083 0.6392,0.33441 z m 1.05834,-2.41365 c 0,-0.21828 -0.17486,-0.39687 -0.38857,-0.39687 -0.2367,0 -0.32905,0.15512 -0.23628,0.39687 0.0838,0.21828 0.25862,0.39688 0.38857,0.39688 0.12995,0 0.23628,-0.1786 0.23628,-0.39688 z m 1.05833,-12.56771 c 0.21828,-0.14106 0.27781,-0.25648 0.13229,-0.25648 -0.14552,0 -0.44317,0.11542 -0.66146,0.25648 -0.21828,0.14107 -0.27781,0.25648 -0.13229,0.25648 0.14552,0 0.44318,-0.11541 0.66146,-0.25648 z m 2.11667,-2.11666 c 0,-0.14553 -0.0525,-0.26459 -0.11668,-0.26459 -0.0642,0 -0.19026,0.11906 -0.2802,0.26459 -0.0899,0.14552 -0.0374,0.26458 0.11668,0.26458 0.15411,0 0.2802,-0.11906 0.2802,-0.26458 z m 2.91041,-2.16959 c 0,-0.42741 -0.0782,-0.50384 -0.29444,-0.28763 -0.16195,0.16194 -0.21445,0.42388 -0.11668,0.58208 0.27368,0.44283 0.41112,0.34439 0.41112,-0.29445 z m -9.38183,-7.10843 c 0.28477,-0.46076 -0.0396,-0.55834 -0.40244,-0.12109 -0.20869,0.25146 -0.22877,0.40327 -0.0533,0.40327 0.15475,0 0.35984,-0.12698 0.45576,-0.28218 z m 0.51829,-1.5699 c 0.0899,-0.14552 0.0374,-0.26458 -0.11667,-0.26458 -0.15411,0 -0.2802,0.11906 -0.2802,0.26458 0,0.14552 0.0525,0.26458 0.11667,0.26458 0.0642,0 0.19026,-0.11906 0.2802,-0.26458 z m 0.92604,0.0529 c 0,-0.27491 -0.57327,-0.84667 -0.8489,-0.84667 -0.11765,0 -0.0652,0.23812 0.11656,0.52917 0.33384,0.53456 0.73234,0.70733 0.73234,0.3175 z m 7.54385,-5.29728 c -0.21025,-0.21024 -0.66516,0.26704 -0.50363,0.52839 0.10986,0.17776 0.24622,0.1507 0.3868,-0.0768 0.11942,-0.19322 0.17199,-0.39645 0.11683,-0.45162 z m -73.028221,45.72561 c -0.08994,-0.14552 -0.03743,-0.26458 0.116676,-0.26458 0.154109,0 0.280199,0.11906 0.280199,0.26458 0,0.14552 -0.0525,0.26458 -0.116676,0.26458 -0.06417,0 -0.190262,-0.11906 -0.280199,-0.26458 z m -1.935869,-2.70316 c -0.172199,-0.1722 -0.31309,-0.41684 -0.31309,-0.54366 0,-0.12681 0.192768,-0.0378 0.428374,0.19781 0.235604,0.23561 0.376494,0.48025 0.313089,0.54366 -0.0634,0.0634 -0.256172,-0.0256 -0.428373,-0.19781 z m -8.762312,-0.51237 -0.611503,-0.56971 0.627759,-0.48668 c 0.53382,-0.41386 0.56837,-0.52596 0.230883,-0.74917 -0.523859,-0.34646 -0.688716,-0.33604 -1.10558,0.0698 -0.192296,0.18724 -0.706816,0.34888 -1.143378,0.3592 -0.672465,0.0159 -0.800174,-0.0861 -0.835787,-0.66735 -0.03776,-0.61632 -0.0079,-0.6394 0.293751,-0.2269 0.341471,0.46698 1.096399,0.66351 0.817919,0.21292 -0.08372,-0.13547 -0.03122,-0.32109 0.116676,-0.4125 0.500047,-0.30904 0.278432,-0.70281 -0.293401,-0.52131 -0.378392,0.12009 -0.503087,0.0827 -0.38126,-0.11447 0.09957,-0.16111 0.385064,-0.29292 0.634426,-0.29292 0.249365,0 0.864725,-0.47625 1.367467,-1.05834 0.502743,-0.58208 1.035833,-1.05471 1.184643,-1.05028 0.148812,0.004 0.0597,0.1308 -0.198019,0.28084 -0.521446,0.30357 -0.379024,0.76944 0.23523,0.76944 0.218281,0 0.331002,-0.10658 0.250489,-0.23686 -0.183494,-0.29689 0.613577,-0.65883 1.268558,-0.57602 0.295444,0.0373 0.421312,-0.0521 0.315114,-0.22392 -0.249476,-0.40366 0.09288,-0.86318 0.467997,-0.62815 0.171844,0.10767 0.431509,0.20571 0.57703,0.21787 0.352719,0.0295 1.138497,0.33225 2.16268,0.83331 0.520793,0.25479 0.786411,0.54987 0.699297,0.77689 -0.08369,0.21809 0.03139,0.36605 0.284715,0.36605 0.233852,0 0.425183,0.11906 0.425183,0.26458 0,0.14552 0.188516,0.26459 0.418923,0.26459 0.230409,0 0.364355,0.14882 0.297656,0.33073 -0.0667,0.1819 -0.258239,0.29995 -0.425648,0.26234 -0.16741,-0.0376 -0.654138,0.2894 -1.08162,0.72671 -0.672348,0.6878 -2.39386,1.62568 -4.071493,2.21815 -0.273105,0.0965 -0.658648,0.0408 -0.856766,-0.12358 -0.275947,-0.22902 -0.398507,-0.19915 -0.523938,0.12772 -0.216286,0.56364 -0.416229,0.53872 -1.148003,-0.14302 z m 1.792118,-2.645 c 0.04937,-0.12889 0.25773,-0.4023 0.463021,-0.60759 0.560366,-0.56037 0.449582,-0.73769 -0.222062,-0.35544 -0.327422,0.18635 -0.773907,0.33937 -0.992188,0.34004 -0.218281,8e-4 -0.436377,0.28023 -0.484658,0.62124 -0.07651,0.54039 -0.0086,0.59536 0.529166,0.42804 0.339323,-0.10557 0.657347,-0.29741 0.706721,-0.42629 z m 69.119664,1.73744 c 0.0127,-0.30823 0.0754,-0.37092 0.15985,-0.15985 0.0764,0.19099 0.067,0.4192 -0.0209,0.50712 -0.0879,0.0879 -0.15046,-0.0684 -0.13897,-0.34727 z m -59.491508,-0.689 c 0.0576,-0.17281 0.246197,-0.36135 0.419102,-0.41898 0.193344,-0.0644 0.252476,0.0565 0.153593,0.31419 -0.184552,0.48093 -0.731435,0.581 -0.572695,0.10479 z m -15.212441,-4.74572 c 0.179477,-0.18082 0.392969,-0.26212 0.474432,-0.18066 0.08146,0.0815 -0.06538,0.22941 -0.326319,0.32877 -0.377084,0.14358 -0.407474,0.11319 -0.148113,-0.14811 z m -1.649236,-0.67768 c -0.975188,-0.52183 -1.163079,-0.79288 -0.995045,-1.43545 0.145915,-0.55797 -0.01281,-0.61631 -0.690295,-0.25373 -0.313917,0.16801 -0.951402,0.084 -2.008052,-0.26458 -1.898957,-0.62647 -2.63865,-0.66115 -2.428635,-0.11386 0.214601,0.55925 -0.251841,0.49288 -1.137385,-0.16183 -0.675341,-0.4993 -0.859663,-0.5244 -1.733439,-0.23603 -0.66511,0.21951 -1.064101,0.23633 -1.247828,0.0526 -0.381212,-0.38121 -0.01551,-0.8555 0.505502,-0.65558 0.323795,0.12425 0.392041,0.0564 0.268155,-0.26639 -0.109661,-0.28577 0.08787,-0.63884 0.580798,-1.03812 0.41084,-0.33279 0.818293,-0.90813 0.905454,-1.27854 0.149649,-0.63597 0.107374,-0.66751 -0.759023,-0.56637 -0.504624,0.0589 -0.917498,-0.01 -0.917498,-0.1526 0,-0.14284 -0.461984,-0.33359 -1.026631,-0.42388 -0.703136,-0.11243 -1.169287,-0.38188 -1.479357,-0.85511 -0.62375,-0.95196 -0.7155,-2.43503 -0.169707,-2.7432 0.341707,-0.19294 0.360839,-0.30749 0.09601,-0.57493 -0.464174,-0.46873 -0.411665,-1.02189 0.097,-1.02189 0.297569,0 0.385594,-0.16114 0.289259,-0.52953 -0.07616,-0.29125 -0.03575,-0.46605 0.08981,-0.38845 0.409959,0.25337 1.115105,-1.14905 0.936186,-1.86192 -0.15907,-0.63379 -0.203515,-0.64844 -0.890135,-0.29337 -0.691674,0.35768 -0.768104,0.32906 -1.779966,-0.6663 -0.819111,-0.80575 -0.975127,-1.09103 -0.692634,-1.26648 0.200543,-0.12455 0.290295,-0.34672 0.199445,-0.49372 -0.09085,-0.147 0.177065,-0.60679 0.59536,-1.02177 1.134168,-1.12517 1.455555,-1.33802 2.302275,-1.52476 0.424394,-0.0936 1.1753,-0.58367 1.668679,-1.08903 0.892741,-0.91442 0.892051,-1.30302 -7.94e-4,-0.49494 -0.257622,0.23315 -0.80278,0.44003 -1.211458,0.45974 -0.408678,0.0197 -0.802582,0.0968 -0.875342,0.17141 -0.258646,0.26507 -1.99902,0.99373 -2.786698,1.16674 -0.586843,0.12889 -0.939294,0.0466 -1.321858,-0.30877 -0.554537,-0.51507 -1.449501,-0.96631 -1.778423,-0.89669 -0.559104,0.11835 -0.09582,-0.80406 0.529166,-1.05358 1.853637,-0.74005 5.404462,-2.6198 5.677263,-3.00546 1.614368,-2.28223 2.018345,-2.0402 2.870557,1.7198 0.181404,0.80036 0.485831,1.69528 0.676503,1.9887 0.190672,0.29342 0.524478,1.03744 0.741788,1.65336 0.350052,0.99216 1.813444,3.6072 3.126835,5.58758 0.73233,1.10423 0.996117,1.85263 0.996117,2.82612 0,0.83001 0.06769,0.90882 0.780603,0.90882 0.429331,0 0.875816,0.16532 0.992187,0.36738 0.116372,0.20206 0.44971,0.41498 0.740752,0.47316 0.320653,0.0641 0.512524,0.2972 0.486931,0.59158 -0.09841,1.13197 2.704666,4.44517 5.761228,6.8097 1.571389,1.21562 2.023626,1.70125 1.816573,1.95073 -0.717364,0.86438 -3.029471,0.52465 -4.29442,-0.63099 -0.869754,-0.7946 -0.976471,-0.46786 -0.138517,0.4241 0.411205,0.4377 0.459232,0.57722 0.159054,0.46203 -0.236516,-0.0908 -0.51649,-0.0251 -0.62216,0.14585 -0.142655,0.23083 -0.24966,0.21844 -0.415565,-0.0481 -0.181321,-0.29131 -0.324022,-0.29663 -0.757087,-0.0282 -0.665696,0.41256 -0.756462,0.40652 -1.731454,-0.1152 z m 1.057712,-0.83351 c -0.189217,-0.18922 -0.92542,0.19234 -0.92542,0.47962 0,0.17414 0.189825,0.15658 0.517133,-0.0478 0.284425,-0.17763 0.468154,-0.37194 0.408287,-0.4318 z m 4.66458,-0.49115 c 0.199718,-0.24621 0.232516,-0.36951 0.07288,-0.27399 -0.159631,0.0955 -0.62839,-0.17928 -1.041688,-0.61067 -0.413295,-0.43138 -0.904322,-0.78434 -1.091173,-0.78434 -0.251191,0 0.737922,1.24053 1.663104,2.08583 0.01855,0.017 0.197155,-0.17061 0.396875,-0.41683 z M 23.759512,95.72683 c -0.214109,-0.34644 -0.936922,-0.37498 -0.936922,-0.037 0,0.13485 0.20836,0.29152 0.463021,0.34817 0.577398,0.12843 0.697037,0.0499 0.473901,-0.31117 z M 19.64759,87.50714 c 0,-0.14552 -0.126089,-0.26458 -0.280199,-0.26458 -0.154109,0 -0.206613,0.11906 -0.116676,0.26458 0.08994,0.14552 0.216027,0.26459 0.280199,0.26459 0.06417,0 0.116676,-0.11907 0.116676,-0.26459 z M 6.177293,81.84356 C 5.682586,81.31697 5.630545,81.11138 5.875898,80.65294 c 0.163108,-0.30477 0.451427,-0.55413 0.640705,-0.55413 0.18928,0 0.891884,-0.42674 1.561343,-0.94831 0.858544,-0.66889 1.170318,-1.07818 1.0581,-1.38906 -0.281199,-0.77902 -1.517176,-2.41365 -1.829419,-2.41948 -0.35892,-0.007 -0.687202,-0.74705 -0.479951,-1.08239 0.07996,-0.12939 0.0181,-0.4731 -0.137496,-0.76381 -0.240001,-0.44845 -0.121531,-0.68993 0.781513,-1.59297 0.585419,-0.58542 1.178173,-1.0644 1.317231,-1.0644 0.563382,0 3.715916,-2.3916 3.715916,-2.819 0,-0.0999 0.622411,-0.73915 1.383139,-1.4205 1.312958,-1.17597 1.366739,-1.27482 1.059942,-1.94817 -0.269444,-0.59136 -0.257458,-0.73456 0.07207,-0.86102 0.217395,-0.0834 0.562128,-0.0876 0.766069,-0.009 0.213389,0.0819 0.422415,-0.0551 0.492379,-0.32261 0.138435,-0.52937 3.065809,-2.13147 3.568589,-1.95302 0.181901,0.0646 0.330729,-0.0652 0.330729,-0.28839 0,-0.22318 0.148828,-0.50099 0.330729,-0.61736 1.074634,-0.68749 1.836052,-2.72512 1.018321,-2.72512 -0.140283,0 -0.330634,-0.23813 -0.423008,-0.52917 -0.09237,-0.29104 -0.389549,-0.52917 -0.66039,-0.52917 -0.27084,0 -0.671031,-0.17859 -0.889312,-0.39687 -0.218281,-0.21828 -0.532948,-0.39688 -0.699257,-0.39688 -0.369683,0 0.217827,-0.63471 0.798476,-0.86263 0.246372,-0.0967 0.269203,-0.16169 0.06142,-0.17481 -0.181901,-0.0115 -0.330729,-0.13995 -0.330729,-0.28547 0,-0.14552 0.538334,-0.26459 1.196298,-0.26459 1.033613,0 1.239207,-0.0942 1.511842,-0.69254 0.286269,-0.6283 0.242784,-0.75142 -0.468693,-1.32702 -1.828314,-1.47914 -1.81482,-1.33562 -0.253836,-2.69968 0.776602,-0.67863 1.484939,-1.41247 1.57408,-1.63076 0.08914,-0.21828 0.703059,-0.7945 1.364263,-1.2805 0.661202,-0.486 1.149292,-0.93653 1.084641,-1.00118 -0.119457,-0.11945 -2.131513,0.27833 -2.900572,0.57344 -0.27119,0.10407 -0.678002,-0.12605 -1.140507,-0.64513 -0.395423,-0.4438 -0.831049,-0.73762 -0.968055,-0.65295 -0.137004,0.0847 0.0665,0.48337 0.452228,0.88598 l 0.701329,0.73203 -0.827635,0.12147 c -0.696857,0.10228 -0.887535,0.006 -1.206717,-0.61159 -0.349626,-0.6761 -0.338103,-0.74607 0.148283,-0.90044 0.290049,-0.0921 0.650488,-0.39744 0.800975,-0.67863 0.150485,-0.28119 0.452205,-0.51125 0.670486,-0.51125 0.218282,0 0.685105,-0.18885 1.037389,-0.41968 0.808578,-0.5298 1.088107,-0.35443 1.308616,0.82099 0.09661,0.51497 0.279929,0.87187 0.407377,0.79311 0.132267,-0.0817 0.130376,-0.4966 -0.0044,-0.96656 l -0.236133,-0.82335 0.917086,0.14882 c 1.007171,0.16344 1.046281,0.12413 0.637143,-0.64035 -0.227571,-0.42522 -0.165698,-0.61831 0.330729,-1.03214 l 0.610669,-0.50906 -0.661458,5.3e-4 c -0.363802,2.6e-4 -0.959115,0.17073 -1.322917,0.37869 -0.363802,0.20797 -0.92329,0.38235 -1.243306,0.3875 -0.705337,0.0114 -1.931686,-1.49406 -1.931686,-2.3713 0,-0.69154 1.719194,-2.41752 2.89183,-2.90325 0.407876,-0.16895 0.895638,-0.59501 1.08391,-0.9468 0.188275,-0.3518 0.56138,-0.70915 0.829122,-0.79413 0.267743,-0.085 0.486805,-0.26555 0.486805,-0.40126 0,-0.13572 0.148828,-0.2494 0.330729,-0.25264 0.181901,-0.003 0.628385,-0.23871 0.992187,-0.52328 0.489188,-0.38265 0.550162,-0.51894 0.23412,-0.52328 -0.235038,-0.003 -0.73651,0.23731 -1.114388,0.53454 l -0.687047,0.54043 -1.531448,-1.24217 c -0.842295,-0.68319 -1.569942,-1.40263 -1.61699,-1.59876 -0.04705,-0.19613 -0.187756,-0.3566 -0.312679,-0.3566 -0.124926,0 -0.192225,-0.32742 -0.149559,-0.7276 0.04267,-0.40018 0.192096,-0.7276 0.332066,-0.7276 0.499866,0 2.203942,-1.33256 2.368444,-1.85209 0.09215,-0.29104 0.261122,-0.58988 0.375486,-0.6641 0.500353,-0.32469 2.263375,-1.77865 2.964421,-2.44475 0.421179,-0.40018 0.845917,-0.72768 0.943864,-0.72777 0.09795,-9e-5 0.860478,-0.53588 1.69451,-1.19063 0.834033,-0.65475 1.637705,-1.19046 1.785938,-1.19046 0.148233,0 0.269512,-0.10892 0.269512,-0.24205 0,-0.38851 2.608699,-2.19338 2.9053,-2.01007 0.148336,0.0917 0.418386,0.0748 0.600112,-0.0375 0.181726,-0.11231 0.56868,-0.20864 0.859896,-0.21405 0.291216,-0.005 0.645467,-0.27415 0.787225,-0.59718 0.141759,-0.32303 0.430914,-0.62069 0.642567,-0.66146 0.307547,-0.0592 0.282356,-0.17741 -0.125452,-0.58849 -0.434988,-0.43847 -0.443211,-0.48897 -0.05573,-0.34228 0.250002,0.0946 0.518011,0.0694 0.595577,-0.0561 0.07756,-0.12551 0.362616,-0.17025 0.633444,-0.0994 0.295344,0.0772 0.556641,-0.0386 0.652891,-0.28942 0.08826,-0.23001 0.339069,-0.4182 0.55735,-0.4182 0.235056,0 0.337802,-0.15394 0.251989,-0.37757 -0.106116,-0.27653 0.0038,-0.33868 0.410755,-0.23226 0.466291,0.12194 0.50156,0.2111 0.219337,0.55448 -0.294269,0.35804 -0.233021,0.38874 0.489995,0.2456 0.6482,-0.12832 0.947201,-0.0349 1.387211,0.43348 0.434432,0.46243 0.489736,0.66823 0.245261,0.91271 -0.244475,0.24447 -0.244057,0.31565 0.0019,0.31565 0.174625,0 0.3034,0.0893 0.286168,0.19843 -0.07905,0.50063 0.05223,0.87822 0.260553,0.74946 0.126074,-0.0779 0.433642,0.0842 0.683483,0.36029 0.4435,0.49006 0.481938,0.48244 1.622861,-0.32176 0.642731,-0.45304 1.168601,-0.92247 1.168601,-1.04318 0,-0.12072 0.522343,-0.55074 1.160764,-0.95561 1.359821,-0.86238 3.686567,-2.82663 5.485707,-4.63106 0.704906,-0.70698 1.463609,-1.23886 1.698374,-1.19063 0.412149,0.0847 1.232289,1.43495 2.101937,3.46062 0.234281,0.5457 0.469514,0.99219 0.522745,0.99219 0.05323,0 0.729541,-0.41672 1.502908,-0.92604 0.773369,-0.50933 1.602618,-0.92605 1.84278,-0.92605 0.240163,0 0.584878,-0.17859 0.766035,-0.39687 0.432218,-0.52079 0.695177,-0.50137 0.895353,0.0661 0.08983,0.25467 0.232698,0.61185 0.317492,0.79375 0.09291,0.19933 -0.03856,0.33393 -0.330901,0.33878 -0.457145,0.008 -0.458325,0.0236 -0.02053,0.27858 0.329404,0.19184 0.417275,0.4589 0.302046,0.918 -0.09918,0.3952 -0.04823,0.64746 0.130775,0.64746 0.161298,0 0.293267,0.29765 0.293267,0.66146 0,0.9084 0.431332,0.84958 2.910417,-0.39688 1.157705,-0.58208 2.315922,-1.0574 2.573814,-1.05627 0.632515,0.003 1.079203,1.05452 0.973174,2.29135 -0.203131,2.36945 0.42944,2.49592 2.437958,0.4874 0.798889,-0.79889 2.011514,-1.83582 2.694726,-2.30429 0.683213,-0.46848 1.757339,-1.2436 2.386949,-1.72248 0.629608,-0.47889 1.295927,-0.87071 1.480704,-0.87071 1.405345,0 3.327675,2.16564 3.327675,3.74885 0,0.56763 0.229367,1.23388 0.576879,1.67567 0.477184,0.60664 0.577421,1.08148 0.580033,2.74766 0.0045,2.85547 -0.296572,4.23111 -0.891871,4.07544 -0.257297,-0.0673 -0.832996,0.0665 -1.279329,0.29731 -0.446334,0.23081 -1.046419,0.41965 -1.333521,0.41965 -0.287105,0 -0.858565,0.27747 -1.26991,0.61659 -0.928926,0.76583 -2.996004,1.35517 -3.829045,1.0917 -1.111967,-0.3517 -1.867569,-0.96645 -1.562656,-1.27137 0.152993,-0.15299 0.27817,-0.55201 0.27817,-0.88671 0,-0.95838 0.952886,-0.80505 1.150938,0.18521 0.123655,0.61828 0.299614,0.79375 0.795964,0.79375 0.674127,0 0.95304,-0.55219 0.959903,-1.9004 0.0042,-0.81861 -0.651327,-1.14066 -1.805633,-0.88713 -0.523536,0.11498 -0.937329,0.006 -1.419154,-0.37268 -0.823581,-0.64783 -2.943211,-1.22381 -6.002178,-1.631 -2.816524,-0.37493 -9.390079,-0.14749 -11.406923,0.39466 -2.53042,0.68021 -3.538691,0.99581 -4.7625,1.49071 -0.654844,0.26482 -2.440782,0.9796 -3.96875,1.58841 -3.638902,1.44989 -7.523676,3.50228 -8.783532,4.64048 -0.554167,0.50066 -1.096531,0.91155 -1.205251,0.91311 -0.108723,0.002 -0.763543,0.52471 -1.455158,1.16259 -1.736016,1.60111 -1.978655,1.65319 -3.016388,0.64738 -1.190403,-1.15378 -1.360868,-0.83138 -0.247906,0.46887 0.720732,0.84201 0.845404,1.14584 0.628919,1.53268 -0.218577,0.39057 -0.313745,0.41343 -0.499628,0.12 -0.185436,-0.29272 -0.230399,-0.28126 -0.233672,0.0595 -0.0021,0.23211 -0.269891,0.64883 -0.594805,0.92604 -0.582588,0.49707 -0.585329,0.49693 -0.198437,-0.01 0.215773,-0.28259 0.267568,-0.43928 0.115099,-0.34818 -0.34834,0.20811 -0.740061,-0.0442 -1.126411,-0.72551 -0.289126,-0.50986 -0.300365,-0.50654 -0.308118,0.0909 -0.005,0.38635 0.177422,0.66858 0.483981,0.74875 0.270616,0.0708 0.478976,0.33371 0.463021,0.58431 -0.0331,0.52001 -1.798579,2.67707 -2.191078,2.67707 -0.142576,0 -0.538861,-0.29765 -0.880636,-0.66145 -0.341776,-0.36381 -0.741993,-0.66146 -0.889373,-0.66146 -0.147379,0 0.075,0.35797 0.49417,0.79549 1.020056,1.06471 0.627472,1.5538 -0.883772,1.10101 -1.37967,-0.41335 -1.838881,-0.41061 -1.419775,0.008 0.174625,0.17462 0.3175,0.56485 0.3175,0.86717 0,0.30232 0.185346,0.81429 0.411877,1.13771 0.230862,0.3296 0.289004,0.58803 0.132291,0.58803 -0.15377,0 -0.279585,0.2311 -0.279585,0.51356 0,0.28245 -0.119062,0.58713 -0.264583,0.67707 -0.145521,0.0899 -0.264584,0.46124 -0.264584,0.82513 0,0.36389 -0.47893,1.66507 -1.064291,2.89152 -0.585359,1.22645 -1.136023,2.58857 -1.223698,3.02694 -0.08767,0.43837 -0.263586,0.79703 -0.390917,0.79703 -0.127331,0 -0.23151,0.23232 -0.23151,0.51626 0,0.28395 -0.194564,1.20668 -0.432364,2.05052 -0.464748,1.64919 -0.503984,2.21016 -0.228981,3.27379 0.130389,0.50431 0.01093,0.88217 -0.460113,1.45521 -0.499502,0.60768 -0.702286,1.3142 -0.943581,3.28756 -0.501412,4.10064 -0.61682,6.73069 -0.347874,7.92769 l 0.252913,1.12563 -0.769324,-0.73706 c -0.423127,-0.40538 -0.834096,-0.67229 -0.91326,-0.59312 -0.07917,0.0792 0.291214,0.52601 0.823069,0.99298 0.881091,0.77361 0.979098,0.99968 1.103106,2.54455 0.098,1.22086 0.03347,1.82048 -0.230518,2.14193 -0.201637,0.24554 -2.270123,1.37448 -4.59663,2.50875 L 12.907417,79.81587 12.0442,78.97921 c -1.009478,-0.97843 -1.177642,-0.69313 -0.195619,0.33188 l 0.667591,0.69682 -0.667591,0.30417 c -0.549876,0.25054 -0.667594,0.2352 -0.667594,-0.087 0,-0.56213 -0.871953,-0.48168 -1.681557,0.15515 C 9.117409,80.68074 8.684635,80.8523 8.537709,80.7615 8.390783,80.6707 8.27057,80.782 8.27057,81.00888 c 0,0.55274 0.321728,0.51953 1.13053,-0.11667 0.690356,-0.54303 1.515303,-0.70705 1.515303,-0.30127 0,0.17891 -3.665355,1.88877 -4.048884,1.88877 -0.05071,0 -0.361289,-0.28642 -0.690163,-0.6365 z m 3.50978,-2.86561 c -0.152781,-0.2472 -1.151983,0.2525 -1.151983,0.57611 0,0.12671 0.287494,0.0947 0.638874,-0.0711 0.35138,-0.16583 0.582279,-0.39307 0.513109,-0.50499 z m 4.82628,-0.79281 c 0.434121,-0.50882 0.438304,-0.53977 0.03017,-0.22319 -0.420958,0.32653 -0.575594,0.26896 -1.385099,-0.51564 -0.50118,-0.48576 -0.991508,-0.80294 -1.089616,-0.70483 -0.162501,0.16251 1.414209,1.93521 1.783091,2.00474 0.08659,0.0163 0.384244,-0.23617 0.661458,-0.56108 z m 1.079871,-2.24043 c -0.05524,-0.53851 -0.256146,-1.031 -0.44645,-1.09444 -0.234728,-0.0782 -0.289539,0.0318 -0.170424,0.34222 0.09657,0.25166 0.24751,0.74416 0.335426,1.09444 0.23985,0.95564 0.395213,0.76673 0.281448,-0.34222 z m 1.286203,-1.33601 c -0.09884,-0.40018 -0.298762,-0.84666 -0.444283,-0.99218 -0.176387,-0.17639 -0.202308,-0.0126 -0.07776,0.49142 0.129014,0.52205 0.0734,0.82783 -0.179712,0.98813 -0.270622,0.17139 -0.203248,0.2332 0.257455,0.23619 0.548423,0.004 0.602231,-0.0841 0.4443,-0.72356 z m 2.898582,-1.65061 c 0.09269,-0.14998 -0.01352,-0.19434 -0.248968,-0.10399 -0.238649,0.0916 -0.410617,0.0164 -0.410617,-0.17942 0,-0.18534 -0.07145,-0.26553 -0.158787,-0.1782 -0.198327,0.19833 0.108934,0.72316 0.42337,0.72316 0.128344,0 0.306096,-0.1177 0.395002,-0.26155 z m 0.398748,-1.19366 c -0.363802,-0.20796 -0.959115,-0.37267 -1.322917,-0.36601 -0.644951,0.0118 -0.641651,0.0212 0.132292,0.37557 0.436563,0.1999 1.031875,0.3646 1.322917,0.36601 0.466627,0.002 0.450993,-0.0421 -0.132292,-0.37557 z M 30.32307,37.65959 c -0.268962,-0.36918 -0.635937,-0.67498 -0.815499,-0.67955 -0.179562,-0.005 -0.0024,0.3403 0.39387,0.76639 0.854487,0.91897 1.115269,0.86526 0.421629,-0.0868 z m 1.296916,-0.33393 c -0.181901,-0.0734 -0.479557,-0.0734 -0.661458,0 -0.181901,0.0734 -0.03307,0.13346 0.330729,0.13346 0.363802,0 0.51263,-0.0601 0.330729,-0.13346 z m -0.716724,-1.13008 c -0.09592,-0.1552 -0.291132,-0.28219 -0.433801,-0.28219 -0.142671,0 -0.105878,0.16659 0.08176,0.37019 0.379852,0.41217 0.62352,0.35126 0.352041,-0.088 z M 81.824674,20.30297 c 0,-0.14552 -0.12609,-0.26458 -0.280199,-0.26458 -0.15411,0 -0.206613,0.11906 -0.116676,0.26458 0.08994,0.14552 0.216027,0.26459 0.280199,0.26459 0.06417,0 0.116676,-0.11907 0.116676,-0.26459 z m 28.988886,52.04536 c 0.0994,-0.26093 0.2473,-0.40778 0.32876,-0.32631 0.0815,0.0815 1.7e-4,0.29495 -0.18065,0.47443 -0.26131,0.25936 -0.2917,0.22897 -0.14811,-0.14812 z m -0.22305,-3.06958 c -0.48296,-0.81758 -0.63812,-3.82814 -0.23042,-4.47078 0.11929,-0.18804 0.13765,-0.86399 0.0408,-1.50212 -0.0968,-0.63813 -0.0634,-1.36167 0.0744,-1.60786 0.1594,-0.28484 0.15644,-0.50832 -0.008,-0.61454 -0.14226,-0.0918 -0.35956,-0.76225 -0.48291,-1.48985 -0.25198,-1.48645 -0.25149,-1.56681 0.016,-2.57969 0.1531,-0.57967 0.10247,-0.7276 -0.249,-0.7276 -0.24529,0 -0.36369,-0.12539 -0.26665,-0.28239 0.096,-0.15532 -0.0528,-0.34185 -0.33073,-0.41452 -0.30371,-0.0794 -0.68525,-0.61777 -0.95647,-1.34956 -0.43771,-1.18101 -0.43662,-1.20423 0.0365,-0.77611 0.57086,0.51662 1.00113,0.56284 1.26501,0.13586 0.11346,-0.18358 0.0729,-0.23386 -0.10158,-0.12601 -0.37955,0.23458 -2.05917,-1.45168 -2.2444,-2.25327 -0.29737,-1.28683 -1.33302,-4.10603 -1.94394,-5.29169 -0.63533,-1.23302 -0.72774,-2.2952 -0.23326,-2.68108 0.14552,-0.11356 -0.0628,-0.13042 -0.46302,-0.0375 -0.45778,0.10633 -0.72761,0.0602 -0.72761,-0.12426 0,-0.16129 0.29766,-0.29326 0.66146,-0.29326 0.3638,0 0.66146,-0.11906 0.66146,-0.26459 0,-0.14552 -0.10717,-0.26458 -0.23815,-0.26458 -0.13098,0 -0.22028,-0.46945 -0.19844,-1.04322 0.0285,-0.74885 0.17038,-1.07784 0.50274,-1.16586 0.28989,-0.0768 0.46302,0.026 0.46302,0.2748 0,0.65619 0.87862,1.93578 1.31381,1.91339 0.27217,-0.014 0.29697,-0.0649 0.0752,-0.15434 -0.48822,-0.197 -0.40167,-0.61532 0.1323,-0.63941 0.25466,-0.0115 0.32088,-0.0787 0.14715,-0.14938 -0.17373,-0.0707 -0.25028,-0.2994 -0.17013,-0.50828 0.0802,-0.20888 0.014,-0.37978 -0.14714,-0.37978 -0.16109,0 -0.29289,0.12756 -0.29289,0.28348 0,0.15591 -0.19438,0.0891 -0.43196,-0.14848 -0.33436,-0.33436 -0.3706,-0.56666 -0.16038,-1.02803 0.18607,-0.40839 0.18549,-0.74988 -0.002,-1.08462 -0.22769,-0.40686 -0.19726,-0.45933 0.18202,-0.31378 0.25048,0.0961 0.50103,0.17476 0.55677,0.17476 0.0557,0 0.22735,0.23545 0.38136,0.52321 0.21451,0.40082 0.20109,0.49293 -0.0574,0.39374 -0.18557,-0.0712 -0.48699,0.11007 -0.66982,0.40283 -0.19637,0.31449 -0.22322,0.5323 -0.0656,0.5323 0.14675,0 0.26682,-0.11426 0.26682,-0.25393 0,-0.13966 0.35084,-0.22896 0.77964,-0.19843 0.49169,0.035 0.68713,0.14832 0.52916,0.30684 -0.39683,0.39824 -0.29399,0.93937 0.14641,0.77037 0.21828,-0.0838 0.39688,-0.0205 0.39688,0.1406 0,0.16109 0.1318,0.29289 0.29289,0.29289 0.16109,0 0.22669,-0.1725 0.14579,-0.38333 -0.089,-0.23193 0.0566,-0.44797 0.36857,-0.547 0.28361,-0.09 0.51566,-0.2747 0.51566,-0.41042 0,-0.13571 0.29766,-0.24675 0.66146,-0.24675 0.38525,0 0.63384,0.13689 0.59531,0.32783 -0.0428,0.21191 0.21454,0.30783 0.72761,0.27125 0.43656,-0.0311 0.64492,0.01 0.46302,0.0911 -0.50007,0.22329 -0.39664,0.51517 0.19844,0.56 0.36083,0.0272 0.52916,-0.12325 0.52916,-0.47287 0,-0.28199 0.11533,-0.51272 0.25628,-0.51272 0.14096,0 0.18775,0.17859 0.10399,0.39688 -0.0838,0.21846 -0.008,0.39687 0.1689,0.39687 0.17666,0 0.25823,0.16409 0.18127,0.36463 -0.17656,0.46012 0.30689,0.95829 0.92998,0.95829 0.26194,0 0.47625,0.11906 0.47625,0.26458 0,0.14552 0.11533,0.26458 0.25628,0.26458 0.14095,0 0.18142,-0.20836 0.0899,-0.46302 -0.12597,-0.3506 0.004,-0.30729 0.53747,0.17841 0.78927,0.71931 0.92354,1.52482 0.27573,1.65428 -0.34703,0.0693 -0.29248,0.22093 0.28802,0.8005 0.42243,0.42175 0.63548,0.84542 0.5195,1.03307 -0.11442,0.18514 -0.0851,0.24919 0.0702,0.15323 0.27726,-0.17135 0.99645,1.10652 0.75733,1.34564 -0.0747,0.0747 -0.32015,-0.0172 -0.54547,-0.20419 -0.22531,-0.18699 -0.48335,-0.26629 -0.57343,-0.17622 -0.0901,0.0901 0.0354,0.2402 0.27886,0.33362 0.2894,0.11105 0.38793,0.3422 0.28463,0.66768 -0.0869,0.27381 -0.0508,0.49784 0.0802,0.49784 0.13101,0 0.21488,0.26789 0.18639,0.59531 -0.0713,0.81888 0.2968,1.45141 0.96867,1.66465 0.44333,0.14071 0.48596,0.22882 0.19872,0.41074 -0.27459,0.17391 -0.22277,0.23262 0.20798,0.23566 0.92617,0.007 1.4107,0.29029 1.4107,0.82611 0,0.27547 -0.10632,0.50086 -0.23627,0.50086 -0.12996,0 -0.30426,0.17717 -0.38736,0.3937 -0.0847,0.22076 -0.0169,0.36604 0.15442,0.33073 0.16802,-0.0346 0.34873,0.17515 0.40158,0.4662 0.0569,0.31337 0.009,0.41091 -0.11658,0.23917 -0.2501,-0.34104 -1.66787,-0.73181 -1.66787,-0.4597 0,0.10253 0.25771,0.46074 0.57268,0.79601 0.55536,0.59116 0.55812,0.62569 0.0913,1.14154 -0.41842,0.46235 -0.42616,0.53193 -0.0591,0.53193 0.23225,0 0.49266,0.11389 0.57869,0.25309 0.15187,0.24575 -0.5188,0.19833 -2.00088,-0.14145 -0.59008,-0.13528 -0.6789,-0.0735 -0.64064,0.44586 0.0293,0.39716 0.28562,0.68331 0.75121,0.8385 0.38873,0.12958 0.70678,0.3632 0.70678,0.51914 0,0.15595 0.25832,0.0567 0.57404,-0.22048 0.56622,-0.49718 0.57132,-0.49683 0.37502,0.0251 -0.4295,1.14209 -0.38736,2.37222 0.0967,2.82322 0.60867,0.56705 0.41862,1.71509 -0.35054,2.11766 -0.30962,0.16205 -0.8606,0.61275 -1.2244,1.00155 -0.3638,0.3888 -1.07818,0.96022 -1.5875,1.26982 -0.50932,0.3096 -1.07809,0.81133 -1.26392,1.11496 -0.18583,0.30363 -0.9649,0.95316 -1.73126,1.44339 -1.56448,1.00078 -2.08573,1.5309 -1.97504,2.00859 0.15494,0.66863 -0.48549,0.50099 -0.92436,-0.24195 z m 0.8675,-0.6737 c 0,-0.0642 -0.11907,-0.19026 -0.26459,-0.2802 -0.14552,-0.0899 -0.26458,-0.0374 -0.26458,0.11668 0,0.15411 0.11906,0.2802 0.26458,0.2802 0.14552,0 0.26459,-0.0525 0.26459,-0.11668 z m 0.40775,-6.51551 c 0.27148,-0.43927 0.0278,-0.50018 -0.35204,-0.088 -0.18764,0.2036 -0.22443,0.37018 -0.0818,0.37018 0.14267,0 0.33788,-0.12698 0.4338,-0.28218 z m 4.09016,-0.77615 c 0,-0.14552 -0.11906,-0.26458 -0.26458,-0.26458 -0.14552,0 -0.26458,0.11906 -0.26458,0.26458 0,0.14552 0.11906,0.26458 0.26458,0.26458 0.14552,0 0.26458,-0.11906 0.26458,-0.26458 z m -2.38125,-0.91042 c 0,-0.0642 -0.11906,-0.19027 -0.26458,-0.2802 -0.14552,-0.0899 -0.26458,-0.0374 -0.26458,0.11667 0,0.15411 0.11906,0.2802 0.26458,0.2802 0.14552,0 0.26458,-0.0525 0.26458,-0.11667 z m 2.83452,-0.50699 c 0.50635,0.12708 0.64356,0.0776 0.55149,-0.19889 -0.0674,-0.20244 -0.32087,-0.40653 -0.56324,-0.45354 -0.4956,-0.0961 -1.30815,0.58585 -1.02974,0.86425 0.0992,0.0992 0.22242,0.054 0.27388,-0.10033 0.054,-0.16194 0.3787,-0.2091 0.76761,-0.11149 z m 2.10171,-1.40748 c -0.0767,-0.0767 -0.42957,-0.15702 -0.78426,-0.17859 -0.39704,-0.0242 -0.59613,-0.16633 -0.51803,-0.36996 0.0698,-0.1819 -0.005,-0.33073 -0.16605,-0.33073 -0.16109,0 -0.29289,0.11533 -0.29289,0.25629 0,0.14095 -0.16655,0.19236 -0.37011,0.11425 -0.20356,-0.0781 -0.44871,-0.0148 -0.54478,0.14059 -0.0961,0.15544 -0.0416,0.28262 0.12114,0.28262 0.1627,0 0.21588,0.12934 0.11819,0.28742 -0.11899,0.19253 0.15277,0.25895 0.82315,0.20119 0.6768,-0.0583 1.04023,0.0321 1.12264,0.27936 0.0951,0.28533 0.17767,0.26584 0.37611,-0.0888 0.13984,-0.24988 0.19154,-0.51704 0.11489,-0.59369 z m -7.97894,-0.0855 c -0.0899,-0.14552 -0.28258,-0.26458 -0.4281,-0.26458 -0.14552,0 -0.191,0.11906 -0.10106,0.26458 0.0899,0.14553 0.28258,0.26459 0.4281,0.26459 0.14552,0 0.191,-0.11906 0.10106,-0.26459 z m 6.21771,-1.05833 c 0,-0.14552 -0.17859,-0.26458 -0.39687,-0.26458 -0.21828,0 -0.39688,0.11906 -0.39688,0.26458 0,0.14552 0.1786,0.26458 0.39688,0.26458 0.21828,0 0.39687,-0.11906 0.39687,-0.26458 z m -1.85208,-3.19061 c 0,-0.13694 -0.11906,-0.24897 -0.26458,-0.24897 -0.14552,0 -0.26459,0.18562 -0.26459,0.41249 0,0.22687 0.11907,0.3389 0.26459,0.24897 0.14552,-0.0899 0.26458,-0.27556 0.26458,-0.41249 z m 4.64109,-1.32491 c 0.27148,-0.43926 0.0278,-0.50017 -0.35204,-0.088 -0.18764,0.2036 -0.22443,0.37019 -0.0818,0.37019 0.14267,0 0.33787,-0.12699 0.4338,-0.28219 z m -8.8834,-1.60118 c -0.23318,-0.81306 -0.22915,-0.81727 0.68095,-0.71102 0.50354,0.0588 0.91553,0.0858 0.91553,0.06 0,-0.0258 -0.18557,-0.49098 -0.41238,-1.0338 -0.4678,-1.11961 -0.80888,-1.12816 -0.38362,-0.01 0.26876,0.70688 0.25296,0.72539 -0.52176,0.61168 -0.85965,-0.12616 -0.90761,-0.0248 -0.63441,1.34123 0.0905,0.45239 0.26031,0.76333 0.37739,0.69096 0.11708,-0.0724 0.10732,-0.49962 -0.0217,-0.94946 z m 5.56523,0.56045 c 0,-0.14552 -0.0525,-0.26458 -0.11668,-0.26458 -0.0642,0 -0.19026,0.11906 -0.2802,0.26458 -0.0899,0.14552 -0.0374,0.26458 0.11668,0.26458 0.15411,0 0.2802,-0.11906 0.2802,-0.26458 z m 2.11078,0.01 c -0.0119,-0.28815 -1.04089,-1.45541 -1.04657,-1.18723 -0.003,0.15279 0.13699,0.42068 0.31162,0.59531 0.24694,0.24694 0.24694,0.3175 0,0.3175 -0.17462,0 -0.3175,0.11166 -0.3175,0.24814 0,0.13647 0.23813,0.2302 0.52917,0.20828 0.29104,-0.0219 0.52652,-0.10383 0.52328,-0.182 z m -4.82827,-2.55094 c -0.0879,-0.0879 -0.31613,-0.0973 -0.50712,-0.0209 -0.21107,0.0845 -0.14838,0.14716 0.15985,0.15985 0.27891,0.0115 0.43518,-0.051 0.34727,-0.13896 z m 1.23502,-0.85438 c 0.075,-0.12127 -0.0371,-0.22049 -0.24896,-0.22049 -0.21188,0 -0.38524,0.0992 -0.38524,0.22049 0,0.12126 0.11204,0.22048 0.24897,0.22048 0.13693,0 0.31029,-0.0992 0.38523,-0.22048 z m -0.0652,-1.08109 c 0.29185,0.15619 0.72969,0.20301 0.97298,0.10404 0.3213,-0.1307 0.11944,-0.27793 -0.73773,-0.53804 -0.64904,-0.19695 -1.20987,-0.32831 -1.24628,-0.2919 -0.0364,0.0364 0.0135,0.35866 0.11104,0.71611 0.13643,0.50024 0.19937,0.5435 0.27331,0.18786 0.078,-0.37534 0.19564,-0.40876 0.62668,-0.17807 z m 2.07678,-0.98833 c 0,-0.15967 -1.3661,-1.41427 -1.53996,-1.41427 -0.0769,0 0.13985,0.29766 0.48163,0.66146 0.34279,0.36489 0.4751,0.66146 0.29509,0.66146 -0.17948,0 -0.25595,0.11386 -0.16994,0.25303 0.1453,0.2351 0.93318,0.0986 0.93318,-0.16168 z M 106.16634,45.174 c 0,-0.14552 -0.11906,-0.26459 -0.26459,-0.26459 -0.14552,0 -0.26458,0.11907 -0.26458,0.26459 0,0.14552 0.11906,0.26458 0.26458,0.26458 0.14553,0 0.26459,-0.11906 0.26459,-0.26458 z m 6.35,0 c 0,-0.14552 -0.12609,-0.26459 -0.2802,-0.26459 -0.15411,0 -0.20661,0.11907 -0.11668,0.26459 0.0899,0.14552 0.21603,0.26458 0.2802,0.26458 0.0642,0 0.11668,-0.11906 0.11668,-0.26458 z m -3.30729,-0.26459 c 0.0899,-0.14552 0.0374,-0.26458 -0.11668,-0.26458 -0.15411,0 -0.2802,0.11906 -0.2802,0.26458 0,0.14553 0.0525,0.26459 0.11668,0.26459 0.0642,0 0.19026,-0.11906 0.2802,-0.26459 z m 1.08589,-0.45751 c -0.26895,-0.26895 -0.49087,0.13597 -0.2702,0.49302 0.1667,0.26973 0.22902,0.26993 0.31864,10e-4 0.0613,-0.18383 0.0395,-0.40617 -0.0484,-0.49409 z m 0.69986,-1.25596 c -0.0702,-0.36728 -0.23209,-0.66778 -0.35973,-0.66778 -0.12764,0 -0.18214,0.2679 -0.12111,0.59532 0.061,0.32742 0.11982,0.69163 0.13063,0.80936 0.0108,0.11773 0.12276,0.15034 0.24877,0.0725 0.126,-0.0779 0.17165,-0.44209 0.10144,-0.80936 z m -1.18201,-0.40135 c 0.40969,-0.25199 0.40233,-0.27242 -0.0746,-0.20687 -0.71824,0.0987 -1.15361,0.5228 -0.98576,0.9602 0.11109,0.28951 0.18486,0.27834 0.37215,-0.0563 0.12848,-0.22958 0.43816,-0.54323 0.68818,-0.69701 z m -2.05895,0.24713 c 0,-0.15411 -0.11906,-0.20662 -0.26459,-0.11668 -0.14552,0.0899 -0.26458,0.0374 -0.26458,-0.11668 0,-0.15411 -0.13364,-0.2802 -0.29698,-0.2802 -0.20518,0 -0.19517,0.12268 0.0324,0.39688 0.38248,0.46086 0.79375,0.52132 0.79375,0.11668 z m 3.96875,-0.38126 c 0,-0.21829 -0.11906,-0.39688 -0.26459,-0.39688 -0.14552,0 -0.26458,0.17859 -0.26458,0.39688 0,0.21828 0.11906,0.39687 0.26458,0.39687 0.14553,0 0.26459,-0.17859 0.26459,-0.39687 z m 2.74151,0 c 0.0838,-0.21829 0.0515,-0.39688 -0.0716,-0.39688 -0.12313,0 -0.3721,0.17859 -0.55326,0.39688 -0.26813,0.32308 -0.25482,0.39687 0.0716,0.39687 0.22053,0 0.4695,-0.17859 0.55326,-0.39687 z m -0.62485,-0.83392 c 0,-0.0846 -0.23241,-0.0931 -0.51648,-0.0188 -0.28406,0.0743 -0.56542,-0.001 -0.62523,-0.16758 -0.0598,-0.16645 -0.20155,-0.21622 -0.31497,-0.1106 -0.11342,0.10563 -0.0577,0.37102 0.12385,0.58976 0.24584,0.29621 0.45802,0.32923 0.83145,0.12937 0.27576,-0.14757 0.50138,-0.33755 0.50138,-0.42216 z m -2.91041,-0.0921 c 0,-0.14552 -0.18562,-0.26458 -0.41249,-0.26458 -0.22687,0 -0.33891,0.11906 -0.24897,0.26458 0.0899,0.14553 0.27556,0.26459 0.41249,0.26459 0.13693,0 0.24897,-0.11906 0.24897,-0.26459 z m 3.83646,28.04584 c -0.0899,-0.14552 -0.0374,-0.26458 0.11667,-0.26458 0.15411,0 0.2802,0.11906 0.2802,0.26458 0,0.14552 -0.0525,0.26458 -0.11667,0.26458 -0.0642,0 -0.19027,-0.11906 -0.2802,-0.26458 z m 3.30729,-1.33853 c 0,-0.29963 0.11906,-0.4712 0.26458,-0.38126 0.14552,0.0899 0.26458,0.33509 0.26458,0.54478 0,0.20969 -0.11906,0.38126 -0.26458,0.38126 -0.14552,0 -0.26458,-0.24515 -0.26458,-0.54478 z m 1.85208,-11.33024 c 0,-0.14552 0.11906,-0.33817 0.26458,-0.42811 0.14553,-0.0899 0.26459,-0.0444 0.26459,0.10107 0,0.14552 -0.11906,0.33816 -0.26459,0.4281 -0.14552,0.0899 -0.26458,0.0445 -0.26458,-0.10106 z m -1.98437,-0.29582 c -0.0899,-0.14552 -0.0374,-0.26458 0.11667,-0.26458 0.15411,0 0.2802,0.11906 0.2802,0.26458 0,0.14553 -0.0525,0.26459 -0.11667,0.26459 -0.0642,0 -0.19027,-0.11906 -0.2802,-0.26459 z m 2.24895,-1.06439 c 0,-0.15132 0.18373,-0.34563 0.40829,-0.4318 0.62055,-0.23813 0.69341,0.0189 0.10885,0.38397 -0.32731,0.20441 -0.51714,0.22197 -0.51714,0.0478 z m -0.79375,-5.81477 c 0,-0.14552 0.12609,-0.26459 0.2802,-0.26459 0.15411,0 0.20662,0.11907 0.11668,0.26459 -0.0899,0.14552 -0.21603,0.26458 -0.2802,0.26458 -0.0642,0 -0.11668,-0.11906 -0.11668,-0.26458 z M 23.616338,43.08567 c 0,-0.12995 0.188331,-0.30855 0.418516,-0.39688 0.563025,-0.21605 0.561768,-0.21645 0.735499,0.23628 0.110027,0.28673 -0.02898,0.39687 -0.500859,0.39687 -0.359235,0 -0.653156,-0.10632 -0.653156,-0.23627 z m 3.704167,-2.42739 c 0,-0.44508 0.110913,-0.5129 0.595313,-0.36401 0.764574,0.23502 0.816369,0.28875 0.606192,0.62882 -0.319749,0.51737 -1.201505,0.32303 -1.201505,-0.26481 z M 97.6532,36.10339 c -2.135611,-2.06891 -4.617617,-4.29744 -5.51557,-4.95228 -0.897954,-0.65484 -2.067666,-1.52177 -2.599362,-1.9265 -0.531696,-0.40473 -1.236747,-0.84908 -1.566778,-0.98744 -0.330033,-0.13836 -0.731176,-0.58113 -0.891434,-0.98392 -0.160258,-0.40279 -0.346049,-0.58529 -0.412869,-0.40555 -0.09228,0.24823 -0.319154,0.22459 -0.943605,-0.0983 l -0.822113,-0.42513 1.17358,-0.56313 c 0.770737,-0.36982 1.309812,-0.85631 1.570456,-1.41725 0.218281,-0.46978 0.760553,-1.02986 1.205045,-1.24464 0.444495,-0.21478 1.135237,-0.69363 1.534985,-1.0641 0.924251,-0.85657 1.085562,-0.8458 1.799723,0.12016 0.322765,0.43656 0.6941,0.79375 0.82519,0.79375 0.13109,0 -0.07069,-0.36727 -0.4484,-0.81616 -0.377711,-0.44888 -0.619395,-0.92513 -0.537072,-1.05833 0.26743,-0.43271 0.862346,-0.25673 1.387033,0.41031 0.586425,0.74551 0.97301,0.60449 0.543406,-0.19823 -0.244279,-0.45644 -0.218617,-0.50862 0.175721,-0.3573 0.510476,0.19589 2.143606,-0.27914 2.795619,-0.81317 0.22974,-0.18817 0.533707,-0.34212 0.675481,-0.34212 0.141775,0 0.755058,-0.36571 1.362853,-0.81269 0.649071,-0.47733 1.243781,-0.73278 1.441191,-0.61904 0.18485,0.10651 0.24723,0.0956 0.13861,-0.0242 -0.23989,-0.26464 1.21479,-1.1899 1.87076,-1.1899 0.25842,0 0.60162,-0.13176 0.76266,-0.2928 0.21402,-0.21402 0.28165,-0.16063 0.25136,0.19844 -0.0228,0.27018 0.10737,0.46147 0.28927,0.42509 0.1819,-0.0364 0.33073,0.14817 0.33073,0.41011 0,0.26193 0.10427,0.58936 0.23172,0.7276 0.31855,0.34555 0.59923,2.83069 0.3597,3.18468 -0.107,0.15811 -0.77061,0.63436 -1.4747,1.05833 -0.70408,0.42396 -1.55446,0.94944 -1.88972,1.16772 -0.33527,0.21828 -1.26451,0.78527 -2.064965,1.25998 -1.750341,1.03803 -2.445671,1.95301 -2.048352,2.69541 0.17322,0.32366 0.179917,0.56804 0.01831,0.66793 -0.348368,0.2153 0.525132,1.19751 1.064975,1.19751 0.236148,0 0.642109,-0.23508 0.902136,-0.52241 0.260028,-0.28732 0.712963,-0.59864 1.006526,-0.69182 0.29356,-0.0932 0.96247,-0.60222 1.48646,-1.13123 1.78788,-1.805 4.26,-3.91959 4.26,-3.6439 0,0.15132 0.50477,-0.25487 1.12172,-0.90265 1.28849,-1.35288 2.86814,-2.23318 3.15997,-1.76098 0.16207,0.26223 0.74099,-0.78514 0.74745,-1.35225 0.001,-0.0997 0.29879,-0.31884 0.66146,-0.48705 0.36267,-0.16821 0.6594,-0.20851 0.6594,-0.0896 0,0.23534 0.33486,0.20827 1.25677,-0.10162 0.65651,-0.22067 0.77669,-0.57632 0.26458,-0.78296 -0.26458,-0.10677 -0.26458,-0.13763 0,-0.15434 0.1819,-0.0115 0.56885,0.21723 0.8599,0.50827 0.29104,0.29105 0.53099,0.43987 0.53321,0.33073 0.002,-0.10914 0.11947,-0.0198 0.26054,0.19844 0.20552,0.31802 0.25728,0.27297 0.26053,-0.22674 0.003,-0.46555 -0.10402,-0.58215 -0.42228,-0.46002 -0.31205,0.11974 -0.38298,0.0506 -0.26459,-0.25792 0.089,-0.23183 0.16175,-0.59037 0.16175,-0.79675 0,-0.20638 0.11906,-0.37524 0.26459,-0.37524 0.14552,0 0.26458,0.29766 0.26458,0.66146 0,0.72221 0.24762,0.83718 0.74083,0.34396 0.21241,-0.21241 0.3175,-0.22178 0.3175,-0.0283 0,0.15906 -0.19094,0.36247 -0.42432,0.45203 -0.24227,0.093 -0.35936,0.33215 -0.27289,0.55747 0.14937,0.38925 -0.11353,0.50851 -0.89029,0.40388 -0.31068,-0.0419 -0.32772,0.0176 -0.0785,0.27385 0.17514,0.18002 0.67428,0.31719 1.10922,0.30482 0.54688,-0.0155 0.75001,0.0838 0.65856,0.32212 -0.0727,0.18953 0.0607,0.41866 0.29661,0.50917 0.23587,0.0905 0.35475,0.28447 0.26418,0.43102 -0.24811,0.40144 -0.66262,0.31985 -0.66262,-0.13042 0,-0.21829 -0.16867,-0.39688 -0.37483,-0.39688 -0.20615,0 -0.42798,-0.14883 -0.49294,-0.33073 -0.065,-0.1819 -0.2081,-0.24712 -0.31808,-0.14494 -0.10997,0.10218 0.23803,0.69747 0.77334,1.32287 0.9623,1.12423 0.9664,1.13886 0.36218,1.29403 -0.78205,0.20084 -1.45324,-0.13706 -1.67782,-0.84467 -0.12678,-0.39944 -0.25728,-0.47529 -0.46331,-0.26927 -0.15774,0.15774 -0.23521,0.31856 -0.17215,0.35736 0.0631,0.0388 0.41837,0.33694 0.78958,0.66251 0.56498,0.49551 0.81283,0.5524 1.52136,0.3492 0.51952,-0.149 0.84642,-0.1477 0.84642,0.003 0,0.13536 0.11906,0.24611 0.26458,0.24611 0.14553,0 0.26459,-0.17859 0.26459,-0.39687 0,-0.21828 -0.11906,-0.39688 -0.26459,-0.39688 -0.14552,0 -0.26458,-0.11906 -0.26458,-0.26458 0,-0.61075 0.5851,-0.19536 0.94791,0.67297 0.21545,0.51566 0.56656,1.00464 0.78024,1.08664 0.65858,0.25272 0.46911,1.39001 -0.28911,1.73549 -0.52968,0.24133 -0.64412,0.44229 -0.52413,0.92036 0.0844,0.3364 0.0359,0.61162 -0.10781,0.61162 -0.14373,0 -0.20093,0.15739 -0.12711,0.34975 0.0768,0.20009 -0.1561,0.48202 -0.54422,0.65886 -0.37313,0.17001 -1.81469,1.17348 -3.20347,2.22994 -1.38878,1.05646 -3.08239,2.31853 -3.76358,2.80461 -0.68118,0.48608 -1.33372,1.05163 -1.4501,1.25677 -0.11637,0.20514 -0.35534,0.37299 -0.53104,0.37299 -0.1757,0 -0.97346,0.54687 -1.77279,1.21527 -1.52293,1.27347 -4.89036,3.55344 -5.22635,3.53857 -0.10765,-0.005 -1.943049,-1.7014 -4.07866,-3.77031 z m -2.070195,-3.62936 c 0,-0.14552 -0.112035,-0.26459 -0.248968,-0.26459 -0.136932,0 -0.322553,0.11907 -0.41249,0.26459 -0.08994,0.14552 0.02209,0.26458 0.248967,0.26458 0.22687,0 0.412491,-0.11906 0.412491,-0.26458 z m 4.762495,-3.43959 c 0,-0.14552 -0.0525,-0.26458 -0.11667,-0.26458 -0.0642,0 -0.19026,0.11906 -0.2802,0.26458 -0.08994,0.14552 -0.03743,0.26459 0.11668,0.26459 0.1541,0 0.28019,-0.11907 0.28019,-0.26459 z M 88.564694,26.58705 c -0.09965,-0.47294 -0.300252,-0.97896 -0.445773,-1.12448 -0.25291,-0.25291 -0.04807,1.30538 0.23477,1.78594 0.273884,0.46534 0.379,0.13582 0.211003,-0.66146 z m 25.408316,-0.99381 c 0.70439,-0.77834 0.38608,-0.84329 -0.53063,-0.10827 -0.53414,0.42827 -0.65572,0.63686 -0.37174,0.63774 0.23211,7.2e-4 0.63818,-0.23754 0.90237,-0.52947 z M 91.349672,24.96171 c 0,-0.0572 -0.178594,-0.17252 -0.396875,-0.25628 -0.218282,-0.0838 -0.396875,-0.037 -0.396875,0.10398 0,0.14096 0.178593,0.25628 0.396875,0.25628 0.218281,0 0.396875,-0.0468 0.396875,-0.10398 z m 21.422868,-0.46082 c 0.42016,-0.31064 0.95112,-0.49297 1.17991,-0.40518 0.29143,0.11183 0.41597,0.004 0.41597,-0.36124 0,-0.68003 -0.20519,-0.65753 -1.39847,0.15332 -0.54568,0.3708 -1.1091,0.6019 -1.25204,0.51355 -0.29083,-0.17974 -0.35811,0.21337 -0.0835,0.48796 0.2514,0.25141 0.29102,0.23789 1.13814,-0.38841 z M 91.797987,23.58374 c -0.408271,-0.22134 -1.063114,-0.35946 -1.455208,-0.30694 -0.696196,0.0933 -0.691203,0.10238 0.213143,0.38917 0.509323,0.16152 1.164166,0.29964 1.455208,0.30693 0.42876,0.0108 0.388316,-0.0631 -0.213143,-0.38916 z M 113.04344,22.6183 c 0.004,-0.3341 -0.4665,-0.22124 -0.90508,0.21733 -0.57701,0.57702 -0.52185,0.64198 0.24362,0.28694 0.36267,-0.16821 0.66033,-0.39513 0.66146,-0.50427 z m -9.78752,-5.12154 c 0,-0.0572 -0.17859,-0.10398 -0.39687,-0.10398 -0.21829,0 -0.39688,0.11532 -0.39688,0.25628 0,0.14095 0.17859,0.18774 0.39688,0.10398 0.21828,-0.0838 0.39687,-0.19909 0.39687,-0.25628 z m 1.31108,21.60369 c 0.42641,-0.42641 0.67477,-0.51308 0.88055,-0.30729 0.35887,0.35887 0.24913,0.46861 -0.70911,0.70911 l -0.76536,0.1921 z M 72.35259,25.80631 c -0.549457,-0.54946 -0.385426,-1.08534 0.277813,-0.9076 0.327422,0.0877 0.688798,0.16116 0.803058,0.16315 0.11426,0.002 0.08031,0.24174 -0.07545,0.53278 -0.325943,0.60903 -0.558991,0.65809 -1.005417,0.21167 z m 41.75125,-8.42937 c 0,-0.15411 0.11906,-0.20661 0.26458,-0.11667 0.14552,0.0899 0.26459,0.21602 0.26459,0.28019 0,0.0642 -0.11907,0.11668 -0.26459,0.11668 -0.14552,0 -0.26458,-0.12609 -0.26458,-0.2802 z"
       id="path2386" />
    <path
       style="fill:#d9d9d9;fill-opacity:1;stroke-width:0.264583"
       d="m -8.1545461,236.04864 c 0.0127,-0.30822 0.07539,-0.37092 0.1598506,-0.15985 0.07643,0.191 0.067032,0.4192 -0.020876,0.50712 -0.087918,0.0879 -0.1504527,-0.0683 -0.1389645,-0.34727 z m 97.3666671,-0.79375 c 0.0127,-0.30822 0.07539,-0.37092 0.15985,-0.15985 0.07643,0.191 0.06703,0.4192 -0.02088,0.50712 -0.08792,0.0879 -0.150453,-0.0684 -0.138965,-0.34727 z m 2.931302,-4.07899 c 0,-0.3638 0.06006,-0.51263 0.133454,-0.33073 0.0734,0.1819 0.0734,0.47956 0,0.66146 -0.0734,0.1819 -0.133454,0.0331 -0.133454,-0.33073 z m 0.772864,0.11024 c 0.0127,-0.30822 0.07539,-0.37092 0.159851,-0.15985 0.07643,0.191 0.06703,0.4192 -0.02088,0.50712 -0.08792,0.0879 -0.150452,-0.0684 -0.138964,-0.34727 z m -114.850055,-1.43316 c 0.15576,-0.29104 0.342733,-0.52916 0.415493,-0.52916 0.07276,0 0.0048,0.23812 -0.15091,0.52916 -0.15576,0.29104 -0.342733,0.52917 -0.415494,0.52917 -0.07276,0 -0.0048,-0.23813 0.150911,-0.52917 z m 29.054557,-6.53074 c 0.1909947,-0.0764 0.4192005,-0.067 0.5071189,0.0209 0.087918,0.0879 -0.068353,0.15045 -0.3472656,0.13896 -0.3082264,-0.0127 -0.3709194,-0.0754 -0.1598533,-0.15985 z m 22.925188,-0.36603 c -0.09592,-0.1552 -0.117655,-0.33893 -0.0483,-0.40828 0.06935,-0.0694 0.196602,0.0576 0.282774,0.28218 0.178906,0.46623 0.02643,0.54824 -0.234474,0.1261 z m -90.588023,-1.45965 c 0.0127,-0.30823 0.07539,-0.37092 0.159851,-0.15985 0.07643,0.19099 0.06703,0.4192 -0.02088,0.50712 -0.08792,0.0879 -0.150453,-0.0684 -0.138965,-0.34727 z m 86.233278,-0.21014 c 0,-0.0549 0.208359,-0.2633 0.463021,-0.46302 0.419645,-0.32911 0.429003,-0.31975 0.0999,0.0999 -0.345644,0.44072 -0.562917,0.58088 -0.562917,0.36312 z m -42.333334,-0.53325 c 0,-0.0572 0.184777,-0.17489 0.410618,-0.26156 0.235458,-0.0904 0.341662,-0.046 0.248967,0.10399 -0.155379,0.25141 -0.659585,0.37185 -0.659585,0.15757 z m 0.0209,-1.10869 c 0.0127,-0.30823 0.07539,-0.37092 0.159851,-0.15986 0.07643,0.191 0.06703,0.4192 -0.02088,0.50712 -0.08792,0.0879 -0.150452,-0.0683 -0.138964,-0.34726 z m 10.2482522,-1.34932 c 0.1909948,-0.0764 0.4192005,-0.067 0.5071189,0.0209 0.087918,0.0879 -0.068352,0.15045 -0.3472656,0.13896 -0.3082264,-0.0127 -0.3709194,-0.0754 -0.1598533,-0.15985 z m -75.0502942,-1.14218 c 0,-0.3638 0.06005,-0.51263 0.133452,-0.33073 0.0734,0.1819 0.0734,0.47956 0,0.66146 -0.0734,0.1819 -0.133452,0.0331 -0.133452,-0.33073 z m 53.024192,-0.71619 c -0.143584,-0.37708 -0.113194,-0.40747 0.148114,-0.14811 0.180821,0.17947 0.262115,0.39297 0.180652,0.47443 -0.08146,0.0815 -0.229407,-0.0654 -0.328766,-0.32632 z m -3.20289,-3.27016 c -0.09592,-0.1552 -0.117655,-0.33893 -0.0483,-0.40829 0.06935,-0.0694 0.196601,0.0576 0.282773,0.28219 0.178906,0.46622 0.02643,0.54823 -0.234474,0.1261 z M 68.55373,207.77589 c 0,-0.20969 0.107958,-0.44798 0.239908,-0.52953 0.13195,-0.0816 0.177594,0.09 0.101433,0.38126 -0.161557,0.6178 -0.341341,0.69589 -0.341341,0.14827 z m -17.247526,-2.97448 c 0.190994,-0.0764 0.4192,-0.067 0.507119,0.0209 0.08792,0.0879 -0.06835,0.15045 -0.347266,0.13896 -0.308226,-0.0127 -0.370919,-0.0754 -0.159853,-0.15985 z m 0.578776,-0.97749 c 0,-0.0549 0.208359,-0.2633 0.46302,-0.46302 0.419646,-0.32911 0.429004,-0.31975 0.0999,0.0999 -0.345644,0.44073 -0.562917,0.58089 -0.562917,0.36313 z M 14.335037,192.65698 c 0.0127,-0.30823 0.07539,-0.37092 0.159851,-0.15986 0.07643,0.191 0.06703,0.4192 -0.02088,0.50712 -0.08792,0.0879 -0.150452,-0.0684 -0.138964,-0.34726 z m -63.041331,-1.34932 c 0.190994,-0.0764 0.419198,-0.067 0.507119,0.0209 0.08792,0.0879 -0.06835,0.15046 -0.347266,0.13897 -0.308226,-0.0127 -0.370919,-0.0754 -0.159853,-0.15985 z m 89.743359,-1.40676 c -0.238466,-0.15411 -0.2711,-0.2581 -0.08176,-0.26053 0.173313,-0.002 0.3887,0.11501 0.478637,0.26053 0.203015,0.32849 0.111421,0.32849 -0.396875,0 z m 25.156306,-1.21267 c 0.0127,-0.30823 0.07539,-0.37092 0.15985,-0.15986 0.07643,0.191 0.06703,0.4192 -0.02088,0.50712 -0.08792,0.0879 -0.150453,-0.0684 -0.138965,-0.34726 z m -138.641668,-3.175 c 0.01269,-0.30823 0.07539,-0.37092 0.159853,-0.15986 0.07643,0.191 0.06703,0.4192 -0.02089,0.50712 -0.08792,0.0879 -0.150453,-0.0684 -0.138965,-0.34726 z m 117.739584,-1.32292 c 0.0127,-0.30823 0.07539,-0.37092 0.159851,-0.15985 0.07643,0.19099 0.06703,0.4192 -0.02088,0.50711 -0.08792,0.0879 -0.150452,-0.0683 -0.138964,-0.34726 z m -65.88125,-2.64583 c 0.0127,-0.30823 0.07539,-0.37092 0.159851,-0.15986 0.07643,0.191 0.06703,0.4192 -0.02088,0.50712 -0.08792,0.0879 -0.150452,-0.0684 -0.138964,-0.34726 z m 92.798252,-0.0264 c 0.190995,-0.0764 0.419201,-0.067 0.507119,0.0209 0.08792,0.0879 -0.06835,0.15045 -0.347266,0.13896 -0.308226,-0.0127 -0.370919,-0.0754 -0.159853,-0.15985 z m -24.027474,-0.59739 c 0,-0.13693 0.1177,-0.32171 0.261554,-0.41062 0.149982,-0.0927 0.194336,0.0135 0.103984,0.24897 -0.175893,0.45837 -0.365538,0.54224 -0.365538,0.16165 z m -88.879111,-3.60954 c 0.0127,-0.30822 0.07539,-0.37092 0.159851,-0.15985 0.07643,0.19099 0.06703,0.4192 -0.02088,0.50712 -0.08792,0.0879 -0.150453,-0.0684 -0.138965,-0.34727 z m 117.454111,-1.15296 c 0,-0.13693 0.1177,-0.32171 0.261554,-0.41062 0.149982,-0.0927 0.194336,0.0135 0.103984,0.24897 -0.175893,0.45837 -0.365538,0.54224 -0.365538,0.16165 z m -91.347396,-1.51376 c 0.181901,-0.0734 0.479557,-0.0734 0.661459,0 0.181901,0.0734 0.03307,0.13345 -0.33073,0.13345 -0.363802,0 -0.51263,-0.0601 -0.330729,-0.13345 z m 70.709896,-7.33709 c 0,-0.0572 0.184777,-0.17489 0.410617,-0.26155 0.235458,-0.0904 0.341662,-0.046 0.248968,0.10398 -0.155379,0.25141 -0.659585,0.37186 -0.659585,0.15757 z m -16.118694,-2.69619 c 0.0127,-0.30822 0.07539,-0.37092 0.15985,-0.15985 0.07643,0.19099 0.06703,0.4192 -0.02088,0.50712 -0.08792,0.0879 -0.150453,-0.0683 -0.138965,-0.34727 z m 16.118694,-1.27256 c 0,-0.0572 0.184777,-0.17489 0.410617,-0.26155 0.235458,-0.0904 0.341662,-0.046 0.248968,0.10398 -0.155379,0.25141 -0.659585,0.37186 -0.659585,0.15757 z m -1.810308,-10.74393 c 0,-0.3638 0.06005,-0.51263 0.133453,-0.33073 0.0734,0.1819 0.0734,0.47956 0,0.66146 -0.0734,0.1819 -0.133453,0.0331 -0.133453,-0.33073 z m 31.729114,-8.09184 c 0.0127,-0.30823 0.07539,-0.37092 0.15985,-0.15986 0.07643,0.191 0.06703,0.4192 -0.02088,0.50712 -0.08792,0.0879 -0.150453,-0.0683 -0.138965,-0.34726 z m -66.675,-2.91042 c 0.0127,-0.30822 0.07539,-0.37092 0.15985,-0.15985 0.07643,0.19099 0.06703,0.4192 -0.02088,0.50712 -0.08792,0.0879 -0.150453,-0.0684 -0.138965,-0.34727 z m -21.0552643,-4.079 c 0.089937,-0.14552 0.216027,-0.26459 0.280199,-0.26459 0.064172,0 0.116676,0.11907 0.116676,0.26459 0,0.14552 -0.1260899,0.26458 -0.2801991,0.26458 -0.1541092,0 -0.2066131,-0.11906 -0.1166759,-0.26458 z m 0.94693049,-0.15434 c 0.0127,-0.30823 0.0753904,-0.37092 0.15985066,-0.15986 0.0764302,0.191 0.0670322,0.4192 -0.0208756,0.50712 -0.0879184,0.0879 -0.15045267,-0.0684 -0.13896446,-0.34726 z M 55.345454,132.33197 c 0.0127,-0.30822 0.07539,-0.37092 0.159851,-0.15985 0.07643,0.191 0.06703,0.4192 -0.02088,0.50712 -0.08792,0.0879 -0.150453,-0.0683 -0.138965,-0.34727 z m -93.85667,-6.07478 c -0.08617,-0.22455 -0.09756,-0.4674 -0.02529,-0.53966 0.07225,-0.0722 0.194881,0.11148 0.2725,0.40829 0.164875,0.63048 -0.01831,0.72784 -0.247201,0.13137 z m 101.00042,-5.03772 c 0.0127,-0.30822 0.07539,-0.37092 0.159851,-0.15985 0.07643,0.191 0.06703,0.4192 -0.02088,0.50712 -0.08792,0.0879 -0.150453,-0.0683 -0.138965,-0.34727 z m -86.783333,-7.14375 c 0.0127,-0.30822 0.07539,-0.37092 0.15985,-0.15985 0.07643,0.191 0.06703,0.4192 -0.02088,0.50712 -0.08792,0.0879 -0.150453,-0.0683 -0.138965,-0.34727 z M 93.46634,112.64256 c 0,-0.3638 0.06005,-0.51263 0.133453,-0.33073 0.0734,0.18191 0.0734,0.47956 0,0.66146 -0.0734,0.1819 -0.133453,0.0331 -0.133453,-0.33073 z"
       id="path2410" />
  </g>
</svg>
