<?xml version="1.0" encoding="UTF-8" standalone="no"?>
<svg
   xmlns:dc="http://purl.org/dc/elements/1.1/"
   xmlns:cc="http://creativecommons.org/ns#"
   xmlns:rdf="http://www.w3.org/1999/02/22-rdf-syntax-ns#"
   xmlns:svg="http://www.w3.org/2000/svg"
   xmlns="http://www.w3.org/2000/svg"
   width="1200"
   height="850"
   viewBox="0 0 317.49985 224.89537"
   version="1.1"
   id="svg8">
  <defs
     id="defs2" />
  <metadata
     id="metadata5">
    <rdf:RDF>
      <cc:Work
         rdf:about="">
        <dc:format>image/svg+xml</dc:format>
        <dc:type
           rdf:resource="http://purl.org/dc/dcmitype/StillImage" />
        <dc:title></dc:title>
      </cc:Work>
    </rdf:RDF>
  </metadata>
  <g
     id="layer1">
    <g
       id="g1013"
       transform="matrix(1.6848515,0,0,1.6848515,-16.631682,1.2943725)"
       style="fill:#000000">
      <path
         style="fill:#000000;fill-opacity:1;stroke-width:0.26628"
         d="m 177.24484,161.73214 c 0.0135,-0.29449 0.0799,-0.35439 0.16946,-0.15273 0.081,0.18248 0.0711,0.40052 -0.0221,0.48451 -0.0932,0.084 -0.15949,-0.0653 -0.14732,-0.33178 z m -28.57758,-1.74846 c 0.006,-0.4171 0.0686,-0.55713 0.1397,-0.31117 0.0711,0.24595 0.0664,0.58722 -0.0104,0.75836 -0.0768,0.17115 -0.13502,-0.0301 -0.1293,-0.44719 z m -115.336613,0.031 c 0,-0.0525 0.220887,-0.25156 0.490859,-0.44238 0.444875,-0.31443 0.454796,-0.30549 0.105901,0.0954 -0.366425,0.42108 -0.59676,0.55499 -0.59676,0.34693 z m 7.034428,-0.81038 c 0.01346,-0.29449 0.07992,-0.35439 0.169461,-0.15273 0.08103,0.18248 0.07106,0.40052 -0.02213,0.48452 -0.09321,0.084 -0.159499,-0.0653 -0.14732,-0.33179 z M 102.612,157.45579 c 0.36233,-0.34758 0.72189,-0.63197 0.79902,-0.63197 0.0771,0 -0.1562,0.28439 -0.51852,0.63197 -0.36233,0.34759 -0.72188,0.63197 -0.79902,0.63197 -0.0771,0 0.1562,-0.28438 0.51852,-0.63197 z m 29.53182,-1.51673 c 0.002,-0.69517 0.0566,-0.94956 0.12105,-0.5653 0.0645,0.38425 0.0627,0.95303 -0.004,1.26394 -0.0666,0.31092 -0.11932,-0.003 -0.11722,-0.69864 z m 44.02199,0.37918 c 0,-0.48662 0.0577,-0.68569 0.12827,-0.44238 0.0705,0.24331 0.0705,0.64145 0,0.88476 -0.0705,0.24331 -0.12827,0.0442 -0.12827,-0.44238 z m -141.410562,-1.4114 c 0.01346,-0.29449 0.07992,-0.35439 0.169462,-0.15273 0.08103,0.18248 0.07106,0.40051 -0.02213,0.48451 -0.09321,0.084 -0.159499,-0.0653 -0.14732,-0.33178 z m 8.620494,-0.5308 c 0.202479,-0.073 0.444402,-0.064 0.53761,0.0199 0.0932,0.084 -0.07246,0.14375 -0.368145,0.13277 -0.326759,-0.0121 -0.393221,-0.072 -0.169465,-0.15272 z m 127.417798,-0.22757 c 0.0135,-0.29449 0.0799,-0.35438 0.16946,-0.15273 0.081,0.18248 0.0711,0.40052 -0.0221,0.48452 -0.0932,0.084 -0.1595,-0.0653 -0.14732,-0.33179 z M 17.645276,152.63174 c 0.01346,-0.29449 0.07992,-0.35439 0.169464,-0.15273 0.08103,0.18248 0.07106,0.40051 -0.02215,0.48451 -0.0932,0.084 -0.159499,-0.0653 -0.14732,-0.33178 z m 110.265634,-0.73731 c 0.006,-0.4171 0.0686,-0.55713 0.13969,-0.31117 0.0711,0.24596 0.0664,0.58722 -0.0104,0.75837 -0.0768,0.17114 -0.13502,-0.0301 -0.12931,-0.4472 z m 42.91517,-0.25278 c 0.006,-0.41711 0.0686,-0.55714 0.1397,-0.31118 0.0711,0.24596 0.0664,0.58722 -0.0104,0.75837 -0.0768,0.17114 -0.13502,-0.0301 -0.1293,-0.44719 z M 23.816085,143.53133 c 0.01346,-0.29448 0.07992,-0.35438 0.169464,-0.15272 0.08103,0.18248 0.07106,0.40051 -0.02214,0.48451 -0.09321,0.084 -0.159499,-0.0653 -0.147319,-0.33179 z m 49.83519,-3.32166 c 0.501378,-0.0561 1.321816,-0.0561 1.823194,0 0.501378,0.0561 0.09116,0.10196 -0.911597,0.10196 -1.002757,0 -1.412975,-0.0459 -0.911597,-0.10196 z m 75.452165,-19.96586 c 0.34711,-0.0603 0.91511,-0.0603 1.26221,0 0.34711,0.0603 0.0631,0.10955 -0.6311,0.10955 -0.69422,0 -0.97822,-0.0493 -0.63111,-0.10955 z m 15.28678,-0.26229 c 1.19559,-0.0474 3.15202,-0.0474 4.34762,0 1.19559,0.0474 0.21738,0.0862 -2.17381,0.0862 -2.39119,0 -3.3694,-0.0388 -2.17381,-0.0862 z m 9.82253,0.0127 c 0.27291,-0.0641 0.65158,-0.0599 0.84148,0.009 0.1899,0.0693 -0.0334,0.12169 -0.4962,0.11654 -0.46281,-0.005 -0.61819,-0.0618 -0.34528,-0.1259 z m -11.78597,-9.10937 c 0.57851,-0.0545 1.52517,-0.0545 2.10369,0 0.57851,0.0545 0.10518,0.0992 -1.05185,0.0992 -1.15702,0 -1.63035,-0.0446 -1.05184,-0.0992 z m 15.4333,-31.667261 c 0,-0.625652 0.0547,-0.881601 0.12155,-0.568775 0.0669,0.312827 0.0669,0.824724 0,1.137551 -0.0668,0.312826 -0.12155,0.05688 -0.12155,-0.568776 z m -0.0543,-6.467183 c 0.0135,-0.294486 0.0799,-0.354385 0.16946,-0.152727 0.081,0.18248 0.0711,0.400513 -0.0221,0.484513 -0.0932,0.084 -0.1595,-0.06531 -0.14732,-0.331786 z M 129.50339,56.78259 c -0.34889,-0.400939 -0.33897,-0.40988 0.10591,-0.09544 0.26997,0.190817 0.49085,0.389889 0.49085,0.44238 0,0.208056 -0.23033,0.07415 -0.59676,-0.346937 z m -0.78355,-2.485758 c 0.0135,-0.294486 0.0799,-0.354385 0.16946,-0.152727 0.081,0.182481 0.0711,0.400511 -0.0221,0.484513 -0.0932,0.084 -0.15949,-0.06531 -0.14732,-0.331786 z m 59.48631,-6.677842 c 0,-0.347585 0.0637,-0.489779 0.14147,-0.315986 0.0778,0.173792 0.0778,0.45818 0,0.631972 -0.0778,0.173792 -0.14147,0.0316 -0.14147,-0.315986 z M 44.291953,45.702008 c 0.01346,-0.294487 0.07992,-0.354385 0.169462,-0.152728 0.08102,0.182481 0.07106,0.400511 -0.02213,0.484513 -0.09321,0.084 -0.159498,-0.06531 -0.14732,-0.331785 z M 188.52257,42.184027 c 0.002,-0.695169 0.0566,-0.949553 0.12106,-0.565299 0.0645,0.384254 0.0627,0.953029 -0.004,1.263945 -0.0666,0.310915 -0.11932,-0.0035 -0.11722,-0.698646 z m -9.79033,-4.80299 c 5.6e-4,-1.668407 0.046,-2.318042 0.10087,-1.44363 0.0549,0.87441 0.0545,2.23947 -0.001,3.033468 -0.0555,0.793995 -0.10042,0.07857 -0.0999,-1.589838 z m -6.83888,-1.232993 c 0,-0.05249 0.22089,-0.251563 0.49086,-0.442381 0.44488,-0.314437 0.4548,-0.305495 0.10591,0.09544 -0.36643,0.421083 -0.59677,0.554993 -0.59677,0.346938 z m 16.61407,-4.707547 c 0,-0.486619 0.0577,-0.68569 0.12827,-0.442381 0.0705,0.243309 0.0705,0.641452 0,0.884761 -0.0706,0.24331 -0.12827,0.04424 -0.12827,-0.44238 z m -0.30128,-5.814146 c 0,-0.347585 0.0637,-0.489779 0.14147,-0.315987 0.0778,0.173793 0.0778,0.45818 0,0.631973 -0.0778,0.173792 -0.14147,0.0316 -0.14147,-0.315986 z"
         id="path1035" />
      <path
         style="fill:#000000;fill-opacity:1;stroke-width:0.26628"
         d="m 61.88817,164.23481 c 0.202478,-0.073 0.444402,-0.0641 0.537609,0.0199 0.09321,0.084 -0.07246,0.14375 -0.368145,0.13277 -0.326758,-0.0121 -0.39322,-0.072 -0.169464,-0.15272 z m 108.9483,-11.20283 c 0,-0.48661 0.0577,-0.68569 0.12828,-0.44238 0.0705,0.24331 0.0705,0.64146 0,0.88477 -0.0705,0.24331 -0.12828,0.0442 -0.12828,-0.44239 z m -42.93596,0 c 0,-0.34758 0.0637,-0.48977 0.14148,-0.31598 0.0778,0.17379 0.0778,0.45818 0,0.63197 -0.0778,0.17379 -0.14148,0.0316 -0.14148,-0.31599 z m -94.32515,-0.18959 c -0.348895,-0.40094 -0.338974,-0.40988 0.105901,-0.0954 0.467228,0.33024 0.615813,0.53782 0.384959,0.53782 -0.05825,0 -0.279133,-0.19907 -0.49086,-0.44238 z m -14.505483,-4.10782 c 0,-0.34758 0.06366,-0.48978 0.141476,-0.31598 0.07781,0.17379 0.07781,0.45818 0,0.63197 -0.07781,0.17379 -0.141476,0.0316 -0.141476,-0.31599 z m 155.953173,-1.51673 c 0,-0.34759 0.0637,-0.48978 0.14148,-0.31599 0.0778,0.1738 0.0778,0.45818 0,0.63198 -0.0778,0.17379 -0.14148,0.0316 -0.14148,-0.31599 z M 29.123277,145.85845 c 0,-0.0525 0.220887,-0.25156 0.49086,-0.44238 0.444874,-0.31444 0.454795,-0.30549 0.1059,0.0954 -0.366425,0.42109 -0.59676,0.555 -0.59676,0.34694 z m 134.863733,-5.13302 c 0.20248,-0.073 0.44441,-0.064 0.53761,0.02 0.0932,0.084 -0.0725,0.14374 -0.36814,0.13277 -0.32676,-0.0121 -0.39322,-0.072 -0.16947,-0.15273 z m -138.154168,-4.5527 c 0.272909,-0.0641 0.651572,-0.0599 0.841474,0.009 0.189902,0.0693 -0.03339,0.12169 -0.496198,0.11654 -0.462811,-0.005 -0.618185,-0.0618 -0.345276,-0.1259 z m 66.891843,-12.63168 c 0.192838,-0.0701 0.508391,-0.0701 0.701229,0 0.192838,0.0701 0.03506,0.1275 -0.350614,0.1275 -0.385676,0 -0.543452,-0.0574 -0.350615,-0.1275 z m 54.418585,-3.29763 c 0.34891,-0.0605 0.85379,-0.0582 1.12197,0.005 0.26817,0.0633 -0.0173,0.11274 -0.63438,0.10994 -0.61708,-0.003 -0.83649,-0.0546 -0.48759,-0.11504 z m 14.16688,-0.24918 c 0.27291,-0.0641 0.65158,-0.0599 0.84148,0.009 0.1899,0.0692 -0.0334,0.12168 -0.4962,0.11653 -0.46281,-0.005 -0.61819,-0.0618 -0.34528,-0.1259 z m 10.23762,-0.008 c 0.50414,-0.0563 1.26147,-0.0551 1.68295,0.003 0.42148,0.0577 0.009,0.10371 -0.91662,0.10229 -0.92562,-0.002 -1.27047,-0.0486 -0.76633,-0.10487 z M 18.412014,116.45769 c 0.20248,-0.073 0.444404,-0.064 0.537609,0.0199 0.0932,0.084 -0.07246,0.14374 -0.368145,0.13277 -0.326757,-0.0121 -0.393221,-0.072 -0.169464,-0.15273 z M 83.205511,91.684375 c 0.202478,-0.07302 0.444405,-0.06404 0.537609,0.01994 0.0932,0.084 -0.07246,0.143746 -0.368145,0.13277 -0.326758,-0.01213 -0.39322,-0.07203 -0.169464,-0.152725 z m 1.121965,0 c 0.202479,-0.07302 0.444405,-0.06404 0.53761,0.01994 0.0932,0.084 -0.07246,0.143746 -0.368145,0.13277 -0.326759,-0.01213 -0.393221,-0.07203 -0.169465,-0.152725 z m 94.261904,-5.578266 c -0.3489,-0.400939 -0.33898,-0.40988 0.1059,-0.09544 0.46723,0.330235 0.61581,0.537823 0.38496,0.537823 -0.0583,0 -0.27914,-0.199071 -0.49086,-0.44238 z m -0.78355,-5.519225 c 0.0135,-0.294487 0.0799,-0.354385 0.16946,-0.152728 0.081,0.182481 0.0711,0.400514 -0.0221,0.484513 -0.0932,0.084 -0.1595,-0.0653 -0.14732,-0.331785 z m 0.56098,-31.851409 c 0.0135,-0.294486 0.0799,-0.354385 0.16946,-0.152727 0.081,0.182481 0.0711,0.400511 -0.0221,0.484513 -0.0932,0.084 -0.1595,-0.06531 -0.14732,-0.331786 z m 9.81719,-2.022311 c 0.0135,-0.294487 0.0799,-0.354385 0.16947,-0.152728 0.081,0.182481 0.0711,0.400511 -0.0221,0.484513 -0.0932,0.084 -0.1595,-0.06531 -0.14732,-0.331785 z m -9.49377,-5.666687 c 0,-0.486619 0.0577,-0.68569 0.12828,-0.442381 0.0705,0.24331 0.0705,0.641452 0,0.884762 -0.0706,0.243309 -0.12828,0.04424 -0.12828,-0.442381 z m 9.8172,-0.758367 c 0,-0.486619 0.0577,-0.68569 0.12827,-0.442381 0.0705,0.24331 0.0705,0.641452 0,0.884762 -0.0706,0.243309 -0.12827,0.04424 -0.12827,-0.442381 z m -9.8172,-6.572513 c 0,-0.486619 0.0577,-0.68569 0.12828,-0.44238 0.0705,0.243309 0.0705,0.641452 0,0.884761 -0.0706,0.243309 -0.12828,0.04424 -0.12828,-0.442381 z m 9.79641,-1.011156 c 0,-0.347584 0.0637,-0.489778 0.14148,-0.315986 0.0778,0.173793 0.0778,0.45818 0,0.631973 -0.0778,0.173792 -0.14148,0.0316 -0.14148,-0.315987 z M 113.31496,10.206224 c 0,-0.3475846 0.0637,-0.4897784 0.14148,-0.315986 0.0778,0.173792 0.0778,0.45818 0,0.631972 -0.0778,0.173793 -0.14148,0.0316 -0.14148,-0.315986 z"
         id="path1033" />
      <path
         style="fill:#000000;fill-opacity:1;stroke-width:0.26628"
         d="m 94.968616,164.99844 c 0.192838,-0.0701 0.508391,-0.0701 0.701228,0 0.192838,0.0701 0.03506,0.1275 -0.350614,0.1275 -0.385675,0 -0.543452,-0.0574 -0.350614,-0.1275 z m 11.009284,-3.46707 c 0,-0.0525 0.22089,-0.25157 0.49086,-0.44238 0.44488,-0.31444 0.4548,-0.3055 0.1059,0.0954 -0.36642,0.42108 -0.59676,0.55499 -0.59676,0.34694 z M 24.302332,159.6846 c 0.20248,-0.073 0.444403,-0.064 0.537608,0.02 0.09321,0.084 -0.07246,0.14375 -0.368144,0.13277 -0.326757,-0.0121 -0.393221,-0.072 -0.169464,-0.15273 z m 81.719858,-10.69724 c 0,-0.34758 0.0637,-0.48978 0.14147,-0.31598 0.0778,0.17379 0.0778,0.45818 0,0.63197 -0.0778,0.17379 -0.14147,0.0316 -0.14147,-0.31599 z m -71.569578,-2.62333 c 0,-0.0525 0.220887,-0.25156 0.49086,-0.44238 0.444876,-0.31444 0.454797,-0.3055 0.105902,0.0954 -0.366425,0.42108 -0.596762,0.55499 -0.596762,0.34694 z m 59.113547,-1.8415 c 0.192838,-0.0701 0.508391,-0.0701 0.701229,0 0.192838,0.0701 0.03506,0.12751 -0.350614,0.12751 -0.385676,0 -0.543452,-0.0574 -0.350615,-0.12751 z m -5.259212,-3.46707 c 0,-0.0525 0.220887,-0.25156 0.49086,-0.44238 0.444876,-0.31444 0.454797,-0.3055 0.105902,0.0954 -0.366425,0.42109 -0.596762,0.555 -0.596762,0.34694 z m 92.912753,-1.59554 c 0.26997,-0.0636 0.71175,-0.0636 0.98172,0 0.26997,0.0636 0.0491,0.1156 -0.49086,0.1156 -0.53995,0 -0.76083,-0.052 -0.49086,-0.1156 z m -84.287645,-2.26827 c 0.192838,-0.0701 0.508391,-0.0701 0.701229,0 0.192838,0.0701 0.03506,0.12751 -0.350614,0.12751 -0.385676,0 -0.543452,-0.0574 -0.350615,-0.12751 z m 1.419988,-0.005 c 0.202478,-0.073 0.444405,-0.064 0.537609,0.02 0.0932,0.084 -0.07246,0.14375 -0.368145,0.13277 -0.326758,-0.0121 -0.393221,-0.072 -0.169464,-0.15273 z m -4.487862,-13.6506 c 0.202479,-0.073 0.444405,-0.064 0.53761,0.0199 0.0932,0.084 -0.07246,0.14374 -0.368145,0.13277 -0.326758,-0.0121 -0.393221,-0.072 -0.169465,-0.15273 z m 49.769679,-3.29773 c 0.57851,-0.0545 1.52517,-0.0545 2.10369,0 0.57851,0.0545 0.10518,0.0992 -1.05185,0.0992 -1.15702,0 -1.63035,-0.0446 -1.05184,-0.0992 z m 16.70677,-0.24132 c 0.20247,-0.073 0.4444,-0.0641 0.53761,0.0199 0.0932,0.084 -0.0725,0.14375 -0.36815,0.13277 -0.32676,-0.0121 -0.39322,-0.072 -0.16946,-0.15272 z M 19.253488,116.45769 c 0.20248,-0.073 0.444404,-0.064 0.537609,0.0199 0.0932,0.084 -0.07246,0.14374 -0.368145,0.13277 -0.326757,-0.0121 -0.393221,-0.072 -0.169464,-0.15273 z M 75.178536,82.63026 c 0.0057,-0.417101 0.06858,-0.557131 0.139696,-0.311175 0.07112,0.245956 0.06644,0.587221 -0.01041,0.758367 -0.07684,0.171145 -0.13502,-0.03009 -0.129304,-0.447192 z M 104.01446,52.326537 c 0,-0.05249 0.22089,-0.251563 0.49086,-0.442381 0.44488,-0.314436 0.4548,-0.305495 0.1059,0.09544 -0.36642,0.421084 -0.59676,0.554993 -0.59676,0.346938 z m 74.66538,-9.889721 c 0.006,-0.417102 0.0686,-0.557131 0.13969,-0.311175 0.0711,0.245956 0.0664,0.587221 -0.0104,0.758366 -0.0768,0.171146 -0.13502,-0.03009 -0.12931,-0.447191 z m 9.84273,-4.044623 c 0.002,-0.69517 0.0566,-0.949554 0.12106,-0.565299 0.0645,0.384254 0.0627,0.953029 -0.004,1.263944 -0.0666,0.310916 -0.11932,-0.0035 -0.11722,-0.698645 z m -0.009,-4.297412 c 0.003,-0.556136 0.0606,-0.75388 0.12765,-0.439434 0.0671,0.314447 0.0645,0.769467 -0.006,1.011156 -0.0702,0.241689 -0.1251,-0.0156 -0.12198,-0.571722 z m -9.83324,-1.769523 c 0.006,-0.417102 0.0686,-0.557132 0.13969,-0.311176 0.0711,0.245956 0.0664,0.587221 -0.0104,0.758367 -0.0768,0.171146 -0.13502,-0.03009 -0.1293,-0.447191 z"
         id="path1031" />
      <path
         style="fill:#000000;fill-opacity:1;stroke-width:0.26628"
         d="m 129.53917,163.0481 c 0,-0.0525 0.22089,-0.25156 0.49086,-0.44238 0.44488,-0.31444 0.4548,-0.3055 0.1059,0.0954 -0.36642,0.42109 -0.59676,0.555 -0.59676,0.34694 z m 10.68082,-9.658 c 0.0135,-0.29448 0.0799,-0.35438 0.16946,-0.15272 0.081,0.18248 0.0711,0.40051 -0.0221,0.48451 -0.0932,0.084 -0.1595,-0.0653 -0.14732,-0.33179 z M 63.904201,143.07777 c 0,-0.0525 0.220887,-0.25156 0.49086,-0.44238 0.444876,-0.31443 0.454797,-0.30549 0.105903,0.0954 -0.366426,0.42109 -0.596763,0.555 -0.596763,0.34694 z m 116.351309,-3.61628 c 0.20248,-0.073 0.44441,-0.0641 0.53761,0.0199 0.0932,0.084 -0.0725,0.14375 -0.36814,0.13277 -0.32676,-0.0121 -0.39323,-0.072 -0.16947,-0.15272 z m 2.50689,0.005 c 0.19284,-0.0701 0.50839,-0.0701 0.70123,0 0.19284,0.0701 0.0351,0.1275 -0.35061,0.1275 -0.38568,0 -0.54346,-0.0574 -0.35062,-0.1275 z m -83.568883,-2.28037 c 0.202478,-0.073 0.444405,-0.064 0.537609,0.0199 0.0932,0.084 -0.07246,0.14375 -0.368145,0.13277 -0.326758,-0.0121 -0.393221,-0.072 -0.169464,-0.15272 z m -4.084655,-13.65897 c 0.424243,-0.0579 1.118459,-0.0579 1.542702,0 0.424243,0.0579 0.07714,0.10531 -0.771351,0.10531 -0.848486,0 -1.195594,-0.0474 -0.771351,-0.10531 z M 35.6447,117.97285 c 0.269973,-0.0636 0.711747,-0.0636 0.98172,0 0.269973,0.0636 0.04909,0.11561 -0.49086,0.11561 -0.539946,0 -0.760833,-0.052 -0.49086,-0.11561 z M 188.79358,98.303176 c 0.003,-0.556136 0.0606,-0.75388 0.12764,-0.439433 0.0671,0.314446 0.0645,0.769466 -0.006,1.011155 -0.0702,0.241689 -0.1251,-0.0156 -0.12199,-0.571722 z m -0.0486,-1.790588 c 0.0135,-0.294486 0.0799,-0.354385 0.16946,-0.152727 0.081,0.18248 0.0711,0.400513 -0.0221,0.484513 -0.0932,0.084 -0.1595,-0.06531 -0.14732,-0.331786 z m -2.16807,-15.272667 c 0,-1.181788 0.0483,-1.665247 0.10737,-1.074353 0.059,0.590894 0.059,1.557812 0,2.148706 -0.0591,0.590894 -0.10737,0.107436 -0.10737,-1.074353 z M 178.6473,43.426907 c 0.0135,-0.294486 0.0799,-0.354385 0.16946,-0.152727 0.081,0.18248 0.0711,0.400511 -0.0221,0.484513 -0.0932,0.084 -0.1595,-0.06531 -0.14732,-0.331786 z m 9.87527,-7.309815 c 0.002,-0.695169 0.0566,-0.949553 0.12106,-0.565299 0.0645,0.384254 0.0627,0.95303 -0.004,1.263945 -0.0666,0.310915 -0.11932,-0.0035 -0.11722,-0.698646 z m -9.87527,-4.824055 c 0.0135,-0.294486 0.0799,-0.354385 0.16946,-0.152727 0.081,0.18248 0.0711,0.400511 -0.0221,0.484513 -0.0932,0.084 -0.1595,-0.06531 -0.14732,-0.331786 z"
         id="path1029" />
      <path
         style="fill:#000000;fill-opacity:1;stroke-width:0.26628"
         d="m 174.92618,163.98202 c 0.20247,-0.073 0.4444,-0.0641 0.5376,0.0199 0.0932,0.084 -0.0725,0.14375 -0.36814,0.13277 -0.32676,-0.0121 -0.39322,-0.072 -0.16946,-0.15272 z M 46.741638,154.62883 c 0.202479,-0.073 0.444402,-0.064 0.53761,0.0199 0.0932,0.084 -0.07246,0.14375 -0.368145,0.13277 -0.326759,-0.0121 -0.393221,-0.072 -0.169465,-0.15273 z m 42.180973,-2.7344 c 0.0057,-0.4171 0.06858,-0.55713 0.139696,-0.31117 0.07112,0.24596 0.06644,0.58722 -0.01041,0.75837 -0.07684,0.17114 -0.13502,-0.0301 -0.129304,-0.4472 z M 183.9019,139.46149 c 0.20248,-0.073 0.4444,-0.0641 0.53761,0.0199 0.0932,0.084 -0.0725,0.14375 -0.36815,0.13277 -0.32676,-0.0121 -0.39322,-0.072 -0.16946,-0.15272 z M 27.931189,136.1805 c 0.192837,-0.0701 0.50839,-0.0701 0.701228,0 0.192838,0.0701 0.03506,0.1275 -0.350614,0.1275 -0.385676,0 -0.543452,-0.0574 -0.350614,-0.1275 z m 6.4513,-18.20081 c 0.192838,-0.0701 0.508391,-0.0701 0.701228,0 0.192838,0.0701 0.03506,0.12751 -0.350614,0.12751 -0.385675,0 -0.543452,-0.0574 -0.350614,-0.12751 z m 2.804913,0 c 0.192838,-0.0701 0.508391,-0.0701 0.701229,0 0.192838,0.0701 0.03506,0.12751 -0.350614,0.12751 -0.385676,0 -0.543452,-0.0574 -0.350615,-0.12751 z m 21.182433,-2.03007 c 0.27291,-0.0641 0.651573,-0.0599 0.841474,0.009 0.189901,0.0692 -0.03339,0.12168 -0.496197,0.11653 -0.462811,-0.005 -0.618186,-0.0618 -0.345277,-0.1259 z m 134.021535,-2.50017 c 0.0135,-0.29449 0.0799,-0.35439 0.16947,-0.15273 0.081,0.18248 0.0711,0.40051 -0.0221,0.48451 -0.0932,0.084 -0.1595,-0.0653 -0.14732,-0.33178 z m -11.45155,-3.26519 c 0.003,-0.55614 0.0606,-0.75388 0.12765,-0.43944 0.0671,0.31445 0.0645,0.76947 -0.006,1.01116 -0.0702,0.24169 -0.1251,-0.0156 -0.12199,-0.57172 z m 5.59377,-26.290055 c 0.006,-0.417102 0.0686,-0.557132 0.1397,-0.311175 0.0711,0.245956 0.0664,0.587221 -0.0104,0.758366 -0.0768,0.171146 -0.13502,-0.03009 -0.1293,-0.447191 z m 0.0161,-5.561357 c 0.003,-0.556136 0.0605,-0.75388 0.12764,-0.439433 0.0671,0.314447 0.0645,0.769467 -0.006,1.011156 -0.0702,0.241689 -0.1251,-0.0156 -0.12199,-0.571723 z M 110.46576,41.456612 c 0,-0.05249 0.22089,-0.251563 0.49086,-0.442381 0.44488,-0.314436 0.4548,-0.305495 0.1059,0.09544 -0.36642,0.421083 -0.59676,0.554993 -0.59676,0.346938 z m 8.62511,-36.2207953 c 0.19284,-0.070127 0.50839,-0.070127 0.70123,0 0.19284,0.070127 0.0351,0.1275032 -0.35062,0.1275032 -0.38567,0 -0.54345,-0.057376 -0.35061,-0.1275032 z"
         id="path1027" />
      <path
         style="fill:#000000;fill-opacity:1;stroke-width:0.26628"
         d="m 31.669843,142.52018 c 0.01346,-0.29449 0.07992,-0.35439 0.169463,-0.15273 0.08103,0.18248 0.07106,0.40051 -0.02215,0.48451 -0.0932,0.084 -0.159498,-0.0653 -0.147319,-0.33178 z M 110.5365,141.2773 c 0.003,-0.55614 0.0605,-0.75388 0.12764,-0.43943 0.0671,0.31444 0.0645,0.76946 -0.006,1.01115 -0.0702,0.24169 -0.1251,-0.0156 -0.12199,-0.57172 z m -51.400651,-0.72742 c 0,-0.0525 0.220887,-0.25156 0.49086,-0.44238 0.444876,-0.31443 0.454797,-0.30549 0.105902,0.0954 -0.366425,0.42108 -0.596762,0.55499 -0.596762,0.34693 z m 125.607521,-1.08839 c 0.20248,-0.073 0.44441,-0.0641 0.53761,0.0199 0.0932,0.084 -0.0725,0.14375 -0.36814,0.13277 -0.32676,-0.0121 -0.39322,-0.072 -0.16947,-0.15272 z m -56.11579,-0.24753 c 0.19283,-0.0701 0.50839,-0.0701 0.70122,0 0.19284,0.0701 0.0351,0.12751 -0.35061,0.12751 -0.38568,0 -0.54345,-0.0574 -0.35061,-0.12751 z M 48.272148,125.30281 c 0.272909,-0.0641 0.651573,-0.0599 0.841474,0.009 0.189901,0.0692 -0.03339,0.12168 -0.496198,0.11653 -0.462811,-0.005 -0.618186,-0.0618 -0.345276,-0.1259 z m 11.372091,-9.3507 c 0.202479,-0.073 0.444402,-0.064 0.53761,0.0199 0.0932,0.084 -0.07246,0.14375 -0.368145,0.13277 -0.326759,-0.0121 -0.393221,-0.072 -0.169465,-0.15273 z m 36.311434,-1.26644 c 0.27291,-0.0641 0.651573,-0.0599 0.841474,0.009 0.189902,0.0693 -0.03339,0.12169 -0.496197,0.11653 -0.462811,-0.005 -0.618186,-0.0618 -0.345277,-0.1259 z M 186.50106,84.884296 c 0.0135,-0.294486 0.0799,-0.354385 0.16946,-0.152727 0.081,0.18248 0.0711,0.400513 -0.0221,0.484513 -0.0932,0.084 -0.1595,-0.06531 -0.14732,-0.331786 z m 0.0429,-8.194576 c 0,-0.486619 0.0577,-0.68569 0.12827,-0.442381 0.0705,0.24331 0.0705,0.641452 0,0.884762 -0.0705,0.243309 -0.12827,0.04424 -0.12827,-0.442381 z M 69.277823,71.633941 c 0,-0.347585 0.06367,-0.489779 0.141477,-0.315986 0.07781,0.173792 0.07781,0.45818 0,0.631972 -0.07781,0.173792 -0.141477,0.0316 -0.141477,-0.315986 z m 64.793497,-5.055779 c 0,-0.347585 0.0637,-0.489779 0.14148,-0.315987 0.0778,0.173793 0.0778,0.45818 0,0.631973 -0.0778,0.173792 -0.14148,0.0316 -0.14148,-0.315986 z m 0.25835,-20.370576 c 0.0135,-0.294487 0.0799,-0.354385 0.16946,-0.152728 0.081,0.182481 0.0711,0.400511 -0.0221,0.484513 -0.0932,0.084 -0.1595,-0.06531 -0.14732,-0.331785 z m 44.31763,-1.516734 c 0.0135,-0.294487 0.0799,-0.354385 0.16946,-0.152728 0.081,0.182481 0.0711,0.400512 -0.0221,0.484513 -0.0932,0.084 -0.1595,-0.06531 -0.14732,-0.331785 z M 45.974901,36.854394 c 0.01346,-0.294486 0.07992,-0.354385 0.169462,-0.152727 0.08103,0.182481 0.07106,0.400511 -0.02213,0.484513 -0.09321,0.084 -0.159498,-0.06531 -0.14732,-0.331786 z M 48.53186,24.994378 c 0.0057,-0.417102 0.06858,-0.557131 0.139696,-0.311175 0.07112,0.245955 0.06644,0.58722 -0.01041,0.758367 -0.07682,0.171146 -0.135006,-0.03009 -0.12929,-0.447192 z"
         id="path1025" />
      <path
         style="fill:#000000;fill-opacity:1;stroke-width:0.26628"
         d="m 35.629259,158.71974 c 0.0057,-0.41711 0.06858,-0.55714 0.139696,-0.31118 0.07112,0.24596 0.06644,0.58722 -0.01038,0.75837 -0.07684,0.17114 -0.13502,-0.0301 -0.129304,-0.44719 z M 187.95149,143.25175 c 0.26997,-0.0636 0.71175,-0.0636 0.98172,0 0.26997,0.0636 0.0491,0.11561 -0.49086,0.11561 -0.53994,0 -0.76083,-0.052 -0.49086,-0.11561 z m -2.36664,-3.79026 c 0.20247,-0.073 0.4444,-0.0641 0.53761,0.0199 0.0932,0.084 -0.0725,0.14375 -0.36815,0.13277 -0.32676,-0.0121 -0.39322,-0.072 -0.16946,-0.15272 z M 73.796859,135.91994 c 0.272909,-0.0641 0.651572,-0.0599 0.841474,0.009 0.189901,0.0693 -0.03339,0.12169 -0.496198,0.11654 -0.462811,-0.005 -0.618186,-0.0618 -0.345276,-0.1259 z M 46.583862,125.30373 c 0.269973,-0.0636 0.711747,-0.0636 0.98172,0 0.269972,0.0636 0.04909,0.11561 -0.49086,0.11561 -0.539946,0 -0.760833,-0.052 -0.49086,-0.11561 z m 84.007148,-3.79598 c 0.34711,-0.0602 0.91511,-0.0602 1.26222,0 0.3471,0.0603 0.0631,0.10955 -0.63111,0.10955 -0.69422,0 -0.97821,-0.0493 -0.63111,-0.10955 z m -33.360933,-6.81958 c 0.202479,-0.073 0.444405,-0.064 0.53761,0.0199 0.0932,0.084 -0.07246,0.14375 -0.368145,0.13277 -0.326758,-0.0121 -0.393221,-0.072 -0.169465,-0.15272 z M 186.50106,85.642663 c 0.0135,-0.294487 0.0799,-0.354385 0.16946,-0.152728 0.081,0.182481 0.0711,0.400514 -0.0221,0.484513 -0.0932,0.084 -0.1595,-0.0653 -0.14732,-0.331785 z m 0.0581,-10.84886 c 0.002,-0.69517 0.0566,-0.949554 0.12105,-0.5653 0.0645,0.384255 0.0627,0.95303 -0.004,1.263945 -0.0666,0.310915 -0.11932,-0.0035 -0.11722,-0.698645 z m -0.0359,-6.698908 c 0,-0.347584 0.0637,-0.489778 0.14148,-0.315986 0.0778,0.173793 0.0778,0.45818 0,0.631973 -0.0778,0.173792 -0.14148,0.0316 -0.14148,-0.315987 z M 103.79904,53.180347 c 0,-0.486619 0.0577,-0.68569 0.12828,-0.442381 0.0706,0.24331 0.0706,0.641452 0,0.884762 -0.0705,0.243309 -0.12828,0.04424 -0.12828,-0.442381 z m 63.04548,-8.437479 c 0,-0.05249 0.22089,-0.251563 0.49086,-0.44238 0.44487,-0.314437 0.4548,-0.305496 0.1059,0.09544 -0.36642,0.421083 -0.59676,0.554993 -0.59676,0.346937 z M 45.997043,37.760221 c 0,-0.347585 0.06367,-0.489779 0.141477,-0.315987 0.07781,0.173793 0.07781,0.45818 0,0.631973 -0.07781,0.173792 -0.141477,0.0316 -0.141477,-0.315986 z"
         id="path1023" />
      <path
         style="fill:#000000;fill-opacity:1;stroke-width:0.26628"
         d="m 155.85277,155.38719 c 0.20247,-0.073 0.4444,-0.064 0.5376,0.0199 0.0932,0.084 -0.0725,0.14374 -0.36814,0.13277 -0.32676,-0.0121 -0.39322,-0.072 -0.16946,-0.15273 z m -97.7946,-12.21397 c 0,-0.34759 0.06367,-0.48978 0.141477,-0.31599 0.07781,0.17379 0.07781,0.45818 0,0.63197 -0.07781,0.17379 -0.141477,0.0316 -0.141477,-0.31598 z m 119.3749,0.0854 c 0.19283,-0.0701 0.50839,-0.0701 0.70123,0 0.19283,0.0701 0.0351,0.1275 -0.35062,0.1275 -0.38567,0 -0.54345,-0.0574 -0.35061,-0.1275 z m -62.43516,-2.86605 c 0,-0.34759 0.0637,-0.48978 0.14148,-0.31599 0.0778,0.17379 0.0778,0.45818 0,0.63197 -0.0778,0.1738 -0.14148,0.0316 -0.14148,-0.31598 z m 71.42841,-0.93105 c 0.20248,-0.073 0.4444,-0.0641 0.53761,0.0199 0.0932,0.084 -0.0725,0.14375 -0.36815,0.13277 -0.32675,-0.0121 -0.39322,-0.072 -0.16946,-0.15272 z M 33.558546,126.31646 c 0.20248,-0.073 0.444403,-0.064 0.537608,0.0199 0.09321,0.084 -0.07246,0.14374 -0.368145,0.13277 -0.326756,-0.0121 -0.39322,-0.072 -0.169463,-0.15273 z m 99.420504,-4.8117 c 0.42636,-0.0581 1.05747,-0.0566 1.40245,0.003 0.34499,0.06 -0.004,0.10754 -0.7752,0.10564 -0.77135,-0.002 -1.05362,-0.051 -0.62725,-0.10909 z M 16.220676,118.30445 c 0,-0.0525 0.220887,-0.25156 0.490859,-0.44238 0.444875,-0.31443 0.454796,-0.30549 0.105901,0.0954 -0.366425,0.42108 -0.59676,0.55499 -0.59676,0.34693 z M 186.50106,86.40103 c 0.0135,-0.294487 0.0799,-0.354385 0.16946,-0.152728 0.081,0.182481 0.0711,0.400514 -0.0221,0.484513 -0.0932,0.084 -0.1595,-0.06531 -0.14732,-0.331785 z m 0.0816,-15.272667 c 0,-1.459856 0.0464,-2.05707 0.10302,-1.327142 0.0567,0.729928 0.0567,1.924356 0,2.654284 -0.0567,0.729928 -0.10302,0.132714 -0.10302,-1.327142 z"
         id="path1021" />
      <path
         style="fill:#000000;fill-opacity:1;stroke-width:0.26628"
         d="m 36.082968,163.47644 c 0.202478,-0.073 0.444402,-0.0641 0.537609,0.0199 0.09321,0.084 -0.07246,0.14375 -0.368145,0.13277 -0.326758,-0.0121 -0.393221,-0.072 -0.169464,-0.15272 z m 99.997282,-3.61915 c 0,-0.90372 0.0509,-1.27343 0.11313,-0.82157 0.0622,0.45186 0.0622,1.19127 0,1.64313 -0.0622,0.45186 -0.11313,0.0822 -0.11313,-0.82156 z m 40.04263,-5.70882 c 0.0135,-0.29449 0.0799,-0.35438 0.16946,-0.15273 0.081,0.18248 0.0711,0.40052 -0.0221,0.48452 -0.0932,0.084 -0.1595,-0.0653 -0.14732,-0.33179 z m -69.8202,-2.63322 c 0,-0.34758 0.0637,-0.48978 0.14148,-0.31598 0.0778,0.17379 0.0778,0.45818 0,0.63197 -0.0778,0.17379 -0.14148,0.0316 -0.14148,-0.31599 z m 4.50865,-2.52789 c 0,-0.48662 0.0577,-0.68569 0.12827,-0.44238 0.0705,0.24331 0.0705,0.64145 0,0.88476 -0.0705,0.24331 -0.12827,0.0442 -0.12827,-0.44238 z m 63.90909,-0.14746 c 0.0135,-0.29448 0.0799,-0.35438 0.16946,-0.15273 0.081,0.18249 0.0711,0.40052 -0.0221,0.48452 -0.0932,0.084 -0.1595,-0.0653 -0.14732,-0.33179 z M 58.036028,144.03691 c 0.01346,-0.29448 0.07992,-0.35438 0.169462,-0.15273 0.08103,0.18249 0.07106,0.40052 -0.02213,0.48452 -0.09321,0.084 -0.159498,-0.0653 -0.147319,-0.33179 z m 103.501302,-1.51673 c 0.0135,-0.29449 0.0799,-0.35439 0.16946,-0.15273 0.081,0.18248 0.0711,0.40051 -0.0221,0.48451 -0.0932,0.084 -0.1595,-0.0653 -0.14732,-0.33178 z m -63.74627,-0.27801 c 0.202478,-0.073 0.444405,-0.064 0.537609,0.0199 0.0932,0.084 -0.07246,0.14375 -0.368144,0.13277 -0.326759,-0.0121 -0.393221,-0.072 -0.169465,-0.15272 z m 90.01393,-2.79045 c 0.49794,-0.0558 1.38149,-0.0568 1.96344,-0.002 0.58195,0.0547 0.17455,0.10042 -0.90534,0.10154 -1.07989,10e-4 -1.55604,-0.0437 -1.0581,-0.0995 z m -154.080256,-0.8919 -0.534333,-0.56878 0.631105,0.48156 c 0.593084,0.45255 0.758797,0.65599 0.534333,0.65599 -0.05323,0 -0.337223,-0.25595 -0.631105,-0.56877 z m -1.440592,-12.24586 c 0.272909,-0.0641 0.651573,-0.0599 0.841474,0.009 0.189902,0.0692 -0.03339,0.12169 -0.496198,0.11654 -0.46281,-0.005 -0.618185,-0.0618 -0.345276,-0.1259 z m 22.872236,-1.26144 c 0.202478,-0.073 0.444402,-0.064 0.537609,0.0199 0.0932,0.084 -0.07246,0.14375 -0.368144,0.13277 -0.326759,-0.0121 -0.393221,-0.072 -0.169465,-0.15272 z m 64.214982,-2.77542 c 0.19284,-0.0701 0.50839,-0.0701 0.70123,0 0.19284,0.0701 0.0351,0.12751 -0.35061,0.12751 -0.38568,0 -0.54346,-0.0574 -0.35062,-0.12751 z m 52.7499,-10.11682 c 0.20248,-0.073 0.44441,-0.064 0.53761,0.0199 0.0932,0.084 -0.0725,0.14374 -0.36814,0.13277 -0.32676,-0.0121 -0.39322,-0.072 -0.16947,-0.15273 z m -13.18309,-1.01116 c 0.20248,-0.073 0.4444,-0.064 0.53761,0.02 0.0932,0.084 -0.0725,0.14375 -0.36815,0.13277 -0.32675,-0.0121 -0.39322,-0.072 -0.16946,-0.15273 z m -16.2685,-30.33467 c 0.20248,-0.07302 0.44441,-0.06404 0.53761,0.01995 0.0932,0.084 -0.0725,0.143745 -0.36814,0.132769 -0.32676,-0.01213 -0.39322,-0.07203 -0.16947,-0.152725 z m -6.65705,-8.316813 c 0.0135,-0.294486 0.0799,-0.354385 0.16946,-0.152727 0.081,0.18248 0.0711,0.400513 -0.0221,0.484513 -0.0932,0.084 -0.1595,-0.06531 -0.14732,-0.331786 z m 39.82977,-8.342035 c 0.0135,-0.294487 0.0799,-0.354385 0.16946,-0.152728 0.081,0.182481 0.0711,0.400511 -0.0221,0.484513 -0.0932,0.084 -0.1595,-0.0653 -0.14732,-0.331785 z M 164.67132,47.239806 c 0.003,-0.556135 0.0606,-0.753879 0.12765,-0.439433 0.0671,0.314447 0.0645,0.769467 -0.006,1.011156 -0.0702,0.241689 -0.1251,-0.0156 -0.12198,-0.571723 z M 188.184,29.017937 c 0.0135,-0.294487 0.0799,-0.354385 0.16947,-0.152728 0.081,0.182481 0.0711,0.400511 -0.0221,0.484513 -0.0932,0.084 -0.1595,-0.0653 -0.14732,-0.331785 z"
         id="path1019" />
      <path
         style="fill:#000000;fill-opacity:1;stroke-width:0.26628"
         d="m 20.77866,164.48602 c 0.269973,-0.0636 0.711746,-0.0636 0.981719,0 0.269973,0.0636 0.04909,0.11561 -0.490859,0.11561 -0.539946,0 -0.760833,-0.052 -0.49086,-0.11561 z m 42.511967,-4.80142 c 0.202478,-0.073 0.444402,-0.064 0.537609,0.02 0.0932,0.084 -0.07246,0.14375 -0.368145,0.13277 -0.326758,-0.0121 -0.393221,-0.072 -0.169464,-0.15273 z m 72.744133,-1.84962 c 0,-0.34759 0.0637,-0.48978 0.14148,-0.31599 0.0778,0.17379 0.0778,0.45818 0,0.63197 -0.0778,0.17379 -0.14148,0.0316 -0.14148,-0.31598 z M 23.568132,156.69742 c 0.0057,-0.4171 0.06858,-0.55713 0.139696,-0.31117 0.07112,0.24596 0.06644,0.58722 -0.01039,0.75837 -0.07683,0.17114 -0.135021,-0.0301 -0.129304,-0.4472 z m 53.396949,0.2005 c -0.152217,-0.36028 -0.12,-0.38931 0.157019,-0.14151 0.191693,0.17147 0.277874,0.37545 0.191514,0.45328 -0.08636,0.0778 -0.2432,-0.0625 -0.348533,-0.31177 z m 7.178783,-4.37151 c 0,-0.34759 0.06367,-0.48978 0.141477,-0.31599 0.07781,0.17379 0.07781,0.45818 0,0.63197 -0.07781,0.1738 -0.141477,0.0316 -0.141477,-0.31598 z M 63.307439,150.3145 c -0.348894,-0.40093 -0.338973,-0.40988 0.105903,-0.0954 0.269973,0.19082 0.490859,0.38989 0.490859,0.44238 0,0.20806 -0.230336,0.0742 -0.596762,-0.34694 z m -17.144314,0.0222 c 0.192838,-0.0701 0.50839,-0.0701 0.701228,0 0.192838,0.0701 0.03506,0.12751 -0.350614,0.12751 -0.385675,0 -0.543452,-0.0574 -0.350614,-0.12751 z m 81.995735,-2.76072 c 0.0135,-0.29448 0.0799,-0.35438 0.16946,-0.15273 0.081,0.18249 0.0711,0.40052 -0.0221,0.48452 -0.0932,0.084 -0.1595,-0.0653 -0.14732,-0.33179 z m -104.569014,-1.3693 c 0,-0.62565 0.0547,-0.8816 0.121556,-0.56877 0.06686,0.31282 0.06686,0.82472 0,1.13755 -0.06686,0.31282 -0.121556,0.0569 -0.121556,-0.56878 z m 107.934914,-1.15861 c 0.0135,-0.29449 0.0799,-0.35439 0.16946,-0.15273 0.081,0.18248 0.0711,0.40051 -0.0221,0.48451 -0.0932,0.084 -0.1595,-0.0653 -0.14732,-0.33178 z m 50.67993,-1.54806 c 0.34891,-0.0605 0.85379,-0.0582 1.12197,0.005 0.26817,0.0633 -0.0173,0.11275 -0.63438,0.10994 -0.61708,-0.003 -0.8365,-0.0546 -0.48759,-0.11504 z m 11.02816,-1.99099 c 0.0135,-0.29448 0.0799,-0.35438 0.16946,-0.15272 0.081,0.18248 0.0711,0.40051 -0.0221,0.48451 -0.0932,0.084 -0.1595,-0.0653 -0.14732,-0.33179 z M 25.552351,139.96457 c 0.272908,-0.0641 0.651572,-0.0599 0.841474,0.009 0.189901,0.0692 -0.03339,0.12168 -0.496199,0.11653 -0.46281,-0.005 -0.618185,-0.0618 -0.345275,-0.1259 z M 52.619449,125.042 c 0.504141,-0.0563 1.261468,-0.0551 1.682948,0.003 0.42148,0.0577 0.009,0.10372 -0.91662,0.1023 -0.925622,-0.002 -1.270469,-0.0486 -0.766328,-0.10487 z m 64.232511,-2.78068 c 0.50414,-0.0563 1.26147,-0.0551 1.68295,0.003 0.42148,0.0577 0.009,0.10371 -0.91662,0.10229 -0.92562,-0.002 -1.27047,-0.0486 -0.76633,-0.10487 z M 15.401346,120.78033 c 0.01346,-0.29449 0.07992,-0.35439 0.169463,-0.15273 0.08103,0.18248 0.07106,0.40051 -0.02215,0.48451 -0.09321,0.084 -0.159498,-0.0653 -0.147319,-0.33178 z m 138.891184,-0.79506 c 0.57852,-0.0545 1.52517,-0.0545 2.10369,0 0.57851,0.0545 0.10518,0.0992 -1.05185,0.0992 -1.15702,0 -1.63035,-0.0446 -1.05184,-0.0992 z m 23.43856,0.0115 c 0.20248,-0.073 0.4444,-0.0641 0.53761,0.0199 0.0932,0.084 -0.0725,0.14375 -0.36815,0.13277 -0.32676,-0.0121 -0.39322,-0.072 -0.16946,-0.15272 z m 6.29886,-0.25529 c 0.27291,-0.0641 0.65157,-0.0599 0.84147,0.009 0.18991,0.0692 -0.0334,0.12168 -0.49619,0.11653 -0.46281,-0.005 -0.61819,-0.0618 -0.34528,-0.1259 z m -4.76742,-27.884403 c 0,-0.625652 0.0547,-0.881601 0.12156,-0.568775 0.0669,0.312827 0.0669,0.824724 0,1.13755 -0.0669,0.312827 -0.12156,0.05688 -0.12156,-0.568775 z m -1.12196,-16.431282 c 0,-0.625653 0.0547,-0.881601 0.12155,-0.568775 0.0669,0.312826 0.0669,0.824724 0,1.13755 -0.0669,0.312827 -0.12155,0.05688 -0.12155,-0.568775 z m -42.10581,-2.022312 c 0,-0.347584 0.0637,-0.489778 0.14148,-0.315986 0.0778,0.173793 0.0778,0.45818 0,0.631973 -0.0778,0.173792 -0.14148,0.0316 -0.14148,-0.315987 z m -5.4094,-15.862507 c -0.3489,-0.400938 -0.33898,-0.409879 0.1059,-0.09544 0.46723,0.330236 0.61581,0.537824 0.38496,0.537824 -0.0582,0 -0.27913,-0.199071 -0.49086,-0.442381 z m 27.26558,-0.969023 c 0.0135,-0.294487 0.0799,-0.354385 0.16946,-0.152728 0.081,0.182481 0.0711,0.400512 -0.0221,0.484513 -0.0932,0.084 -0.1595,-0.0653 -0.14732,-0.331785 z m 30.01257,-32.356987 c 0.0135,-0.294485 0.0799,-0.354385 0.16947,-0.152727 0.081,0.182482 0.0711,0.400512 -0.0221,0.484512 -0.0932,0.084 -0.15949,-0.0653 -0.14732,-0.331785 z"
         id="path1017" />
      <path
         style="fill:#000000;fill-opacity:1;stroke-width:0.26628"
         d="m 100.78881,173.26317 c -0.30854,-0.11697 -1.128609,-0.73992 -1.822373,-1.38433 -1.251286,-1.16227 -1.262657,-1.1888 -1.419082,-3.31188 -0.188484,-2.5582 -0.747049,-3.44541 -2.313781,-3.67514 -0.553802,-0.0812 -1.195738,-0.28888 -1.426526,-0.46151 -0.230788,-0.17261 -1.07774,-0.47031 -1.882113,-0.66155 -0.804374,-0.19123 -2.042148,-0.70623 -2.750611,-1.14444 -1.717196,-1.06214 -3.805813,-3.96084 -4.187093,-5.81108 -0.156379,-0.75887 -0.411478,-1.67961 -0.566884,-2.0461 -0.42088,-0.99253 0.0909,-6.56515 0.789656,-8.59836 0.75398,-2.19389 2.419942,-4.4086 4.634129,-6.16056 1.419968,-1.12353 2.228478,-1.53941 3.97919,-2.0468 1.933593,-0.56038 2.590845,-0.62712 5.479435,-0.55636 l 3.282303,0.0804 1.06531,0.90011 c 0.58593,0.49506 1.601,1.20719 2.25572,1.58251 0.91095,0.52221 1.45587,1.14168 2.32132,2.63894 0.62201,1.07609 1.45599,2.46843 1.8533,3.09409 0.70791,1.11476 0.71946,1.2113 0.5768,4.82039 -0.13228,3.34637 -0.22493,3.86602 -1.01409,5.68775 -0.47768,1.1027 -1.35093,2.63056 -1.94055,3.39525 -1.07317,1.3918 -1.43795,1.66141 -4.40663,3.25693 l -1.59166,0.85544 0.16711,1.04048 c 0.32025,1.99403 0.79044,2.99669 1.92584,4.10681 1.11627,1.0914 1.13533,1.14039 0.81669,2.09888 -0.64684,1.94573 -2.23746,2.90213 -3.82541,2.30013 z m -6.262004,-14.54343 c 0.157072,-0.51872 0.05265,-1.41158 -0.330444,-2.82547 -0.709814,-2.61973 -0.705823,-2.72013 0.161156,-4.05341 0.71681,-1.10234 0.729979,-1.10868 2.145408,-1.03336 1.633382,0.0869 2.403053,0.74461 2.622908,2.24133 0.246639,1.67904 0.396236,2.29273 0.984106,4.037 0.32629,0.96816 0.7503,1.7603 0.94222,1.7603 0.66659,0 3.73679,-3.15369 4.0429,-4.15284 0.16223,-0.5295 0.5219,-1.18884 0.79927,-1.46519 0.4321,-0.4305 0.49625,-0.92133 0.44802,-3.4279 -0.0536,-2.78715 -0.0949,-2.97412 -0.87226,-3.95466 -1.0811,-1.36363 -3.1275,-2.56828 -5.45364,-3.21037 -2.533846,-0.69944 -3.763843,-0.46699 -4.556974,0.8612 -0.538117,0.90113 -0.62126,0.93945 -2.039739,0.94011 -1.45612,7.6e-4 -1.49156,0.0189 -2.315012,1.18908 -1.573473,2.23607 -2.06447,3.75699 -2.064588,6.39527 -8.7e-5,1.9801 0.107841,2.58824 0.615073,3.46578 0.338348,0.58535 0.615176,1.27401 0.615176,1.53034 0,0.55104 1.526914,1.94695 2.524422,2.30784 1.053582,0.38117 1.478288,0.23281 1.731998,-0.60505 z m 68.246604,6.64853 c -1.10176,-1.18004 -3.67598,-6.16085 -4.05565,-7.8472 -0.38253,-1.69901 -0.99974,-2.21256 -2.66445,-2.21699 -0.62132,-0.002 -1.82389,-0.17093 -2.67237,-0.37618 -0.84849,-0.20525 -1.75868,-0.37453 -2.02264,-0.37618 -0.75014,-0.005 -1.56669,0.96508 -1.77796,2.1116 -0.10594,0.57489 -0.34939,1.32965 -0.54099,1.67723 -0.1916,0.34759 -0.42955,1.36337 -0.52878,2.2573 -0.0992,0.89393 -0.40086,2.03142 -0.6703,2.52775 -0.40631,0.74844 -0.68107,0.92972 -1.6103,1.0624 -1.38842,0.19826 -2.1481,-0.048 -2.76471,-0.89609 -0.86883,-1.19505 -0.87306,-1.99258 -0.0154,-2.91115 0.54348,-0.58209 0.84176,-1.26122 0.9917,-2.25791 0.11794,-0.78398 0.49705,-1.96942 0.84246,-2.6343 0.61179,-1.17761 0.61576,-1.2397 0.15373,-2.40149 -0.69424,-1.74571 -0.6152,-2.20891 0.48118,-2.81959 0.52399,-0.29186 1.13552,-0.78459 1.35897,-1.09497 0.49031,-0.68104 2.63288,-6.48828 2.9024,-7.86663 0.22133,-1.13197 1.84795,-2.76519 3.01747,-3.02973 1.07048,-0.24214 2.6419,0.42574 3.01564,1.2817 0.1701,0.38957 0.53464,1.16809 0.8101,1.73005 0.27546,0.56196 0.65312,1.69951 0.83925,2.52789 0.18613,0.82838 0.64231,2.00393 1.01372,2.61233 0.37142,0.60841 0.67531,1.27469 0.67531,1.48063 0,0.20594 0.47247,1.15306 1.04994,2.10471 l 1.04995,1.73027 1.96533,0.40697 c 1.08094,0.22383 2.23483,0.4557 2.56421,0.51526 0.41799,0.0756 0.63735,0.34464 0.7263,0.89083 0.10724,0.6585 0.0123,0.8237 -0.59887,1.04223 -0.39946,0.14283 -1.27348,0.31958 -1.94225,0.39279 -1.6343,0.17889 -2.00476,0.85603 -1.33414,2.4386 0.26268,0.61988 0.89334,1.61859 1.40149,2.21935 1.4546,1.71974 1.84983,2.59416 1.84983,4.09259 0,1.29675 -0.0585,1.41484 -0.94471,1.90848 -1.27559,0.71049 -1.67983,0.66597 -2.56542,-0.28255 z m -6.86805,-14.70768 c 0,-0.053 -0.31445,-0.8492 -0.69877,-1.7694 -0.72018,-1.72438 -1.27865,-2.68451 -1.56148,-2.68451 -0.089,0 -0.45806,0.81424 -0.82007,1.80942 l -0.6582,1.80941 0.63812,0.46569 c 0.54653,0.39884 3.1004,0.70312 3.1004,0.36939 z M 54.260371,164.82277 c -1.32839,-1.28899 -3.926096,-6.29643 -4.269011,-8.22911 -0.251797,-1.41914 -1.460476,-1.95576 -4.920005,-2.18432 -2.655078,-0.17541 -2.712781,-0.16743 -3.15145,0.43594 -0.245766,0.33805 -0.527177,1.00682 -0.625352,1.48617 -0.09818,0.47936 -0.333123,1.09906 -0.522104,1.37713 -0.188978,0.27807 -0.428406,1.08932 -0.532058,1.80279 -0.103656,0.71346 -0.380319,1.87945 -0.614809,2.59108 -0.46004,1.39612 -0.575984,1.44796 -2.929039,1.30968 -1.264924,-0.0743 -1.690409,-0.46562 -1.878168,-1.7272 -0.123974,-0.83301 -0.04199,-1.10763 0.442254,-1.4813 0.450629,-0.34773 0.59444,-0.74901 0.59444,-1.65868 0,-0.72593 0.231935,-1.60102 0.587107,-2.21513 0.842669,-1.45702 0.971403,-2.78627 0.400357,-4.13386 -0.607542,-1.43371 -0.392941,-2.0506 0.986333,-2.83531 0.829803,-0.47209 1.164132,-0.87425 1.409483,-1.69542 0.176903,-0.59208 0.580177,-1.53218 0.896165,-2.0891 0.315984,-0.55692 0.810482,-1.86574 1.098883,-2.90849 0.569002,-2.05732 1.645099,-3.84846 2.760018,-4.594 0.663326,-0.44356 0.782731,-0.44788 2.005207,-0.0725 0.714936,0.21954 1.488949,0.59146 1.720032,0.82649 0.477483,0.48564 1.649452,3.72738 2.164184,5.98628 0.211471,0.92803 0.549138,1.64314 0.87216,1.84705 0.289902,0.183 0.527094,0.52086 0.527094,0.7508 0,0.76208 1.225769,3.2819 1.736244,3.56921 0.276118,0.15541 1.368593,0.39333 2.427722,0.5287 2.675764,0.34202 2.848317,0.42636 2.848317,1.39227 0,0.89929 -0.314978,1.08732 -2.769036,1.65298 -1.22589,0.28256 -1.22628,0.28303 -1.078542,1.2757 0.08128,0.54617 0.744704,1.91065 1.474271,3.03219 l 1.326477,2.03915 0.87403,-0.74307 c 1.137595,-0.96713 1.971148,-1.12017 3.77078,-0.69233 1.261967,0.30003 1.844222,0.29836 4.056701,-0.0117 1.42079,-0.19907 3.593021,-0.47356 4.827183,-0.60997 2.776735,-0.30691 5.428764,-0.91703 6.170809,-1.41965 l 0.560983,-0.37997 -0.560983,-0.38518 c -0.30854,-0.21184 -1.356439,-0.72774 -2.328664,-1.14643 -0.972222,-0.41869 -1.917688,-0.97774 -2.101032,-1.24233 -0.183345,-0.26458 -0.539979,-0.48106 -0.792519,-0.48106 -0.252544,0 -0.610557,-0.1644 -0.795592,-0.36533 -0.185031,-0.20093 -0.989368,-0.5543 -1.787414,-0.78526 -0.798045,-0.23096 -1.914109,-0.68774 -2.480138,-1.01506 -0.566028,-0.32732 -1.365608,-0.67123 -1.776839,-0.76425 -1.288524,-0.29146 -5.570561,-3.09147 -6.070357,-3.96939 -0.520365,-0.91405 -0.595349,-1.41005 -0.551166,-3.64585 0.02718,-1.37521 0.139267,-1.68222 0.898854,-2.4619 0.946771,-0.97181 4.264246,-2.66133 6.70546,-3.41494 0.848486,-0.26193 2.678692,-0.6685 4.067124,-0.9035 4.37907,-0.74117 10.610036,-0.13489 12.182462,1.18536 0.654159,0.54926 0.802281,2.18798 0.243304,2.69175 -0.447193,0.40303 -1.584726,0.3835 -2.950034,-0.0506 -1.51782,-0.48263 -6.35482,-0.29268 -10.259728,0.40291 -2.733045,0.48683 -3.150537,0.63663 -4.2869,1.53811 -1.45773,1.15641 -2.184444,2.27299 -1.936877,2.97596 0.09551,0.27121 0.575344,0.76559 1.066294,1.09861 0.935357,0.63448 8.094573,3.94223 9.64664,4.45701 0.495135,0.16422 1.568014,0.75126 2.384177,1.30452 0.816159,0.55326 2.054792,1.26959 2.752517,1.59184 1.472078,0.6799 4.447014,3.28277 4.614888,4.03773 0.4893,2.20047 0.470816,2.33431 -0.415215,3.00622 -0.471169,0.3573 -1.263173,0.70845 -1.76001,0.78032 -0.496837,0.0719 -3.174805,0.42521 -5.951044,0.7852 -2.776236,0.35999 -6.121095,0.88282 -7.43302,1.16183 -4.680862,0.99551 -7.649352,0.89428 -8.850447,-0.30184 -0.49362,-0.49157 -0.521046,-0.47374 -1.569489,1.02067 -1.261813,1.79854 -1.859826,1.9261 -3.151912,0.67233 z m -7.187214,-14.88745 c -0.0038,-1.37607 -1.271658,-3.98143 -1.937525,-3.98143 -0.362092,0 -1.458678,3.61144 -1.174386,3.86765 0.264085,0.23801 1.753104,0.61084 2.622616,0.65668 0.330968,0.0174 0.490349,-0.1594 0.489295,-0.5429 z m 75.856933,14.51965 c -0.96672,-0.29055 -5.37364,-3.58378 -6.15432,-4.59905 -0.40277,-0.52379 -0.96375,-1.64126 -1.24662,-2.48324 -0.28288,-0.84199 -0.79126,-1.88141 -1.12975,-2.30983 -1.1628,-1.47172 -3.64549,-10.6254 -3.65002,-13.45767 -0.005,-2.84584 0.61607,-3.73799 2.3306,-3.35017 1.40006,0.31669 1.76085,1.03462 2.11135,4.20134 0.4793,4.33045 2.1773,9.49538 4.27818,13.01329 1.38723,2.32291 3.18375,4.13179 4.11003,4.13831 0.26953,0.002 0.76238,0.0693 1.09523,0.14977 0.8164,0.19738 1.66519,-0.60304 2.06756,-1.94976 0.17498,-0.58565 0.51272,-1.33245 0.75052,-1.65954 0.54948,-0.75578 1.02589,-6.29359 0.76823,-8.92991 -0.11969,-1.22467 -0.42257,-2.31737 -0.85603,-3.08826 -0.78578,-1.39752 -0.84084,-2.33331 -0.2196,-3.7326 0.40126,-0.90379 0.55536,-1.01627 1.39235,-1.01627 0.77256,0 1.07012,0.16981 1.66114,0.94796 0.94458,1.24365 1.63728,3.40304 1.40172,4.36963 -0.11034,0.45274 0.0624,1.78373 0.42812,3.29871 0.51036,2.11418 0.56129,2.72513 0.30395,3.64617 -0.17003,0.60854 -0.30914,2.07726 -0.30914,3.26383 0,1.68495 -0.15355,2.52506 -0.70122,3.83638 -0.38568,0.92345 -0.70123,2.04231 -0.70123,2.48637 0,0.5531 -0.24584,1.01963 -0.78062,1.48138 -1.30118,1.1235 -5.50458,2.1777 -6.95043,1.74316 z M 17.763378,164.01936 c -1.545234,-0.53212 -2.195372,-1.18119 -2.164464,-2.1609 0.03792,-1.20198 0.629971,-1.6306 1.761361,-1.27515 1.287193,0.40441 2.787279,0.36864 2.787279,-0.0665 0,-0.19336 -0.24967,-0.84745 -0.554822,-1.45353 -0.32858,-0.65261 -0.559847,-1.66891 -0.567143,-2.4923 -0.0073,-0.82339 -0.238564,-1.83969 -0.567143,-2.4923 -0.70838,-1.40694 -0.700061,-1.56361 0.164706,-3.1016 0.623392,-1.10871 0.713493,-1.572 0.674354,-3.46745 -0.02485,-1.20327 0.0457,-3.21155 0.156773,-4.46286 0.181587,-2.04572 0.141077,-2.37986 -0.401793,-3.3142 -0.860485,-1.48098 -0.493989,-2.2152 1.503048,-3.01116 1.442164,-0.5748 1.752344,-0.60278 5.260504,-0.47451 2.348729,0.0859 4.194958,0.28636 4.990187,0.54187 1.443855,0.46391 4.487861,2.92974 4.487861,3.63543 0,0.25319 0.266116,0.95399 0.591365,1.55733 l 0.591369,1.097 -0.641644,1.34422 c -0.504786,1.05753 -1.064924,1.64738 -2.626209,2.76554 -1.091512,0.78172 -2.583316,1.76224 -3.315119,2.17894 -1.513517,0.86181 -1.67361,1.30469 -0.560203,1.54973 0.424243,0.0934 1.072371,0.37992 1.440284,0.63679 0.367912,0.25687 0.853312,0.46703 1.078665,0.46703 0.64402,0 2.00677,0.98003 2.459224,1.76857 0.331124,0.57708 0.359445,1.0804 0.144673,2.57115 -0.146877,1.01949 -0.270947,2.04872 -0.27571,2.28719 -0.02446,1.22481 -4.169866,4.22204 -6.931141,5.01139 -2.541042,0.72639 -7.838752,0.92757 -9.486262,0.36023 z m 10.166858,-4.88776 c 1.309089,-0.60189 2.659849,-1.94634 2.536311,-2.52446 -0.04725,-0.22114 -0.884732,-0.77474 -1.861065,-1.23024 -1.348656,-0.6292 -2.131036,-0.82818 -3.256413,-0.82818 h -1.481264 l -0.146978,0.98758 c -0.08084,0.54317 -0.07891,1.75178 0.0043,2.68581 l 0.151257,1.69824 1.465699,-0.13633 c 0.806135,-0.075 1.970814,-0.36857 2.588174,-0.65242 z m -1.395899,-11.75859 c 3.151576,-1.42705 5.47692,-3.50375 5.341363,-4.77024 -0.0747,-0.6979 -0.303353,-0.92402 -1.536695,-1.51971 -1.771187,-0.85545 -4.413514,-1.34629 -5.29623,-0.98381 -0.471112,0.19345 -0.585507,0.40903 -0.480283,0.90511 0.07597,0.35815 -0.04618,0.90735 -0.271445,1.22043 -0.490404,0.68159 -0.853918,3.8419 -0.603959,5.25067 0.0982,0.55348 0.228052,1.00632 0.288553,1.00632 0.0605,0 1.211914,-0.49895 2.558696,-1.10877 z m 110.937913,16.3754 c -0.49632,-0.22396 -0.9696,-0.59801 -1.05173,-0.83122 -0.0821,-0.23322 -0.21115,-2.3806 -0.2867,-4.77196 -0.15695,-4.96768 -0.7809,-12.00688 -1.43424,-16.18056 -0.52104,-3.32851 -0.41583,-3.59444 1.42201,-3.59444 1.59817,0 2.01932,0.49101 2.50701,2.9229 0.22131,1.10356 0.48298,2.40462 0.5815,2.89124 0.24183,1.19454 0.62793,4.71433 0.97052,8.84761 0.15832,1.91012 0.53191,4.18542 0.84853,5.1678 0.53426,1.6577 0.54106,1.83312 0.1224,3.15986 -0.70462,2.23298 -1.00906,2.66084 -1.94418,2.73232 -0.458,0.035 -1.2388,-0.11959 -1.73512,-0.34355 z m 35.97993,-0.0742 c -0.69569,-0.24541 -1.32218,-2.31515 -1.42313,-4.70164 -0.0412,-0.97324 -0.23903,-2.11079 -0.43968,-2.52789 -0.24179,-0.50264 -0.41757,-2.56766 -0.52127,-6.12373 -0.14931,-5.1204 -0.18507,-5.39111 -0.78309,-5.92948 -0.61103,-0.55009 -0.67738,-0.55551 -2.66467,-0.21736 -1.12092,0.19072 -2.68595,0.39458 -3.47785,0.45301 -1.25795,0.0928 -1.49711,0.0325 -1.89332,-0.47727 -0.51935,-0.66825 -0.61067,-2.62873 -0.13478,-2.8938 0.17529,-0.0976 1.09039,-0.26551 2.03356,-0.37305 0.94317,-0.10754 3.54506,-0.48733 5.78197,-0.84397 4.60101,-0.73357 4.70788,-0.73733 14.86604,-0.52311 7.19176,0.15166 7.44875,0.17458 7.91765,0.70629 0.72176,0.81846 0.63797,2.23807 -0.17263,2.92437 -0.58215,0.49289 -0.81137,0.53646 -1.75307,0.33323 -0.82348,-0.17772 -12.91908,-0.24423 -14.88768,-0.0819 -0.66237,0.0546 -0.98743,1.14369 -1.05724,3.54219 -0.0572,1.96718 0.0544,2.78531 0.58998,4.32237 0.48983,1.40581 0.66153,2.49217 0.66418,4.20243 0.002,1.45485 0.16673,2.71496 0.44542,3.41266 0.57734,1.44541 0.66492,4.04817 0.15493,4.60446 -0.40629,0.44316 -2.22799,0.55103 -3.24532,0.19216 z M 24.635415,125.95404 c -3.717271,-0.29684 -6.228612,-1.02895 -7.661449,-2.23349 -1.105,-0.92893 -1.156841,-1.04161 -1.26376,-2.74693 l -0.111492,-1.77826 1.331083,-1.28249 c 1.186332,-1.14303 1.457764,-1.28249 2.495981,-1.28249 0.640693,0 1.89179,0.17063 2.780215,0.37918 0.888426,0.20855 1.732816,0.37918 1.876424,0.37918 0.585486,0 1.417837,-2.16247 1.921816,-4.99293 0.396384,-2.22617 0.771401,-3.42518 1.44819,-4.63014 0.50231,-0.89432 1.342599,-3.16173 1.86731,-5.03869 0.52471,-1.87696 2.076998,-6.427157 3.449528,-10.111556 3.792539,-10.180635 4.428046,-12.239336 4.774618,-15.467203 0.628101,-5.849971 1.126226,-8.666849 2.222167,-12.566298 0.618607,-2.201054 1.323916,-5.069627 1.567352,-6.374605 0.243438,-1.304977 0.751111,-3.114122 1.128164,-4.020317 1.178339,-2.831977 2.088738,-6.509291 2.088738,-8.436888 0,-1.311297 0.150769,-2.05757 0.551993,-2.732231 0.674435,-1.134072 1.126004,-3.508549 1.128837,-5.935748 0.0014,-1.218286 0.289327,-2.798485 0.875085,-4.80299 2.079364,-7.115712 2.105298,-7.679921 0.493516,-10.736576 -1.316104,-2.495913 -1.306638,-2.86844 0.115591,-4.548943 1.265408,-1.495207 3.130855,-2.485971 5.009732,-2.660736 1.369078,-0.127346 1.612632,-0.07201 2.438067,0.553953 1.715468,1.300909 2.890573,3.982707 4.816583,10.992298 0.846032,3.079078 1.393002,4.535332 2.089327,5.562638 1.278906,1.886807 1.662724,2.829596 2.823636,6.935816 1.103789,3.904189 1.69104,5.270905 2.805814,6.530024 0.500107,0.564865 1.013496,1.768022 1.54121,3.611912 0.435213,1.520695 1.626103,4.804982 2.646421,7.298419 1.020316,2.493435 2.28424,5.876848 2.80872,7.5187 1.716001,5.371831 5.300442,12.776065 7.032894,14.527554 l 0.96363,0.974223 0.605766,-0.631972 c 1.029025,-1.073544 2.138071,-3.582027 3.473111,-7.855627 1.238162,-3.963481 1.340631,-4.171766 3.079795,-6.260205 2.263932,-2.718593 4.622755,-6.822369 6.992363,-12.165011 1.351556,-3.04729 2.103937,-4.40121 2.809521,-5.055779 1.228478,-1.139656 2.319898,-3.268088 2.558558,-4.989561 0.16055,-1.158072 0.33146,-1.44708 1.23873,-2.09468 0.89629,-0.639774 1.08117,-0.946204 1.24585,-2.06502 0.10636,-0.722572 0.45361,-1.643139 0.77168,-2.045705 0.31806,-0.402567 0.74929,-1.243985 0.95828,-1.869817 0.20899,-0.625832 0.7642,-1.57508 1.23379,-2.109438 1.34072,-1.525604 2.20061,-3.555532 3.65624,-8.631199 0.74302,-2.590855 1.68485,-5.462844 2.09296,-6.382198 0.72507,-1.633401 0.73459,-1.727518 0.41716,-4.123517 -0.37288,-2.8145602 -0.17536,-4.9116544 0.51399,-5.457268 1.88785,-1.4942064 5.66415,-2.1285058 7.26252,-1.2198743 1.23049,0.6994971 1.71556,1.6649912 2.00406,3.9888975 0.13513,1.0883948 0.49937,2.4907978 0.80943,3.1164508 0.31006,0.625652 0.71138,2.218223 0.89183,3.539045 0.83907,6.141702 2.30131,10.977998 4.95015,16.37238 1.59749,3.253295 2.1286,4.992698 2.61977,8.579844 0.15626,1.141155 0.54207,2.55602 0.85736,3.144146 0.31529,0.588129 0.57879,1.417661 0.58557,1.843406 0.007,0.425744 0.20565,1.229103 0.44197,1.785238 0.23631,0.556136 0.60063,1.636809 0.80959,2.401495 0.47139,1.724987 3.03967,8.29795 3.67838,9.41399 0.25935,0.45318 0.89432,1.32378 1.41103,1.934667 0.51672,0.610887 0.93732,1.23654 0.93466,1.390339 -0.007,0.399609 1.50789,3.946243 1.68247,3.939226 0.38209,-0.01534 17.3875,-26.168268 27.74766,-42.673593 5.64799,-8.998109 6.20124,-9.983298 5.82029,-10.364347 -1.29992,-1.300273 -0.66151,-3.367246 1.64804,-5.3357928 1.65844,-1.4135754 2.98913,-2.0369785 4.34802,-2.0369785 1.3935,0 1.89257,0.4066586 3.05403,2.488545 l 1.095,1.9627623 0.43517,5.168423 c 1.512,17.957568 1.24606,32.285689 -0.79824,43.008372 -0.53495,2.8059 -0.6132,3.786359 -0.41357,5.182174 0.13542,0.946839 0.25035,6.34881 0.25539,12.004381 0.01,11.121893 0.1586,12.844109 1.43012,16.566873 0.64307,1.882783 0.82299,2.891603 0.82299,4.614405 0,1.851922 0.0861,2.275027 0.53767,2.643357 0.41735,0.34039 0.57781,0.92899 0.71706,2.63027 0.10477,1.28005 0.5899,3.50451 1.16629,5.3477 1.72696,5.52258 1.60059,6.84771 -0.85898,9.00747 -1.92077,1.68664 -3.62613,2.22662 -6.42172,2.03335 -1.1068,-0.0765 -2.42755,-0.21584 -2.93502,-0.30961 -0.63879,-0.11803 -1.07027,-0.0548 -1.40245,0.20545 -0.40969,0.32101 -3.16451,0.39844 -18.85198,0.5299 -17.93336,0.15027 -18.41238,0.16707 -20.05513,0.70308 -1.42746,0.46576 -2.59846,0.57998 -7.71351,0.75238 -3.31681,0.11179 -7.10344,0.32147 -8.41474,0.46595 -3.45424,0.3806 -10.46787,0.32882 -12.45237,-0.0919 -1.52668,-0.32369 -1.75247,-0.31228 -2.94516,0.14877 -0.71044,0.27463 -1.60726,0.48118 -1.99293,0.459 -2.14107,-0.12315 -3.1087,-0.0489 -4.62811,0.35495 -2.25097,0.59836 -8.407947,0.81395 -12.208257,0.4275 -1.616051,-0.16434 -5.184801,-0.59013 -7.930553,-0.9462 -4.443198,-0.57619 -5.044771,-0.60588 -5.469581,-0.26998 -0.738525,0.58395 -1.520835,0.69298 -2.440743,0.34015 -0.719539,-0.27598 -1.060697,-0.25353 -2.354337,0.15492 -0.924015,0.29175 -3.295412,0.61893 -6.092547,0.84059 -2.518823,0.19961 -5.119783,0.54059 -5.779908,0.75773 -0.660128,0.21715 -1.524016,0.48815 -1.919756,0.60222 -0.395739,0.11407 -3.298824,0.28555 -6.4513,0.38107 -3.152476,0.0955 -7.940645,0.39381 -10.640374,0.66286 -5.154098,0.51365 -11.686954,0.59544 -16.548989,0.20718 z m 25.524711,-8.90766 c 4.242432,-0.48425 9.543718,-0.95794 11.780636,-1.05265 3.386296,-0.14336 4.337243,-0.27434 5.680749,-0.78244 1.38115,-0.52233 2.371195,-0.64933 6.872038,-0.88154 4.862895,-0.2509 5.477185,-0.33839 8.16697,-1.16328 3.521827,-1.08004 4.49293,-1.03253 6.683219,0.32699 1.36525,0.84742 1.805975,0.9745 4.186314,1.20708 3.432944,0.33543 8.001618,-0.0331 15.112518,-1.21918 2.93113,-0.48889 5.97196,-0.8904 6.7574,-0.89225 0.78543,-0.002 3.24674,0.40798 5.46958,0.91073 3.92455,0.88763 4.1511,0.90995 7.82815,0.77102 2.08265,-0.0787 5.80617,-0.43583 8.27449,-0.79364 2.46833,-0.3578 5.72536,-0.81955 7.23787,-1.02611 4.80105,-0.65566 12.50086,-1.17581 18.00635,-1.2164 4.65474,-0.0343 5.52462,0.0235 6.87204,0.45667 1.64436,0.52865 3.50966,0.56877 9.11597,0.19607 l 2.80491,-0.18646 -0.0516,-3.18356 c -0.0284,-1.75096 -0.38513,-5.50488 -0.79279,-8.34204 -0.59917,-4.169927 -0.72366,-5.941765 -0.64965,-9.245899 0.0887,-3.959825 0.0717,-4.106529 -0.54624,-4.699314 -1,-0.959364 -1.11331,-1.780286 -0.89812,-6.50699 0.32162,-7.064741 -0.15519,-11.195221 -1.58166,-13.701247 -0.61762,-1.085031 -0.48164,-2.623259 0.34416,-3.893203 0.58948,-0.906536 0.80563,-1.730679 1.10572,-4.216032 0.63133,-5.228583 0.96521,-12.338985 0.96586,-20.569063 5.6e-4,-7.850723 -0.001,-7.876995 -0.67385,-8.943994 l -0.67446,-1.070144 -0.73411,1.048045 c -0.40376,0.576427 -1.18332,1.680933 -1.73237,2.454459 -0.54904,0.773529 -1.24029,2.040407 -1.53611,2.815288 -0.35132,0.920296 -1.00621,1.85582 -1.88845,2.697701 -1.62261,1.548385 -2.83034,3.744077 -3.0449,5.535747 -0.14681,1.225907 -0.2875,1.427403 -2.0888,2.991628 -1.65755,1.439383 -1.93139,1.801212 -1.93139,2.551907 0,0.56283 -0.2065,1.043146 -0.57916,1.347085 -0.31854,0.259801 -1.46013,1.751961 -2.53687,3.315913 -1.07674,1.56395 -2.29077,3.079655 -2.69784,3.368229 -0.57633,0.40857 -0.75678,0.779586 -0.81541,1.676516 -0.0633,0.96827 -0.27382,1.343124 -1.32111,2.352174 -1.42982,1.377629 -2.00538,2.289623 -2.8334,4.48959 -0.45232,1.201794 -0.81669,1.704455 -1.56459,2.158395 -0.85126,0.516673 -1.31393,1.296107 -3.64668,6.143419 -1.46945,3.053418 -3.08803,6.205762 -3.59685,7.005207 -0.90895,1.428118 -0.94704,1.453536 -2.17793,1.453536 -1.99139,0 -5.42763,-1.849644 -6.05738,-3.260543 -0.16145,-0.361728 -0.387,-2.022746 -0.50121,-3.691153 -0.18235,-2.663675 -0.31473,-3.233772 -1.08593,-4.676596 -0.56655,-1.059951 -0.87834,-2.030421 -0.87848,-2.734347 -1.6e-4,-0.775961 -0.20399,-1.331988 -0.70553,-1.924599 -0.45675,-0.539681 -0.9049,-1.657557 -1.27166,-3.172011 -0.6345,-2.620039 -1.1334,-3.656296 -1.94991,-4.050124 -1.0741,-0.518065 -1.46275,-1.650011 -1.25443,-3.653528 0.17791,-1.711038 0.13952,-1.907804 -0.56981,-2.920479 -0.53964,-0.770409 -0.98621,-2.084475 -1.53731,-4.523597 -0.86583,-3.832091 -1.26061,-4.84212 -2.34602,-6.002143 -0.55072,-0.588576 -0.74373,-1.074861 -0.74373,-1.873786 0,-0.761857 -0.24208,-1.419728 -0.82373,-2.238608 -0.45305,-0.637824 -1.28847,-2.069722 -1.8565,-3.181993 -0.56802,-1.112272 -1.44131,-2.818597 -1.94065,-3.791835 -0.49934,-0.973237 -1.15194,-2.036685 -1.45023,-2.363215 l -0.54234,-0.593694 -2.1409,4.511923 c -2.27718,4.799107 -3.1127,6.899523 -3.44084,8.64995 -0.11319,0.603812 -0.54116,1.440339 -0.96495,1.886155 -1.14476,1.204248 -1.81425,2.326356 -2.95526,4.9532 -1.35264,3.114082 -2.20672,4.608984 -3.23798,5.667531 -0.58841,0.603968 -0.842,1.127502 -0.842,1.738278 0,0.686966 -0.15007,0.935632 -0.70123,1.161957 -0.59905,0.245991 -0.70123,0.456248 -0.70123,1.443058 0,0.88281 -0.22594,1.473429 -0.95844,2.505424 -0.52715,0.742674 -1.09171,1.424542 -1.25459,1.515265 -0.16288,0.09072 -0.432524,0.643606 -0.599212,1.228631 -0.166685,0.585024 -1.119129,2.602098 -2.116537,4.482385 -1.154342,2.176131 -1.929979,4.01372 -2.134023,5.055779 -0.223464,1.141234 -0.54836,1.866771 -1.072686,2.395441 -1.038785,1.047398 -1.762509,2.223302 -2.644887,4.297412 -1.399469,3.289578 -1.909131,4.293611 -2.823016,5.561357 -0.501129,0.69517 -0.991144,1.74413 -1.088918,2.331023 -0.248151,1.489503 -1.470793,4.885559 -2.004809,5.568632 -0.869456,1.11214 -4.765932,0.517343 -6.492841,-0.991135 -0.974043,-0.850839 -2.054257,-3.342878 -2.054257,-4.739146 0,-0.430512 -0.312193,-0.954005 -0.841474,-1.411007 -0.661971,-0.571571 -0.841474,-0.943532 -0.841474,-1.74368 0,-0.685364 -0.447039,-1.886111 -1.370562,-3.681343 -0.753806,-1.465324 -1.441995,-2.858436 -1.529303,-3.09581 -0.08731,-0.237371 -0.664229,-0.719169 -1.282045,-1.070662 -1.463059,-0.832371 -1.708408,-1.296148 -1.708408,-3.229349 0,-1.409427 -0.192815,-1.988928 -1.58258,-4.756411 C 67.06103,64.583659 64.490156,59.013452 62.218398,53.938714 56.662555,41.527868 54.064019,36.372892 53.40239,36.44952 c -0.145132,0.01681 -0.546964,1.541459 -0.892955,3.388113 -0.345995,1.846651 -1.640347,8.135261 -2.876341,13.974686 -2.587692,12.225501 -3.929111,19.287742 -4.924361,25.92556 -0.661012,4.40862 -0.788661,4.870379 -2.118526,7.663578 -1.662175,3.491175 -3.183549,7.882802 -3.622302,10.456219 -0.171565,1.006282 -0.623338,2.464194 -1.003943,3.239804 -1.669613,3.40244 -3.275047,9.07652 -3.643895,12.87861 -0.09442,0.97324 -0.243971,2.32747 -0.332346,3.00942 l -0.16068,1.23989 4.309788,-0.14929 c 2.370382,-0.0821 7.780866,-0.54549 12.023297,-1.02973 z"
         id="path1015" />
    </g>
  </g>
</svg>
