<?xml version="1.0" encoding="UTF-8" standalone="no"?>
<svg
   xmlns:dc="http://purl.org/dc/elements/1.1/"
   xmlns:cc="http://creativecommons.org/ns#"
   xmlns:rdf="http://www.w3.org/1999/02/22-rdf-syntax-ns#"
   xmlns:svg="http://www.w3.org/2000/svg"
   xmlns="http://www.w3.org/2000/svg"
   width="210mm"
   height="89mm"
   viewBox="0 0 210 89"
   version="1.1"
   id="svg8">
  <defs
     id="defs2" />
  <metadata
     id="metadata5">
    <rdf:RDF>
      <cc:Work
         rdf:about="">
        <dc:format>image/svg+xml</dc:format>
        <dc:type
           rdf:resource="http://purl.org/dc/dcmitype/StillImage" />
        <dc:title></dc:title>
      </cc:Work>
    </rdf:RDF>
  </metadata>
  <g
     id="layer2" />
  <g
     id="layer1">
    <g
       id="g26"
       style="opacity:1"
       transform="matrix(1.4568657,0,0,1.7680829,-74.296047,-46.224658)">
      <path
         style="color:#000000;font-style:normal;font-variant:normal;font-weight:normal;font-stretch:normal;font-size:medium;line-height:normal;font-family:sans-serif;font-variant-ligatures:normal;font-variant-position:normal;font-variant-caps:normal;font-variant-numeric:normal;font-variant-alternates:normal;font-variant-east-asian:normal;font-feature-settings:normal;font-variation-settings:normal;text-indent:0;text-align:start;text-decoration:none;text-decoration-line:none;text-decoration-style:solid;text-decoration-color:#000000;letter-spacing:normal;word-spacing:normal;text-transform:none;writing-mode:lr-tb;direction:ltr;text-orientation:mixed;dominant-baseline:auto;baseline-shift:baseline;text-anchor:start;white-space:normal;shape-padding:0;shape-margin:0;inline-size:0;clip-rule:nonzero;display:inline;overflow:visible;visibility:visible;isolation:auto;mix-blend-mode:normal;color-interpolation:sRGB;color-interpolation-filters:linearRGB;solid-color:#000000;solid-opacity:1;vector-effect:none;fill:#000000;fill-opacity:1;fill-rule:nonzero;stroke:none;stroke-width:0.345457;stroke-linecap:butt;stroke-linejoin:miter;stroke-miterlimit:4;stroke-dasharray:none;stroke-dashoffset:0;stroke-opacity:1;color-rendering:auto;image-rendering:auto;shape-rendering:auto;text-rendering:auto;enable-background:accumulate;stop-color:#000000;stop-opacity:1"
         d="m 160.71801,67.177952 c -0.22621,-0.229808 -0.41129,-0.790818 -0.41129,-1.246691 0,-0.641882 -0.30528,-0.950678 -1.35329,-1.3689 -1.7494,-0.698116 -2.58382,-2.338983 -2.29144,-4.506057 0.35392,-2.62326 1.71561,-3.950922 4.05217,-3.950922 1.21522,0 2.86378,1.509823 3.21914,2.948226 0.38363,1.552834 -0.18266,3.395309 -1.40289,4.564454 -1.09378,1.047977 -1.12318,1.140865 -0.65268,2.062196 0.37106,0.726587 0.39682,1.082153 0.10436,1.440155 -0.47726,0.584214 -0.73415,0.595907 -1.26408,0.05754 z m -1.22905,-5.414417 c -0.05,-1.670654 0.82686,-1.789648 1.28293,-0.174097 0.37618,1.332522 0.67567,1.409029 1.40047,0.357767 1.13215,-1.642098 0.46743,-3.668483 -1.39171,-4.242555 -1.08671,-0.33556 -2.87312,1.477352 -2.87312,2.915747 0,1.31995 0.53709,2.448866 1.16506,2.448866 0.30477,0 0.44253,-0.432015 0.41637,-1.305728 z m -98.491392,3.395369 c -0.903125,-0.382052 -0.99627,-1.118194 -0.223887,-1.769413 0.461479,-0.389087 0.598485,-0.368477 0.873883,0.131463 0.403651,0.73276 1.43564,0.769074 2.006245,0.0706 0.315267,-0.385918 0.327225,-0.644027 0.0458,-0.988522 -0.613134,-0.750535 -1.538049,-5.817321 -1.136406,-6.225354 0.53221,-0.540678 1.090609,0.01118 1.090609,1.077832 0,0.528459 0.231827,1.753902 0.515171,2.723206 0.398495,1.363226 0.728398,1.844762 1.456649,2.12616 1.785963,0.690102 4.371743,1.427157 5.370675,1.530866 0.550985,0.0572 1.065097,0.299865 1.14247,0.539248 0.222062,0.687033 -2.905998,0.538378 -4.886187,-0.232207 l -1.713704,-0.666885 -0.685481,0.823896 c -0.772018,0.92791 -2.685431,1.354235 -3.855834,0.85911 z m 17.151773,-0.08753 c -0.17944,-0.239383 -0.591145,-1.022819 -0.914899,-1.74097 -0.475488,-1.054726 -0.77278,-1.305727 -1.546534,-1.305727 -0.820586,0 -1.016767,0.19964 -1.368641,1.392776 -0.367527,1.246214 -0.963735,1.731555 -1.481249,1.205806 -0.101222,-0.102832 0.03007,-0.818332 0.291774,-1.59 0.261698,-0.771669 0.386992,-1.549039 0.278431,-1.727489 -0.108561,-0.178449 0.04673,-0.677275 0.345081,-1.108501 0.298355,-0.431226 0.698819,-1.371625 0.889919,-2.089775 0.253846,-0.953951 0.531469,-1.305728 1.030482,-1.305728 0.375665,0 0.738305,0.195859 0.805866,0.435243 0.706322,2.502639 1.337887,3.710655 1.991189,3.808614 0.852474,0.127823 1.255527,0.979054 0.463576,0.979054 -0.66652,0 -0.688514,0.993889 -0.0412,1.861863 0.468058,0.627613 0.374065,1.620077 -0.153433,1.620077 -0.145258,0 -0.41092,-0.195859 -0.590362,-0.435243 z m -2.056546,-5.131945 c -0.09804,-0.38086 -0.314948,-0.606644 -0.482024,-0.501742 -0.48422,0.304026 -0.351349,1.194214 0.178249,1.194214 0.312374,0 0.419289,-0.243719 0.303775,-0.692472 z m 4.226411,1.955226 c -0.209969,-3.299378 0.05256,-5.441083 0.666957,-5.441083 0.116753,0 1.292556,1.175155 2.612895,2.611455 1.320339,1.436301 2.533126,2.611456 2.695083,2.611456 0.161957,0 0.339514,-1.214327 0.39457,-2.698504 0.07633,-2.057649 0.216252,-2.698504 0.589183,-2.698504 0.337846,0 0.516863,0.484511 0.578928,1.566873 0.04942,0.86178 0.164386,2.845588 0.255489,4.408462 0.0911,1.562874 0.08542,2.923091 -0.01264,3.022706 -0.406334,0.412801 -1.139487,-0.253412 -1.139487,-1.035449 0,-0.568514 -0.267398,-0.945132 -0.823559,-1.159949 -0.452957,-0.174954 -0.916126,-0.470258 -1.029264,-0.656232 -0.113138,-0.185975 -0.94003,-0.962728 -1.837537,-1.72612 l -1.631832,-1.387984 0.12826,2.580325 c 0.120276,2.419714 -0.199335,3.61451 -0.96689,3.61451 -0.137662,0 -0.353732,-1.625384 -0.480156,-3.611962 z m 40.417754,2.501648 c -1.42033,-0.510526 -2.07942,-0.611847 -2.17069,-0.333699 -0.32726,0.997392 -1.93228,-0.114044 -2.18486,-1.512953 -0.081,-0.448579 -0.48711,-0.76395 -1.14929,-0.892496 -1.46121,-0.283656 -1.88089,-0.04254 -1.88089,1.080613 0,1.06726 -0.33485,1.469775 -0.90839,1.091954 -0.5102,-0.336105 -0.91028,-3.787211 -0.47101,-4.063013 0.19315,-0.121269 0.35117,-0.916335 0.35117,-1.766813 0,-1.435663 0.0642,-1.546324 0.89683,-1.546324 0.7731,0 0.86351,0.108084 0.65534,0.783437 -0.60032,1.947617 -0.085,3.030775 1.44682,3.041366 0.68704,0.0047 0.77116,-0.166781 0.77116,-1.57247 0,-1.100883 0.15987,-1.640124 0.5289,-1.783985 0.29089,-0.113402 0.58068,-0.147656 0.64399,-0.07612 0.12031,0.135941 0.51809,3.531519 0.5325,4.545596 0.006,0.425212 0.77372,0.830142 2.80552,1.479824 1.53846,0.491935 3.22592,0.894428 3.74992,0.894428 1.09354,0 1.6489,0.629361 0.9514,1.078179 -0.76748,0.493851 -2.3922,0.334695 -4.56842,-0.447524 z m 26.92787,-0.297208 c -0.39734,-0.662164 -0.72302,-1.403671 -0.72372,-1.647794 -0.001,-0.406813 -1.32457,-1.123012 -2.07511,-1.123012 -0.17352,0 -0.49212,0.712634 -0.70801,1.583631 -0.28779,1.161116 -0.54058,1.552375 -0.94747,1.466482 -0.32646,-0.06891 -0.51727,-0.398379 -0.46342,-0.800191 0.29423,-2.195668 0.56577,-3.271352 1.14509,-4.536068 0.35665,-0.778614 0.64845,-1.582037 0.64845,-1.785385 0,-0.203348 0.21501,-0.551004 0.4778,-0.77257 0.3689,-0.311032 0.60325,-0.275401 1.02822,0.156333 0.30273,0.30755 0.55042,0.790801 0.55042,1.073892 0,1.000321 1.07285,2.603938 1.98718,2.970279 0.91631,0.367137 0.91823,0.374794 0.18089,0.72288 -0.62654,0.295785 -0.68875,0.477741 -0.39058,1.142557 0.3046,0.67917 0.55484,0.769379 1.77345,0.639325 3.38797,-0.361578 4.3321,-0.525744 4.3321,-0.753268 0,-0.133215 -1.03592,-0.810442 -2.30206,-1.504948 -2.77282,-1.520967 -3.33128,-2.215294 -2.74041,-3.407169 0.75481,-1.522553 5.44311,-2.432367 6.41344,-1.244594 0.23467,0.28726 0.36923,0.532686 0.29902,0.545391 -0.0702,0.01271 -1.0973,0.072 -2.28244,0.131765 -1.48018,0.07464 -2.36876,0.305397 -2.83828,0.737062 -0.86144,0.792 -0.59728,1.087178 2.42251,2.706894 1.9997,1.072573 3.28171,2.411276 2.9039,3.032308 -0.18991,0.312177 -6.12647,1.156917 -6.71539,0.955563 -0.26002,-0.0889 -0.64835,0.08051 -0.86295,0.376464 -0.33372,0.460229 -0.49474,0.363873 -1.11263,-0.665827 z m -1.75323,-4.31713 c 0,-0.275958 -0.15423,-0.59858 -0.34274,-0.716938 -0.18851,-0.118357 -0.34274,0.107427 -0.34274,0.501742 0,0.394316 0.15423,0.716937 0.34274,0.716937 0.18851,0 0.34274,-0.225783 0.34274,-0.501741 z m 32.64701,4.941215 c -0.18702,-0.239383 -0.52633,-1.02282 -0.75403,-1.74097 -0.37033,-1.168058 -0.53602,-1.305727 -1.57147,-1.305727 -1.05639,0 -1.17758,0.10886 -1.38766,1.246478 -0.24317,1.316867 -0.96715,1.886297 -1.59164,1.25187 -0.26981,-0.274099 -0.25851,-0.520704 0.0406,-0.886867 0.22789,-0.278959 0.44847,-1.04922 0.49019,-1.711692 0.0417,-0.662472 0.26424,-1.435103 0.49449,-1.716958 0.23026,-0.281855 0.51527,-1.00325 0.63336,-1.6031 0.45957,-2.334429 1.82179,-2.34035 2.50016,-0.01087 0.48478,1.664751 1.2553,2.734748 1.96932,2.734748 0.25355,0 0.46099,0.156687 0.46099,0.348194 0,0.191506 -0.23135,0.348194 -0.51411,0.348194 -0.66676,0 -0.65427,0.686341 0.0306,1.679644 0.82948,1.203089 0.076,2.489342 -0.80078,1.367053 z m -1.80558,-4.700619 c -0.007,-0.333352 -0.66796,-1.384589 -0.67499,-1.07306 -0.003,0.127967 -0.0989,0.480513 -0.21329,0.783437 -0.13651,0.361419 -0.0187,0.550768 0.34274,0.550768 0.30294,0 0.54842,-0.117515 0.54554,-0.261145 z m -50.19918,4.313706 c -0.50764,-0.377097 -0.54064,-0.579527 -0.19991,-1.226312 0.47301,-0.897904 0.61365,-1.877993 0.66784,-4.654267 0.0351,-1.800388 0.11288,-2.002116 0.77152,-2.002116 0.71347,0 0.72625,0.08569 0.49343,3.307843 l -0.23901,3.307844 h 2.445 c 2.07933,0 2.42842,0.0851 2.33418,0.56905 -0.0876,0.450037 -0.63792,0.596028 -2.63103,0.698031 -1.38612,0.07094 -2.63582,0.201563 -2.77712,0.290279 -0.1413,0.08872 -0.53051,-0.04194 -0.8649,-0.290352 z m 10.9606,-0.02318 c -0.6801,-0.531797 -0.67946,-0.537716 0.0824,-0.755553 0.6342,-0.181333 0.72708,-0.37934 0.53352,-1.137353 -0.1289,-0.504788 -0.22161,-1.152827 -0.20602,-1.440087 0.0156,-0.287261 0.0983,-1.540759 0.1837,-2.785553 l 0.15534,-2.263261 1.45292,-0.108459 c 2.89377,-0.216016 4.09862,1.813443 2.09396,3.527092 l -1.01667,0.869082 0.86599,0.576448 c 1.72814,1.150339 0.42321,3.368676 -2.26006,3.842022 -0.82052,0.144744 -1.41621,0.04224 -1.88508,-0.324378 z m 3.22364,-1.468879 0.8056,-0.573243 -0.81073,-0.440789 c -1.00128,-0.544397 -1.33343,-0.360728 -1.33343,0.73734 0,1.000283 0.24926,1.051808 1.33856,0.276692 z m 0.15755,-3.978551 c 1.14015,-0.911112 1.13772,-1.294108 -0.011,-1.73781 -1.06809,-0.412548 -1.47159,-0.003 -1.47984,1.501937 -0.006,1.146355 0.29238,1.193606 1.49087,0.235873 z m 25.67224,5.099156 c -1.63418,-1.396952 -3.30161,-7.511242 -2.0484,-7.511242 0.26527,0 0.66496,0.962453 0.99751,2.401978 0.6397,2.769145 1.44977,4.213709 2.36291,4.213709 0.85774,0 1.13702,-1.277961 0.88306,-4.040831 -0.16585,-1.804306 -0.11084,-2.226662 0.29001,-2.226662 0.27208,0 0.58403,0.43089 0.69323,0.957534 0.1092,0.526643 0.25585,1.24695 0.32589,1.600681 0.16384,0.827492 -0.4131,4.451829 -0.76029,4.776099 -0.77055,0.719682 -1.77501,0.656986 -2.74392,-0.171266 z m -72.966181,-0.01052 c -0.105482,-0.279258 -0.06208,-2.041989 0.09644,-3.917183 0.259366,-3.068021 0.356228,-3.409442 0.96728,-3.409442 0.491583,0 0.965504,0.593611 1.716645,2.150183 0.570674,1.182601 1.141011,2.25525 1.267418,2.383665 0.126403,0.128414 0.553903,-0.872033 0.949998,-2.223216 1.158807,-3.952966 1.71124,-3.789613 2.92795,0.865793 0.44432,1.700087 0.91789,3.459418 1.05236,3.909626 0.20183,0.675702 0.13304,0.796748 -0.39417,0.693603 -0.46959,-0.09188 -0.83154,-0.815568 -1.36721,-2.733625 -0.4007,-1.434769 -0.865384,-2.578823 -1.032628,-2.542341 -0.167244,0.03648 -0.488567,0.801022 -0.714049,1.698978 -0.750808,2.989999 -1.567628,2.968888 -3.053375,-0.07892 l -0.991824,-2.034589 -0.09177,1.392776 c -0.254197,3.858057 -0.768137,5.340305 -1.333073,3.844686 z m 10.028371,0.236724 c -0.11305,-0.185818 -0.29178,-1.493523 -0.3972,-2.906017 -0.10542,-1.412495 -0.26436,-3.155749 -0.35319,-3.873899 -0.12092,-0.977486 -0.0381,-1.305728 0.32941,-1.305728 0.53983,0 0.69282,0.584455 1.22567,4.68215 0.29499,2.268498 0.27343,2.854855 -0.11967,3.254209 -0.28604,0.290585 -0.56242,0.350816 -0.68502,0.149281 z m 4.06593,-0.135323 c -1.75192,-0.984371 -2.22781,-1.752927 -2.22781,-3.597896 0,-1.415727 0.16249,-1.944621 0.77116,-2.51003 1.01268,-0.940697 2.79387,-1.842395 3.63941,-1.842395 2.21608,0 2.36245,1.233083 0.17609,1.483438 -3.88671,0.445059 -4.6874,4.793652 -0.98788,5.365252 2.47602,0.382561 2.91508,1.516926 0.57956,1.497378 -0.69577,-0.0058 -1.57351,-0.183909 -1.95053,-0.395747 z m 63.44034,-3.075792 c -0.13101,-1.93248 -0.33028,-3.757357 -0.44281,-4.055282 -0.14746,-0.390398 -0.0269,-0.506921 0.43157,-0.417217 0.76075,0.148839 1.08059,1.481913 1.23774,5.158903 0.0926,2.166468 0.0193,2.620164 -0.43856,2.71424 -0.46353,0.09525 -0.58708,-0.438025 -0.78794,-3.400644 z m 10.26824,2.372205 c -0.10513,-0.634336 -0.2296,-2.015119 -0.27659,-3.068406 l -0.0855,-1.915067 h -1.19391 c -0.84075,0 -1.2267,-0.171419 -1.30476,-0.579506 -0.0905,-0.473061 0.28621,-0.621562 2.05076,-0.808462 3.31631,-0.351259 6.61724,-0.107353 6.61724,0.488948 0,0.389224 -0.53654,0.476077 -2.53438,0.410249 l -2.53437,-0.08351 0.23596,2.5494 c 0.12977,1.40217 0.26772,2.856771 0.30655,3.232449 0.0414,0.400882 -0.16909,0.733484 -0.50965,0.805143 -0.42623,0.08969 -0.63099,-0.184052 -0.7714,-1.031242 z M 71.177742,61.658844 c -0.273761,-0.175939 -1.519937,-0.322287 -2.76928,-0.32522 -1.476577,-0.0035 -2.405127,-0.168863 -2.653268,-0.472611 -0.599495,-0.73384 -0.104758,-0.925497 2.389057,-0.925497 2.604548,0 4.078078,0.429806 4.078078,1.189512 0,0.693619 -0.443375,0.920197 -1.044587,0.533816 z m 52.952678,0.03537 c -0.17908,-0.181754 -1.40364,-0.377614 -2.72124,-0.435243 -2.03852,-0.08916 -2.41423,-0.203705 -2.52029,-0.768377 -0.11735,-0.624782 0.0514,-0.650975 2.88514,-0.447814 2.98381,0.213921 4.27447,0.762536 3.76482,1.600289 -0.2855,0.46931 -0.97185,0.494234 -1.40843,0.05114 z M 89.554822,61.019685 c -0.103258,-0.169734 0.157548,-0.402626 0.579569,-0.517537 1.21907,-0.331936 1.624164,-0.25615 1.624164,0.303854 0,0.574255 -1.873841,0.755951 -2.203733,0.213683 z M 65.499431,58.389753 c -0.119131,-0.315389 -0.143229,-0.647975 -0.05355,-0.739079 0.366604,-0.372436 6.881071,-0.317822 7.01082,0.05878 0.08693,0.252307 -0.847857,0.451004 -2.707037,0.575405 -1.561898,0.104508 -3.108424,0.299887 -3.436723,0.434174 -0.396989,0.162384 -0.669452,0.0521 -0.813508,-0.329276 z m 53.164839,0.153918 c -0.46501,-0.764386 0.37876,-1.055175 3.70605,-1.277214 2.40091,-0.160219 3.31958,-0.110631 3.31958,0.179185 0,0.220391 0.0386,0.499836 0.0857,0.62099 0.0471,0.121154 -0.91683,0.253037 -2.14213,0.293073 -1.2253,0.04004 -2.78853,0.190012 -3.47384,0.333281 -0.83606,0.174783 -1.32805,0.125656 -1.49534,-0.149315 z m -3.24667,-5.88189 c -0.506,-0.349923 -0.26001,-0.908824 0.4,-0.908824 0.19405,0 0.64462,-0.940124 1.00128,-2.089165 0.80747,-2.601368 2.32942,-9.889717 2.24802,-10.7653 -0.0333,-0.357583 0.11003,-0.711688 0.31839,-0.7869 0.21712,-0.07837 0.93425,1.466319 1.67995,3.618562 1.97281,5.694 1.69676,5.585117 3.66355,1.445046 0.94299,-1.984969 1.79666,-4.196612 1.89705,-4.914762 0.24575,-1.757944 1.00094,-1.668733 1.47377,0.174097 0.91006,3.546903 1.74607,6.166279 2.02371,6.340596 0.32063,0.201318 3.03984,-4.299723 3.98147,-6.590449 0.54256,-1.319901 0.59001,-1.350944 1.06423,-0.696388 0.39324,0.542776 0.47481,1.770086 0.39267,5.908006 -0.057,2.8726 0.0264,5.946335 0.18545,6.83052 l 0.28914,1.60761 -4.91614,0.277241 c -2.70387,0.152482 -5.99577,0.307103 -7.31532,0.343601 -1.31955,0.0365 -3.63305,0.176345 -5.14111,0.31077 -1.68101,0.149841 -2.93701,0.1095 -3.24611,-0.104261 z m 8.55859,-1.273619 c 1.41381,-0.04564 4.36087,-0.132549 6.54902,-0.193128 l 3.97847,-0.110144 -0.014,-5.498217 c -0.008,-3.024019 -0.11394,-5.498217 -0.23608,-5.498217 -0.12214,0 -0.43947,0.43089 -0.70517,0.957534 -0.2657,0.526643 -0.95962,1.74097 -1.54204,2.698504 -0.58242,0.957533 -1.15741,2.015173 -1.27777,2.350309 -0.42735,1.190004 -1.10572,0.574019 -1.72885,-1.569849 -1.34864,-4.639968 -1.73761,-5.342918 -2.24546,-4.057955 -0.65989,1.669674 -3.4081,7.689618 -3.59895,7.883513 -0.17821,0.181045 -1.1657,-1.856785 -2.78205,-5.741199 -0.33949,-0.815856 -0.67318,-1.426547 -0.74155,-1.357092 -0.0684,0.06946 -0.41699,1.677098 -0.77471,3.572539 -0.35772,1.895441 -0.79488,3.837974 -0.97147,4.316741 -0.17659,0.478767 -0.42894,1.322553 -0.56079,1.875081 l -0.23971,1.004595 2.16029,-0.275016 c 1.18816,-0.151258 3.31704,-0.312358 4.73084,-0.357999 z"
         id="path28" />
      <path
         style="color:#000000;font-style:normal;font-variant:normal;font-weight:normal;font-stretch:normal;font-size:medium;line-height:normal;font-family:sans-serif;font-variant-ligatures:normal;font-variant-position:normal;font-variant-caps:normal;font-variant-numeric:normal;font-variant-alternates:normal;font-variant-east-asian:normal;font-feature-settings:normal;font-variation-settings:normal;text-indent:0;text-align:start;text-decoration:none;text-decoration-line:none;text-decoration-style:solid;text-decoration-color:#000000;letter-spacing:normal;word-spacing:normal;text-transform:none;writing-mode:lr-tb;direction:ltr;text-orientation:mixed;dominant-baseline:auto;baseline-shift:baseline;text-anchor:start;white-space:normal;shape-padding:0;shape-margin:0;inline-size:0;clip-rule:nonzero;display:inline;overflow:visible;visibility:visible;isolation:auto;mix-blend-mode:normal;color-interpolation:sRGB;color-interpolation-filters:linearRGB;solid-color:#000000;solid-opacity:1;vector-effect:none;fill-opacity:1;fill-rule:nonzero;stroke:none;stroke-width:0.345457;stroke-linecap:butt;stroke-linejoin:miter;stroke-miterlimit:4;stroke-dasharray:none;stroke-dashoffset:0;stroke-opacity:1;color-rendering:auto;image-rendering:auto;shape-rendering:auto;text-rendering:auto;enable-background:accumulate;stop-color:#000000;stop-opacity:1"
         d="m 127.29688,36.826172 c -0.11487,-0.01357 -0.23141,0.02248 -0.32422,0.0918 -0.0928,0.06931 -0.16794,0.166961 -0.23243,0.287109 -0.12897,0.240296 -0.22201,0.579553 -0.28515,1.03125 -0.0443,0.31667 -0.281,1.057198 -0.62305,1.94336 -0.34205,0.886161 -0.79027,1.933601 -1.25976,2.921874 -0.4925,1.036698 -0.84497,1.820247 -1.11915,2.310547 -0.13708,0.24515 -0.25622,0.417242 -0.3457,0.501953 -0.0447,0.04236 -0.0797,0.06009 -0.0996,0.06641 -0.02,0.0063 -0.0256,0.0076 -0.0449,0 -0.0386,-0.01523 -0.13365,-0.100395 -0.24023,-0.285157 -0.10659,-0.184761 -0.2295,-0.459295 -0.36914,-0.818359 -0.27929,-0.718127 -0.63145,-1.778608 -1.125,-3.203125 -0.37428,-1.080227 -0.74137,-2.008266 -1.04493,-2.662109 -0.15177,-0.326922 -0.28643,-0.585276 -0.40429,-0.765625 -0.0589,-0.09018 -0.11172,-0.160814 -0.17188,-0.216797 -0.0301,-0.02799 -0.063,-0.05297 -0.10742,-0.07227 -0.0445,-0.0193 -0.11051,-0.03067 -0.17383,-0.0078 -0.17371,0.0627 -0.28227,0.213527 -0.35156,0.384765 -0.0693,0.171238 -0.0993,0.373264 -0.0801,0.580078 0.007,0.07375 -0.004,0.286396 -0.0391,0.570313 -0.0349,0.283917 -0.0905,0.648437 -0.16211,1.070313 -0.14329,0.843751 -0.35065,1.918149 -0.58594,3.044921 -0.47058,2.253545 -1.05382,4.727263 -1.45312,6.013672 -0.17618,0.567591 -0.37644,1.08333 -0.55274,1.451172 -0.0882,0.183921 -0.17081,0.331282 -0.23633,0.423828 -0.0327,0.04627 -0.0623,0.07783 -0.0781,0.0918 -0.0158,0.01397 -0.0142,0 0.0312,0 -0.37876,0 -0.68118,0.162909 -0.79688,0.425781 -0.11569,0.262873 -3.2e-4,0.591949 0.29883,0.798829 0.1202,0.08312 0.27163,0.120848 0.47071,0.154296 0.19907,0.03345 0.44388,0.05525 0.73046,0.06445 0.57318,0.01841 1.31255,-0.01056 2.15821,-0.08594 1.50305,-0.133979 3.81792,-0.272277 5.13086,-0.308594 1.32509,-0.03665 4.61317,-0.193147 7.31836,-0.345703 l 5.11132,-0.287109 -0.32226,-1.800782 c -0.0743,-0.412944 -0.13836,-1.407682 -0.17188,-2.642578 -0.0335,-1.234896 -0.0402,-2.718936 -0.0117,-4.152343 0.0411,-2.070433 0.0425,-3.414993 -0.0176,-4.31836 -0.06,-0.903366 -0.17863,-1.378429 -0.40821,-1.695312 -0.11973,-0.165273 -0.21051,-0.291687 -0.3164,-0.382813 -0.0529,-0.04556 -0.11298,-0.08426 -0.19141,-0.09961 -0.0784,-0.01534 -0.1684,0.005 -0.23242,0.04687 -0.12804,0.08378 -0.19662,0.211477 -0.28906,0.398437 -0.0924,0.186961 -0.1981,0.438958 -0.33399,0.769532 -0.46371,1.128081 -1.37878,2.8244 -2.21289,4.205078 -0.41705,0.690339 -0.81364,1.304363 -1.12304,1.726562 -0.15471,0.2111 -0.2892,0.373873 -0.38477,0.470703 -0.0229,0.02322 -0.0314,0.0282 -0.0488,0.04297 -0.0154,-0.02018 -0.009,-0.01181 -0.0293,-0.04883 -0.0462,-0.08601 -0.10356,-0.21185 -0.16796,-0.371094 -0.12881,-0.318487 -0.2869,-0.770593 -0.46485,-1.328125 -0.35589,-1.115063 -0.79168,-2.652795 -1.24609,-4.423828 -0.12088,-0.471104 -0.26018,-0.835925 -0.41406,-1.097656 -0.15389,-0.261732 -0.32692,-0.441612 -0.55664,-0.46875 z m -0.0391,0.341797 c 0.0489,0.0058 0.1685,0.08438 0.29688,0.302734 0.12838,0.218356 0.26141,0.555548 0.37695,1.005859 0.45565,1.77587 0.89291,3.320383 1.25195,4.445313 0.17952,0.562465 0.34014,1.021002 0.47461,1.353516 0.0672,0.166256 0.12743,0.299835 0.1836,0.404297 0.0562,0.104461 0.0888,0.178983 0.18945,0.242187 0.0523,0.03287 0.11572,0.03747 0.16016,0.0293 0.0444,-0.0082 0.0772,-0.02499 0.10742,-0.04297 0.0604,-0.03596 0.11278,-0.08271 0.17187,-0.142578 0.11819,-0.119735 0.256,-0.293363 0.41602,-0.511719 0.32004,-0.436711 0.72204,-1.053902 1.14258,-1.75 0.84106,-1.392194 1.75645,-3.091261 2.23437,-4.253906 0.1354,-0.329377 0.24035,-0.576466 0.32422,-0.746094 0.0797,-0.161124 0.14584,-0.235675 0.16211,-0.25 0.006,0.0033 0.002,2.44e-4 0.0156,0.01172 0.0533,0.0459 0.14631,0.162213 0.26368,0.324219 0.16366,0.225893 0.28327,0.635162 0.34179,1.515625 0.0585,0.880462 0.0586,2.219622 0.0176,4.287109 -0.0286,1.439192 -0.022,2.928754 0.0117,4.169922 0.0337,1.241168 0.091,2.224072 0.17578,2.695312 l 0.25586,1.416016 -4.7207,0.265625 c -2.70256,0.152408 -5.99654,0.307405 -7.31055,0.34375 -1.32616,0.03668 -3.63927,0.175676 -5.15234,0.310547 -0.83535,0.07446 -1.56484,0.101725 -2.11719,0.08398 -0.27618,-0.0089 -0.5077,-0.02904 -0.68359,-0.05859 -0.1759,-0.02955 -0.29768,-0.07585 -0.33204,-0.09961 -0.20684,-0.143043 -0.22353,-0.268988 -0.17773,-0.373047 0.0458,-0.104058 0.19922,-0.220703 0.48047,-0.220703 0.094,0 0.14987,-0.044 0.19726,-0.08594 0.0474,-0.04193 0.0885,-0.09253 0.13086,-0.152344 0.0847,-0.119635 0.1723,-0.277916 0.26563,-0.472656 0.18667,-0.38948 0.39178,-0.91855 0.57227,-1.5 0.40816,-1.314959 0.98903,-3.785054 1.46093,-6.044922 0.23596,-1.129934 0.44348,-2.206276 0.58789,-3.056641 0.0722,-0.425182 0.12814,-0.793519 0.16407,-1.085937 0.0359,-0.292418 0.0545,-0.499389 0.041,-0.644532 -0.014,-0.150768 0.0105,-0.303955 0.0566,-0.417968 0.0339,-0.08386 0.0739,-0.111649 0.10938,-0.140625 0.0246,0.02815 0.0492,0.05515 0.0859,0.111328 0.10097,0.154496 0.233,0.402218 0.38086,0.720703 0.29572,0.636969 0.65983,1.558844 1.03125,2.630859 0.49285,1.422484 0.84559,2.481327 1.13086,3.214844 0.14264,0.366759 0.26776,0.652251 0.39063,0.865235 0.12286,0.212983 0.23899,0.365308 0.41211,0.433593 0.0866,0.03414 0.18733,0.03766 0.27539,0.0098 0.0881,-0.02789 0.16262,-0.0804 0.23242,-0.146485 0.1396,-0.132172 0.26572,-0.325697 0.41016,-0.583984 0.28887,-0.516573 0.63996,-1.29674 1.13086,-2.330078 0.47349,-0.996696 0.9239,-2.049872 1.26953,-2.945312 0.34563,-0.895441 0.58645,-1.618051 0.64258,-2.019532 0.0597,-0.427274 0.15153,-0.736205 0.24804,-0.916015 0.0483,-0.08991 0.0985,-0.14671 0.13477,-0.173829 0.0363,-0.02712 0.0537,-0.03023 0.0781,-0.02734 z m -0.18164,2.574219 c -0.12491,0.04097 -0.20669,0.13497 -0.27929,0.246093 -0.0726,0.111123 -0.13727,0.249387 -0.20313,0.416016 -0.3259,0.824602 -1.17984,2.749672 -1.97266,4.486328 -0.3964,0.868328 -0.77816,1.690374 -1.07226,2.306641 -0.14705,0.308133 -0.27171,0.565877 -0.36524,0.75 -0.0324,0.06389 -0.0559,0.105289 -0.0801,0.15039 -0.0277,-0.03633 -0.0467,-0.05426 -0.084,-0.113281 -0.13587,-0.215164 -0.32634,-0.571367 -0.56055,-1.054687 -0.46841,-0.966641 -1.11828,-2.44614 -1.92578,-4.386719 -0.17158,-0.412348 -0.34147,-0.772962 -0.48047,-1.027344 -0.0695,-0.127191 -0.13075,-0.226809 -0.1875,-0.300781 -0.0284,-0.03699 -0.0523,-0.06673 -0.0957,-0.09766 -0.0217,-0.01546 -0.0484,-0.0343 -0.0977,-0.04102 -0.0492,-0.0067 -0.12528,0.01529 -0.16407,0.05469 -0.0498,0.05061 -0.0435,0.06468 -0.0527,0.08789 -0.009,0.02321 -0.0181,0.04836 -0.0273,0.07813 -0.0184,0.05953 -0.0381,0.137662 -0.0625,0.234375 -0.0487,0.193425 -0.11119,0.460289 -0.18164,0.785156 -0.14089,0.649735 -0.31698,1.52754 -0.49609,2.476563 -0.17848,0.945687 -0.37718,1.903536 -0.55273,2.683593 -0.17555,0.780058 -0.33405,1.393828 -0.41211,1.605469 -0.18091,0.490462 -0.43223,1.332222 -0.56641,1.894531 l -0.29687,1.248047 2.4082,-0.30664 c 1.1763,-0.149749 3.30265,-0.311794 4.70898,-0.357422 0.002,-5.7e-5 0.004,5.6e-5 0.006,0 1.41314,-0.04562 4.35901,-0.132788 6.54688,-0.193359 l 4.14843,-0.115235 -0.0156,-5.666015 c -0.004,-1.513902 -0.0313,-2.890561 -0.0742,-3.890626 -0.0214,-0.500032 -0.0464,-0.904375 -0.0742,-1.189453 -0.0139,-0.142538 -0.0282,-0.253486 -0.0449,-0.33789 -0.008,-0.0422 -0.0165,-0.07807 -0.0312,-0.115235 -0.007,-0.01858 -0.016,-0.03777 -0.0371,-0.06445 -0.0106,-0.01334 -0.025,-0.02985 -0.0488,-0.04492 -0.0119,-0.0075 -0.0263,-0.01424 -0.043,-0.01953 -0.0167,-0.0053 -0.0537,-0.0078 -0.0547,-0.0078 -0.1321,0 -0.18129,0.06321 -0.24414,0.123046 -0.0629,0.05984 -0.12556,0.136451 -0.19336,0.228516 -0.13561,0.18413 -0.28511,0.430074 -0.42188,0.701172 -0.25932,0.513996 -0.95477,1.731365 -1.53515,2.685547 -0.29277,0.481328 -0.58328,0.987188 -0.81641,1.416015 -0.23314,0.428828 -0.40635,0.771281 -0.47656,0.966797 -0.10033,0.279359 -0.21859,0.427719 -0.28711,0.466797 -0.0343,0.01954 -0.0516,0.02076 -0.084,0.01367 -0.0324,-0.0071 -0.0807,-0.03154 -0.14062,-0.08594 -0.23964,-0.217603 -0.58056,-0.895019 -0.88867,-1.955079 -0.67491,-2.322012 -1.10197,-3.650546 -1.45313,-4.285156 -0.0878,-0.158652 -0.17023,-0.277744 -0.26953,-0.361328 -0.0993,-0.08358 -0.24227,-0.128863 -0.36719,-0.08789 z m 0.10742,0.328124 c 0.004,-0.0013 -0.006,-0.01104 0.0371,0.02539 0.0433,0.03643 0.11259,0.122815 0.18946,0.261719 0.30744,0.555616 0.75009,1.896888 1.42382,4.214844 0.31502,1.083808 0.62612,1.786378 0.98829,2.115234 0.0905,0.08221 0.18808,0.143717 0.29882,0.167969 0.11075,0.02425 0.23091,0.0038 0.33008,-0.05273 0.19834,-0.113117 0.3261,-0.334747 0.43945,-0.65039 0.0501,-0.139619 0.22503,-0.492856 0.45508,-0.916016 0.23006,-0.423159 0.51895,-0.926139 0.8086,-1.402344 0.58446,-0.960886 1.27674,-2.171648 1.54882,-2.710937 0.12893,-0.255546 0.27061,-0.487415 0.39063,-0.650391 0.0225,-0.03059 0.038,-0.04315 0.0586,-0.06836 0.006,0.0472 0.0117,0.07435 0.0176,0.134765 0.0267,0.273336 0.051,0.675356 0.0723,1.171876 0.0426,0.993039 0.0702,2.366836 0.0742,3.876953 l 0.0137,5.328125 -3.81055,0.105468 c -2.18647,0.06053 -5.12702,0.147665 -6.54297,0.19336 -0.001,4.1e-5 -0.005,-4.1e-5 -0.006,0 -1.42131,0.04588 -3.54948,0.206793 -4.74804,0.359375 l -1.91211,0.24414 0.18164,-0.761718 c 0.12951,-0.542747 0.38241,-1.388397 0.55469,-1.855469 0.0985,-0.267126 0.24917,-0.863676 0.42578,-1.648438 0.1766,-0.784761 0.37544,-1.745558 0.55468,-2.695312 0.17862,-0.946418 0.35421,-1.821487 0.49414,-2.466797 0.07,-0.322655 0.13069,-0.588615 0.17774,-0.775391 10e-4,-0.0051 0.003,-0.0067 0.004,-0.01172 0.0178,0.03041 0.0272,0.04215 0.0469,0.07813 0.12981,0.237564 0.29498,0.590632 0.46289,0.99414 0.80885,1.943835 1.46157,3.42618 1.93555,4.404297 0.23698,0.489058 0.42821,0.850493 0.57812,1.087891 0.075,0.118699 0.13621,0.206315 0.20313,0.271484 0.0335,0.03258 0.0674,0.06175 0.12695,0.08203 0.0596,0.02028 0.16912,0.0056 0.22266,-0.04883 0.0539,-0.05481 0.0591,-0.08206 0.0918,-0.140625 0.0327,-0.05857 0.0732,-0.134151 0.1211,-0.228515 0.0959,-0.188729 0.22139,-0.448221 0.36914,-0.757813 0.29549,-0.619183 0.67723,-1.442896 1.07422,-2.3125 0.79397,-1.739208 1.64452,-3.656881 1.97851,-4.501953 0.0611,-0.154612 0.12074,-0.277209 0.17188,-0.355469 0.0511,-0.07826 0.0936,-0.104144 0.0977,-0.105469 z m 27.37891,15.515626 c -0.61076,-0.06021 -1.32389,-0.0064 -2.03125,0.130859 -0.70736,0.137271 -1.40718,0.358424 -1.98633,0.648437 -0.57914,0.290014 -1.04445,0.643774 -1.26172,1.082032 -0.15549,0.313649 -0.24306,0.609974 -0.22851,0.90625 0.0145,0.296275 0.13468,0.582448 0.35742,0.859375 0.44547,0.553853 1.29175,1.105678 2.68359,1.86914 0.62973,0.345421 1.20143,0.687783 1.61328,0.957031 0.20593,0.134625 0.37296,0.250732 0.48243,0.337891 0.0249,0.01985 0.0341,0.03057 0.0527,0.04687 -0.0119,0.0053 -0.0103,0.008 -0.0254,0.01367 -0.12087,0.04532 -0.33905,0.09778 -0.66406,0.154297 -0.65003,0.113028 -1.73286,0.245105 -3.42578,0.425781 -0.60388,0.06445 -0.95333,0.06589 -1.15235,-0.0059 -0.19901,-0.07174 -0.29907,-0.207128 -0.44531,-0.533203 -0.14484,-0.322947 -0.17467,-0.493871 -0.14453,-0.582032 0.0301,-0.08816 0.15022,-0.189034 0.45312,-0.332031 0.18459,-0.08714 0.32267,-0.153485 0.42774,-0.21875 0.0525,-0.03263 0.0978,-0.0639 0.13867,-0.113281 0.0409,-0.04938 0.0772,-0.138555 0.0566,-0.220703 -0.0206,-0.08215 -0.0716,-0.129531 -0.11914,-0.166016 -0.0475,-0.03648 -0.0999,-0.06611 -0.16406,-0.09766 -0.1283,-0.06309 -0.302,-0.132756 -0.53125,-0.224609 -0.39805,-0.159484 -0.88826,-0.629252 -1.25782,-1.181641 -0.36955,-0.552389 -0.62109,-1.188544 -0.62109,-1.626953 0,-0.191922 -0.0722,-0.397655 -0.17969,-0.607422 -0.10751,-0.209767 -0.25335,-0.418667 -0.41992,-0.587891 -0.22195,-0.225486 -0.41028,-0.372416 -0.63281,-0.40625 -0.22253,-0.03383 -0.43014,0.06905 -0.63086,0.238281 -0.14768,0.124517 -0.27661,0.279613 -0.37305,0.435547 -0.0964,0.155934 -0.16601,0.306198 -0.16601,0.46875 0,0.0095 -0.0118,0.09893 -0.043,0.208985 -0.0312,0.110057 -0.0789,0.251084 -0.13672,0.410156 -0.11555,0.318145 -0.27674,0.710631 -0.45312,1.095703 -0.58626,1.279851 -0.86311,2.381811 -1.15821,4.583985 -0.0626,0.467374 0.1776,0.903108 0.59961,0.992187 0.13119,0.02769 0.26883,0.01798 0.39063,-0.04297 0.1218,-0.06095 0.22065,-0.163782 0.30664,-0.296875 0.17198,-0.266186 0.30748,-0.666283 0.45312,-1.253906 0.10582,-0.426917 0.23697,-0.816051 0.35938,-1.089844 0.0612,-0.136896 0.12163,-0.243952 0.16797,-0.308593 0.0171,-0.02383 0.0269,-0.03464 0.0371,-0.04492 0.32126,0.0067 0.81316,0.163645 1.21094,0.378906 0.20306,0.109884 0.38334,0.233468 0.50391,0.34375 0.12057,0.110282 0.16209,0.210583 0.16211,0.21875 5.7e-4,0.19837 0.0939,0.429785 0.22851,0.736328 0.13464,0.306543 0.31889,0.66238 0.52149,1 0.31113,0.518488 0.4861,0.81078 0.7207,0.951172 0.1173,0.0702 0.2796,0.07521 0.39453,0.01172 0.11493,-0.06349 0.19617,-0.160483 0.28516,-0.283203 0.0874,-0.120573 0.21602,-0.22162 0.34375,-0.277344 0.12773,-0.05572 0.24894,-0.06218 0.32226,-0.03711 0.13314,0.04552 0.2844,0.04167 0.50977,0.03711 0.22537,-0.0046 0.50849,-0.02074 0.83203,-0.04883 0.64708,-0.05617 1.45283,-0.154701 2.2461,-0.267578 0.79326,-0.112878 1.5741,-0.240306 2.17187,-0.361329 0.29888,-0.06051 0.55045,-0.118891 0.74023,-0.173828 0.0949,-0.02747 0.17495,-0.05391 0.24024,-0.08203 0.0653,-0.02813 0.12039,-0.03535 0.17969,-0.132812 0.13131,-0.215855 0.10909,-0.48478 -0.002,-0.744141 -0.11105,-0.259361 -0.31117,-0.52966 -0.58203,-0.8125 -0.54172,-0.565681 -1.37404,-1.175583 -2.38672,-1.71875 -1.50789,-0.808784 -2.32791,-1.301538 -2.61914,-1.626953 -0.14561,-0.162708 -0.16057,-0.24185 -0.1289,-0.347656 0.0317,-0.105807 0.15314,-0.26172 0.36132,-0.453126 0.41217,-0.378934 1.2647,-0.617492 2.73047,-0.691406 0.59294,-0.0299 1.14626,-0.06007 1.56055,-0.08398 0.20715,-0.01196 0.37835,-0.02096 0.50391,-0.0293 0.0628,-0.0042 0.11391,-0.0087 0.15234,-0.01172 0.0384,-0.0031 0.0544,-0.0037 0.0879,-0.0098 0.0615,-0.01112 0.1334,-0.0789 0.15039,-0.134766 0.017,-0.05586 0.009,-0.09063 0.002,-0.121094 -0.0133,-0.06093 -0.0371,-0.109013 -0.0684,-0.166015 -0.0625,-0.114005 -0.1589,-0.252576 -0.28124,-0.402344 -0.29254,-0.358087 -0.81112,-0.523773 -1.42188,-0.583984 z m -14.85938,0.06445 -1.60156,0.11914 -0.16601,2.414063 c -0.0854,1.245097 -0.16768,2.49401 -0.1836,2.787109 -0.0184,0.338297 0.0782,0.9723 0.21094,1.492188 0.0943,0.369096 0.10002,0.571327 0.0547,0.667968 -0.0453,0.09664 -0.16549,0.173055 -0.46875,0.259766 -0.19066,0.05451 -0.33441,0.09642 -0.44727,0.142578 -0.0564,0.02308 -0.10508,0.04598 -0.15234,0.08398 -0.0473,0.03801 -0.0969,0.103016 -0.10547,0.18164 -0.009,0.07862 0.0204,0.14412 0.0527,0.19336 0.0323,0.04924 0.072,0.09042 0.11914,0.134765 0.0942,0.08869 0.22243,0.189213 0.39258,0.322266 0.51249,0.400723 1.17314,0.507074 2.02149,0.357422 1.38238,-0.243861 2.42229,-0.931983 2.90234,-1.748047 0.24003,-0.408033 0.33883,-0.853915 0.25,-1.279297 -0.0888,-0.425382 -0.36447,-0.819623 -0.82617,-1.126953 l -0.67774,-0.449219 0.84376,-0.722656 c 0.52046,-0.444907 0.84493,-0.91806 0.98046,-1.386719 0.13554,-0.468659 0.0755,-0.931257 -0.15429,-1.318359 -0.45963,-0.774205 -1.55622,-1.23613 -3.04493,-1.125 z m 14.82618,0.279297 c 0.56479,0.05568 0.99486,0.223184 1.1875,0.458984 0.0902,0.110477 0.14766,0.201031 0.19726,0.28125 -0.12346,0.0082 -0.29195,0.01947 -0.49609,0.03125 -0.41309,0.02385 -0.96639,0.05217 -1.55859,0.08203 -1.4946,0.07537 -2.4204,0.298808 -2.94727,0.783203 -0.22253,0.204595 -0.39032,0.384517 -0.45703,0.607422 -0.0667,0.222905 0.0109,0.465183 0.20117,0.677734 0.38044,0.425103 1.20295,0.89024 2.71484,1.701172 0.98702,0.529406 1.79408,1.125272 2.29883,1.652344 0.25238,0.263536 0.42811,0.511108 0.51367,0.710938 0.0856,0.199829 0.083,0.333073 0.0254,0.427734 0.0356,-0.05844 0.0213,-0.02431 -0.0215,-0.0059 -0.0428,0.01845 -0.11246,0.04325 -0.19922,0.06836 -0.17352,0.05023 -0.41931,0.106579 -0.71289,0.166016 -0.58715,0.118873 -1.36411,0.247214 -2.15234,0.359375 -0.78823,0.11216 -1.58897,0.208326 -2.22657,0.263671 -0.31879,0.02767 -0.59779,0.04647 -0.81054,0.05078 -0.21275,0.0043 -0.37458,-0.01667 -0.38867,-0.02148 -0.1867,-0.06383 -0.38914,-0.03192 -0.57422,0.04883 -0.18509,0.08074 -0.35916,0.215243 -0.48633,0.390624 -0.0779,0.107395 -0.1415,0.169844 -0.16992,0.185547 -0.0284,0.0157 -0.009,0.01726 -0.0508,-0.0078 -0.0838,-0.05015 -0.29676,-0.320819 -0.60352,-0.832031 -0.19475,-0.324544 -0.37229,-0.670156 -0.5,-0.960938 -0.12771,-0.290782 -0.19909,-0.551904 -0.19922,-0.597656 -4.8e-4,-0.19524 -0.12405,-0.336188 -0.27539,-0.47461 -0.15133,-0.138421 -0.34853,-0.270607 -0.57031,-0.390624 -0.44356,-0.240035 -0.97213,-0.429688 -1.40235,-0.429688 -0.0808,0 -0.13627,0.03458 -0.17968,0.07031 -0.0434,0.03574 -0.0788,0.07885 -0.11328,0.126954 -0.069,0.0962 -0.13405,0.219003 -0.20118,0.36914 -0.13424,0.300274 -0.27078,0.704358 -0.38086,1.148438 -0.14214,0.573492 -0.27816,0.950188 -0.40625,1.148437 -0.064,0.09913 -0.12284,0.149292 -0.17187,0.173828 -0.049,0.02454 -0.0938,0.03088 -0.16602,0.01563 -0.23091,-0.04874 -0.37318,-0.271172 -0.32812,-0.607422 0.29336,-2.189162 0.55847,-3.238699 1.13086,-4.488281 0.18026,-0.393542 0.34338,-0.792036 0.46289,-1.121093 0.0598,-0.164529 0.10989,-0.311486 0.14453,-0.433594 0.0346,-0.122109 0.0566,-0.210587 0.0566,-0.302735 0,-0.0408 0.0385,-0.162986 0.11523,-0.287109 0.0768,-0.124123 0.18568,-0.254513 0.30079,-0.351562 0.16818,-0.141802 0.26431,-0.176267 0.35742,-0.16211 0.0931,0.01416 0.23448,0.100393 0.4375,0.306641 0.13616,0.138326 0.26541,0.324388 0.35742,0.503906 0.092,0.179518 0.14258,0.358049 0.14258,0.449219 0,0.561911 0.28424,1.227274 0.67969,1.818359 0.39544,0.591085 0.89973,1.105642 1.41601,1.3125 0.22891,0.09172 0.40108,0.160407 0.50781,0.212891 0.0107,0.0053 0.0121,0.0068 0.0215,0.01172 -0.0771,0.0448 -0.19043,0.102808 -0.35742,0.181641 -0.32364,0.152788 -0.5478,0.290235 -0.63086,0.533203 -0.0831,0.242968 0.003,0.494068 0.15625,0.835938 0.15836,0.353094 0.33567,0.604205 0.64258,0.714844 0.3069,0.110638 0.6919,0.091 1.30664,0.02539 1.69504,-0.180902 2.77824,-0.311404 3.44726,-0.427734 0.33451,-0.05817 0.56453,-0.111122 0.72656,-0.171875 0.081,-0.03038 0.14619,-0.06203 0.20313,-0.109375 0.0569,-0.04735 0.10937,-0.128627 0.10937,-0.216797 0,-0.128584 -0.0533,-0.148524 -0.0937,-0.191406 -0.0405,-0.04288 -0.0902,-0.08722 -0.15234,-0.136719 -0.12433,-0.09899 -0.29649,-0.219274 -0.50781,-0.357422 -0.42264,-0.276295 -1.00031,-0.621618 -1.63672,-0.970703 -1.38098,-0.757505 -2.20083,-1.311683 -2.58008,-1.783203 -0.18962,-0.23576 -0.27257,-0.443501 -0.2832,-0.660156 -0.0106,-0.216656 0.0534,-0.452087 0.19336,-0.734376 0.16013,-0.323018 0.56489,-0.656057 1.10742,-0.927734 0.54252,-0.271676 1.21613,-0.48711 1.89648,-0.61914 0.68036,-0.132031 1.3688,-0.18068 1.9336,-0.125 z m -51.32032,0.0039 c -0.11759,0 -0.23755,0.02794 -0.33203,0.103515 -0.0945,0.07558 -0.15187,0.186766 -0.18359,0.3125 -0.0634,0.251468 -0.0457,0.586182 0.0156,1.082032 0.0877,0.709265 0.24632,2.457023 0.35157,3.867187 0.0529,0.709527 0.12463,1.390501 0.19726,1.921875 0.0363,0.265687 0.072,0.493433 0.10742,0.669922 0.0354,0.176489 0.0527,0.284581 0.11719,0.390625 0.0952,0.156532 0.29367,0.224805 0.46485,0.1875 0.17117,-0.03731 0.33188,-0.14578 0.49023,-0.306641 0.22509,-0.228671 0.3487,-0.538298 0.36719,-1.041015 0.0185,-0.502717 -0.0514,-1.218799 -0.19922,-2.355469 -0.26656,-2.049902 -0.43536,-3.220693 -0.61328,-3.900391 -0.089,-0.339848 -0.17857,-0.560475 -0.30664,-0.714843 -0.12808,-0.154369 -0.31044,-0.216797 -0.47657,-0.216797 z m 6.66993,0 c -0.48417,0 -1.14545,0.236387 -1.83594,0.585937 -0.69049,0.34955 -1.3987,0.814795 -1.92188,1.300781 -0.31839,0.295767 -0.5346,0.605015 -0.66015,1.013672 -0.12555,0.408658 -0.16602,0.908575 -0.16602,1.623047 0,0.937336 0.12153,1.630053 0.48242,2.212891 0.3609,0.582838 0.94711,1.038792 1.83399,1.537109 0.44078,0.247666 1.30917,0.411933 2.0332,0.417969 0.59782,0.005 1.02552,-0.06014 1.31445,-0.1875 0.14447,-0.06368 0.25903,-0.145169 0.33008,-0.259766 0.0711,-0.114596 0.081,-0.263168 0.0332,-0.386718 -0.0956,-0.2471 -0.34809,-0.426915 -0.72071,-0.595704 -0.37261,-0.168788 -0.87684,-0.314619 -1.50781,-0.412109 -0.89129,-0.13771 -1.49039,-0.496185 -1.84375,-0.951172 -0.35336,-0.454986 -0.46717,-1.01196 -0.36328,-1.576172 0.20777,-1.128424 1.30598,-2.280645 3.1875,-2.496093 0.56273,-0.06444 0.98298,-0.190322 1.27344,-0.359375 0.29045,-0.169054 0.47248,-0.406199 0.4414,-0.667969 -0.0311,-0.26177 -0.25258,-0.457837 -0.57422,-0.589844 -0.32163,-0.132006 -0.7659,-0.208984 -1.33593,-0.208984 z m 50.83593,0 c -1.20099,0 -2.17832,0.344556 -2.89062,1.039062 -0.71231,0.694507 -1.15362,1.723655 -1.33399,3.060547 -0.29974,2.221679 0.58007,3.963812 2.39844,4.689453 0.51578,0.205827 0.83537,0.384117 1.01172,0.5625 0.17635,0.178383 0.23438,0.352927 0.23438,0.646485 0,0.502623 0.16918,1.07079 0.46093,1.367187 0.2752,0.279573 0.50622,0.455878 0.78125,0.44336 0.27503,-0.01252 0.49041,-0.20829 0.73828,-0.511719 0.16553,-0.202623 0.25553,-0.440097 0.23633,-0.705078 -0.0192,-0.264982 -0.13033,-0.551813 -0.32031,-0.923829 -0.11676,-0.228636 -0.19841,-0.402049 -0.23828,-0.535156 -0.0399,-0.133107 -0.0432,-0.218955 -0.0117,-0.318359 0.0629,-0.198809 0.32353,-0.4831 0.86914,-1.005859 1.26641,-1.213393 1.85193,-3.108328 1.45117,-4.730469 -0.18922,-0.765918 -0.70831,-1.523012 -1.33789,-2.09961 -0.62958,-0.576597 -1.36968,-0.978515 -2.04883,-0.978515 z m -60.625,0.04297 c -0.171425,-0.05069 -0.354989,0.01819 -0.492184,0.144532 -0.137195,0.126343 -0.25508,0.308825 -0.376953,0.552734 -0.243746,0.487818 -0.496275,1.224692 -0.787109,2.216797 -0.196566,0.670537 -0.400475,1.253597 -0.56836,1.646484 -0.07162,0.167608 -0.131062,0.278147 -0.18164,0.363282 -0.02435,-0.03709 -0.02679,-0.03489 -0.05664,-0.08594 -0.07824,-0.133817 -0.178818,-0.316563 -0.292969,-0.53125 -0.228301,-0.429373 -0.512442,-0.990653 -0.796875,-1.580078 -0.378015,-0.783352 -0.687019,-1.328739 -0.976562,-1.691406 -0.289543,-0.362668 -0.579214,-0.556641 -0.894531,-0.556641 -0.168849,0 -0.341721,0.02512 -0.482422,0.138672 -0.140701,0.113549 -0.229534,0.289884 -0.300782,0.541016 -0.142495,0.502263 -0.227632,1.353398 -0.357421,2.888672 -0.07953,0.940805 -0.128892,1.851865 -0.146485,2.566406 -0.0088,0.35727 -0.01044,0.664913 -0.002,0.904297 0.0085,0.239383 0.01352,0.391814 0.0625,0.521484 0.07381,0.195413 0.147159,0.347461 0.230469,0.462891 0.08331,0.11543 0.186062,0.208744 0.328125,0.220703 0.142063,0.01196 0.26278,-0.07531 0.34375,-0.181641 0.08097,-0.106334 0.145888,-0.24553 0.207031,-0.421875 0.244574,-0.705377 0.431089,-2.039409 0.558594,-3.974609 l 0.04883,-0.744141 0.707031,1.449219 c 0.374134,0.767485 0.707258,1.349252 1.017578,1.75 0.310321,0.400748 0.604209,0.64378 0.935547,0.652344 0.165669,0.0043 0.325954,-0.06063 0.460938,-0.171875 0.134983,-0.11125 0.251855,-0.267156 0.361328,-0.464844 0.218946,-0.395376 0.412047,-0.964029 0.601562,-1.71875 0.110841,-0.441412 0.244396,-0.851625 0.369141,-1.148438 0.06237,-0.148406 0.122963,-0.267981 0.171875,-0.345703 0.0087,-0.01386 -9.12e-4,-0.0036 0.0078,-0.01367 0.0091,0.0138 0.01323,0.01588 0.02344,0.0332 0.06557,0.111339 0.150443,0.291701 0.242194,0.517578 0.18349,0.451753 0.39876,1.092508 0.59765,1.804687 0.26904,0.963316 0.49446,1.629678 0.72071,2.082031 0.22624,0.452354 0.46884,0.712694 0.77929,0.773438 0.13875,0.02714 0.25216,0.04364 0.36133,0.0332 0.10917,-0.01043 0.23311,-0.06654 0.29297,-0.171875 0.0599,-0.105335 0.0589,-0.215997 0.043,-0.337891 -0.0159,-0.121893 -0.0519,-0.262688 -0.10352,-0.435547 -0.13098,-0.438527 -0.60668,-2.205054 -1.05078,-3.904296 -0.30492,-1.166707 -0.56819,-2.052339 -0.81445,-2.673828 -0.12313,-0.310745 -0.24183,-0.556026 -0.36524,-0.740235 -0.1234,-0.184209 -0.25435,-0.318449 -0.42578,-0.369141 z m 39.63868,0.01758 c 1.40506,-0.104887 2.35758,0.342098 2.72265,0.957031 0.18254,0.307466 0.23108,0.659797 0.11914,1.046875 -0.11194,0.387078 -0.39118,0.808785 -0.87304,1.220703 l -1.18946,1.017578 1.05664,0.703125 c 0.40237,0.267839 0.61101,0.581275 0.67969,0.910156 0.0687,0.328881 -0.003,0.683691 -0.20898,1.033203 -0.4112,0.699026 -1.36513,1.354499 -2.66602,1.583985 -0.7927,0.139836 -1.32279,0.04345 -1.74805,-0.289063 -0.16989,-0.132845 -0.29603,-0.233936 -0.36914,-0.302734 -0.0108,-0.01018 -0.0112,-0.01282 -0.0195,-0.02148 0.0803,-0.03284 0.22184,-0.07646 0.41211,-0.13086 0.33094,-0.09462 0.57428,-0.206161 0.68555,-0.443359 0.11126,-0.237199 0.0661,-0.513427 -0.0332,-0.902344 -0.12505,-0.489688 -0.21204,-1.150496 -0.19922,-1.386719 0.0153,-0.281423 0.0982,-1.538712 0.18359,-2.783203 l 0.14453,-2.115234 z m -76.781254,0.002 c -0.180146,0.01081 -0.353862,0.103365 -0.507813,0.259765 -0.124516,0.126497 -0.12777,0.27223 -0.140625,0.464844 -0.01286,0.192614 -0.0066,0.432069 0.01367,0.708985 0.04052,0.553831 0.137902,1.252509 0.267578,1.96289 0.129676,0.710381 0.292153,1.430969 0.460938,2.025391 0.168784,0.594422 0.325327,1.050024 0.52539,1.294922 0.126583,0.154951 0.166792,0.260262 0.16211,0.361328 -0.0047,0.101065 -0.06261,0.229026 -0.208985,0.408203 -0.504194,0.61718 -1.375921,0.580971 -1.720703,-0.04492 -0.07153,-0.129847 -0.136497,-0.234581 -0.210937,-0.318359 -0.07444,-0.08378 -0.167564,-0.150867 -0.28125,-0.167969 -0.113687,-0.0171 -0.223681,0.01716 -0.324219,0.07227 -0.100538,0.05511 -0.201148,0.133903 -0.320313,0.234374 -0.413329,0.34849 -0.625508,0.748758 -0.576171,1.138672 0.04934,0.389915 0.357488,0.716171 0.84375,0.921875 0.63269,0.267653 1.434377,0.280213 2.183593,0.113282 0.749217,-0.166932 1.450484,-0.513594 1.873047,-1.021485 l 0.605469,-0.728515 1.597656,0.623047 c 1.015242,0.395078 2.303064,0.625299 3.324219,0.673828 0.510577,0.02426 0.950703,0.0036 1.273437,-0.07422 0.161368,-0.03891 0.295874,-0.08934 0.400391,-0.181641 0.104517,-0.0923 0.160961,-0.258917 0.115234,-0.40039 -0.06787,-0.20997 -0.256444,-0.333823 -0.484375,-0.441407 -0.22793,-0.107584 -0.50973,-0.186176 -0.804687,-0.216797 -0.945776,-0.09819 -3.553924,-0.834728 -5.326172,-1.519531 -0.341407,-0.13192 -0.566355,-0.294339 -0.771484,-0.59375 -0.205129,-0.299411 -0.384849,-0.745373 -0.582032,-1.419922 -0.279462,-0.956026 -0.507812,-2.197837 -0.507812,-2.675781 0,-0.563467 -0.136755,-1.006985 -0.396484,-1.263672 -0.129865,-0.128343 -0.302276,-0.206118 -0.482422,-0.195312 z m 24.330078,0.111328 c -0.142703,0 -0.288287,0.07792 -0.378906,0.203125 -0.09062,0.125205 -0.147126,0.289063 -0.195313,0.509765 -0.09637,0.441405 -0.149215,1.118323 -0.1875,2.150391 -0.02734,0.736959 -0.08413,1.408803 -0.154297,1.888672 -0.03508,0.239934 -0.07523,0.431868 -0.111328,0.554687 -0.0046,0.01565 -0.0072,0.01801 -0.01172,0.03125 -0.03935,-0.02907 -0.07956,-0.05918 -0.136719,-0.107421 -0.151816,-0.12815 -0.35708,-0.317731 -0.599609,-0.552735 -0.485058,-0.470007 -1.117169,-1.121859 -1.775391,-1.83789 -0.661574,-0.719678 -1.287574,-1.373775 -1.763671,-1.84961 -0.238049,-0.237917 -0.438574,-0.430201 -0.589844,-0.566406 -0.07564,-0.0681 -0.138752,-0.122033 -0.191406,-0.162109 -0.02633,-0.02004 -0.0488,-0.03595 -0.07422,-0.05078 -0.02542,-0.01483 -0.04136,-0.03711 -0.121094,-0.03711 -0.126975,0 -0.246956,0.06022 -0.335937,0.148438 -0.08898,0.08822 -0.157289,0.202411 -0.216797,0.341796 -0.119016,0.27877 -0.202508,0.661484 -0.261719,1.144532 -0.118423,0.966096 -0.130815,2.333627 -0.02539,3.990234 0.06342,0.996534 0.15047,1.901935 0.238282,2.5625 0.04391,0.330282 0.08712,0.598115 0.130859,0.791016 0.02187,0.09645 0.04272,0.172222 0.06836,0.236328 0.01282,0.03205 0.02657,0.06106 0.05078,0.09375 0.02421,0.03269 0.07048,0.08984 0.164062,0.08984 0.236701,0 0.457858,-0.101455 0.621094,-0.28125 0.163236,-0.179796 0.278443,-0.428944 0.363281,-0.746094 0.169677,-0.6343 0.216835,-1.55069 0.15625,-2.769532 l -0.109375,-2.179687 1.328125,1.128906 c 0.446672,0.379926 0.876645,0.761912 1.207031,1.072266 0.165194,0.155177 0.305657,0.29254 0.410157,0.400391 0.104499,0.10785 0.176117,0.198647 0.183593,0.210937 0.08987,0.14772 0.246274,0.263015 0.44336,0.388672 0.197085,0.125657 0.433385,0.247727 0.671875,0.339844 0.510222,0.197073 0.71289,0.483694 0.71289,0.998047 0,0.444995 0.201543,0.845614 0.47461,1.09375 0.136533,0.124067 0.294679,0.21164 0.466797,0.234374 0.172117,0.02273 0.358046,-0.03361 0.49414,-0.171874 0.0809,-0.08218 0.06875,-0.123346 0.08008,-0.183594 0.01133,-0.06025 0.01866,-0.132103 0.02539,-0.21875 0.01347,-0.173294 0.02033,-0.40319 0.02148,-0.679688 0.0023,-0.552995 -0.01872,-1.287714 -0.06445,-2.072265 -0.0911,-1.562825 -0.206448,-3.546583 -0.255859,-4.408203 -0.03149,-0.549187 -0.09096,-0.950554 -0.197266,-1.238282 -0.05316,-0.143864 -0.118379,-0.261203 -0.210937,-0.349609 -0.09256,-0.08841 -0.218003,-0.140625 -0.34375,-0.140625 z m 15.931636,0.169922 c 0.10379,0 0.14185,0.01048 0.21094,0.09375 0.0691,0.08327 0.15491,0.263554 0.23828,0.582031 0.16674,0.636954 0.33918,1.809629 0.60547,3.857422 0.14718,1.131828 0.21409,1.841403 0.19727,2.298828 -0.0168,0.457425 -0.10152,0.639864 -0.26953,0.810547 -0.1277,0.129724 -0.24724,0.197816 -0.31641,0.21289 -0.0692,0.01507 -0.0703,0.01375 -0.0977,-0.03125 0.008,0.01314 -0.0391,-0.114189 -0.0723,-0.279296 -0.0332,-0.165108 -0.0698,-0.38741 -0.10547,-0.648438 -0.0714,-0.522056 -0.14285,-1.199376 -0.19531,-1.902344 -0.1056,-1.414826 -0.26359,-3.153824 -0.35352,-3.880859 -0.0596,-0.481637 -0.0611,-0.800007 -0.0215,-0.957031 0.0198,-0.07851 0.0438,-0.110441 0.0644,-0.126953 0.0206,-0.01651 0.0491,-0.0293 0.11523,-0.0293 z m 6.66993,0 c 0.538,0 0.94432,0.07657 1.20507,0.183594 0.26076,0.10702 0.3521,0.234705 0.36133,0.3125 0.009,0.07779 -0.0437,0.195562 -0.27148,0.328124 -0.22776,0.132563 -0.60822,0.255666 -1.13867,0.316407 -2.0052,0.22961 -3.24891,1.475353 -3.48828,2.77539 -0.11969,0.650019 0.0161,1.314564 0.43164,1.84961 0.41553,0.535045 1.10402,0.933941 2.0625,1.082031 0.60703,0.09379 1.08486,0.233876 1.41796,0.384766 0.33311,0.150889 0.50933,0.324382 0.54102,0.40625 0.0158,0.04093 0.0146,0.0502 -0.004,0.08008 -0.0185,0.02988 -0.0717,0.07911 -0.17578,0.125 -0.20823,0.09179 -0.60193,0.162973 -1.17187,0.158203 -0.66751,-0.0056 -1.55393,-0.19899 -1.86719,-0.375 -0.86505,-0.486054 -1.39395,-0.90724 -1.70898,-1.416016 -0.31504,-0.508775 -0.43165,-1.123616 -0.43165,-2.03125 0,-0.701255 0.0425,-1.170411 0.1504,-1.521484 0.10786,-0.351074 0.27613,-0.591685 0.5664,-0.861328 0.48951,-0.45471 1.17714,-0.909621 1.8418,-1.246094 0.66466,-0.336473 1.31832,-0.550781 1.67969,-0.550781 z m 50.83593,0 c 0.53608,0 1.22711,0.35271 1.81446,0.890625 0.58734,0.537915 1.07019,1.255249 1.23632,1.927734 0.36651,1.483526 -0.18141,3.27354 -1.35546,4.398438 -0.54818,0.525217 -0.84944,0.810428 -0.95704,1.15039 -0.0538,0.169981 -0.043,0.345302 0.01,0.521485 0.0528,0.176183 0.14323,0.361721 0.26172,0.59375 0.18108,0.354571 0.26792,0.607067 0.28125,0.791015 0.0133,0.183949 -0.0313,0.305559 -0.1582,0.460938 -0.22938,0.280785 -0.38112,0.381929 -0.48633,0.386719 -0.10522,0.0048 -0.2648,-0.083 -0.51953,-0.341797 -0.16067,-0.16322 -0.36328,-0.715878 -0.36328,-1.125 0,-0.348325 -0.0937,-0.649585 -0.33204,-0.890625 -0.23829,-0.241041 -0.59667,-0.426277 -1.1289,-0.638672 -1.68043,-0.670591 -2.46861,-2.209797 -2.1836,-4.322266 0.17356,-1.286367 0.58931,-2.234236 1.23047,-2.859375 0.64116,-0.625139 1.51483,-0.943359 2.65039,-0.943359 z m -47.49414,0.0039 c -0.21198,0 -0.38382,0.0041 -0.53711,0.04492 -0.15328,0.04085 -0.29125,0.134373 -0.37304,0.27539 -0.16358,0.282035 -0.16016,0.678032 -0.16016,1.398438 0,0.414541 -0.0388,0.81715 -0.0996,1.123047 -0.0304,0.152948 -0.0675,0.281241 -0.10351,0.371094 -0.036,0.08985 -0.0811,0.136191 -0.0664,0.126953 -0.1286,0.08075 -0.16852,0.204168 -0.20313,0.34375 -0.0346,0.139582 -0.054,0.307151 -0.0625,0.498047 -0.0169,0.381791 0.009,0.85532 0.0645,1.332031 0.0553,0.476711 0.14035,0.954392 0.24609,1.341797 0.0529,0.193702 0.11059,0.365245 0.17578,0.505859 0.0652,0.140615 0.12995,0.255518 0.2461,0.332031 0.1616,0.106454 0.31997,0.16785 0.48046,0.166016 0.1605,-0.0018 0.31246,-0.08059 0.41602,-0.205078 0.20712,-0.248972 0.2793,-0.645571 0.2793,-1.197266 0,-0.270031 0.0263,-0.47818 0.0781,-0.625 0.0518,-0.14682 0.12138,-0.231416 0.22852,-0.292969 0.21427,-0.123104 0.65056,-0.133634 1.36914,0.0059 0.62327,0.120992 0.94614,0.390747 1.01172,0.753906 0.13623,0.754539 0.62165,1.410909 1.13672,1.767578 0.25753,0.178335 0.52617,0.286068 0.78711,0.267578 0.26093,-0.01849 0.49788,-0.19993 0.5957,-0.498046 0.003,-0.0081 -0.01,-0.0099 0.0508,-0.02344 0.0606,-0.01354 0.18032,-0.01566 0.3457,0.0098 0.33077,0.05085 0.8452,0.201461 1.55078,0.455078 1.09748,0.394476 2.06047,0.633059 2.85547,0.710937 0.79501,0.07788 1.42775,2.58e-4 1.86524,-0.28125 0.19859,-0.127789 0.33231,-0.282727 0.375,-0.46289 0.0427,-0.180163 -0.021,-0.366097 -0.14258,-0.503907 -0.24321,-0.275619 -0.69744,-0.427734 -1.27734,-0.427734 -0.21778,0 -0.77833,-0.09881 -1.45313,-0.259766 -0.6748,-0.160953 -1.47934,-0.382403 -2.24414,-0.626953 -1.012,-0.323592 -1.70693,-0.586834 -2.13477,-0.8125 -0.21391,-0.112833 -0.35896,-0.217596 -0.44336,-0.304687 -0.0844,-0.08709 -0.10664,-0.146444 -0.10742,-0.201172 -0.007,-0.526878 -0.10993,-1.623528 -0.22656,-2.619141 -0.0583,-0.497806 -0.12082,-0.967525 -0.17578,-1.324219 -0.0275,-0.178346 -0.0527,-0.328303 -0.0762,-0.441406 -0.0118,-0.05655 -0.0234,-0.104455 -0.0352,-0.144531 -0.0117,-0.04008 -0.004,-0.06244 -0.0625,-0.128906 -0.0637,-0.07198 -0.1319,-0.08216 -0.19336,-0.08984 -0.0615,-0.0077 -0.1235,-0.0061 -0.1914,0.002 -0.13581,0.01605 -0.29313,0.05753 -0.45118,0.119141 -0.24469,0.09539 -0.41131,0.325614 -0.50586,0.644531 -0.0945,0.318917 -0.13281,0.740025 -0.13281,1.298828 0,0.699399 -0.0348,1.08813 -0.10937,1.240234 -0.0373,0.07605 -0.0673,0.100164 -0.13672,0.125 -0.0694,0.02484 -0.18701,0.03628 -0.35156,0.03516 -0.72534,-0.005 -1.15179,-0.242526 -1.36719,-0.695313 -0.2154,-0.452786 -0.20747,-1.171147 0.0859,-2.123047 0.0535,-0.173441 0.0889,-0.314054 0.0996,-0.443359 0.0107,-0.129305 -0.007,-0.262499 -0.0918,-0.363281 -0.0843,-0.100782 -0.20609,-0.145639 -0.33985,-0.169922 -0.13375,-0.02428 -0.29098,-0.0293 -0.48828,-0.0293 z m 14.57227,0 c -0.17348,0 -0.3259,0.01019 -0.4668,0.07617 -0.1409,0.06598 -0.25059,0.193673 -0.31445,0.359375 -0.12772,0.331404 -0.14451,0.833774 -0.16211,1.736328 -0.0541,2.771237 -0.193,3.711633 -0.64844,4.576172 -0.1749,0.332001 -0.27671,0.574528 -0.23633,0.822265 0.0404,0.247738 0.22207,0.426745 0.48633,0.623047 0.18131,0.134692 0.37467,0.237097 0.55274,0.296875 0.17806,0.05978 0.34238,0.104598 0.50586,0.002 -0.0228,0.01432 0.009,-0.0031 0.0527,-0.01367 0.0435,-0.01054 0.10501,-0.02268 0.18164,-0.03516 0.15327,-0.02495 0.36564,-0.05204 0.61524,-0.07813 0.49919,-0.05218 1.1554,-0.10139 1.8457,-0.136718 0.99994,-0.05118 1.63888,-0.111705 2.06445,-0.22461 0.21279,-0.05645 0.37638,-0.126333 0.5,-0.228515 0.12363,-0.102182 0.19852,-0.240683 0.22656,-0.384766 0.0276,-0.141558 0.0292,-0.295377 -0.0586,-0.423828 -0.0878,-0.128451 -0.23422,-0.198393 -0.42188,-0.244141 -0.3753,-0.0915 -0.98141,-0.107422 -2.02343,-0.107422 h -2.25781 l 0.2246,-3.123046 c 0.11644,-1.611413 0.17769,-2.429352 0.10743,-2.900391 -0.0351,-0.23552 -0.11973,-0.412238 -0.27344,-0.503906 -0.15371,-0.09167 -0.31818,-0.08789 -0.5,-0.08789 z m 36.72656,0 c -0.22688,0 -0.41108,0.16341 -0.49805,0.371094 -0.087,0.207684 -0.11621,0.468775 -0.11328,0.779297 0.006,0.621042 0.15189,1.437721 0.38672,2.298828 0.23483,0.861106 0.55965,1.763822 0.93164,2.544922 0.372,0.781099 0.7837,1.440063 1.22852,1.820312 0.50523,0.431883 1.03338,0.674859 1.54883,0.707031 0.51544,0.03217 1.01131,-0.153911 1.42578,-0.541015 0.0933,-0.08717 0.13145,-0.188978 0.18359,-0.330078 0.0521,-0.141101 0.10317,-0.316584 0.1543,-0.519532 0.10226,-0.405895 0.20291,-0.918336 0.28711,-1.447265 0.0842,-0.52893 0.15249,-1.073656 0.18945,-1.541016 0.037,-0.467359 0.0474,-0.848271 -0.002,-1.097656 -0.0703,-0.354968 -0.21686,-1.074364 -0.32617,-1.601563 -0.0593,-0.286169 -0.1734,-0.544649 -0.31641,-0.742187 -0.14301,-0.197538 -0.31965,-0.353516 -0.54688,-0.353516 -0.13054,0 -0.27293,0.04588 -0.36718,0.154297 -0.0943,0.108417 -0.13834,0.25104 -0.16211,0.433594 -0.0476,0.365109 -0.0148,0.923015 0.0684,1.828125 0.12623,1.373271 0.11624,2.373687 -0.0215,3.003906 -0.0689,0.31511 -0.17084,0.533626 -0.28515,0.664063 -0.11432,0.130436 -0.23276,0.183593 -0.4043,0.183593 -0.36549,0 -0.75197,-0.297847 -1.13477,-0.980468 -0.38279,-0.682622 -0.74281,-1.724199 -1.06054,-3.09961 -0.16779,-0.726323 -0.35262,-1.332721 -0.53321,-1.767578 -0.0903,-0.217428 -0.17891,-0.391003 -0.27148,-0.521484 -0.0926,-0.130482 -0.19056,-0.246094 -0.36133,-0.246094 z m 6.31445,0.02539 c -0.0971,0.0058 -0.19566,0.03218 -0.27148,0.105468 -0.0758,0.07329 -0.10492,0.180144 -0.10156,0.275391 0.003,0.09525 0.0297,0.191293 0.0703,0.298828 0.0135,0.03572 0.0538,0.211668 0.0898,0.451172 0.036,0.239504 0.0753,0.553951 0.11524,0.919922 0.0799,0.731942 0.16316,1.670761 0.22851,2.634766 0.10055,1.482996 0.17881,2.355023 0.29883,2.873046 0.06,0.259012 0.12635,0.436328 0.2461,0.560547 0.11974,0.12422 0.30072,0.15356 0.44921,0.123047 0.14039,-0.02885 0.28031,-0.09664 0.37696,-0.220703 0.0966,-0.124058 0.1491,-0.286524 0.18359,-0.5 0.069,-0.426952 0.062,-1.084231 0.0156,-2.169922 -0.0787,-1.8426 -0.19612,-3.1004 -0.39649,-3.935547 -0.10018,-0.417573 -0.22067,-0.730136 -0.3789,-0.960937 -0.15824,-0.230801 -0.36594,-0.377728 -0.60157,-0.423828 -0.12293,-0.02405 -0.22713,-0.03708 -0.32422,-0.03125 z m -70.841792,0.002 c 0.04609,0.01363 0.135442,0.07988 0.236332,0.230468 0.10088,0.150592 0.21221,0.376358 0.33007,0.673829 0.23574,0.594941 0.49735,1.473768 0.80079,2.634765 0.44454,1.700932 0.91672,3.454127 1.05468,3.916016 0.0493,0.164992 0.0803,0.293239 0.0918,0.380859 0.0114,0.08762 -0.002,0.126551 0,0.123047 0.002,-0.0035 0.0223,-0.0063 -0.0234,-0.002 -0.0457,0.0044 -0.13881,-0.0029 -0.26367,-0.02734 -0.15913,-0.03114 -0.33106,-0.177868 -0.53711,-0.589843 -0.20605,-0.411976 -0.43063,-1.066743 -0.69726,-2.021485 -0.20181,-0.722589 -0.41854,-1.371952 -0.60938,-1.841797 -0.0954,-0.234922 -0.18451,-0.4228 -0.26562,-0.560547 -0.0406,-0.06887 -0.0771,-0.126148 -0.123052,-0.173828 -0.04597,-0.04768 -0.117407,-0.114257 -0.238281,-0.08789 -0.153299,0.03344 -0.194346,0.126517 -0.259766,0.230468 -0.06542,0.103951 -0.130216,0.238904 -0.197265,0.398438 -0.134098,0.319067 -0.272078,0.740721 -0.386719,1.197265 -0.185889,0.740278 -0.376557,1.288407 -0.568359,1.634766 -0.0959,0.17318 -0.193005,0.294115 -0.279297,0.365234 -0.08629,0.07112 -0.156204,0.09572 -0.232422,0.09375 -0.152436,-0.0039 -0.387713,-0.152562 -0.671875,-0.519531 -0.284163,-0.366968 -0.609776,-0.931081 -0.978516,-1.6875 l -1.277344,-2.61914 -0.134765,2.041015 c -0.126692,1.922857 -0.323838,3.258409 -0.541016,3.884766 -0.05429,0.156589 -0.110934,0.269226 -0.154297,0.326172 -0.04336,0.05695 -0.04953,0.04599 -0.03906,0.04687 0.01046,8.81e-4 -0.02225,-0.0054 -0.07617,-0.08008 -0.05392,-0.07471 -0.120079,-0.204321 -0.1875,-0.382813 -0.0038,-0.01 -0.03293,-0.181886 -0.04102,-0.410156 -0.0081,-0.22827 -0.0087,-0.532047 0,-0.884766 0.01737,-0.705437 0.06945,-1.612486 0.148438,-2.546875 0.129576,-1.532748 0.222162,-2.386813 0.345703,-2.822265 0.06177,-0.217727 0.128123,-0.318892 0.185547,-0.365235 0.05742,-0.04634 0.126994,-0.0625 0.263672,-0.0625 0.176265,0 0.366901,0.1025 0.625,0.425781 0.258098,0.323282 0.56242,0.853733 0.935546,1.626954 0.286242,0.593175 0.571598,1.157091 0.802735,1.591796 0.115568,0.217353 0.218702,0.402592 0.300781,0.542969 0.08208,0.140377 0.126883,0.223421 0.197266,0.294922 0.0361,0.03668 0.103196,0.06588 0.160156,0.0625 0.05696,-0.0034 0.09426,-0.02612 0.123047,-0.04687 0.05758,-0.04151 0.09118,-0.08749 0.128906,-0.144531 0.07545,-0.114092 0.153942,-0.275908 0.242188,-0.482422 0.17649,-0.413028 0.384455,-1.004901 0.583984,-1.685547 0.288569,-0.984378 0.5399,-1.710359 0.763672,-2.158203 0.111886,-0.223922 0.219251,-0.376246 0.302734,-0.453125 0.08348,-0.07688 0.114061,-0.08004 0.160157,-0.06641 z m 76.087892,0.01953 c -0.31094,0.0014 -0.59727,0.194215 -0.82031,0.515625 -0.22305,0.32141 -0.39957,0.779445 -0.51758,1.378906 -0.11299,0.573922 -0.41458,1.303236 -0.59766,1.527344 -0.1468,0.179699 -0.25645,0.453907 -0.34961,0.777344 -0.0931,0.323436 -0.1618,0.690848 -0.18359,1.037109 -0.0199,0.31637 -0.0826,0.666801 -0.16797,0.964844 -0.0854,0.298042 -0.20126,0.548134 -0.2832,0.648437 -0.1609,0.19697 -0.26238,0.381205 -0.27149,0.580078 -0.009,0.198874 0.0883,0.382698 0.24219,0.539063 0.17689,0.179704 0.37618,0.286763 0.58398,0.306641 0.20781,0.01988 0.41208,-0.05229 0.58399,-0.1875 0.34381,-0.270421 0.59046,-0.776775 0.71679,-1.460938 0.10415,-0.563944 0.1933,-0.837274 0.32227,-0.953125 0.12897,-0.115851 0.37227,-0.152344 0.89453,-0.152344 0.51007,0 0.76054,0.03653 0.92578,0.173829 0.16525,0.137301 0.29891,0.4329 0.48242,1.011718 0.11586,0.365388 0.25923,0.744981 0.39844,1.066406 0.13921,0.321426 0.26422,0.576722 0.38282,0.728516 l 0.0625,0.07813 0.0449,-0.0059 c 0.20376,0.224027 0.41064,0.400236 0.62304,0.421875 0.24895,0.02536 0.47351,-0.117566 0.59571,-0.326172 0.24439,-0.417213 0.19884,-1.094885 -0.2461,-1.740235 -0.33216,-0.481749 -0.48798,-0.88631 -0.49218,-1.117187 -0.002,-0.115439 0.0249,-0.176315 0.0664,-0.216797 0.0415,-0.04048 0.1149,-0.07422 0.25195,-0.07422 0.17329,0 0.33418,-0.04696 0.46094,-0.132812 0.12677,-0.08586 0.22657,-0.223364 0.22656,-0.388672 0,-0.15812 -0.086,-0.29438 -0.20312,-0.382813 -0.11708,-0.08843 -0.26733,-0.138671 -0.42969,-0.138671 -0.27073,0 -0.60579,-0.217425 -0.93164,-0.669922 -0.32585,-0.452497 -0.63475,-1.121126 -0.87305,-1.939453 -0.17393,-0.597289 -0.3921,-1.053111 -0.64257,-1.369141 -0.25048,-0.31603 -0.54454,-0.501352 -0.85547,-0.5 z m -113.11133,0.01172 c 0.07424,-0.0045 0.142489,0.02229 0.21875,0.09766 0.152523,0.150736 0.292969,0.514394 0.292969,1.017578 0,0.578975 0.236212,1.788903 0.523437,2.771484 0.201313,0.688677 0.385444,1.165066 0.626953,1.517579 0.241509,0.352512 0.544797,0.573178 0.931641,0.722656 1.799678,0.695402 4.363927,1.431788 5.416016,1.541015 0.256027,0.02658 0.507144,0.09765 0.693359,0.185547 0.186215,0.0879 0.293228,0.204962 0.302734,0.234375 0.0098,0.03029 0.01615,0.009 -0.01563,0.03711 -0.03178,0.02806 -0.120351,0.07179 -0.251953,0.103515 -0.263202,0.06346 -0.686531,0.0878 -1.177734,0.06445 -0.982407,-0.04669 -2.249897,-0.274884 -3.214844,-0.65039 l -1.828125,-0.712891 -0.765625,0.919922 c -0.349454,0.420019 -0.990498,0.74987 -1.683594,0.904297 C 62.344013,65.248177 61.602165,65.227473 61.064453,65 60.64759,64.823653 60.457656,64.58999 60.427734,64.353516 c -0.02992,-0.236475 0.09798,-0.529303 0.457032,-0.832032 0.111575,-0.09407 0.200124,-0.160479 0.263672,-0.195312 0.06355,-0.03483 0.09279,-0.03511 0.105468,-0.0332 0.01268,0.0019 0.03305,0.0081 0.07617,0.05664 0.04313,0.04854 0.09985,0.133784 0.166016,0.253907 0.46252,0.839626 1.653999,0.877423 2.291015,0.09766 0.168893,-0.206742 0.2754,-0.400736 0.285157,-0.611328 0.0098,-0.210592 -0.08344,-0.406159 -0.238282,-0.595703 -0.106503,-0.130371 -0.296407,-0.590483 -0.460937,-1.169922 -0.16453,-0.57944 -0.325136,-1.293005 -0.453125,-1.994141 -0.127989,-0.701136 -0.22262,-1.391377 -0.261719,-1.925781 -0.01955,-0.267202 -0.02472,-0.496602 -0.01367,-0.662109 0.01105,-0.165508 0.06512,-0.26863 0.04102,-0.244141 0.112154,-0.113939 0.208965,-0.15375 0.283203,-0.158203 z m 24.308594,0.113281 c 0.04318,0 0.0675,0.0067 0.105468,0.04297 0.03797,0.03626 0.08341,0.108144 0.125,0.220703 0.08318,0.225118 0.145208,0.605496 0.175782,1.138672 0.04943,0.86194 0.164753,2.847233 0.255859,4.410156 0.04537,0.778323 0.06672,1.506093 0.06445,2.048828 -0.0011,0.271368 -0.0072,0.495694 -0.01953,0.654297 -0.0062,0.0793 -0.01409,0.14233 -0.02148,0.181641 -0.0074,0.03931 -0.04271,0.06314 0.01367,0.0059 -0.06707,0.06814 -0.123494,0.08278 -0.203124,0.07227 -0.07963,-0.01052 -0.181751,-0.0598 -0.279297,-0.148438 -0.195093,-0.17728 -0.361329,-0.500849 -0.361329,-0.83789 0,-0.622676 -0.331493,-1.087752 -0.933593,-1.320313 -0.214468,-0.08284 -0.435306,-0.196366 -0.611328,-0.308594 -0.176023,-0.112227 -0.30876,-0.239089 -0.332032,-0.277343 -0.04909,-0.0807 -0.122011,-0.157533 -0.232421,-0.271485 -0.110411,-0.113952 -0.254015,-0.252474 -0.421876,-0.410156 -0.33572,-0.315365 -0.769867,-0.702471 -1.220703,-1.085938 l -1.935547,-1.646484 0.148438,2.978516 c 0.05969,1.200872 0.0074,2.094082 -0.144531,2.662109 -0.07597,0.284013 -0.17635,0.483671 -0.285157,0.603516 -0.08374,0.09223 -0.180279,0.110902 -0.28125,0.128906 -0.01032,-0.03432 -0.01943,-0.0592 -0.03125,-0.111328 -0.03944,-0.173939 -0.08188,-0.437333 -0.125,-0.761719 -0.08624,-0.648772 -0.171369,-1.549018 -0.234374,-2.539063 -0.104545,-1.642771 -0.09051,-2.99618 0.02344,-3.925781 0.05697,-0.4648 0.139882,-0.822923 0.236328,-1.048828 0.04822,-0.112952 0.100424,-0.192582 0.142578,-0.234375 0.03215,-0.03187 0.05026,-0.03153 0.07031,-0.03516 0.0036,0.0026 0.0038,0.0028 0.0078,0.0059 0.03915,0.0298 0.09828,0.07807 0.169922,0.142578 0.143291,0.129021 0.340633,0.321232 0.576172,0.556641 0.471077,0.470818 1.095141,1.121269 1.753906,1.837891 0.662118,0.72027 1.297153,1.374916 1.789063,1.851562 0.245954,0.238323 0.454795,0.431283 0.617187,0.568359 0.0812,0.06854 0.149331,0.123388 0.208985,0.164063 0.02983,0.02034 0.05857,0.03822 0.08789,0.05273 0.02932,0.01451 0.0568,0.03125 0.119141,0.03125 0.06408,0 0.11569,-0.03068 0.146484,-0.05859 0.03079,-0.02792 0.04843,-0.05571 0.06445,-0.08398 0.03205,-0.05655 0.05394,-0.119688 0.07617,-0.195312 0.04446,-0.151248 0.08466,-0.354346 0.121094,-0.603516 0.07287,-0.498339 0.130485,-1.17661 0.158203,-1.923828 0.03804,-1.025581 0.09379,-1.696408 0.179688,-2.089844 0.04295,-0.196717 0.09578,-0.321602 0.138672,-0.380859 0.04289,-0.05926 0.05389,-0.06055 0.09766,-0.06055 z m 25.943356,0.173828 c 0.18925,0 0.33166,0.0063 0.42578,0.02344 0.0941,0.01709 0.12781,0.04208 0.13672,0.05273 0.009,0.01066 0.0204,0.03042 0.0137,0.111328 -0.007,0.0809 -0.0353,0.206858 -0.0859,0.371094 -0.30692,0.995717 -0.34349,1.794702 -0.0684,2.373047 0.27513,0.578344 0.87125,0.887002 1.67773,0.892578 0.17897,0.0012 0.33114,-0.0067 0.47071,-0.05664 0.13956,-0.04992 0.26046,-0.154933 0.33007,-0.296875 0.13923,-0.283883 0.14454,-0.686288 0.14453,-1.392578 0,-0.54208 0.0415,-0.939282 0.11915,-1.201172 0.0776,-0.261889 0.17644,-0.373405 0.30078,-0.421875 0.13284,-0.05179 0.26564,-0.08416 0.36328,-0.0957 0.0366,-0.0043 0.0602,-0.0047 0.082,-0.0039 0.007,0.02479 0.0151,0.05157 0.0234,0.0918 0.0213,0.102574 0.0453,0.248877 0.0723,0.423828 0.0539,0.349901 0.11586,0.815706 0.17383,1.310547 0.11594,0.98968 0.21769,2.098738 0.22461,2.585937 0.002,0.157878 0.0803,0.30682 0.20508,0.435547 0.12474,0.128727 0.29851,0.24638 0.53125,0.369141 0.46548,0.245522 1.16965,0.509848 2.18945,0.835937 0.77366,0.247385 1.58499,0.473442 2.26953,0.636719 0.68455,0.163277 1.22698,0.265625 1.53321,0.265625 0.51363,0 0.88409,0.161234 1.01757,0.3125 0.0667,0.07563 0.0816,0.13124 0.0664,0.195312 -0.0152,0.06407 -0.0764,0.157287 -0.22656,0.253907 -0.33,0.212343 -0.89125,0.300354 -1.64453,0.226562 -0.75329,-0.07379 -1.69275,-0.303663 -2.77149,-0.691406 -0.71474,-0.256909 -1.23855,-0.412796 -1.61523,-0.470703 -0.18834,-0.02895 -0.33959,-0.0356 -0.47266,-0.0059 -0.13306,0.02974 -0.2617,0.118997 -0.30469,0.25 -0.0658,0.20058 -0.15302,0.253756 -0.29296,0.263672 -0.13995,0.0099 -0.34826,-0.05927 -0.56446,-0.208984 -0.4324,-0.299428 -0.87779,-0.898599 -0.99414,-1.542969 -0.0964,-0.533999 -0.58406,-0.89515 -1.28516,-1.03125 -0.74262,-0.144162 -1.24655,-0.176077 -1.60742,0.03125 -0.18043,0.103664 -0.30834,0.273104 -0.38086,0.478516 -0.0725,0.205411 -0.0996,0.448689 -0.0996,0.740234 0,0.515566 -0.0955,0.851918 -0.19921,0.976563 -0.0519,0.06232 -0.0907,0.07935 -0.1543,0.08008 -0.0636,7.27e-4 -0.16194,-0.02692 -0.28711,-0.109375 -0.0114,-0.0075 -0.0704,-0.07397 -0.12305,-0.1875 -0.0526,-0.113528 -0.10478,-0.269759 -0.15429,-0.451172 -0.099,-0.362826 -0.18271,-0.828462 -0.23633,-1.291016 -0.0536,-0.462554 -0.0782,-0.92398 -0.0625,-1.277343 0.008,-0.176682 0.0252,-0.326434 0.0508,-0.429688 0.0256,-0.103253 0.0715,-0.148513 0.0527,-0.136719 0.11129,-0.06987 0.15514,-0.169156 0.20313,-0.289062 0.048,-0.119907 0.0878,-0.266307 0.12109,-0.433594 0.0665,-0.334573 0.10742,-0.753516 0.10742,-1.189453 0,-0.715257 0.0366,-1.092398 0.11329,-1.224609 0.0383,-0.06611 0.0711,-0.09047 0.16406,-0.115235 0.0929,-0.02477 0.24293,-0.0332 0.44726,-0.0332 z m 14.57227,0 c 0.17491,0 0.28019,0.01397 0.32226,0.03906 0.0421,0.02509 0.0812,0.06914 0.10938,0.257812 0.0563,0.377344 0.007,1.213479 -0.10938,2.824219 l -0.2539,3.494141 h 2.63086 c 1.03731,0 1.64589,0.02561 1.9414,0.09766 0.14776,0.03602 0.20261,0.0799 0.21875,0.103515 0.0161,0.02362 0.0254,0.06169 0.006,0.16211 -0.0157,0.08094 -0.0429,0.128642 -0.10937,0.183593 -0.0665,0.05495 -0.1823,0.113059 -0.36719,0.16211 -0.36977,0.0981 -1.00098,0.162063 -1.99414,0.21289 -0.69582,0.03561 -1.35772,0.08562 -1.86523,0.138672 -0.25376,0.02652 -0.46871,0.05337 -0.63282,0.08008 -0.082,0.01336 -0.15171,0.02715 -0.20898,0.04102 -0.0573,0.01386 -0.0962,0.02014 -0.1543,0.05664 0.0222,-0.01392 -0.0774,0.0084 -0.21289,-0.03711 -0.13546,-0.04547 -0.30395,-0.132373 -0.45703,-0.246093 -0.24338,-0.180795 -0.33177,-0.290943 -0.34961,-0.400391 -0.0178,-0.109448 0.0334,-0.290685 0.19922,-0.605469 0.49059,-0.931269 0.63516,-1.951111 0.68945,-4.732422 0.0175,-0.897833 0.0541,-1.39763 0.13867,-1.617187 0.0423,-0.109779 0.0786,-0.143768 0.13868,-0.171875 0.06,-0.02811 0.16447,-0.04297 0.32031,-0.04297 z m 36.72656,0 c -0.0381,0 0.0127,0.0046 0.0801,0.09961 0.0674,0.09496 0.15002,0.251953 0.23437,0.455079 0.16871,0.406251 0.35087,0.999689 0.51563,1.71289 0.32197,1.393734 0.68525,2.45946 1.0957,3.191407 0.41045,0.731946 0.8879,1.156249 1.43555,1.15625 0.25733,-10e-7 0.49271,-0.107214 0.66406,-0.302735 0.17136,-0.195521 0.2849,-0.46862 0.36133,-0.818359 0.15286,-0.699479 0.15703,-1.719776 0.0293,-3.109375 -0.0827,-0.899197 -0.10706,-1.452854 -0.0684,-1.75 0.0194,-0.148573 0.0545,-0.224794 0.0781,-0.251953 0.0236,-0.02716 0.0375,-0.03516 0.10742,-0.03516 0.0449,0 0.1593,0.05942 0.26758,0.208985 0.10829,0.149568 0.206,0.370853 0.25586,0.611328 0.10909,0.526087 0.25638,1.245162 0.32617,1.597656 0.0325,0.164361 0.0321,0.548837 -0.004,1.003906 -0.036,0.45507 -0.10259,0.992547 -0.18555,1.513672 -0.083,0.521125 -0.18281,1.027241 -0.28125,1.417969 -0.0492,0.195364 -0.0973,0.36197 -0.14258,0.484375 -0.0452,0.122405 -0.10223,0.203366 -0.0957,0.197266 -0.35609,0.332577 -0.74632,0.475536 -1.16797,0.449218 -0.42165,-0.02632 -0.88202,-0.228631 -1.3457,-0.625 -0.37227,-0.318226 -0.77953,-0.948808 -1.14063,-1.707031 -0.3611,-0.758222 -0.68246,-1.644243 -0.91211,-2.486328 -0.22964,-0.842085 -0.36767,-1.641896 -0.37304,-2.210937 -0.003,-0.284521 0.0306,-0.512383 0.0859,-0.644532 0.0553,-0.132148 0.0933,-0.158203 0.17969,-0.158203 z m -88.845702,0.002 c -0.290094,0 -0.552205,0.120601 -0.742187,0.361328 -0.189982,0.240727 -0.325488,0.585267 -0.455079,1.072266 -0.185315,0.696412 -0.592584,1.643037 -0.865234,2.037109 -0.158928,0.229709 -0.278738,0.473929 -0.347656,0.695313 -0.06892,0.221384 -0.114336,0.420042 -0.0039,0.601562 -0.0095,-0.01556 0.01612,0.04805 0.01563,0.144532 -4.99e-4,0.09648 -0.01286,0.228427 -0.03711,0.378906 -0.04851,0.300958 -0.143608,0.681526 -0.271484,1.058594 -0.133246,0.392891 -0.234085,0.770709 -0.289063,1.070312 -0.02749,0.149802 -0.04436,0.27806 -0.04687,0.386719 -0.0013,0.05433 9.94e-4,0.103799 0.0098,0.152344 0.0088,0.04855 0.01989,0.10106 0.07422,0.15625 0.15033,0.152722 0.324894,0.247441 0.509765,0.259765 0.184871,0.01233 0.365206,-0.05992 0.519532,-0.185547 0.308651,-0.251256 0.551023,-0.709984 0.740234,-1.351562 0.174213,-0.590721 0.313512,-0.916278 0.466797,-1.072266 0.153285,-0.155988 0.340043,-0.197265 0.736328,-0.197265 0.3682,0 0.57936,0.05294 0.773438,0.216796 0.194077,0.163859 0.380923,0.468535 0.615234,0.988282 0.163479,0.36263 0.349969,0.739648 0.517578,1.058594 0.167609,0.318945 0.312034,0.57352 0.417969,0.714843 0.100698,0.134336 0.221722,0.251833 0.34375,0.341797 0.122027,0.08997 0.234503,0.16211 0.384765,0.16211 0.186038,0 0.350036,-0.09888 0.451172,-0.236329 0.101136,-0.137449 0.152285,-0.309869 0.169922,-0.496093 0.03527,-0.37245 -0.06665,-0.810838 -0.330078,-1.164063 -0.304208,-0.407908 -0.444211,-0.845181 -0.4375,-1.148437 0.0034,-0.151629 0.04144,-0.266381 0.0957,-0.333985 0.05426,-0.0676 0.120438,-0.103515 0.244141,-0.103515 0.22893,0 0.415702,-0.06149 0.521484,-0.205078 0.105782,-0.14359 0.09111,-0.331244 0.01953,-0.482422 -0.143164,-0.302357 -0.50062,-0.563109 -0.978515,-0.634766 -0.231752,-0.03475 -0.52987,-0.304268 -0.847656,-0.912109 -0.317787,-0.607842 -0.650475,-1.528078 -1.001954,-2.773438 -0.05238,-0.18559 -0.199744,-0.31851 -0.373046,-0.412109 -0.173303,-0.0936 -0.381759,-0.148438 -0.59961,-0.148438 z m 95.179692,0.02344 c 0.0498,-0.003 0.13198,0.0046 0.23828,0.02539 0.14474,0.02832 0.2622,0.10338 0.38281,0.279297 0.12061,0.175918 0.23361,0.453733 0.32812,0.847657 0.18903,0.787847 0.30832,2.03475 0.38672,3.86914 0.0462,1.080777 0.0492,1.734578 -0.01,2.09961 -0.0295,0.182515 -0.0742,0.286625 -0.11719,0.341796 -0.043,0.05517 -0.0853,0.07751 -0.17383,0.0957 -0.0833,0.01711 -0.0908,0.01617 -0.13086,-0.02539 -0.0401,-0.04156 -0.10428,-0.165709 -0.1582,-0.398438 -0.10785,-0.465456 -0.1907,-1.338736 -0.29102,-2.818359 -0.0657,-0.968476 -0.14792,-1.910339 -0.22851,-2.648438 -0.0403,-0.369049 -0.0801,-0.686751 -0.11719,-0.933593 -0.0371,-0.246842 -0.0647,-0.410192 -0.10742,-0.523438 -0.0331,-0.08766 -0.0477,-0.153903 -0.0488,-0.1875 -0.001,-0.0336 0.003,-0.0222 -0.004,-0.01563 -0.007,0.0066 9.3e-4,-0.0048 0.0508,-0.0078 z m 5.22851,0.02148 c 0.17186,-7.47e-4 0.37194,0.104065 0.58203,0.369141 0.21009,0.265075 0.41679,0.682548 0.58203,1.25 0.24648,0.846423 0.56667,1.546232 0.92579,2.044922 0.35911,0.498689 0.76764,0.814453 1.21093,0.814453 0.0912,0 0.17068,0.03057 0.22071,0.06836 0.05,0.03779 0.0664,0.07404 0.0664,0.107422 0,0.0262 -0.0146,0.06315 -0.0742,0.103516 -0.0596,0.04037 -0.1581,0.07227 -0.26758,0.07227 -0.19632,0 -0.36991,0.05263 -0.49218,0.171875 -0.12228,0.119248 -0.17516,0.290394 -0.17188,0.470703 0.007,0.36062 0.20003,0.79704 0.55274,1.308594 0.38454,0.55774 0.37659,1.123027 0.23242,1.369141 -0.0721,0.123057 -0.14872,0.167762 -0.26172,0.15625 -0.113,-0.01151 -0.29024,-0.104781 -0.49219,-0.363281 -0.0684,-0.08759 -0.20572,-0.344621 -0.33984,-0.654297 -0.13412,-0.309676 -0.27487,-0.680441 -0.38672,-1.033203 -0.18682,-0.58924 -0.3208,-0.948328 -0.58984,-1.171876 -0.26905,-0.223547 -0.62111,-0.253906 -1.14649,-0.253906 -0.53413,0 -0.87676,0.01725 -1.125,0.240235 -0.24824,0.222983 -0.3257,0.57281 -0.43164,1.146484 -0.11683,0.632704 -0.35475,1.069002 -0.58984,1.253906 -0.11755,0.09245 -0.22672,0.125869 -0.33789,0.115235 -0.11118,-0.01063 -0.23574,-0.06952 -0.3711,-0.207032 -0.11589,-0.117734 -0.1484,-0.194802 -0.14453,-0.279296 0.004,-0.08449 0.0571,-0.20776 0.19531,-0.376954 0.14595,-0.178656 0.25532,-0.450991 0.34766,-0.773437 0.0923,-0.322446 0.15985,-0.689054 0.18164,-1.035156 0.0199,-0.316211 0.0838,-0.665883 0.16992,-0.964844 0.0861,-0.298961 0.20171,-0.552141 0.28516,-0.654297 0.27744,-0.339602 0.54673,-1.053909 0.66992,-1.679688 0.11177,-0.567753 0.27811,-0.984584 0.46094,-1.248046 0.18283,-0.263462 0.3672,-0.366441 0.53906,-0.367188 z m 9.07813,0.02344 c -1.25351,-0.09262 -2.9157,-0.06537 -4.58399,0.111328 -0.88576,0.09382 -1.42333,0.173653 -1.76562,0.308594 -0.17115,0.06747 -0.30332,0.154321 -0.38086,0.283203 -0.0776,0.128881 -0.0818,0.28025 -0.0547,0.421875 0.0481,0.251255 0.21468,0.457248 0.46484,0.568359 0.25017,0.111111 0.5757,0.150391 1.00782,0.150391 h 1.02929 l 0.0781,1.75 c 0.044,0.985757 0.15765,2.176627 0.25976,2.873046 l -0.0176,-0.002 0.0371,0.21875 c 0.0719,0.433996 0.15508,0.733582 0.31054,0.941407 0.15546,0.207825 0.4128,0.283753 0.66602,0.230468 0.43191,-0.09088 0.69503,-0.522086 0.64648,-0.992187 -0.0384,-0.371938 -0.17689,-1.828569 -0.30664,-3.230469 l -0.21875,-2.355469 2.33985,0.07813 c 1.00192,0.03301 1.63688,0.02957 2.04882,-0.03711 0.20598,-0.03334 0.36113,-0.07937 0.48047,-0.169922 0.11935,-0.09055 0.1836,-0.239963 0.1836,-0.376953 0,-0.154218 -0.10504,-0.270403 -0.22657,-0.349609 -0.12152,-0.07921 -0.2763,-0.139983 -0.46679,-0.19336 -0.38099,-0.106754 -0.9045,-0.182205 -1.53125,-0.228515 z m -44.95899,0.107422 c -0.22266,0.0046 -0.42683,0.0828 -0.57617,0.234374 -0.29869,0.303151 -0.38837,0.822025 -0.39258,1.589844 -0.002,0.294088 0.0126,0.523711 0.0684,0.707032 0.0279,0.09166 0.067,0.174355 0.12891,0.242187 0.0619,0.06783 0.1507,0.114429 0.24219,0.128906 0.18297,0.02895 0.35954,-0.04156 0.57031,-0.162109 0.21077,-0.120549 0.45882,-0.302874 0.76172,-0.544922 l 0.38476,-0.306641 h -0.0547 c 0.11194,-0.103089 0.25769,-0.216438 0.33594,-0.310547 0.15532,-0.186786 0.25319,-0.367734 0.25196,-0.5625 -10e-4,-0.194765 -0.1172,-0.366743 -0.28516,-0.498046 -0.16796,-0.131304 -0.3945,-0.241542 -0.68945,-0.355469 -0.2794,-0.107915 -0.52343,-0.166719 -0.7461,-0.162109 z m -64.527342,0.169921 c 0.157814,0 0.316723,0.04325 0.435547,0.107422 0.118824,0.06418 0.187943,0.147378 0.203125,0.201172 0.354843,1.25728 0.691395,2.193528 1.029297,2.839844 0.337901,0.646316 0.681965,1.030541 1.103515,1.09375 0.374579,0.05617 0.645257,0.284238 0.71875,0.439453 0.03675,0.07761 0.02841,0.110849 0.01367,0.130859 -0.01474,0.02001 -0.07709,0.06445 -0.24414,0.06445 -0.209558,0 -0.394629,0.0885 -0.511719,0.234376 -0.11709,0.145874 -0.169284,0.335674 -0.173828,0.541015 -0.0091,0.410682 0.162753,0.903215 0.505859,1.363281 0.204632,0.274388 0.290255,0.645096 0.263672,0.925782 -0.01329,0.140342 -0.05525,0.255967 -0.105469,0.324218 -0.05022,0.06825 -0.09416,0.09375 -0.171875,0.09375 0.005,0 -0.08771,-0.02594 -0.179687,-0.09375 -0.09198,-0.06781 -0.194694,-0.168389 -0.273438,-0.273437 -0.0735,-0.09806 -0.22463,-0.35386 -0.388671,-0.666016 -0.164042,-0.312156 -0.345585,-0.685495 -0.50586,-1.041015 -0.241177,-0.534979 -0.442105,-0.884052 -0.708984,-1.109375 -0.266879,-0.225324 -0.59054,-0.298829 -0.996094,-0.298829 -0.424301,0 -0.744501,0.05867 -0.982422,0.300782 -0.23792,0.242116 -0.37312,0.614382 -0.550781,1.216797 -0.178316,0.604636 -0.418194,1.01011 -0.628906,1.18164 -0.105357,0.08576 -0.19339,0.114972 -0.277344,0.109375 -0.07837,-0.0052 -0.168131,-0.05399 -0.267578,-0.148437 -0.0019,-0.0155 -0.0047,-0.03562 -0.0039,-0.06836 0.0018,-0.07853 0.01562,-0.195598 0.04102,-0.333984 0.05079,-0.276772 0.146932,-0.642708 0.275391,-1.021484 0.133822,-0.394602 0.232732,-0.788025 0.285156,-1.113282 0.02621,-0.162628 0.04038,-0.308059 0.04102,-0.43164 6.39e-4,-0.123581 0.0012,-0.221384 -0.0625,-0.326172 0.0019,0.0031 -0.01907,-0.137912 0.03711,-0.318359 0.05617,-0.180448 0.161358,-0.401999 0.300781,-0.603516 0.324061,-0.468379 0.719131,-1.40269 0.916016,-2.142578 0.124256,-0.466953 0.253581,-0.77557 0.390625,-0.949219 0.137044,-0.173649 0.263738,-0.228516 0.472656,-0.228516 z m 49.265622,0.04102 c -0.54546,-0.02944 -1.37698,-0.0022 -2.58007,0.07813 -1.66768,0.111288 -2.71204,0.235681 -3.32032,0.445312 -0.30414,0.104816 -0.51709,0.232971 -0.61523,0.439454 -0.0981,0.206482 -0.0371,0.43923 0.0937,0.654296 0.12035,0.197818 0.34905,0.298423 0.62695,0.326172 0.2779,0.02775 0.62294,-0.0082 1.05078,-0.09766 0.65745,-0.137443 2.22734,-0.288388 3.44336,-0.328125 0.61736,-0.02017 1.16895,-0.06476 1.56641,-0.119141 0.19873,-0.02719 0.35787,-0.05521 0.47656,-0.08984 0.0593,-0.01732 0.10789,-0.03469 0.1582,-0.06641 0.0252,-0.01586 0.0537,-0.034 0.0801,-0.07617 0.0264,-0.04218 0.0395,-0.121334 0.0176,-0.177735 -0.0262,-0.06726 -0.0742,-0.358371 -0.0742,-0.558594 0,-0.08185 -0.0411,-0.166072 -0.0977,-0.220703 -0.0566,-0.05463 -0.12266,-0.08867 -0.19921,-0.115234 -0.15311,-0.05312 -0.35423,-0.07903 -0.62696,-0.09375 z m -6.42187,1.617187 0.0488,0.08398 h 0.0977 z m 66.61719,-1.589843 c 0.61301,0.0453 1.12131,0.119132 1.46289,0.214843 0.17078,0.04786 0.29914,0.103496 0.37109,0.150391 0.0719,0.0469 0.0703,0.06569 0.0703,0.06055 0,0.05762 -0.003,0.06842 -0.0469,0.101562 -0.0437,0.03315 -0.14828,0.07667 -0.32617,0.105469 -0.35579,0.05759 -0.98651,0.06406 -1.98243,0.03125 l -2.73047,-0.08984 0.25391,2.74414 c 0.1298,1.40244 0.26743,2.854957 0.30664,3.234375 0.0343,0.331663 -0.12384,0.566704 -0.37305,0.619141 -0.173,0.03641 -0.22977,0.01881 -0.31835,-0.09961 -0.0886,-0.118421 -0.17957,-0.377821 -0.24805,-0.791015 -0.10212,-0.616144 -0.22675,-2.002394 -0.27344,-3.048828 l -0.0937,-2.080079 h -1.35937 c -0.40864,0 -0.69468,-0.04447 -0.86719,-0.121093 -0.17251,-0.07662 -0.23758,-0.161528 -0.26758,-0.31836 -0.0182,-0.09491 -0.009,-0.139882 0.0137,-0.177734 0.0228,-0.03785 0.0786,-0.08848 0.21094,-0.140625 0.26457,-0.1043 0.79699,-0.192075 1.67578,-0.285156 1.64802,-0.174556 3.29545,-0.199967 4.52149,-0.109375 z M 140.207,57.150523 c 0.15365,-0.0032 0.36058,0.04031 0.61524,0.138671 0.2794,0.107924 0.48356,0.210917 0.60351,0.304688 0.11995,0.09377 0.14995,0.158181 0.15039,0.228516 4.5e-4,0.07034 -0.0429,0.184702 -0.17187,0.339843 -0.129,0.155142 -0.33679,0.344285 -0.61719,0.56836 -0.29635,0.236819 -0.53473,0.409541 -0.7168,0.513672 -0.18206,0.10413 -0.30502,0.12753 -0.3457,0.121093 -0.0203,-0.0032 -0.0245,-0.0055 -0.0391,-0.02148 -0.0146,-0.01598 -0.0348,-0.05036 -0.0527,-0.109375 -0.0359,-0.118022 -0.0562,-0.324426 -0.0547,-0.603516 0.004,-0.737118 0.12083,-1.174888 0.29297,-1.349609 0.0861,-0.08736 0.18229,-0.127679 0.33594,-0.130859 z m -71.166014,0.07617 c -0.848528,-0.0071 -1.702396,0.009 -2.373047,0.05078 -0.335326,0.02088 -0.624995,0.04718 -0.847657,0.08203 -0.11133,0.01743 -0.20558,0.03714 -0.285156,0.06055 -0.07958,0.0234 -0.144756,0.04016 -0.21289,0.109375 -0.123982,0.125951 -0.110803,0.265435 -0.09961,0.419922 0.01119,0.154487 0.04994,0.329084 0.115235,0.501953 0.0828,0.219215 0.217888,0.389763 0.408203,0.466797 0.190315,0.07703 0.408819,0.05256 0.632812,-0.03906 0.05168,-0.02114 0.208889,-0.06159 0.419922,-0.09961 0.211033,-0.03802 0.481657,-0.07811 0.791016,-0.117188 0.618717,-0.07816 1.394291,-0.153049 2.171875,-0.205078 0.933778,-0.06248 1.636168,-0.142018 2.107422,-0.242187 0.235627,-0.05009 0.412462,-0.102753 0.544921,-0.173828 0.06623,-0.03554 0.124695,-0.076 0.169922,-0.140625 0.04523,-0.06462 0.06269,-0.168138 0.03516,-0.248047 -0.04425,-0.12845 -0.125854,-0.144579 -0.197266,-0.171875 -0.07141,-0.0273 -0.154605,-0.04692 -0.255859,-0.06641 -0.202509,-0.03897 -0.472159,-0.07124 -0.792969,-0.09766 -0.64162,-0.05283 -1.483504,-0.08273 -2.332031,-0.08984 z m 55.880864,0.132813 c 0.25705,0.01387 0.43707,0.04349 0.53124,0.07617 0.0446,0.01546 0.0634,0.03098 0.0684,0.03516 0.002,0.183569 0.0344,0.35995 0.0742,0.517578 -0.006,0.0021 -0.005,0.0018 -0.0117,0.0039 -0.0871,0.02542 -0.23625,0.05415 -0.42578,0.08008 -0.37905,0.05186 -0.92331,0.09537 -1.53125,0.115234 -1.23458,0.04034 -2.78877,0.186843 -3.50195,0.335938 -0.40821,0.08534 -0.72834,0.113657 -0.94727,0.0918 -0.21892,-0.02186 -0.31829,-0.08496 -0.36523,-0.162109 -0.10167,-0.167127 -0.11138,-0.256209 -0.0781,-0.326172 0.0332,-0.06996 0.15338,-0.170534 0.41796,-0.261719 0.52918,-0.182369 1.5689,-0.31503 3.22852,-0.425781 1.19781,-0.07993 2.02691,-0.107828 2.54102,-0.08008 z m 35.91015,0.179687 c -0.65263,-0.201524 -1.41055,0.221861 -2.01758,0.837891 -0.60702,0.61603 -1.08008,1.453437 -1.08007,2.244141 0,0.683403 0.13635,1.31598 0.36328,1.792968 0.22693,0.476989 0.55711,0.828126 0.97461,0.828126 0.117,0 0.23464,-0.04897 0.31835,-0.13086 0.0837,-0.08189 0.13949,-0.188379 0.17969,-0.314453 0.0804,-0.252148 0.10518,-0.592289 0.0918,-1.039063 -0.0121,-0.402512 0.0331,-0.703509 0.10351,-0.892578 0.0705,-0.189069 0.15126,-0.24349 0.19922,-0.25 0.048,-0.0065 0.14399,0.02564 0.26954,0.189454 0.12554,0.163814 0.26115,0.442604 0.37109,0.832031 0.0956,0.338482 0.18675,0.60138 0.28906,0.798828 0.10231,0.197448 0.22187,0.347929 0.4043,0.394531 0.18242,0.0466 0.35974,-0.04025 0.51562,-0.177734 0.15589,-0.137486 0.31509,-0.339224 0.5,-0.607422 0.59389,-0.861391 0.7216,-1.837553 0.44727,-2.673828 -0.27433,-0.836275 -0.95092,-1.529804 -1.92969,-1.832032 z m -91.792968,0.0332 c 0.842134,0.0071 1.676897,0.03815 2.304688,0.08984 0.313896,0.02585 0.577794,0.05715 0.757812,0.0918 0.02324,0.0045 0.03042,0.0091 0.05078,0.01367 -0.08658,0.03538 -0.183325,0.07278 -0.355469,0.109375 -0.439202,0.09336 -1.133192,0.174408 -2.058594,0.236328 -0.784314,0.05248 -1.564311,0.127808 -2.191406,0.207031 -0.313547,0.03961 -0.58851,0.07949 -0.808594,0.119141 -0.220084,0.03965 -0.377761,0.07314 -0.490234,0.119141 -0.172996,0.07076 -0.289916,0.07192 -0.371094,0.03906 -0.08118,-0.03286 -0.155544,-0.10737 -0.216797,-0.269531 -0.05383,-0.142521 -0.08553,-0.290868 -0.09375,-0.404297 -0.0082,-0.113429 0.03626,-0.187191 0.002,-0.152344 -0.02231,0.02266 0.0083,-0.003 0.06445,-0.01953 0.05619,-0.01653 0.138097,-0.03479 0.240235,-0.05078 0.204275,-0.03198 0.485466,-0.05764 0.814453,-0.07813 0.657973,-0.04098 1.509429,-0.05784 2.351562,-0.05078 z m 91.691408,0.296875 c 0.88037,0.271844 1.46334,0.878415 1.70312,1.609375 0.23978,0.73096 0.13397,1.590386 -0.40429,2.371093 -0.17749,0.257433 -0.32749,0.440774 -0.44336,0.542969 -0.11588,0.102196 -0.1711,0.109245 -0.20117,0.101563 -0.0301,-0.0077 -0.1013,-0.05993 -0.1836,-0.21875 -0.0823,-0.158817 -0.17114,-0.404643 -0.26367,-0.732422 -0.1181,-0.418349 -0.26216,-0.731226 -0.42773,-0.947266 -0.16558,-0.21604 -0.36979,-0.352393 -0.5918,-0.322265 -0.22201,0.03013 -0.38242,0.218075 -0.47656,0.470703 -0.0941,0.252627 -0.13796,0.592576 -0.125,1.02539 0.0128,0.42694 -0.018,0.739588 -0.0762,0.921875 -0.0291,0.09114 -0.0648,0.14741 -0.0918,0.173828 -0.027,0.02642 -0.0408,0.03125 -0.0762,0.03125 -0.21048,0 -0.46351,-0.213402 -0.66211,-0.630859 -0.19861,-0.417457 -0.33008,-1.007984 -0.33008,-1.644531 0,-0.647691 0.42261,-1.435818 0.98047,-2.001953 0.55786,-0.566135 1.23584,-0.884036 1.66992,-0.75 z m 15.375,0.851562 c -0.0627,0.0014 -0.14205,0.05181 -0.16992,0.101563 -0.0279,0.04975 -0.0285,0.08777 -0.0293,0.123046 -5.8e-4,0.02459 -0.0235,0.148966 -0.0606,0.285157 -0.0371,0.13619 -0.0876,0.295738 -0.14258,0.441406 -0.0776,0.205402 -0.1004,0.401151 0,0.5625 0.10041,0.161349 0.29303,0.222656 0.50391,0.222656 0.17381,0 0.33303,-0.03159 0.46289,-0.09375 0.12986,-0.06216 0.25929,-0.172646 0.25586,-0.34375 -0.003,-0.138475 -0.0558,-0.270091 -0.12305,-0.419922 -0.0672,-0.14983 -0.15254,-0.307828 -0.24023,-0.447265 -0.0877,-0.139437 -0.17165,-0.255974 -0.25781,-0.337891 -0.0431,-0.04096 -0.0737,-0.09655 -0.19922,-0.09375 z m -30.71289,0.150391 c -0.0914,0.02384 -0.16153,0.08482 -0.20899,0.154297 -0.0949,0.138948 -0.13086,0.321338 -0.13086,0.541015 0,0.219678 0.0424,0.421418 0.11915,0.582032 0.0768,0.160613 0.20369,0.308593 0.39648,0.308593 0.16321,0 0.29969,-0.09812 0.38476,-0.222656 0.0851,-0.124538 0.13086,-0.282967 0.13086,-0.453125 0,-0.340315 -0.15153,-0.69232 -0.42382,-0.863281 -0.0771,-0.04838 -0.17616,-0.07072 -0.26758,-0.04687 z m 0.0859,0.333984 c -0.009,0.0025 -0.0192,-0.0049 -0.002,0.0059 0.10473,0.06576 0.26172,0.358711 0.26172,0.570312 0,0.1058 -0.0311,0.20047 -0.0703,0.257812 -0.0392,0.05734 -0.0743,0.07227 -0.0996,0.07227 0.004,0 -0.0385,-0.014 -0.0859,-0.113281 -0.0475,-0.09928 -0.084,-0.257003 -0.084,-0.431641 0,-0.174637 0.041,-0.302769 0.0703,-0.345703 0.0147,-0.02147 0.0192,-0.0181 0.01,-0.01563 z m 30.71679,0.03125 c 0.0279,0.03879 0.0452,0.05341 0.0742,0.09961 0.0793,0.1261 0.15985,0.273 0.21875,0.404296 0.0589,0.131297 0.0912,0.256956 0.0918,0.285157 -5.5e-4,-0.02747 0.007,-0.0071 -0.0606,0.02539 -0.0679,0.0325 -0.18336,0.06055 -0.3125,0.06055 -0.15056,0 -0.1962,-0.03491 -0.21094,-0.05859 -0.0147,-0.02368 -0.0296,-0.101795 0.0293,-0.257812 0.0594,-0.157256 0.11407,-0.326804 0.1543,-0.47461 0.009,-0.03377 0.008,-0.05328 0.0156,-0.08398 z m -100.406248,0.01563 c -0.08593,-0.02343 -0.189876,-0.01095 -0.269531,0.03906 -0.312432,0.196165 -0.418434,0.565649 -0.371093,0.882812 0.02367,0.158582 0.08623,0.310622 0.193359,0.429688 0.107133,0.119065 0.266477,0.201172 0.447265,0.201172 0.201109,0 0.393479,-0.105212 0.470704,-0.28125 0.07722,-0.176039 0.06285,-0.382808 0,-0.626954 -0.05463,-0.212232 -0.139898,-0.387026 -0.257813,-0.509765 -0.05896,-0.06137 -0.126964,-0.111341 -0.212891,-0.134766 z m -0.08789,0.335938 c 0.0069,0.0025 0.02651,0.01177 0.05273,0.03906 0.05682,0.05914 0.128467,0.186841 0.171875,0.355469 0.05267,0.204607 0.04303,0.344334 0.01758,0.402344 -0.02545,0.05801 -0.04303,0.07422 -0.154297,0.07422 -0.08401,0 -0.139808,-0.02859 -0.191406,-0.08594 -0.0516,-0.05735 -0.0922,-0.148031 -0.107422,-0.25 -0.03021,-0.202407 0.04194,-0.426331 0.210938,-0.535156 z m -7.556641,0.175781 c -1.251332,0 -1.994939,0.03534 -2.417969,0.199219 -0.105757,0.04097 -0.194749,0.09154 -0.263671,0.166015 -0.06892,0.07447 -0.110468,0.177434 -0.111329,0.277344 -0.0017,0.199821 0.109963,0.369126 0.269532,0.564453 0.181138,0.22173 0.507052,0.327573 0.970703,0.410156 0.46365,0.08258 1.071756,0.123235 1.816406,0.125 0.618062,0.0015 1.236616,0.03966 1.730469,0.09766 0.246926,0.029 0.462449,0.06295 0.628906,0.09961 0.166458,0.03666 0.288944,0.08391 0.316406,0.101563 0.329771,0.211933 0.658125,0.28027 0.919922,0.146484 0.261797,-0.133786 0.390625,-0.442559 0.390625,-0.826172 0,-0.245764 -0.127405,-0.470677 -0.333984,-0.640625 -0.206579,-0.169948 -0.490646,-0.299023 -0.851563,-0.404297 -0.721833,-0.210548 -1.752677,-0.316406 -3.064453,-0.316406 z m 51.054689,0.02148 c -0.21426,0.03326 -0.38578,0.111485 -0.46289,0.265625 -0.0771,0.154141 -0.0483,0.308864 -0.0176,0.472657 0.0297,0.15831 0.0844,0.306104 0.19336,0.427734 0.10894,0.12163 0.26141,0.206748 0.46094,0.267578 0.39905,0.121661 1.00727,0.16819 2.02929,0.212891 0.6526,0.02854 1.28296,0.09241 1.76758,0.169921 0.24231,0.03876 0.44707,0.08101 0.59766,0.123047 0.15059,0.04203 0.25365,0.105416 0.24023,0.0918 0.50238,0.509871 1.32977,0.488018 1.67774,-0.08398 0.14858,-0.244245 0.17677,-0.519481 0.0508,-0.746094 -0.12599,-0.226613 -0.36844,-0.394845 -0.70313,-0.537109 -0.66937,-0.284528 -1.74545,-0.470539 -3.24609,-0.578125 -1.41764,-0.101636 -2.15937,-0.152451 -2.58789,-0.08594 z M 68.144461,60.10755 c 1.292773,0 2.300729,0.110406 2.966797,0.304687 0.333034,0.09714 0.579369,0.215537 0.730469,0.339844 0.1511,0.124308 0.207031,0.238958 0.207031,0.373047 0,0.310006 -0.09098,0.461266 -0.201172,0.517578 -0.110193,0.05631 -0.30473,0.04554 -0.576172,-0.128906 -0.109418,-0.07032 -0.246449,-0.108082 -0.429687,-0.148438 -0.183238,-0.04035 -0.407104,-0.07552 -0.662109,-0.105468 -0.510012,-0.05989 -1.140204,-0.09813 -1.771485,-0.09961 -0.731926,-0.0017 -1.324055,-0.04418 -1.755859,-0.121094 -0.431804,-0.07691 -0.696669,-0.205091 -0.763672,-0.287109 -0.140179,-0.171593 -0.191772,-0.301243 -0.191406,-0.34375 1.83e-4,-0.02125 0.0013,-0.02527 0.01953,-0.04492 0.01818,-0.01965 0.06029,-0.05123 0.134765,-0.08008 0.297919,-0.115411 1.050487,-0.175781 2.29297,-0.175781 z m 51.107419,0.01953 c 0.33495,-0.05199 1.09367,-0.01363 2.50977,0.08789 1.48317,0.106334 2.54222,0.300036 3.13672,0.552734 0.29724,0.126349 0.46924,0.268164 0.53515,0.386719 0.0659,0.118555 0.0633,0.223806 -0.043,0.398437 -0.22302,0.366618 -0.76593,0.395849 -1.13671,0.01953 -0.10296,-0.104496 -0.22202,-0.134032 -0.39258,-0.181641 -0.17056,-0.04761 -0.38581,-0.09073 -0.63672,-0.130859 -0.50183,-0.08026 -1.14359,-0.144743 -1.80859,-0.173828 -1.0165,-0.04446 -1.61646,-0.0982 -1.94141,-0.197266 -0.16248,-0.04953 -0.24965,-0.106521 -0.30469,-0.167969 -0.055,-0.06145 -0.088,-0.137693 -0.11133,-0.261719 -0.0279,-0.148598 -0.0218,-0.233764 -0.0117,-0.253906 0.0101,-0.02014 0.0376,-0.05213 0.20507,-0.07813 z m -27.816403,0.02344 c -0.314017,-0.05875 -0.728273,0.01743 -1.345703,0.185547 -0.230849,0.06286 -0.421804,0.154985 -0.556641,0.27539 -0.06742,0.0602 -0.124133,0.128137 -0.154297,0.214844 -0.03016,0.08671 -0.02241,0.198203 0.0293,0.283203 0.122436,0.201256 0.345763,0.299795 0.591797,0.355469 0.246034,0.05567 0.526035,0.06532 0.796875,0.03906 0.27084,-0.02626 0.531326,-0.08822 0.740234,-0.191406 0.104455,-0.05159 0.196845,-0.11284 0.269532,-0.195312 0.07269,-0.08247 0.125,-0.191797 0.125,-0.310547 0,-0.160826 -0.0295,-0.310357 -0.115235,-0.431641 -0.08574,-0.121284 -0.223851,-0.195236 -0.380859,-0.224609 z m -0.06445,0.339843 c 0.09665,0.01808 0.135748,0.04588 0.164062,0.08594 0.02832,0.04005 0.05078,0.111292 0.05078,0.230469 0,0.02481 -0.008,0.04677 -0.03906,0.08203 -0.03108,0.03526 -0.08574,0.07751 -0.162109,0.115234 -0.152746,0.07545 -0.382237,0.13309 -0.621094,0.15625 -0.238857,0.02316 -0.489407,0.01162 -0.6875,-0.0332 -0.193994,-0.0439 -0.319929,-0.124428 -0.365234,-0.193359 0.0049,-0.01085 0.01659,-0.03392 0.05078,-0.06445 0.07526,-0.0672 0.226796,-0.149118 0.417969,-0.201172 0.60164,-0.163819 0.998108,-0.213897 1.191406,-0.177735 z m 48.771483,0.902344 c -0.19615,-0.04812 -0.38018,-0.04664 -0.53516,0.03906 -0.15498,0.0857 -0.25238,0.244395 -0.30664,0.433593 -0.0543,0.189199 -0.0742,0.4199 -0.0742,0.703125 0,0.257245 0.0144,0.457733 0.0645,0.623047 0.05,0.165314 0.16661,0.315013 0.33398,0.34961 0.16737,0.0346 0.33009,-0.0212 0.52148,-0.117188 0.1914,-0.09599 0.41581,-0.243346 0.69141,-0.439453 l 1.03125,-0.732422 -1.05273,-0.574219 c -0.25743,-0.13996 -0.47769,-0.237039 -0.67383,-0.285156 z m -0.082,0.335938 c 0.14774,0.03624 0.34662,0.121668 0.58984,0.253906 l 0.56836,0.308594 -0.58008,0.412109 c -0.26905,0.191451 -0.48478,0.329062 -0.64648,0.410156 -0.16171,0.08109 -0.26577,0.09627 -0.29688,0.08984 -0.0311,-0.0064 -0.0435,-0.0099 -0.0742,-0.111328 -0.0307,-0.101454 -0.0488,-0.280541 -0.0488,-0.523438 0,-0.265809 0.0212,-0.470363 0.0605,-0.607421 0.0393,-0.137059 0.0874,-0.197134 0.14063,-0.226563 0.0532,-0.02943 0.13936,-0.0421 0.28711,-0.0059 z"
         id="path30" />
    </g>
  </g>
</svg>
